<svg xmlns="http://www.w3.org/2000/svg" width="28" height="24" viewBox="0 0 28 24" fill="none">
    <g clip-path="url(#clip0_4852_13216)">
        <path d="M28.0005 3.04007L27.9873 3.57382C26.758 3.60882 26.0186 4.26507 25.5461 5.33695C24.4523 7.8657 21.0267 15.8369 18.7517 21.0257H18.1567L14.5736 12.5776C13.1517 15.3601 11.5855 18.2651 10.2336 21.0257C10.2205 21.0388 9.57734 21.0257 9.57734 21.0126C7.52547 16.2132 5.37297 11.4488 3.31672 6.63632C2.81797 5.4682 1.15547 3.57382 0.00921875 3.58695C0.00921875 3.45132 -0.00390625 3.14945 -0.00390625 2.9657H7.07922V3.57382C6.23922 3.62195 4.76922 4.1557 5.18484 5.07007C6.14297 7.24445 9.71734 15.5832 10.6798 17.6963C11.3361 16.3969 13.2086 12.9188 13.9742 11.4488C13.3661 10.2107 11.4105 5.5907 10.7892 4.44882C10.3648 3.67007 9.20984 3.60007 8.34797 3.58695V2.97882L14.5823 2.99195V3.56507C13.7336 3.59132 12.9155 3.90632 13.2961 4.70695C14.123 6.45695 14.6348 7.68632 15.4005 9.28757C15.6455 8.81507 16.9186 6.25132 17.5048 4.87757C17.8942 3.97632 17.3342 3.62632 15.8161 3.59132C15.8292 3.43382 15.8161 3.1407 15.8292 2.99632C17.7717 2.9832 20.6898 2.9832 21.2148 2.97007V3.56507C20.2305 3.60007 19.2111 4.12507 18.673 4.95195L16.083 10.3244C16.363 11.0288 18.8523 16.5719 19.1105 17.1801L24.4655 4.81632C24.0892 3.8057 22.873 3.58695 22.4005 3.5782V2.97007L27.9917 3.0182L28.0005 3.04007Z" fill="#F90086"/>
    </g>
    <defs>
        <clipPath id="clip0_4852_13216">
            <rect width="28" height="22.4" fill="white" transform="translate(0 0.800049)"/>
        </clipPath>
    </defs>
</svg>