<svg width="12" height="10" viewBox="0 0 12 10" fill="none" xmlns="http://www.w3.org/2000/svg">
    <g id="Path 17523">
        <path id="Path 17525"
            d="M10.8341 7.95988L7.88106 4.99036L10.8396 1.92338C10.8916 1.86947 10.9325 1.80584 10.9599 1.73612C10.9874 1.6664 11.0008 1.59195 10.9995 1.51704C10.9982 1.44212 10.9821 1.36821 10.9522 1.29951C10.9223 1.2308 10.8792 1.16865 10.8253 1.11662C10.7714 1.06458 10.7078 1.02367 10.638 0.996224C10.5683 0.968778 10.4939 0.955319 10.419 0.956642C10.344 0.957966 10.2701 0.974054 10.2014 1.00394C10.1327 1.03384 10.0706 1.07696 10.0185 1.13087L7.07554 4.18086L4.03654 1.12486C3.9842 1.06946 3.9213 1.02512 3.85155 0.994423C3.78179 0.963722 3.70659 0.947298 3.63038 0.946114C3.55418 0.944929 3.47852 0.959008 3.40785 0.987526C3.33718 1.01604 3.27293 1.05842 3.21889 1.11216C3.16485 1.1659 3.12213 1.22991 3.09321 1.30042C3.0643 1.37094 3.04979 1.44654 3.05055 1.52274C3.05131 1.59895 3.06733 1.67423 3.09764 1.74415C3.12795 1.81407 3.17193 1.87723 3.22703 1.92988L6.28303 5.00288L3.81554 7.55985L2.29256 5.97736C2.1876 5.86829 2.0436 5.80537 1.89226 5.80247C1.74091 5.79956 1.59462 5.8569 1.48555 5.96186C1.37648 6.06682 1.31356 6.21082 1.31065 6.36216C1.30775 6.5135 1.36509 6.6598 1.47005 6.76887L3.40306 8.77836C3.45627 8.83368 3.52009 8.87768 3.59071 8.90775C3.66133 8.93782 3.73728 8.95336 3.81404 8.95338C3.89075 8.95333 3.96667 8.93785 4.03728 8.90788C4.10788 8.8779 4.17174 8.83404 4.22505 8.77888L7.08705 5.81236L10.0235 8.76536C10.0759 8.82075 10.1388 8.86512 10.2085 8.89582C10.2783 8.92652 10.3535 8.94295 10.4297 8.94413C10.5059 8.94531 10.5816 8.93124 10.6522 8.90272C10.7229 8.8742 10.7872 8.83182 10.8412 8.77808C10.8952 8.72435 10.938 8.66034 10.9669 8.58982C10.9958 8.51931 11.0103 8.44371 11.0095 8.3675C11.0088 8.29129 10.9928 8.21602 10.9624 8.1461C10.9321 8.07617 10.8882 8.01302 10.8331 7.96037L10.8341 7.95988Z"
            stroke="#2B2B2B" stroke-width="0.709" />
        <path id="Path 17526"
            d="M10.8341 7.95988L7.88106 4.99036L10.8396 1.92338C10.8916 1.86947 10.9325 1.80584 10.9599 1.73612C10.9874 1.6664 11.0008 1.59195 10.9995 1.51704C10.9982 1.44212 10.9821 1.36821 10.9522 1.29951C10.9223 1.2308 10.8792 1.16865 10.8253 1.11662C10.7714 1.06458 10.7078 1.02367 10.638 0.996224C10.5683 0.968778 10.4939 0.955319 10.419 0.956642C10.344 0.957966 10.2701 0.974054 10.2014 1.00394C10.1327 1.03384 10.0706 1.07696 10.0185 1.13087L7.07554 4.18086L4.03654 1.12486C3.9842 1.06946 3.9213 1.02512 3.85155 0.994423C3.78179 0.963722 3.70659 0.947298 3.63038 0.946114C3.55418 0.944929 3.47852 0.959008 3.40785 0.987526C3.33718 1.01604 3.27293 1.05842 3.21889 1.11216C3.16485 1.1659 3.12213 1.22991 3.09321 1.30042C3.0643 1.37094 3.04979 1.44654 3.05055 1.52274C3.05131 1.59895 3.06733 1.67423 3.09764 1.74415C3.12795 1.81407 3.17193 1.87723 3.22703 1.92988L6.28303 5.00288L3.81554 7.55985L2.29256 5.97736C2.1876 5.86829 2.0436 5.80537 1.89226 5.80247C1.74091 5.79956 1.59462 5.8569 1.48555 5.96186C1.37648 6.06682 1.31356 6.21082 1.31065 6.36216C1.30775 6.5135 1.36509 6.6598 1.47005 6.76887L3.40306 8.77836C3.45627 8.83368 3.52009 8.87768 3.59071 8.90775C3.66133 8.93782 3.73728 8.95336 3.81404 8.95338C3.89075 8.95333 3.96667 8.93785 4.03728 8.90788C4.10788 8.8779 4.17174 8.83404 4.22505 8.77888L7.08705 5.81236L10.0235 8.76536C10.0759 8.82075 10.1388 8.86512 10.2085 8.89582C10.2783 8.92652 10.3535 8.94295 10.4297 8.94413C10.5059 8.94531 10.5816 8.93124 10.6522 8.90272C10.7229 8.8742 10.7872 8.83182 10.8412 8.77808C10.8952 8.72435 10.938 8.66034 10.9669 8.58982C10.9958 8.51931 11.0103 8.44371 11.0095 8.3675C11.0088 8.29129 10.9928 8.21602 10.9624 8.1461C10.9321 8.07617 10.8882 8.01302 10.8331 7.96037L10.8341 7.95988Z"
            fill="white" />
    </g>
</svg>