<svg width="7" height="11" viewBox="0 0 7 11" fill="none" xmlns="http://www.w3.org/2000/svg">
<g id="question-solid 1" clip-path="url(#clip0_90_1515)">
<path id="Vector" d="M2.31152 3.625C2.31152 2.93555 2.87207 2.375 3.56152 2.375H4.18652C4.87598 2.375 5.43652 2.93555 5.43652 3.625V3.69531C5.43652 4.12109 5.21973 4.51758 4.8623 4.74609L4.03809 5.27539C3.5459 5.5918 3.24902 6.13672 3.24902 6.7207V6.74805C3.24902 7.09375 3.52832 7.37305 3.87402 7.37305C4.21973 7.37305 4.49902 7.09375 4.49902 6.74805V6.7207C4.49902 6.56055 4.58105 6.41211 4.71387 6.32617L5.53809 5.79688C6.25293 5.33594 6.68652 4.54492 6.68652 3.69336V3.62305C6.68652 2.24219 5.56738 1.12305 4.18652 1.12305H3.56152C2.18066 1.125 1.06152 2.24414 1.06152 3.625C1.06152 3.9707 1.34082 4.25 1.68652 4.25C2.03223 4.25 2.31152 3.9707 2.31152 3.625ZM3.87402 9.875C4.08122 9.875 4.27994 9.79269 4.42645 9.64618C4.57296 9.49966 4.65527 9.30095 4.65527 9.09375C4.65527 8.88655 4.57296 8.68784 4.42645 8.54132C4.27994 8.39481 4.08122 8.3125 3.87402 8.3125C3.66682 8.3125 3.46811 8.39481 3.3216 8.54132C3.17508 8.68784 3.09277 8.88655 3.09277 9.09375C3.09277 9.30095 3.17508 9.49966 3.3216 9.64618C3.46811 9.79269 3.66682 9.875 3.87402 9.875Z" fill="white"/>
</g>
<defs>
<clipPath id="clip0_90_1515">
<rect width="6.25" height="10" fill="white" transform="translate(0.749023 0.5)"/>
</clipPath>
</defs>
</svg>
