<svg width="17" height="16" viewBox="0 0 17 16" fill="none" xmlns="http://www.w3.org/2000/svg">
<path d="M12.3293 5.52974C12.6223 5.23677 12.6223 4.76099 12.3293 4.46802C12.0363 4.17505 11.5605 4.17505 11.2676 4.46802L8.79961 6.93833L6.3293 4.47036C6.03633 4.17739 5.56055 4.17739 5.26758 4.47036C4.97461 4.76333 4.97461 5.23911 5.26758 5.53208L7.73789 8.00005L5.26992 10.4704C4.97695 10.7633 4.97695 11.2391 5.26992 11.5321C5.56289 11.825 6.03867 11.825 6.33164 11.5321L8.79961 9.06177L11.2699 11.5297C11.5629 11.8227 12.0387 11.8227 12.3316 11.5297C12.6246 11.2368 12.6246 10.761 12.3316 10.468L9.86133 8.00005L12.3293 5.52974Z" fill="white"/>
</svg>
