<svg xmlns="http://www.w3.org/2000/svg" width="16" height="22" viewBox="0 0 16 22" fill="none">
  <path d="M14.275 6.4709C14.7958 5.93379 14.7958 5.06152 14.275 4.52441C13.7542 3.9873 12.9083 3.9873 12.3875 4.52441L7.99999 9.05332L3.60833 4.52871C3.08749 3.9916 2.24166 3.9916 1.72083 4.52871C1.19999 5.06582 1.19999 5.93809 1.72083 6.47519L6.11249 10.9998L1.72499 15.5287C1.20416 16.0658 1.20416 16.9381 1.72499 17.4752C2.24583 18.0123 3.09166 18.0123 3.61249 17.4752L7.99999 12.9463L12.3917 17.4709C12.9125 18.008 13.7583 18.008 14.2792 17.4709C14.8 16.9338 14.8 16.0615 14.2792 15.5244L9.88749 10.9998L14.275 6.4709Z" fill="#CE0E0F"/>
</svg>