<svg width="58" height="21" viewBox="0 0 58 21" fill="none" xmlns="http://www.w3.org/2000/svg">
<path d="M23.7925 10.7601C23.5125 11.2663 23.0825 11.6751 22.5025 11.9863C21.9225 12.2976 21.2025 12.4526 20.3425 12.4526H18.7525V16.2438H16.1875V5.68384H20.3425C21.1825 5.68384 21.8925 5.82884 22.4725 6.12009C23.0525 6.41134 23.4875 6.81259 23.7775 7.32384C24.0675 7.83509 24.2125 8.42134 24.2125 9.08384C24.2125 9.69509 24.0725 10.2551 23.7925 10.7613V10.7601ZM21.2425 10.0601C21.4825 9.83009 21.6025 9.50384 21.6025 9.08259C21.6025 8.66134 21.4825 8.33509 21.2425 8.10509C21.0025 7.87384 20.6375 7.75884 20.1475 7.75884H18.7525V10.4063H20.1475C20.6375 10.4063 21.0025 10.2913 21.2425 10.0601Z" fill="#5CBB58"/>
<path d="M33.1746 12.6622H27.3684C27.4084 13.1835 27.5759 13.5822 27.8709 13.8585C28.1659 14.1347 28.5284 14.2722 28.9584 14.2722C29.5984 14.2722 30.0434 14.001 30.2934 13.4597H33.0234C32.8834 14.011 32.6309 14.5072 32.2659 14.9485C31.9009 15.3897 31.4434 15.736 30.8934 15.986C30.3434 16.2372 29.7284 16.3622 29.0484 16.3622C28.2284 16.3622 27.4984 16.1872 26.8584 15.836C26.2184 15.4847 25.7184 14.9835 25.3584 14.3322C24.9984 13.681 24.8184 12.9185 24.8184 12.046C24.8184 11.1735 24.9959 10.4122 25.3509 9.75974C25.7059 9.10849 26.2034 8.60599 26.8434 8.25599C27.4834 7.90474 28.2184 7.72974 29.0484 7.72974C29.8784 7.72974 30.5784 7.90099 31.2084 8.24099C31.8384 8.58224 32.3309 9.06849 32.6859 9.69974C33.0409 10.331 33.2184 11.0685 33.2184 11.911C33.2184 12.1522 33.2034 12.4022 33.1734 12.6635L33.1746 12.6622ZM30.5946 11.2335C30.5946 10.7922 30.4446 10.441 30.1446 10.181C29.8446 9.92099 29.4696 9.78974 29.0196 9.78974C28.5696 9.78974 28.2271 9.91474 27.9321 10.166C27.6371 10.4172 27.4546 10.7735 27.3846 11.2335H30.5946Z" fill="#5CBB58"/>
<path d="M40.6001 5.68384V7.74509H37.8101V16.2438H35.2451V7.74384H32.4551V5.68384H40.6013H40.6001Z" fill="#5CBB58"/>
<path d="M48.1336 12.6622H42.3273C42.3673 13.1835 42.5348 13.5822 42.8298 13.8585C43.1248 14.1347 43.4873 14.2722 43.9173 14.2722C44.5573 14.2722 45.0023 14.001 45.2523 13.4597H47.9823C47.8423 14.011 47.5898 14.5072 47.2248 14.9485C46.8598 15.3897 46.4023 15.736 45.8523 15.986C45.3023 16.2372 44.6873 16.3622 44.0073 16.3622C43.1873 16.3622 42.4573 16.1872 41.8173 15.836C41.1773 15.4847 40.6773 14.9835 40.3173 14.3322C39.9573 13.681 39.7773 12.9185 39.7773 12.046C39.7773 11.1735 39.9548 10.4122 40.3098 9.75974C40.6648 9.10849 41.1623 8.60599 41.8023 8.25599C42.4423 7.90474 43.1773 7.72974 44.0073 7.72974C44.8373 7.72974 45.5373 7.90099 46.1673 8.24099C46.7973 8.58224 47.2898 9.06849 47.6448 9.69974C47.9998 10.331 48.1773 11.0685 48.1773 11.911C48.1773 12.1522 48.1623 12.4022 48.1323 12.6635L48.1336 12.6622ZM45.5536 11.2335C45.5536 10.7922 45.4036 10.441 45.1036 10.181C44.8036 9.92099 44.4286 9.78974 43.9786 9.78974C43.5286 9.78974 43.1861 9.91474 42.8911 10.166C42.5961 10.4172 42.4136 10.7735 42.3436 11.2335H45.5536Z" fill="#5CBB58"/>
<path d="M51.6444 14.2576H55.0044V16.2426H49.0781V5.68384H51.6431V14.2576H51.6444Z" fill="#5CBB58"/>
<path d="M12.8612 11.969C12.9899 12.2177 13.0574 12.4927 13.0574 12.774C13.0574 13.7465 12.2562 14.5377 11.2687 14.5427C11.2049 15.489 10.2587 16.2427 9.10742 16.2427C8.69617 16.2427 8.29492 16.1452 7.95117 15.964V6.08899C8.38117 5.77149 8.92367 5.59399 9.48867 5.59399C10.4537 5.59399 11.3187 6.09899 11.7074 6.88649C12.2224 7.09774 12.5524 7.56899 12.5524 8.10149C12.5524 8.26024 12.5212 8.41649 12.4637 8.56274C13.1649 8.81524 13.6587 9.54774 13.6587 10.3702C13.6587 11.0215 13.3562 11.6215 12.8612 11.969Z" fill="#FEEBE9"/>
<path d="M10.1662 10.4359C9.50997 10.4359 8.97622 9.8947 8.97622 9.23095C8.97622 8.5672 9.50997 8.02595 10.1662 8.02595C10.2662 8.02595 10.365 8.03845 10.4612 8.06345C10.535 8.0822 10.6125 8.03845 10.6312 7.96595C10.6512 7.8922 10.6062 7.8172 10.5312 7.79845C10.4125 7.7672 10.29 7.7522 10.1662 7.7522C9.35622 7.7522 8.69747 8.41595 8.69747 9.2322C8.69747 9.51595 8.77872 9.78095 8.91747 10.0059C8.88372 10.0434 8.84997 10.0834 8.82122 10.1259C8.55122 10.5147 8.59872 10.9272 8.62997 11.0859C8.64372 11.1509 8.70122 11.1959 8.76622 11.1959C8.77497 11.1959 8.78497 11.1959 8.79372 11.1934C8.86872 11.1784 8.91872 11.1059 8.90372 11.0322C8.88372 10.9347 8.83622 10.5922 9.05122 10.2809C9.06247 10.2647 9.07622 10.2497 9.08872 10.2334C9.35747 10.5272 9.74122 10.7122 10.1675 10.7122C10.245 10.7122 10.3075 10.6509 10.3075 10.5747C10.3075 10.4984 10.245 10.4372 10.1675 10.4372L10.1662 10.4359Z" fill="#039447"/>
<path d="M13.6616 10.3697C13.6616 9.5485 13.1679 8.81475 12.4666 8.5635C12.5241 8.416 12.5554 8.25975 12.5554 8.10225C12.5554 7.571 12.2254 7.09975 11.7104 6.88725C11.3216 6.101 10.4579 5.59475 9.49163 5.59475C8.81913 5.59475 8.17788 5.84725 7.72038 6.286L5.79913 5.19475C5.72163 5.151 5.62163 5.17725 5.57663 5.2535C5.53163 5.32975 5.55788 5.4285 5.63663 5.47225L7.63288 6.606V7.36475C7.21663 7.356 6.81413 7.16475 6.55038 6.8285C6.50413 6.7685 6.41538 6.75725 6.35413 6.80475C6.29288 6.851 6.28163 6.93725 6.32913 6.99725C6.64663 7.39975 7.13038 7.631 7.63163 7.641V15.691C7.63163 15.7347 7.65288 15.776 7.68913 15.8022C8.08288 16.0872 8.58788 16.2447 9.11038 16.2447C10.2629 16.2447 11.2079 15.491 11.2716 14.5447C12.2591 14.5397 13.0604 13.7485 13.0604 12.776C13.0604 12.496 12.9929 12.2197 12.8641 11.971C13.3591 11.6235 13.6616 11.0222 13.6616 10.371V10.3697ZM11.2629 14.2685C11.2629 14.2685 11.2529 14.2685 11.2466 14.2685C11.1229 13.7547 10.8516 13.316 10.4554 12.9947C10.2504 12.8297 10.0379 12.7147 9.82913 12.6335C9.77413 12.4297 9.77413 12.2235 9.83538 12.0297C9.89663 11.8322 10.0154 11.6597 10.1866 11.516C10.2454 11.4672 10.2529 11.3797 10.2029 11.3222C10.1529 11.2647 10.0654 11.2572 10.0066 11.3072C9.79788 11.4822 9.64663 11.7047 9.57038 11.9485C9.51163 12.1385 9.49663 12.3385 9.52538 12.5372C9.11663 12.4397 8.74288 12.461 8.49913 12.4985C8.42288 12.5097 8.37038 12.5797 8.38163 12.6547C8.39288 12.7297 8.46413 12.7822 8.54038 12.7697C8.79913 12.731 9.22288 12.7097 9.66663 12.8647C9.66913 12.8647 9.67038 12.866 9.67288 12.8672C9.87538 12.9385 10.0829 13.046 10.2804 13.206C10.6554 13.5085 10.8966 13.9147 10.9979 14.4122C10.9979 14.421 10.9979 14.4297 10.9979 14.4397C10.9979 15.2822 10.1516 15.9685 9.11163 15.9685C8.67288 15.9685 8.25038 15.8447 7.91288 15.6197V14.316C8.09038 14.4085 8.27913 14.4697 8.47663 14.4947C8.54788 14.5035 8.61788 14.5072 8.68538 14.5072C9.01663 14.5072 9.29538 14.4097 9.48288 14.3197C9.55163 14.286 9.58038 14.2047 9.54663 14.136C9.51288 14.0685 9.42913 14.0397 9.36038 14.0722C9.16913 14.1647 8.86538 14.2647 8.51163 14.221C8.29913 14.1947 8.09788 14.1172 7.91288 13.996V7.621C7.95163 7.61475 7.99038 7.60975 8.02913 7.60225C8.58788 7.47725 9.03788 7.0835 9.23413 6.54725C9.26038 6.476 9.22288 6.39725 9.15038 6.371C9.07788 6.346 8.99788 6.38225 8.97163 6.4535C8.80788 6.901 8.43288 7.22975 7.96788 7.3335C7.94913 7.33725 7.93163 7.3385 7.91288 7.34225V6.68725C7.94413 6.6735 7.97163 6.6535 7.98913 6.6235C8.01163 6.58475 8.01663 6.541 8.00538 6.50225C7.99913 6.47725 7.98413 6.456 7.96663 6.43725C8.36913 6.07725 8.91663 5.871 9.49288 5.871C10.3704 5.871 11.1504 6.33475 11.4816 7.05225C11.4966 7.086 11.5254 7.111 11.5591 7.1235C11.9954 7.2835 12.2766 7.6685 12.2766 8.10225C12.2766 8.27225 12.2341 8.4335 12.1516 8.5835C12.1441 8.596 12.1429 8.60975 12.1404 8.6235C12.0441 8.736 11.9379 8.8385 11.8204 8.92475C11.3904 9.24225 10.9141 9.3185 10.5904 9.3285C10.5129 9.331 10.4529 9.3935 10.4554 9.46975C10.4579 9.54475 10.5191 9.6035 10.5941 9.6035C10.5954 9.6035 10.5966 9.6035 10.5979 9.6035C10.8116 9.59725 11.0854 9.5635 11.3729 9.46475C11.3929 9.5685 11.4254 9.6685 11.4741 9.7635C11.5841 9.981 11.7604 10.1597 11.9866 10.281C12.0079 10.2922 12.0304 10.2972 12.0529 10.2972C12.1016 10.2972 12.1504 10.271 12.1754 10.226C12.2129 10.1597 12.1879 10.076 12.1191 10.0397C11.9416 9.94475 11.8079 9.80975 11.7229 9.641C11.6779 9.551 11.6491 9.45475 11.6354 9.356C11.7529 9.2985 11.8704 9.22975 11.9866 9.14475C12.1166 9.0485 12.2341 8.936 12.3416 8.81225C12.9504 9.01475 13.3829 9.651 13.3829 10.3697C13.3829 10.936 13.1191 11.4535 12.6916 11.7497C12.5566 11.6472 12.4129 11.561 12.2591 11.4947C11.8479 11.3172 11.4641 11.3072 11.2141 11.331C11.1379 11.3385 11.0804 11.4047 11.0879 11.481C11.0954 11.556 11.1629 11.611 11.2404 11.6047C11.4579 11.5847 11.7916 11.5935 12.1479 11.7472C12.2966 11.811 12.4354 11.8972 12.5629 11.9997C12.7066 12.2335 12.7829 12.501 12.7829 12.7747C12.7829 13.5985 12.1016 14.2685 11.2654 14.2685H11.2629Z" fill="#039447"/>
<path d="M7.955 6.42371V15.9437C7.77625 16.0287 7.575 16.0762 7.3625 16.0762C6.73625 16.0762 6.20625 15.6612 6.0325 15.09C5.88125 15.1437 5.71875 15.1725 5.54875 15.1725C4.7375 15.1725 4.08125 14.5137 4.08125 13.7C4.08125 13.435 4.15125 13.1862 4.27375 12.9725C4.15625 13.0025 4.03375 13.0187 3.9075 13.0187C3.09625 13.0187 2.44 12.36 2.44 11.5462C2.44 11.3087 2.49625 11.085 2.59625 10.8862C2.235 10.6175 2 10.1875 2 9.70246C2 8.93996 2.57875 8.31246 3.31875 8.23746C3.29 8.12121 3.27375 7.99996 3.27375 7.87496C3.27375 7.06246 3.93125 6.40246 4.74125 6.40246C5.07 6.40246 5.37375 6.51121 5.61875 6.69371C5.8725 6.25496 6.34625 5.95996 6.88875 5.95996C7.31 5.95996 7.68875 6.13746 7.95625 6.42121L7.955 6.42371Z" fill="#F0526B"/>
<path d="M3.27576 4.13619C3.25701 4.16744 3.25451 4.20744 3.26951 4.23994C3.30951 4.33244 4.27076 6.51619 5.41701 7.20119C6.79576 8.02494 7.86826 6.93369 7.87826 6.92244C7.89201 6.90869 7.90076 6.89119 7.90576 6.87244C7.90826 6.86369 8.02826 6.37244 7.87951 5.79869C7.77576 5.39744 7.53951 4.95619 7.04076 4.61244C7.00826 4.58994 6.96701 4.58744 6.93201 4.60494L6.10076 5.03119L6.09576 4.31494C6.09576 4.26119 6.05826 4.21494 6.00701 4.20494C4.89701 3.98744 3.42326 4.07619 3.36076 4.08119C3.32451 4.08369 3.29326 4.10369 3.27451 4.13494L3.27576 4.13619Z" fill="#039447"/>
<path d="M3.44568 3.79242C3.42693 3.82367 3.42443 3.86367 3.43943 3.89617C3.47943 3.98867 4.44068 6.17242 5.58693 6.85742C6.96568 7.68117 8.03818 6.58992 8.04818 6.57867C8.06193 6.56492 8.07068 6.54742 8.07568 6.52867C8.07818 6.51992 8.19818 6.02867 8.04943 5.45492C7.94568 5.05367 7.70943 4.61242 7.21068 4.26867C7.17818 4.24617 7.13693 4.24367 7.10193 4.26117L6.27068 4.68742L6.26568 3.97117C6.26568 3.91742 6.22818 3.87117 6.17693 3.86117C5.06693 3.64367 3.59318 3.73367 3.53193 3.73742C3.49568 3.73992 3.46443 3.75992 3.44568 3.79117V3.79242Z" fill="#5CBB58"/>
</svg>
