<svg width="222" height="35" viewBox="0 0 222 35" fill="none" xmlns="http://www.w3.org/2000/svg">
<g clip-path="url(#clip0_1039_26544)">
<path d="M221.544 0.99585H217.823V34.0408H221.544V0.99585Z" fill="#584096"/>
<path d="M27.3804 8.35672L26.4661 9.87833L26.6362 10.0418L28.1879 9.23431C28.3414 9.15089 28.4482 9.00073 28.4682 8.82722L28.5716 8.01636L27.8375 8.05306C27.644 8.06307 27.4671 8.17986 27.3804 8.35672Z" fill="white"/>
<path d="M27.4342 6.8786C27.6011 6.70508 27.6444 6.45148 27.5443 6.23459L27.3541 5.66064L26.6567 6.01769C26.4732 6.10111 26.3497 6.27129 26.323 6.46817L25.9426 8.21001L26.1896 8.33014L27.4309 6.8786H27.4342Z" fill="white"/>
<path d="M34.6249 15.578L33.6639 14.974C33.4236 14.8239 33.1333 14.7838 32.863 14.8673L31.4982 15.291V15.5446L33.2267 16.1386C33.5437 16.2487 33.9041 16.182 34.1611 15.9651L34.6215 15.578H34.6249Z" fill="white"/>
<path d="M23.2162 12.7348C23.1128 12.8516 23.0627 13.0085 23.0761 13.162L23.1629 14.3098L23.4098 14.3265L24.1406 13.3922C24.284 13.2087 24.3041 12.9617 24.1939 12.7582L23.917 12.0508L23.2196 12.7348H23.2162Z" fill="white"/>
<path d="M22.7125 9.7451C22.6325 9.88525 22.6191 10.0488 22.6792 10.1989L23.1864 11.5904L23.43 11.5837L23.8971 10.2289C23.9539 10.0621 23.9305 9.94198 23.7937 9.71841L23.2765 8.93091L22.7125 9.74177V9.7451Z" fill="white"/>
<path d="M22.9359 7.30904C23.1161 7.21895 23.2128 6.93198 23.2495 6.74512L23.4331 5.79077L22.6222 5.83749C22.412 5.85084 22.2184 5.95761 22.1016 6.12112L21.1907 7.69612L21.4142 7.96641L22.9392 7.30571H22.9359V7.30904Z" fill="white"/>
<path d="M29.6198 6.91864C29.8301 6.83522 29.9702 6.68173 30.047 6.45816L30.344 5.66732L29.3696 5.66064C29.176 5.66064 28.9925 5.75408 28.8857 5.91425L28.0115 7.24899L28.2217 7.46923L29.6232 6.91864H29.6198Z" fill="white"/>
<path d="M33.797 8.20032C33.5734 8.217 33.3766 8.36049 33.2965 8.57071L32.529 10.0957L32.7292 10.2825L34.3409 9.40493C34.5445 9.31149 34.6779 9.10795 34.6813 8.88438L34.5945 8.20032H33.7937H33.797Z" fill="white"/>
<path d="M34.7715 11.6705L34.9884 10.8229L34.0941 10.5426C33.9206 10.4892 33.7337 10.5293 33.5902 10.6494L32.092 11.9408L32.1821 12.1944L34.2643 12.0976C34.5012 12.0876 34.7114 11.9107 34.7715 11.6671V11.6705Z" fill="white"/>
<path d="M29.9133 8.31012L32.219 6.8786C32.3826 6.75847 32.4727 6.56494 32.456 6.36139L32.3992 5.66064L31.3715 5.93093C31.198 5.97765 31.0845 6.10778 30.9811 6.27129L29.7097 8.14995L29.9133 8.31012Z" fill="white"/>
<path d="M25.5253 7.2625C25.6354 7.10233 25.6554 6.90212 25.5854 6.72193L25.0414 5.65747L24.2473 6.22807C24.1271 6.31817 24.1004 6.61515 24.0871 6.792V6.83205L23.9236 8.72739L24.2673 8.85085L25.5253 7.26584V7.2625Z" fill="white"/>
<path d="M13.7763 7.99324L12.912 7.55945L12.872 8.54716C12.8553 8.75738 12.9321 8.98095 13.189 9.22788L14.1767 10.2323L14.4303 10.0654L14.0599 8.37031C14.0165 8.20013 13.9732 8.07666 13.7763 7.9899V7.99324Z" fill="white"/>
<path d="M22.2618 9.09447L22.1717 8.32031L21.2274 8.69738C20.9704 8.77079 20.9204 9.06777 20.7836 9.36141L20.2463 10.5193L20.4799 10.6795L21.9582 9.98541C22.2151 9.81523 22.3219 9.68509 22.2618 9.09447Z" fill="white"/>
<path d="M17.8707 9.5546L18.1009 9.51456L18.1843 8.52685C18.2144 8.28993 18.0909 8.05635 17.8773 7.94289L17.3634 7.67261L17.1499 8.23987C17.1098 8.38336 17.1265 8.53352 17.1966 8.66699L17.874 9.55794L17.8707 9.5546Z" fill="white"/>
<path d="M13.0656 6.78517L14.5672 7.70614L14.7941 7.52595L14.3603 6.24126C14.2936 6.04438 14.1234 5.89756 13.9199 5.85752L12.9088 5.66064L12.802 6.17118C12.7519 6.41144 12.8587 6.65837 13.069 6.78517H13.0656Z" fill="white"/>
<path d="M15.184 8.9708L16.2451 9.9485L16.432 9.76497L16.145 8.43022C16.1083 8.25337 15.9782 8.10989 15.8013 8.05316L15.1073 7.8396L14.9805 8.4736C14.9438 8.66381 15.0205 8.85734 15.184 8.96746V8.9708Z" fill="white"/>
<path d="M18.4781 7.80625L18.7184 7.74952L18.9086 6.43813C18.9086 6.2813 18.8285 6.13114 18.6817 6.03771L18.0877 5.66064L17.6305 6.28464C17.5171 6.43813 17.5137 6.64168 17.6305 6.79852L18.4848 7.80625H18.4814H18.4781Z" fill="white"/>
<path d="M20.97 6.88527C21.1269 6.82187 21.2236 6.68506 21.2303 6.52489L21.1802 5.66064L20.2292 5.71403C20.0858 5.7474 19.9723 5.84417 19.9256 5.97431L19.425 7.3491L19.6653 7.55598L20.9667 6.88194L20.97 6.88527Z" fill="white"/>
<path d="M19.899 11.5936C19.8256 11.6403 19.7522 11.697 19.7021 11.7437L19.1315 12.2943L19.1716 12.4945L20.1092 12.5413C20.3161 12.5346 20.4463 12.3944 20.5631 12.2142L20.8333 11.6169L20.2194 11.5269C20.1059 11.5102 19.9924 11.5335 19.8957 11.5936H19.899Z" fill="white"/>
<path d="M18.718 10.0051L20.0094 9.33109C20.223 9.23432 20.3431 9.02076 20.3131 8.79051L20.213 7.98633L19.3454 8.32001C19.1952 8.37674 19.0818 8.49353 19.035 8.63702L18.4978 9.82828L18.7147 10.0085L18.718 10.0051Z" fill="white"/>
<path d="M15.361 6.6285L16.5422 7.70297L16.8059 7.59953L16.669 6.26144C16.6457 6.04455 16.4688 5.86436 16.2219 5.81097L15.688 5.65747L15.2575 6.04455C15.1441 6.23809 15.1841 6.47167 15.3577 6.6285H15.361Z" fill="white"/>
<path d="M28.7017 9.4779L27.8909 10.9828L28.0877 11.1397L29.5426 10.3455C29.6961 10.2454 29.7929 10.0819 29.8029 9.90836L29.8596 9.03076L29.1389 9.16424C28.952 9.1976 28.7885 9.31773 28.7051 9.4779H28.7017Z" fill="white"/>
<path d="M32.2964 8.7373L31.302 8.95086C31.1519 8.96421 31.005 9.09435 30.8616 9.34461L30.0173 10.8062L30.2009 11.0097L31.7492 10.3423C32.0161 10.2289 32.183 9.94859 32.1997 9.59822L32.2964 8.74064V8.7373Z" fill="white"/>
<path d="M29.3258 13.6325L31.1044 12.8283C31.2946 12.7416 31.4247 12.5614 31.4447 12.3545L31.5081 11.6971L30.5137 11.7539C30.3302 11.7639 30.16 11.864 30.0566 12.0175L29.1423 13.419L29.3258 13.6325Z" fill="white"/>
<path d="M32.9032 14.123L33.5171 13.4222L32.426 12.9717C32.2224 12.8883 31.9855 12.9183 31.8187 13.0485L30.3571 14.1864L30.4539 14.4133L32.486 14.3198C32.6496 14.3132 32.7997 14.2397 32.9032 14.123Z" fill="white"/>
<path d="M29.2927 15.2843C29.1825 15.3277 29.0891 15.4044 29.0224 15.5045L28.2849 16.8226L28.4584 17.0361L30.2437 16.3321C30.4839 16.2353 30.6307 15.9984 30.6107 15.7414L30.5406 14.9072L29.296 15.281L29.2927 15.2843Z" fill="white"/>
<path d="M32.4422 7.9866L34.4309 7.05895C34.6278 6.96886 34.7513 6.7553 34.7513 6.51504L34.7446 5.65747L33.7369 5.76759C33.6134 5.80763 33.5033 5.89772 33.4365 6.02786L32.302 7.7964L32.4488 7.9866H32.4422Z" fill="white"/>
<path d="M36.3903 7.49258C36.764 7.33909 37.1043 7.17224 37.1377 6.81854C37.1644 6.55159 37.1811 5.79078 37.1844 5.66064L36.2034 5.78745C35.9498 5.79412 35.7329 5.95763 35.6561 6.19788L34.9988 7.78289L35.2123 7.97977L36.3903 7.49592V7.49258Z" fill="white"/>
<path d="M33.3868 20.4163C33.2499 20.2861 33.0531 20.2294 32.8595 20.2661L31.0576 20.6131L31.0276 20.8701L32.9129 21.6743C33.0965 21.7543 33.3067 21.7377 33.4769 21.6309L34.1976 21.1771L33.3901 20.4196H33.3868V20.4163Z" fill="white"/>
<path d="M26.0253 10.0055L26.0587 8.96436L25.1944 9.2313C25.0042 9.28803 24.8607 9.43485 24.8073 9.62172L24.3035 11.4303L24.4903 11.5604L25.7917 10.5293C25.9586 10.4092 26.0253 10.3225 26.0286 10.0021L26.0253 10.0055Z" fill="white"/>
<path d="M26.6297 12.4045C26.8199 12.301 26.94 12.1042 26.9367 11.8873L26.9967 11.1565L26.1425 11.2666C25.9022 11.28 25.6987 11.4368 25.6219 11.667L25.1414 12.9117L25.3483 13.0852L26.6263 12.4011L26.6297 12.4045Z" fill="white"/>
<path d="M32.3088 19.7688C32.5491 19.8422 32.8094 19.7622 32.9595 19.5686L33.4701 18.9079L32.459 18.4408C32.3188 18.3774 32.1553 18.3673 32.0085 18.4207L30.5203 18.9413V19.2116L32.3088 19.7688Z" fill="white"/>
<path d="M32.6166 23.5897L33.4775 23.4729L33.2106 22.8289C33.0771 22.5052 32.7935 22.2716 32.4498 22.2015L30.6612 21.8345L30.5311 22.0781L31.729 23.2893C31.9592 23.5229 32.2929 23.6364 32.6166 23.593V23.5897Z" fill="white"/>
<path d="M32.376 25.7952L33.5839 25.6818L33.4905 24.9143C33.4604 24.6707 33.2769 24.4738 33.0333 24.4238L30.7809 23.95L30.6375 24.1869L31.8788 25.5984C32.0022 25.7385 32.1858 25.8119 32.376 25.7952Z" fill="white"/>
<path d="M26.7131 13.3053L26.8165 13.4822L28.3648 13.2119C28.5717 13.1752 28.7452 13.0284 28.8153 12.8348L29.2257 11.717L28.3381 11.6936C28.1546 11.6936 27.9811 11.767 27.8643 11.9105L26.7097 13.3053H26.7131Z" fill="white"/>
<path d="M31.9717 17.6636L32.5656 16.6992L31.4244 16.549C31.2709 16.529 31.1141 16.5657 30.9906 16.6525L29.489 17.5167L29.5591 17.7637L31.4044 17.9372C31.6313 17.9572 31.8549 17.8504 31.9717 17.6636Z" fill="white"/>
<path d="M28.0681 15.204C28.285 15.224 28.4017 15.1339 28.612 14.937L29.2159 14.2863L28.1949 13.9493C27.8044 13.8425 27.6409 13.8959 27.4441 14.0361L26.3929 14.7869L26.4664 15.0571L28.0714 15.204H28.0681Z" fill="white"/>
<path d="M29.4129 21.4642C29.6264 21.5076 29.85 21.4342 29.9768 21.2707L30.4607 20.6634L29.82 20.353C29.6798 20.2863 29.5163 20.273 29.3695 20.323L27.948 20.8436L27.968 21.0805L29.4129 21.4642Z" fill="white"/>
<path d="M26.8103 17.7501L26.49 19.1016L26.6802 19.2651L27.6946 18.3341C27.9215 18.0605 28.035 17.9837 28.0116 17.7368L27.9449 17.0527C27.9449 17.0527 27.4043 17.2363 27.2208 17.313C27.0239 17.3964 26.8938 17.4265 26.8103 17.7468V17.7501Z" fill="white"/>
<path d="M29.1724 19.5789C29.4393 19.5155 29.6162 19.2653 29.5862 18.995L29.5161 18.371L28.6318 18.4911C28.515 18.5078 28.4016 18.5612 28.3182 18.6446L27.1569 19.9226L27.2904 20.1529L29.1724 19.5789Z" fill="white"/>
<path d="M35.7895 13.7527L34.2045 14.3566V14.6303L35.9597 15.2976C36.1866 15.3844 36.4469 15.3177 36.607 15.1341L37.1876 14.4668L36.3501 13.8328C36.1899 13.7093 35.9797 13.6793 35.7895 13.7527Z" fill="white"/>
<path d="M26.0792 20.9103L25.3284 21.6277L25.4452 21.898L26.5897 21.8346C26.8433 21.8212 27.1169 21.651 27.197 21.4108L27.4406 20.8001L26.4829 20.7434C26.3328 20.7501 26.1859 20.8101 26.0792 20.9136V20.9103Z" fill="white"/>
<path d="M29.376 23.2726L30.2669 22.9255L29.723 22.3216C29.5995 22.1848 29.4027 22.1047 29.1991 22.108L27.6008 22.1414L27.5173 22.3649L28.7219 23.1958C28.9088 23.3226 29.1658 23.3527 29.376 23.2726Z" fill="white"/>
<path d="M26.176 22.4619L24.8246 22.4419L24.7278 22.6154L25.7689 23.3695C25.9291 23.4963 26.1493 23.5497 26.3595 23.5097L27.1937 23.3595L26.7332 22.7322C26.6098 22.5654 26.4029 22.4653 26.176 22.4586V22.4619Z" fill="white"/>
<path d="M5.42347 28.1512C5.3267 28.2213 5.25329 28.318 5.20991 28.4315L4.87622 29.3425L6.548 28.942C6.74821 28.8953 6.91172 28.7485 6.97845 28.5516L7.5257 26.9699L7.2087 26.8531L5.42347 28.1512Z" fill="white"/>
<path d="M29.9764 24.6041C29.9164 24.4039 29.7495 24.2537 29.546 24.207L27.6974 23.7932L27.5505 24.0301L28.7718 25.5451C28.912 25.7186 29.1322 25.7953 29.3491 25.7486L30.2668 25.5484L29.9764 24.6041Z" fill="white"/>
<path d="M26.0993 19.8992V19.4254L25.472 19.4788C25.2083 19.5088 25.0415 19.5622 24.9781 19.9192L24.7312 21.0971L24.0104 21.8813L21.1574 21.868C20.8571 21.868 20.6935 21.5109 20.8938 21.284L22.2919 19.6857L22.0517 19.4788L18.1375 23.7299L17.8972 23.5164L18.4645 22.859C18.5212 22.7956 18.5546 22.6922 18.5179 22.6188L18.1375 21.7779L19.9227 17.6301C20.0696 17.2864 20.4066 17.0629 20.7803 17.0629H22.0216L22.6123 16.4289C23.1361 15.9083 23.3597 15.7849 23.8969 15.7882H24.8747L25.7022 16.4222C25.8791 16.5557 26.0459 16.539 26.3128 16.4756L27.0436 16.232L26.4563 15.6848C26.1794 15.4412 26.0893 15.4845 25.8824 15.4845L24.6044 15.4779H23.4899L24.0438 14.8706L25.0615 14.7471C25.2651 14.7171 25.3819 14.5836 25.512 14.3867L25.9558 13.6292H25.155C24.9047 13.6159 24.7612 13.6526 24.6244 13.7961L22.8759 15.7081C22.7224 15.8683 22.422 15.915 22.1985 15.9117L19.8693 15.9016L19.1619 16.6524L18.9283 16.4522L19.4923 15.7982C19.5957 15.6881 19.6424 15.5346 19.6124 15.3878L19.4022 13.3256C19.4022 13.3256 18.6814 12.9118 18.6581 12.4847C18.6113 12.1543 18.7415 11.8207 19.0051 11.6104L19.3588 11.3301C19.5857 11.18 19.6625 11.0632 19.6858 10.6427L19.7292 9.9954L18.7648 10.4058C18.628 10.4726 18.4712 10.6895 18.4678 10.843L18.4578 11.6471L18.1442 12.1944L17.7604 11.7472V11.3769L17.944 10.6294C17.9974 10.3958 17.8472 10.1923 17.687 10.0655L17.013 9.57495L16.7227 10.2323C16.6759 10.4092 16.7093 10.606 16.8161 10.7529L17.3834 11.4069L17.37 14.7104L15.7349 13.7394C15.498 13.5925 15.3245 13.369 15.2878 13.092V12.458L15.2945 11.4369C15.2945 11.0599 15.3112 11.0298 15.0876 10.8196L14.6972 10.5126L14.3668 11.0899C14.2801 11.2434 14.2334 11.4269 14.3301 11.5938L14.9575 12.4714L14.814 13.1254L13.319 11.7506C13.1922 11.6238 13.002 11.5771 12.8252 11.6305L12.0978 11.9274L12.3914 12.4113C12.5315 12.6415 12.6116 12.6549 12.8352 12.7116L13.9998 12.8417L16.2722 15.8382C16.5758 16.2053 16.6493 16.6458 16.4457 17.0462L15.8784 18.2108L15.6982 18.5511L12.2045 16.3822C11.9476 16.222 11.8909 16.1819 11.6239 16.1953L11.0233 16.2487L11.2602 16.8627C11.3603 17.0796 11.5805 17.3065 11.8208 17.3031L12.9687 17.3098L13.8129 17.817V17.9605H12.5549H11.4571C11.2235 17.9605 11.0133 18.0973 10.9198 18.3109L10.5194 19.2118L11.2635 19.2385C11.4137 19.2452 11.5605 19.1918 11.674 19.0917L12.5683 18.3009L12.992 18.2942C13.2924 18.2942 13.4425 18.2675 13.5927 18.5077L14.3768 19.6256C14.6772 20.0694 14.7439 20.2663 14.6438 20.5499L14.1866 21.5543L13.3524 23.2161L13.2823 27.7475L12.1645 28.9588V29.3425H21.0239L21.3809 28.9688L20.0729 26.0757L20.9238 23.3328C21.0206 23.0292 21.3042 22.8223 21.6212 22.8256L23.6467 22.8323L25.8423 20.4398C26.0893 20.1628 26.0993 20.1261 26.0926 19.9025H26.0993V19.8992Z" fill="white"/>
<path d="M9.45499 19.4822L7.92003 20.2797C7.74318 20.3731 7.62972 20.5533 7.62638 20.7535L7.61304 21.6645L8.79096 21.2741C8.93444 21.2274 9.05457 21.1172 9.11463 20.9804L9.69859 19.659L9.45166 19.4822H9.45499Z" fill="white"/>
<path d="M8.64372 22.3749L8.32337 22.4016L7.53587 24.4938C7.4658 24.6774 7.48582 24.8842 7.59594 25.0477L7.98635 25.952L8.84393 24.7941C9.01411 24.624 9.0675 24.3704 8.98074 24.1468L8.64038 22.3716H8.64372V22.3749Z" fill="white"/>
<path d="M10.4925 20.1362L9.42474 21.5677C9.29126 21.7212 9.24455 21.9347 9.30127 22.1316L9.49815 22.8157L10.5226 22.1716C10.6994 22.0615 10.8062 21.8646 10.8062 21.6544L10.7762 20.1595L10.4925 20.1328V20.1362Z" fill="white"/>
<path d="M29.9566 26.3027L29.7097 26.4228L29.9166 28.2881C29.9366 28.4549 30.0301 28.5984 30.1802 28.6818L31.3515 29.3359L31.565 28.1379C31.5951 27.9644 31.5383 27.7909 31.4115 27.6708L29.9566 26.2993V26.3027Z" fill="white"/>
<path d="M36.1395 18.1974L33.7837 18.1406L33.6936 18.4042L35.5723 19.6255C35.7825 19.7824 36.0728 19.7824 36.2797 19.6255L37.184 19.0483L36.5466 18.3809C36.4399 18.2674 36.2964 18.204 36.1395 18.2007V18.1974Z" fill="white"/>
<path d="M35.8594 11.5068L34.4246 12.9783L34.5447 13.2453L36.6569 13.005C36.9539 12.9716 37.1808 12.708 37.1808 12.3977V11.4967L36.3766 11.3433C36.1898 11.3065 35.9962 11.3699 35.8594 11.5101V11.5068Z" fill="white"/>
<path d="M35.459 16.1818C35.439 16.1918 35.4189 16.2018 35.3956 16.2085L33.5803 17.0127L33.6204 17.2796L35.9128 17.5332C35.9595 17.5399 35.9996 17.5433 36.0396 17.5499C36.2832 17.5866 36.4167 17.6067 36.8037 17.1996L37.1841 16.8292L36.4867 16.352C35.8995 15.9816 35.7793 16.035 35.459 16.1785V16.1818Z" fill="white"/>
<path d="M35.9832 8.76735L34.7385 9.84849L34.8186 10.1088L35.853 10.2356C35.9064 10.2356 35.9632 10.2422 36.0199 10.2489C36.3436 10.2756 36.6773 10.3023 36.8708 10.0854C36.9175 10.0354 36.9509 9.96862 36.9742 9.8852L37.1811 9.05766L36.6339 8.73064C36.427 8.60718 36.17 8.62386 35.9798 8.77069H35.9832V8.76735Z" fill="white"/>
<path d="M36.9306 27.7239L34.7216 26.3191L34.5081 26.4826L35.2822 28.6382C35.3389 28.8251 35.4924 28.9686 35.6826 29.0153L37.1842 29.3423L37.1909 28.1277C37.1709 27.9608 37.0775 27.814 36.934 27.7239H36.9306Z" fill="white"/>
<path d="M33.981 27.9144L32.0356 26.3293L31.8054 26.5029L32.5962 28.832C32.6763 29.0189 32.8531 29.1523 33.0534 29.179L34.2546 29.3392L34.1946 28.3315C34.1846 28.168 34.1078 28.0178 33.981 27.9144Z" fill="white"/>
<path d="M36.5173 24.8579L34.2983 24.1638L34.1448 24.4007L35.7198 26.186C35.8432 26.3261 36.0301 26.3995 36.2203 26.3795L37.188 26.2761L36.9077 25.2616C36.8543 25.0714 36.7108 24.9213 36.5206 24.8612H36.5173V24.8579Z" fill="white"/>
<path d="M36.1963 20.2561L34.4378 20.2661L34.3344 20.5231L35.7725 21.7177C35.8893 21.8144 36.0362 21.8611 36.1863 21.8478L37.184 21.5975L36.5767 20.4463C36.48 20.3395 36.3431 20.2728 36.1963 20.2594V20.2561Z" fill="white"/>
<path d="M36.8008 23.1592C36.7074 22.8989 36.674 22.8088 36.4871 22.7287L34.0645 22.2549L33.9377 22.5018L35.5228 23.9233C35.6062 24.0034 35.713 24.0568 35.8298 24.0768L37.1879 24.1769L36.8442 23.266C36.8308 23.2259 36.8175 23.1892 36.8041 23.1558L36.8008 23.1592Z" fill="white"/>
<path d="M8.5842 7.15564L10.4061 8.08996L10.583 7.88641L9.52854 5.99108C9.40841 5.80755 9.3083 5.79754 9.01132 5.76417C8.97462 5.76083 8.93457 5.75416 8.89119 5.75082L7.96021 5.66406L8.31058 6.88869C8.3673 7.00548 8.46741 7.10225 8.58754 7.15898H8.5842V7.15564Z" fill="white"/>
<path d="M9.81852 10.3591L8.89087 10.6861L9.5449 11.5103C9.66503 11.6605 9.85189 11.7439 10.0421 11.7305L11.5237 11.6238L11.6004 11.3568L10.3558 10.4392C10.1989 10.3257 9.99871 10.2957 9.81518 10.3591H9.81852Z" fill="white"/>
<path d="M4.87622 26.3627L4.92961 27.3304L6.32442 26.6296C6.4846 26.5496 6.60139 26.3994 6.64143 26.2259L6.96844 24.7977L6.69482 24.6008L5.10647 25.8588C4.95297 25.9823 4.86621 26.1692 4.87956 26.366L4.87622 26.3627Z" fill="white"/>
<path d="M11.44 14.7737L10.0853 13.9028C9.92509 13.8127 9.73155 13.816 9.57138 13.9128L8.7038 14.43L9.45793 15.0373C9.56805 15.1274 9.70486 15.1675 9.84501 15.1475L11.4167 15.004L11.44 14.7704V14.7737Z" fill="white"/>
<path d="M11.6707 12.7216L10.0156 12.1243C9.82203 12.0408 9.71191 12.0809 9.42828 12.1943L8.81763 12.4813L9.33484 13.0719C9.45831 13.2555 9.68188 13.3522 9.90211 13.3222L11.634 12.9985L11.6707 12.7182V12.7216Z" fill="white"/>
<path d="M12.6781 15.0841L11.9606 15.0908L12.1575 15.6714C12.2009 15.8015 12.2743 15.8583 12.4211 15.9617L13.4722 16.6224L13.599 16.4722L13.1219 15.3511C13.0351 15.1876 12.8649 15.0841 12.6814 15.0841H12.6781Z" fill="white"/>
<path d="M10.8164 7.02876L11.9209 8.22002L12.1478 8.07987L11.8775 6.14115C11.8208 5.87087 11.5839 5.67399 11.3136 5.67066L10.6462 5.66064L10.6529 6.625C10.6529 6.77516 10.713 6.91864 10.8164 7.0321V7.02876Z" fill="white"/>
<path d="M8.29731 17.897L7.70001 18.7579L8.65436 19.0749C8.85791 19.1416 9.08148 19.0982 9.24499 18.9548L10.5297 17.8269L10.4196 17.5099L8.74445 17.6367C8.56426 17.65 8.39742 17.7468 8.29398 17.8936L8.29731 17.897Z" fill="white"/>
<path d="M13.7726 13.4391L12.6747 13.2422C12.4378 13.1989 12.2009 13.3056 12.0741 13.5092L11.697 14.1232L12.4912 14.3334C12.648 14.3734 12.8149 14.3467 12.9517 14.26L13.876 13.6727L13.7692 13.4391H13.7726Z" fill="white"/>
<path d="M10.6461 15.7847L9.09116 15.6045C8.9043 15.5811 8.7141 15.6579 8.59063 15.8014L7.92993 16.5622L8.89429 16.9926C9.07782 17.0727 9.28804 17.0527 9.45155 16.9392L10.6395 16.1184L10.6461 15.7813V15.7847Z" fill="white"/>
<path d="M9.01082 8.2702L8.15991 8.4871L8.31341 9.09107C8.3668 9.30463 8.54032 9.47815 8.75388 9.53154L10.6425 9.92862L10.7627 9.70172L9.57141 8.44038C9.42459 8.28355 9.20769 8.22015 9.00748 8.2702H9.01082Z" fill="white"/>
<path d="M6.09123 19.1917L7.51608 17.4532L7.28583 17.2596L5.67412 17.6601C5.49393 17.7068 5.34711 17.8403 5.29038 18.0204L4.86993 19.2017L5.5273 19.3685C5.73085 19.4253 5.95108 19.3552 6.08456 19.1917H6.09123Z" fill="white"/>
<path d="M6.42453 21.4407L7.13195 19.839L6.88502 19.6121L5.2633 20.5297C5.08311 20.6331 4.96632 20.82 4.95631 21.0269L4.87622 22.0847L6.03078 21.781C6.20763 21.7343 6.35112 21.6075 6.42453 21.4407Z" fill="white"/>
<path d="M6.36809 16.8058L8.06322 15.1741L7.88637 14.8871L5.9076 15.2742C5.7541 15.3042 5.61729 15.3943 5.5272 15.5244L4.87317 16.4688L5.65733 16.8992C5.88758 17.026 6.17789 16.9893 6.36809 16.8058Z" fill="white"/>
<path d="M6.29439 24.144L7.30547 22.3921L7.05854 22.1619L5.38009 22.8593C5.18321 22.9394 5.0464 23.1195 5.01303 23.3298L4.87622 24.2641L5.6437 24.4309C5.90064 24.4877 6.16426 24.3709 6.29773 24.144H6.29439Z" fill="white"/>
<path d="M5.59699 7.37251L7.67252 7.77293L7.78931 7.53268L6.31108 5.83088C6.13422 5.65069 5.85393 5.60731 5.63369 5.73077L4.87622 6.14788L5.12649 6.96875C5.19322 7.18564 5.37675 7.34248 5.59699 7.37251Z" fill="white"/>
<path d="M11.4338 8.97095L11.5473 10.0488C11.5706 10.2757 11.7275 10.4692 11.941 10.5393L13.4326 11.1933L13.5961 10.9797L12.3615 9.22455C12.248 9.05437 12.0612 8.95426 11.8576 8.9576L11.4338 8.96761V8.97095Z" fill="white"/>
<path d="M5.92762 10.1987L8.1333 10.2455L8.22339 9.98519L6.53493 8.69716C6.3414 8.55034 6.07778 8.54366 5.87423 8.68048L4.87317 9.35452L5.53721 10.0286C5.64065 10.132 5.77746 10.1921 5.92429 10.1954L5.92762 10.1987Z" fill="white"/>
<path d="M6.69816 12.5312L8.5568 11.8038V11.5368L6.39116 10.7827C6.19762 10.7159 5.97739 10.756 5.82056 10.8895L4.87622 11.6903L6.18094 12.4878C6.33444 12.5812 6.52798 12.6013 6.69816 12.5345V12.5312Z" fill="white"/>
<path d="M6.42148 14.4369L8.09659 13.5426L8.06656 13.2056L5.91427 13.0354C5.69738 13.0187 5.48715 13.1188 5.36369 13.299L4.87317 14.0231L5.89759 14.4602C6.06443 14.5303 6.25797 14.5236 6.41814 14.4369H6.42148Z" fill="white"/>
<path d="M41.9831 34.1841H0.0786133V0.81543H41.9831V34.1841ZM0.55245 33.7102H41.5093V1.28926H0.55245V33.7102Z" fill="white"/>
<path d="M127.27 11.8139H127.464V6.16126H126.729V10.1688L122.932 6.09119H122.759V11.7438H123.476V7.73626L127.273 11.8139H127.27ZM120.289 11.8139H120.483V6.16126H119.749V10.1688L115.935 6.09119H115.761V11.7438H116.479V7.73626L120.293 11.8139H120.289ZM119.799 20.5098H122.722V19.8791H120.536V17.8503H122.582V17.2196H120.536V15.5412H122.722V14.9105H119.799V20.5098ZM111.14 9.48811L111.98 7.51269L112.801 9.48811H111.14ZM109.354 11.7438H110.088L110.859 10.0988H113.098L113.849 11.7438H114.6L112.081 6.09119H111.887L109.351 11.7438H109.354ZM126.693 28.9254H129.616V28.2947H127.43V26.2659H129.476V25.6352H127.43V23.9734H129.616V23.3428H126.693V28.9254ZM115.985 20.5098H116.719V15.5412H118.434V14.9105H114.286V15.5412H115.985V20.5098ZM102.197 11.7438H102.914V7.73626L105.137 10.0821L107.359 7.73626V11.7438H108.076V6.09452H107.92L105.137 9.06767L102.354 6.09452H102.197V11.7472V11.7438ZM122.755 29.0655C123.506 29.0655 124.173 28.8219 124.644 28.3848V27.5639L124.591 27.5472C124.24 28.0544 123.63 28.4382 122.752 28.4382C121.511 28.4382 120.566 27.4071 120.566 26.0757C120.566 24.7443 121.511 23.7832 122.752 23.7832C123.539 23.7832 124.203 24.1503 124.591 24.6575L124.644 24.6408V23.8366C124.17 23.3995 123.543 23.1726 122.755 23.1726C121.11 23.1726 119.832 24.4306 119.832 26.0757C119.832 27.7207 121.11 29.0688 122.755 29.0688V29.0655ZM110.492 20.5799C111.717 20.5799 112.925 19.9325 112.925 18.0939V14.9105H112.191V18.3208C112.191 19.3886 111.37 19.9492 110.492 19.9492C109.615 19.9492 108.794 19.3886 108.794 18.3208V14.9105H108.06V18.0939C108.06 19.9325 109.268 20.5799 110.492 20.5799ZM117.84 28.9954H118.014V23.3428H117.296V27.3503L113.482 23.2927H113.309V28.9254H114.026V24.9178L117.84 28.9954ZM96.2171 11.7438H100.381V11.1132H97.4584L100.678 6.16126H96.5841V6.79193H99.4705L96.2171 11.7438ZM104.282 20.5098H105V15.5412H106.715V14.9105H102.567V15.5412H104.282V20.5098ZM94.0314 11.7438H94.7488V6.16126H94.0314V11.7438ZM108.096 28.9254H111.019V28.2947H108.814V26.2659H110.879V25.6352H108.814V23.9734H111.019V23.3428H108.096V28.9254ZM100.155 20.5098H100.872V14.9105H100.155V20.5098ZM89.1663 11.7438H92.0693V11.1132H89.8637V9.10104H91.9092V8.45369H89.8637V6.79193H92.0693V6.16126H89.1663V11.7438ZM105.07 28.9254H105.787V23.3428H105.07V28.9254ZM95.9902 20.5098H96.7076V15.5412H98.4394V14.9105H94.275V15.5412H95.9902V20.5098ZM82.2022 11.8139H82.3957L83.5503 9.66163L84.7215 11.8139H84.895L88.2019 6.16126H87.3443L84.7916 10.6226L83.9173 8.97757L85.4556 6.16126H84.6515L83.5503 8.26015L82.4658 6.16126H81.6449L83.1832 8.97757L82.309 10.6226L79.7563 6.16126H78.8987L82.2055 11.8139H82.2022ZM101.116 29.0655C101.866 29.0655 102.55 28.8219 103.021 28.3848V27.5639L102.951 27.5472C102.617 28.0544 101.99 28.4382 101.112 28.4382C99.8876 28.4382 98.9266 27.4071 98.9266 26.0757C98.9266 24.7443 99.8876 23.7832 101.112 23.7832C101.9 23.7832 102.581 24.1503 102.951 24.6575L103.021 24.6408V23.8366C102.547 23.3995 101.9 23.1726 101.116 23.1726C99.4705 23.1726 98.2125 24.4306 98.2125 26.0757C98.2125 27.7207 99.4705 29.0688 101.116 29.0688V29.0655ZM91.3019 20.5965C92.2629 20.5965 93.1405 20.0526 93.1405 19.0049C93.1405 18.0772 92.6867 17.5867 91.4787 17.0995C90.8647 16.8359 90.6044 16.4522 90.6044 16.0851C90.6044 15.718 90.9014 15.3844 91.3552 15.3844C91.6689 15.3844 92.036 15.5245 92.3163 16.0317L92.9303 15.6813C92.5265 15.0173 91.9859 14.7537 91.4253 14.7537C90.5344 14.7537 89.8503 15.2275 89.8503 16.1351C89.8503 16.6957 90.2174 17.2563 91.2485 17.7101C92.1761 18.1306 92.3863 18.4443 92.3863 19.0049C92.3863 19.5654 91.9492 19.9659 91.3185 19.9659C90.8814 19.9659 90.3575 19.6856 90.0238 19.0049L89.4466 19.3018C89.7435 20.1427 90.4977 20.5965 91.3019 20.5965ZM95.0625 29.0288C96.0235 29.0288 96.8811 28.4849 96.8811 27.4538C96.8811 26.5095 96.444 26.0189 95.236 25.5284C94.6221 25.2848 94.3451 24.8978 94.3451 24.514C94.3451 24.1303 94.6588 23.85 95.1159 23.85C95.4296 23.85 95.7966 23.9734 96.0769 24.464L96.6909 24.1136C96.2871 23.4662 95.7466 23.2026 95.186 23.2026C94.295 23.2026 93.6277 23.6765 93.6277 24.5674C93.6277 25.1447 93.978 25.7053 95.0091 26.1591C95.9368 26.5629 96.1637 26.8765 96.1637 27.4538C96.1637 28.0311 95.7266 28.3981 95.0792 28.3981C94.6421 28.3981 94.1349 28.1178 93.7845 27.4538L93.2072 27.7508C93.5042 28.5716 94.2583 29.0288 95.0625 29.0288ZM87.5045 20.5799H87.678V14.9105H86.9606V18.9181L83.1465 14.8404H82.973V20.5098H83.6904V16.5022L87.5045 20.5799ZM79.9631 20.5098H80.6806V14.9105H79.9631V20.5098ZM87.084 28.9254H87.8015V26.2659H89.7602V25.6352H87.8015V23.9734H89.9871V23.3428H87.084V28.9254ZM82.5893 28.4348C81.2946 28.4348 80.2635 27.4037 80.2635 26.0723C80.2635 24.7409 81.2946 23.7799 82.5893 23.7799C83.884 23.7799 84.865 24.7943 84.865 26.0723C84.865 27.3504 83.8673 28.4348 82.5893 28.4348ZM82.5893 29.0655C84.2877 29.0655 85.6158 27.7875 85.6158 26.0723C85.6158 24.3572 84.2877 23.1693 82.5893 23.1693C80.8908 23.1693 79.546 24.4273 79.546 26.0723C79.546 27.7174 80.8574 29.0655 82.5893 29.0655Z" fill="white"/>
<path d="M148.132 34.1843H73.8699V0.815674H148.132V34.1843ZM74.3437 33.7105H147.658V1.28951H74.3437V33.7105Z" fill="white"/>
<path d="M47.5658 16.799L47.419 21.0802L48.6003 22.0779H48.7838L48.0097 16.9324C47.9896 16.7856 48.0297 16.5821 48.2299 16.3418L49.0975 15.3441L47.4724 13.9793H47.1387L46.4747 14.7368L47.8595 15.918C48.043 16.0649 48.063 16.2517 47.8962 16.4352L47.5625 16.8056V16.799H47.5658ZM60.9401 12.391H68.2812L69.092 10.9528V7.2255C69.092 6.61819 68.5948 6.17439 67.8741 6.17439H65.4582L64.7374 6.98525C64.4972 7.26221 64.0734 7.24219 63.8164 7.02195L62.3582 5.78731H62.0245L61.3605 6.54478L63.1691 8.05638C63.4093 8.25993 63.3893 8.51687 63.1691 8.77714L62.6886 9.33106L62.9088 9.51459L64.5873 7.57921C64.7541 7.37566 65.0311 7.22884 65.4348 7.22884H67.3168C67.7606 7.22884 67.9809 7.39568 68.0543 7.78276L68.5148 10.3655C68.5715 10.6591 68.5348 10.8827 68.4213 11.0095C68.1811 11.3232 67.6272 11.3432 66.9998 11.3432H61.3371L60.93 12.1741V12.3943H60.9401V12.391ZM67.6906 20.7832H67.9108L68.9452 20.3027L68.2445 16.9258C68.2078 16.7789 68.2812 16.5921 68.5014 16.3552L69.369 15.3574L67.7273 13.9726H67.3936L66.7295 14.7301L68.131 15.9114C68.3146 16.0582 68.3146 16.245 68.1677 16.4286L67.8541 16.799L67.6872 20.7832H67.6906ZM64.3503 17.443L66.2123 15.3207L64.644 13.9726H64.3103L63.6262 14.7668L64.8075 15.7445C65.0277 15.928 65.0277 16.225 64.8075 16.482L64.1234 17.2561L64.3437 17.4396H64.3503V17.443ZM52.5244 12.3876H59.7555L60.4562 10.9494V6.96523C60.4562 6.48472 60.0324 6.17105 59.4785 6.17105H54.4965C54.313 6.17105 54.1462 6.06094 53.9993 5.9308L53.8325 5.78398H53.5188L52.8548 6.54144L53.7024 7.2255H58.9413C59.2549 7.2255 59.3851 7.33562 59.4218 7.59589L59.8456 10.3455C59.8823 10.6224 59.8255 10.826 59.7154 10.9728C59.4752 11.2664 58.9413 11.3432 58.3506 11.3432H52.9449L52.5211 12.2108V12.3943V12.3876H52.5244ZM56.8958 20.653H62.3015L62.7253 19.7855C62.8354 19.5652 62.762 19.3617 62.5217 19.1782L61.3238 18.2572C61.1036 18.0903 61.0301 17.74 61.2137 17.5197L63.1324 15.3241L61.5273 13.976H61.1937L60.5296 14.7501L61.7476 15.7645C61.9678 15.9481 61.9678 16.245 61.7476 16.502L60.6598 17.7566L59.3117 16.7222C59.1281 16.5754 59.1448 16.3518 59.2549 16.225L60.0291 15.3408L58.404 13.976H58.0703L57.4063 14.7334L58.7911 15.878C58.9746 16.0448 58.9579 16.2484 58.8111 16.4319L58.4975 16.839L61.2637 19.385C61.3572 19.4584 61.3371 19.6253 61.1336 19.6253H57.2962L56.8891 20.4562V20.6597L56.8958 20.653ZM50.6224 12.5912H50.8427L51.8771 12.1107L51.1764 8.73376C51.1396 8.53022 51.2865 8.32667 51.4333 8.16316L52.3009 7.16544L50.6591 5.78064H50.3254L49.6614 6.53811L51.0629 7.71936C51.2464 7.8862 51.2664 8.05304 51.0996 8.23657L50.7859 8.60696L50.6191 12.5912H50.6224ZM48.5936 13.7724H48.7972L48.023 8.7371C48.003 8.59028 48.043 8.40342 48.2432 8.1665L49.1108 7.16878L47.4691 5.78398H47.1354L46.4714 6.54144L47.8728 7.7227C48.0564 7.86952 48.0764 8.05638 47.9095 8.23991L47.5759 8.6103L47.429 12.778L48.5903 13.7758H48.5936V13.7724ZM49.2376 20.653H55.7145L56.4152 19.2315V15.4142C56.4152 14.8235 55.918 14.3264 55.1973 14.3264H53.8492L53.0917 15.1939C52.8515 15.4509 52.4644 15.4709 52.1874 15.2306L50.7125 13.976H50.2887L49.6614 14.6967L51.47 16.2284C51.7102 16.4319 51.747 16.7089 51.5267 16.9658L51.0462 17.5197L51.2664 17.7033L52.9449 15.7479C53.0917 15.5643 53.3887 15.3775 53.8125 15.3775H54.7902C55.1973 15.3775 55.3441 15.5977 55.4175 16.0048L55.8613 18.6242C55.9181 18.9012 55.8613 19.1047 55.7879 19.2315C55.5477 19.5819 54.9937 19.6186 54.5166 19.6186H49.6447L49.2376 20.4495V20.653ZM56.3018 28.9351H63.0923L63.7931 27.5136V23.6963C63.7931 23.1056 63.2959 22.6084 62.5751 22.6084H61.4139L60.6564 23.476C60.4162 23.733 60.0291 23.753 59.7521 23.5127L58.2939 22.2781H57.9602L57.2962 23.0356L59.0314 24.4938C59.2716 24.6973 59.3083 24.991 59.0881 25.2512L58.6076 25.8052L58.8278 25.9887L60.4896 24.07C60.6364 23.8865 60.9501 23.6996 61.3738 23.6996H62.1313C62.5184 23.6996 62.7219 23.8464 62.7753 24.1968L63.2358 26.9097C63.2926 27.2033 63.2358 27.4069 63.1257 27.5537C62.8688 27.8473 62.3315 27.8874 61.7042 27.8874H56.7056L56.2985 28.7183V28.9385L56.3018 28.9351ZM54.273 29.102H54.5132L55.5477 28.6215L54.9203 25.6517C54.8102 25.1345 54.9003 24.8575 55.4542 24.3603C55.6945 24.12 55.9714 23.8998 56.5053 23.5127V23.1257C56.5053 22.7553 56.3585 22.6084 55.9881 22.6084H51.4133C51.173 22.6084 51.0429 22.535 50.8593 22.4049L50.6925 22.2748H50.3788L49.7148 23.0322L50.509 23.6963H54.937C55.214 23.6963 55.3608 23.8431 55.3608 23.9899C55.3608 24.0833 55.3241 24.1568 55.2507 24.2302L54.4031 25.0777L54.273 29.0987V29.102ZM46.5982 29.2121C48.4601 28.7316 50.1386 28.0309 51.2097 26.5927C51.3932 26.1689 51.5601 25.5416 51.6902 24.7107L51.5067 24.5438C51.2664 25.2813 50.6391 26.2223 50.1219 26.4992C49.9551 26.5927 49.7515 26.6094 49.6047 26.4425L48.4434 25.1878C48.3133 25.0577 48.2599 24.9676 48.2599 24.8542C48.2599 24.7407 48.3166 24.6339 48.4268 24.5038L49.1275 23.6929L47.4657 22.2714H47.1321L46.468 23.0289L47.8695 24.2101C48.053 24.357 48.0731 24.5438 47.9062 24.7274L47.5725 25.0977L48.9006 27.22C48.4568 27.4769 47.6459 27.7739 47.0386 27.884L46.468 29.0653L46.5982 29.2121ZM64.2903 29.082C66.6328 28.4913 68.4213 27.4202 69.0854 26.1288V23.1957C69.0854 22.8821 68.7517 22.6051 68.3279 22.6051H66.0021C65.5216 22.6051 65.3581 22.5117 65.318 22.2714L65.1512 21.4038C65.1145 21.257 65.1879 21.0702 65.4081 20.8332L66.2757 19.8355L64.8375 18.6176H64.5239L63.8398 19.3917L65.0377 20.3894C65.1312 20.4628 65.1846 20.573 65.1846 20.6664C65.1846 20.7398 65.1479 20.8332 65.0744 20.9066L64.7608 21.277V23.416C64.9443 23.6195 65.1312 23.6929 65.4815 23.6929H67.7873C67.9909 23.6929 68.121 23.7864 68.1577 23.9699L68.4714 25.6116C68.5281 25.8886 68.4514 26.0187 68.3246 26.1455C67.5671 26.883 66.2957 27.3268 64.7274 27.7706L64.1568 28.9518L64.2869 29.082H64.2903Z" fill="white"/>
<path d="M74.3444 34.184H41.5095V0.815308H74.3444V34.184ZM41.9834 33.7101H73.8706V1.28914H41.9834V33.7101Z" fill="white"/>
<path d="M221.921 34.1841H147.658V0.81543H221.921V34.1841ZM148.132 33.7102H221.447V1.28926H148.132V33.7102Z" fill="white"/>
<path d="M155.809 8.18058C155.809 9.28508 155.035 10.0726 153.934 10.0726H152.762V6.29858H153.934C155.035 6.29858 155.809 7.07941 155.809 8.18058ZM153.37 9.82231L153.934 9.79896C154.798 9.76892 155.238 8.97475 155.238 8.18391C155.238 7.39308 154.801 6.60891 153.934 6.57221L153.37 6.55552C153.34 6.55552 153.31 6.57888 153.31 6.62226V9.75891C153.31 9.79562 153.34 9.82565 153.37 9.82565V9.82231Z" fill="white"/>
<path d="M157.521 7.32979C158.151 7.32311 158.572 7.77359 158.618 8.50102L156.823 8.82136C156.776 8.82804 156.74 8.88143 156.75 8.94149C156.857 9.48874 157.26 9.78905 157.734 9.78905C157.974 9.78905 158.245 9.70563 158.498 9.53545L158.602 9.76236L157.557 10.1394C156.883 10.1394 156.246 9.68895 156.246 8.8247C156.246 7.90706 156.817 7.48328 157.521 7.32979ZM158.078 8.37422C158.034 7.85034 157.801 7.58005 157.441 7.58005C156.997 7.58005 156.736 7.94043 156.726 8.58445L158.078 8.37422Z" fill="white"/>
<path d="M161.845 8.57109C161.845 9.15504 161.628 9.57548 161.221 9.83242L160.38 10.1394C160.244 10.1394 159.983 10.096 159.846 10.056V11.2773H159.343V7.39651H159.806L159.85 7.75022L160.637 7.32977C161.405 7.3231 161.852 7.87034 161.852 8.57442H161.845V8.57109ZM160.47 9.92252C160.964 9.92252 161.311 9.47871 161.311 8.76462C161.311 8.18735 161.028 7.70684 160.584 7.70684C160.337 7.70684 160.133 7.78025 159.937 7.88703C159.883 7.91706 159.846 7.9838 159.846 8.05387L159.84 9.69561C160.057 9.85244 160.193 9.92252 160.47 9.92252Z" fill="white"/>
<path d="M162.242 9.42544C162.242 9.22857 162.302 9.05171 162.496 8.86151L163.537 8.53784L163.583 8.68132L162.936 8.93826C162.809 9.04504 162.756 9.17851 162.756 9.34202C162.756 9.62899 162.919 9.76914 163.116 9.76914C163.29 9.76914 163.453 9.6657 163.543 9.6023L163.76 9.45214V8.16077C163.76 7.81707 163.717 7.63355 163.293 7.63355C163.186 7.63355 163.096 7.67025 162.993 7.70696L162.452 7.94721L162.375 7.78037L163.216 7.33656C164.147 7.32989 164.267 7.56347 164.267 8.1908V9.21856C164.267 9.33201 164.267 9.43545 164.298 9.54223L164.441 10.0828H163.877L163.817 9.78249C163.8 9.68572 163.734 9.68572 163.674 9.72242L163.06 10.1495C162.566 10.1562 162.249 9.8926 162.249 9.43545L162.242 9.42544Z" fill="white"/>
<path d="M165.196 7.39648H165.663L165.709 7.98377C165.716 8.04384 165.769 8.06719 165.813 8.02048L166.347 7.39648H166.874V7.94373H166.387C166.073 7.94373 165.893 8.15395 165.696 8.39421V10.076H165.192V7.39648H165.196Z" fill="white"/>
<path d="M167.558 9.40859V7.64338H167.244V7.56664C167.501 7.33306 167.748 7.0561 167.965 6.76245H168.062V7.39979H168.826V7.64672H168.159C168.099 7.64672 168.062 7.69344 168.062 7.7535V9.44863C168.062 9.69556 168.212 9.80234 168.409 9.80234C168.549 9.80234 168.703 9.74895 168.853 9.66552L168.949 9.88909L168.235 10.146C167.768 10.146 167.555 9.91913 167.555 9.41192H167.558V9.40859Z" fill="white"/>
<path d="M169.444 7.3962H169.901L169.961 7.92343L170.825 7.32947C171.052 7.32947 171.229 7.36617 171.349 7.44959C171.486 7.55304 171.566 7.70653 171.596 7.92343L172.45 7.32947C172.744 7.32947 172.937 7.40288 173.064 7.53969C173.191 7.68318 173.244 7.90675 173.244 8.20039V10.0757H172.741V8.20039C172.741 7.84668 172.604 7.74324 172.35 7.74324C172.17 7.74324 172.05 7.81999 171.696 8.06691C171.643 8.10362 171.619 8.17036 171.619 8.22375V10.0757H171.115V8.22041C171.115 7.8667 170.982 7.74658 170.732 7.74658C170.521 7.74658 170.388 7.85336 170.148 8.01019L170.021 8.09361C169.974 8.13032 169.954 8.19038 169.954 8.25044V10.0757H169.45V7.3962H169.444Z" fill="white"/>
<path d="M175.106 7.32979C175.737 7.32311 176.157 7.77359 176.204 8.50102L174.409 8.82136C174.362 8.82804 174.325 8.88143 174.335 8.94149C174.442 9.48874 174.846 9.78905 175.319 9.78905C175.56 9.78905 175.83 9.70563 176.084 9.53545L176.187 9.76236L175.143 10.1394C174.469 10.1394 173.831 9.68895 173.831 8.8247C173.831 7.90706 174.402 7.48328 175.106 7.32979ZM175.663 8.37422C175.62 7.85034 175.386 7.58005 175.026 7.58005C174.582 7.58005 174.322 7.94043 174.312 8.58445L175.663 8.37422Z" fill="white"/>
<path d="M179.24 10.076H178.737V8.22065C178.737 7.89698 178.563 7.75683 178.316 7.75683C178.113 7.75683 177.866 7.84693 177.625 8.01043L177.499 8.09385C177.452 8.13056 177.432 8.19062 177.432 8.25069V10.076H176.928V7.39645H177.385L177.445 7.92367L178.37 7.32971C178.657 7.32971 178.867 7.38978 179.007 7.51658C179.17 7.66006 179.24 7.89031 179.24 8.22065V10.076Z" fill="white"/>
<path d="M180.135 9.40859V7.64338H179.821V7.56664C180.078 7.33306 180.325 7.0561 180.542 6.76245H180.639V7.39979H181.403V7.64672H180.735C180.675 7.64672 180.639 7.69344 180.639 7.7535V9.44863C180.639 9.69556 180.789 9.80234 180.986 9.80234C181.126 9.80234 181.279 9.74895 181.43 9.66552L181.526 9.88909L180.812 10.146C180.345 10.146 180.132 9.91913 180.132 9.41192H180.135V9.40859Z" fill="white"/>
<path d="M185.788 8.68135C185.788 9.25862 185.511 9.62568 185.067 9.87261L184.323 10.1429C183.522 10.1429 182.988 9.57896 182.988 8.79814C182.988 8.25089 183.215 7.86715 183.619 7.6269L184.443 7.33325C185.23 7.33325 185.788 7.89718 185.788 8.68468V8.68135ZM184.466 9.87261C185 9.87261 185.254 9.43881 185.254 8.79146C185.254 8.05735 184.877 7.60354 184.299 7.60354C183.765 7.60354 183.525 8.03733 183.525 8.69136C183.525 9.34538 183.899 9.87594 184.47 9.87594H184.466V9.87261Z" fill="white"/>
<path d="M187.022 6.15173H187.876V6.64559H187.786L187.209 6.38198C187.118 6.3386 187.035 6.38865 187.035 6.49543V7.39638H187.732V7.64331H187.138C187.078 7.64331 187.035 7.69003 187.035 7.74676V10.0792H186.531V7.64665H186.154V7.39972H186.431C186.491 7.39972 186.535 7.35634 186.535 7.29628V7.03267C186.535 6.73902 186.668 6.49877 187.028 6.15507H187.022V6.15173Z" fill="white"/>
<path d="M153.93 14.1135L153.256 13.7998C152.889 13.633 152.582 13.3627 152.582 12.9523C152.582 12.2682 153.183 11.9078 153.837 11.9078C154.227 11.9078 154.611 12.0146 154.918 12.2549V12.7521H154.631L154.428 12.405C154.294 12.2482 154.05 12.1714 153.81 12.1714C153.436 12.1714 153.053 12.345 153.053 12.7187C153.053 13.0424 153.3 13.2593 153.647 13.4228L154.291 13.7231C154.728 13.92 155.048 14.2203 155.048 14.6774C155.048 15.0311 154.875 15.248 154.621 15.4649L153.607 15.8687C153.113 15.832 152.772 15.6718 152.519 15.485V14.891H152.856L153.043 15.3181C153.18 15.4449 153.403 15.5217 153.693 15.5217C154.127 15.5217 154.581 15.3481 154.581 14.921C154.581 14.5373 154.334 14.3037 153.934 14.1168H153.93V14.1135Z" fill="white"/>
<path d="M156.963 13.2527C156.549 13.2527 156.099 13.6731 156.099 14.3705C156.099 15.0679 156.472 15.5418 156.923 15.5418C157.267 15.5418 157.62 15.3616 157.747 15.0613L157.941 15.435L156.896 15.8121C156.102 15.8121 155.568 15.2481 155.568 14.4773C155.568 13.9201 155.792 13.533 156.192 13.2927L157.016 12.9991C157.303 12.9924 157.6 13.0658 157.811 13.2026V13.5764L157.504 13.5697C157.37 13.3528 157.173 13.2493 156.97 13.2493H156.963V13.2527Z" fill="white"/>
<path d="M158.752 11.8344L159.136 12.2181L158.752 12.6018L158.368 12.2181L158.752 11.8344ZM159.006 15.7452H158.502V13.0657H159.006V15.7452Z" fill="white"/>
<path d="M160.951 13.0024C161.582 12.9957 162.002 13.4462 162.049 14.1736L160.254 14.494C160.207 14.5006 160.17 14.554 160.18 14.6141C160.287 15.1613 160.691 15.4617 161.165 15.4617C161.405 15.4617 161.675 15.3782 161.929 15.2081L162.032 15.435L160.988 15.812C160.314 15.812 159.677 15.3616 159.677 14.4973C159.677 13.5797 160.247 13.1559 160.951 13.0024ZM161.509 14.0468C161.465 13.5229 161.232 13.2527 160.871 13.2527C160.427 13.2527 160.167 13.613 160.157 14.2571L161.509 14.0468Z" fill="white"/>
<path d="M165.082 15.7486H164.578V13.8933C164.578 13.5696 164.404 13.4294 164.158 13.4294C163.954 13.4294 163.707 13.5195 163.467 13.683L163.34 13.7665C163.293 13.8032 163.273 13.8632 163.273 13.9233V15.7486H162.769V13.0691H163.227L163.287 13.5963L164.211 13.0023C164.501 13.0023 164.711 13.0624 164.848 13.1892C165.012 13.3327 165.082 13.5629 165.082 13.8933V15.7486Z" fill="white"/>
<path d="M167.078 13.2527C166.664 13.2527 166.214 13.6731 166.214 14.3705C166.214 15.0679 166.587 15.5418 167.038 15.5418C167.381 15.5418 167.735 15.3616 167.862 15.0613L168.055 15.435L167.011 15.8121C166.217 15.8121 165.683 15.2481 165.683 14.4773C165.683 13.9201 165.907 13.533 166.307 13.2927L167.131 12.9991C167.418 12.9924 167.715 13.0658 167.925 13.2026V13.5764L167.618 13.5697C167.485 13.3528 167.288 13.2493 167.084 13.2493H167.078V13.2527Z" fill="white"/>
<path d="M169.64 13.0024C170.271 12.9957 170.691 13.4462 170.738 14.1736L168.943 14.494C168.896 14.5006 168.859 14.554 168.869 14.6141C168.976 15.1613 169.38 15.4617 169.854 15.4617C170.094 15.4617 170.364 15.3782 170.618 15.2081L170.721 15.435L169.677 15.812C169.003 15.812 168.365 15.3616 168.365 14.4973C168.365 13.5797 168.936 13.1559 169.64 13.0024ZM170.197 14.0468C170.154 13.5229 169.92 13.2527 169.56 13.2527C169.116 13.2527 168.856 13.613 168.846 14.2571L170.197 14.0468Z" fill="white"/>
<path d="M174.198 15.7487H173.651V12.3118C173.651 12.2684 173.621 12.245 173.591 12.245L172.406 12.2984V11.9747H175.439V12.2984L174.255 12.245C174.225 12.245 174.195 12.2684 174.195 12.3118V15.7487H174.198Z" fill="white"/>
<path d="M176.494 13.0024C177.125 12.9957 177.545 13.4462 177.592 14.1736L175.797 14.494C175.75 14.5006 175.713 14.554 175.723 14.6141C175.83 15.1613 176.234 15.4617 176.708 15.4617C176.948 15.4617 177.218 15.3782 177.472 15.2081L177.575 15.435L176.531 15.812C175.857 15.812 175.22 15.3616 175.22 14.4973C175.22 13.5797 175.79 13.1559 176.494 13.0024ZM177.052 14.0468C177.008 13.5229 176.775 13.2527 176.414 13.2527C175.97 13.2527 175.71 13.613 175.7 14.2571L177.052 14.0468Z" fill="white"/>
<path d="M178.079 15.098C178.079 14.9012 178.139 14.7243 178.332 14.5341L179.37 14.2104L179.417 14.3539L178.77 14.6109C178.643 14.7176 178.589 14.8511 178.589 15.0146C178.589 15.3016 178.753 15.4417 178.95 15.4417C179.123 15.4417 179.287 15.3383 179.377 15.2749L179.594 15.1247V13.8334C179.594 13.4897 179.55 13.3062 179.127 13.3062C179.02 13.3062 178.93 13.3429 178.826 13.3796L178.286 13.6198L178.209 13.453L179.05 13.0092C179.981 13.0025 180.101 13.2361 180.101 13.8634V14.8912C180.101 15.0046 180.101 15.1081 180.131 15.2148L180.275 15.7554H179.711L179.651 15.4551C179.634 15.3583 179.567 15.3583 179.507 15.395L178.893 15.8221C178.399 15.8288 178.082 15.5652 178.082 15.1081V15.098H178.079Z" fill="white"/>
<path d="M182.2 13.2527C181.787 13.2527 181.336 13.6731 181.336 14.3705C181.336 15.0679 181.71 15.5418 182.16 15.5418C182.504 15.5418 182.858 15.3616 182.984 15.0613L183.178 15.435L182.134 15.8121C181.339 15.8121 180.805 15.2481 180.805 14.4773C180.805 13.9201 181.029 13.533 181.429 13.2927L182.254 12.9991C182.541 12.9924 182.838 13.0658 183.048 13.2026V13.5764L182.741 13.5697C182.607 13.3528 182.411 13.2493 182.207 13.2493H182.2V13.2527Z" fill="white"/>
<path d="M184.226 13.6029L185.253 13.0023C185.854 12.9956 186.041 13.2892 186.041 13.8865V15.7485H185.537V13.8932C185.537 13.5395 185.404 13.4194 185.153 13.4194C184.87 13.4194 184.559 13.5996 184.299 13.7731C184.252 13.8098 184.226 13.8632 184.226 13.9232V15.7485H183.715L183.728 11.8243H184.229V13.6029H184.226Z" fill="white"/>
<path d="M187.245 11.8344L187.629 12.2181L187.245 12.6018L186.862 12.2181L187.245 11.8344ZM187.499 15.7452H186.995V13.0657H187.499V15.7452Z" fill="white"/>
<path d="M190.719 15.7486H190.216V13.8933C190.216 13.5696 190.042 13.4294 189.795 13.4294C189.592 13.4294 189.345 13.5195 189.104 13.683L188.978 13.7665C188.931 13.8032 188.911 13.8632 188.911 13.9233V15.7486H188.407V13.0691H188.864L188.924 13.5963L189.849 13.0023C190.136 13.0023 190.346 13.0624 190.486 13.1892C190.649 13.3327 190.719 13.5629 190.719 13.8933V15.7486Z" fill="white"/>
<path d="M193.028 16.029L192.024 16.2225C191.677 16.1558 191.44 15.8988 191.44 15.5618C191.44 15.455 191.456 15.3449 191.506 15.2315L192.09 14.9778C191.647 14.8344 191.446 14.4239 191.446 14.0635C191.446 13.7432 191.603 13.4262 191.98 13.2227L192.564 12.9991C192.991 12.9924 193.308 13.1659 193.482 13.4062L193.946 13.0625H194.173V13.5664H193.729C193.645 13.5664 193.602 13.6398 193.615 13.7232C193.689 14.0602 193.509 14.5507 192.788 14.8644L191.954 15.2248C191.91 15.2848 191.9 15.3583 191.9 15.4283C191.9 15.6018 192.007 15.7887 192.321 15.7286L193.041 15.5918C193.679 15.4717 194.052 15.8254 194.046 16.1758L193.702 16.733H193.445L193.582 16.366C193.582 16.1424 193.432 15.9455 193.028 16.0223V16.029ZM192.534 14.7009C192.888 14.7009 193.105 14.4306 193.105 13.9801C193.105 13.5296 192.888 13.246 192.534 13.246C192.18 13.246 191.97 13.523 191.97 13.9801C191.97 14.4373 192.187 14.7009 192.534 14.7009Z" fill="white"/>
<path d="M153.057 20.5667L153.164 20.6568L155.316 20.6501L155.413 21.0773L155.299 21.2641C155.263 21.3242 155.253 21.3843 155.253 21.4577V23.5899H154.772V21.7813C154.772 21.7079 154.802 21.6379 154.849 21.5845L155.082 21.3275C155.173 21.2308 155.126 21.1407 154.992 21.1407H152.997L152.68 20.877L152.89 20.5834C152.934 20.53 153.004 20.5233 153.057 20.5701V20.5667ZM152.847 22.442C152.847 22.3686 152.877 22.2986 152.924 22.2452L153.297 21.818L153.401 21.8948C153.347 21.9715 153.327 22.0817 153.327 22.1584V23.5899H152.847V22.442Z" fill="white"/>
<path d="M156.364 21.451L156.477 21.3075C156.544 21.2308 156.524 21.1407 156.417 21.1407H156.28L155.963 20.877L156.173 20.5834C156.217 20.53 156.287 20.5233 156.34 20.5701L156.447 20.6602H158.659C158.796 20.6602 158.906 20.7669 158.906 20.9071V21.184L157.595 23.5933H157.041L158.032 21.8014C158.099 21.6812 158.176 21.6078 158.286 21.4877L158.473 21.2841C158.533 21.2241 158.486 21.1407 158.406 21.1407H156.914C156.811 21.1407 156.734 21.2241 156.734 21.3275V24.4341H156.267V21.6646C156.267 21.5911 156.32 21.5077 156.364 21.4543V21.451Z" fill="white"/>
<path d="M161.055 21.4845L161.242 21.2809C161.296 21.2275 161.272 21.1374 161.196 21.1374H159.35V20.6402C159.35 20.5501 159.38 20.4534 159.427 20.3933L159.614 20.1664C159.667 20.0997 159.667 20.0329 159.614 19.9929L159.147 19.6091L159.38 19.3322C159.424 19.2788 159.494 19.2721 159.547 19.3188L160.051 19.746L159.884 19.9328C159.847 19.9762 159.831 20.0296 159.831 20.0997V20.6569H161.429C161.566 20.6569 161.676 20.7637 161.676 20.9038V21.1808L160.368 23.59H159.814L160.805 21.7981C160.872 21.678 160.949 21.6046 161.059 21.4845H161.055Z" fill="white"/>
<path d="M161.993 20.8739L162.204 20.5802C162.247 20.5268 162.317 20.5202 162.37 20.5669L162.477 20.657H164.182C164.526 20.657 164.736 20.8672 164.736 21.2109V23.5901H164.256V21.1375H162.921C162.818 21.1375 162.747 21.2209 162.747 21.3244V23.5901H162.267V21.7815C162.267 21.7081 162.297 21.638 162.344 21.5846L162.577 21.3277C162.667 21.2309 162.621 21.1408 162.487 21.1408H162.307L161.99 20.8772L161.993 20.8739Z" fill="white"/>
<path d="M165.921 21.3777L165.337 20.8672L165.57 20.5802C165.614 20.5268 165.677 20.5202 165.737 20.5669L166.411 21.1442C166.485 21.2042 166.578 21.2042 166.645 21.1375L167.162 20.657C167.259 20.5669 167.359 20.5836 167.432 20.6436L168.07 21.1775V23.2197L167.836 23.5867H165.373V23.1062H167.469C167.536 23.1062 167.589 23.0529 167.589 22.9861V21.5146C167.589 21.4545 167.559 21.3944 167.516 21.3577L167.222 21.1041C167.119 21.014 167.042 21.014 166.935 21.1041L165.74 22.1486L165.614 22.0284L165.921 21.5713C165.967 21.5045 165.967 21.4144 165.921 21.3744V21.3777Z" fill="white"/>
<path d="M169.08 20.5667L169.187 20.6568L171.339 20.6501L171.436 21.0773L171.323 21.2641C171.286 21.3242 171.276 21.3843 171.276 21.4577V23.5899H170.796V21.7813C170.796 21.7079 170.826 21.6379 170.872 21.5845L171.106 21.3275C171.196 21.2308 171.149 21.1407 171.016 21.1407H169.02L168.703 20.877L168.914 20.5834C168.957 20.53 169.027 20.5233 169.08 20.5701V20.5667ZM168.87 22.442C168.87 22.3686 168.9 22.2986 168.947 22.2452L169.321 21.818L169.424 21.8948C169.371 21.9715 169.351 22.0817 169.351 22.1584V23.5899H168.87V22.442Z" fill="white"/>
<path d="M153.327 27.0169L153.341 28.4484H154.962V26.4764H152.997L152.68 26.2127L152.89 25.9191C152.934 25.8657 153.004 25.859 153.057 25.9058L153.164 25.9958H154.889C155.233 25.9958 155.443 26.2061 155.443 26.5498V28.929H152.867V27.3006C152.867 27.2272 152.903 27.1637 152.944 27.1037L153.257 26.6766L153.421 26.7533C153.367 26.8301 153.331 26.9402 153.331 27.0169H153.327Z" fill="white"/>
<path d="M156.481 26.6432L155.977 26.2094L156.217 25.9157C156.26 25.8624 156.324 25.849 156.384 25.9024L157.185 26.5865L156.294 27.6009L156.15 27.4941L156.504 26.8701C156.547 26.7933 156.541 26.6966 156.481 26.6432Z" fill="white"/>
<path d="M158.433 28.4187L157.966 27.4443C157.919 27.3408 157.905 27.2341 157.979 27.1573L158.172 26.9337C158.226 26.867 158.226 26.8003 158.172 26.7602L157.528 26.213L157.762 25.926C157.805 25.8726 157.875 25.866 157.929 25.9127L158.656 26.5267L158.363 26.8937C158.316 26.9538 158.286 27.0272 158.319 27.0973L158.823 28.1917C158.853 28.2652 158.937 28.2818 159.01 28.2518C159.357 28.095 159.504 27.8547 159.504 27.5177V27.4443C159.504 27.3408 159.527 27.2641 159.581 27.1974L159.767 26.9705C159.821 26.9037 159.821 26.837 159.767 26.7969L159.04 26.213L159.31 25.9193C159.357 25.866 159.424 25.8593 159.477 25.906L160.205 26.52L160.038 26.7068C160.001 26.7502 159.984 26.8036 159.984 26.8737V27.3675C159.984 28.1417 159.641 28.5755 158.67 28.8391L157.625 29.1227L157.505 28.6723L158.436 28.4187H158.433Z" fill="white"/>
<path d="M160.445 26.2126L160.655 25.9189C160.698 25.8589 160.768 25.8589 160.822 25.9056L160.928 25.9957H163.037V26.4028L162.617 26.6664C162.55 26.7098 162.497 26.7999 162.497 26.8833V28.9255H162.016V27.1336C162.016 27.0368 162.063 26.9701 162.136 26.9067L162.407 26.6597C162.48 26.593 162.453 26.4729 162.347 26.4729H160.762L160.445 26.2092V26.2126Z" fill="white"/>
<path d="M164.012 26.7169L163.428 26.2063L163.662 25.9193C163.705 25.866 163.768 25.8593 163.828 25.906L164.502 26.4833C164.576 26.5433 164.669 26.5433 164.736 26.4766L165.253 25.9961C165.35 25.906 165.45 25.9227 165.524 25.9827L166.161 26.5166V28.5588L165.927 28.9259H163.465V28.4454H165.56C165.627 28.4454 165.68 28.392 165.68 28.3252V26.8537C165.68 26.7936 165.65 26.7335 165.607 26.6968L165.313 26.4432C165.21 26.3531 165.133 26.3531 165.026 26.4432L163.832 27.4877L163.705 27.3675L164.012 26.9104C164.059 26.8437 164.059 26.7536 164.012 26.7135V26.7169Z" fill="white"/>
<path d="M167.172 25.9058L167.279 25.9959L169.431 25.9893L169.528 26.4164L169.414 26.6032C169.377 26.6633 169.367 26.7234 169.367 26.7968V28.929H168.887V27.1205C168.887 27.047 168.917 26.977 168.964 26.9236L169.197 26.6666C169.287 26.5699 169.241 26.4798 169.107 26.4798H167.112L166.795 26.2162L167.005 25.9225C167.048 25.8691 167.118 25.8625 167.172 25.9092V25.9058ZM166.962 27.7812C166.962 27.7077 166.992 27.6377 167.038 27.5843L167.412 27.1572L167.515 27.2339C167.462 27.3107 167.442 27.4208 167.442 27.4975V28.929H166.962V27.7812Z" fill="white"/>
<path d="M171.62 25.9059L171.727 25.996H173.549C173.902 25.996 174.126 26.1895 174.126 26.4999V28.9258H173.646V26.4732H172.331C172.077 26.4732 171.957 26.6834 172.061 26.9537L172.608 28.3652C172.638 28.4386 172.624 28.532 172.591 28.5821L172.351 28.9258H171.256V28.4453H171.97C172.067 28.4453 172.107 28.3719 172.074 28.2818L171.637 27.1572C171.607 27.0805 171.62 26.9704 171.667 26.917L171.84 26.7201C171.937 26.6133 171.9 26.4732 171.75 26.4732H171.563L171.246 26.2096L171.457 25.9159C171.5 25.8625 171.57 25.8559 171.623 25.9026H171.62V25.9059Z" fill="white"/>
<path d="M175.544 27.6977V28.929H175.063V27.4441C175.063 27.354 175.093 27.2572 175.14 27.1972L175.327 26.9703C175.38 26.9035 175.38 26.8368 175.327 26.7968L174.636 26.2095L174.87 25.9225C174.913 25.8691 174.983 25.8624 175.036 25.9091L175.764 26.5231L175.554 26.75C175.47 26.8468 175.487 26.9736 175.59 27.0437L177.566 28.4485V28.9724H177.482L175.63 27.651C175.594 27.621 175.54 27.651 175.54 27.6977H175.544ZM176.728 25.9192C176.772 25.8658 176.835 25.8524 176.895 25.9058L177.676 26.5665L176.785 27.5943L176.658 27.4975L177.019 26.8668C177.065 26.7901 177.055 26.6933 176.995 26.6399L176.491 26.2061L176.725 25.9192H176.728Z" fill="white"/>
<path d="M180.229 26.5498V28.929H179.749V26.4764H178.234L177.917 26.2127L178.127 25.9191C178.17 25.8657 178.24 25.859 178.294 25.9058L178.401 25.9958H179.675C180.019 25.9958 180.229 26.2061 180.229 26.5498Z" fill="white"/>
<path d="M181.28 27.1972L181.467 26.9703C181.521 26.9036 181.521 26.8368 181.467 26.7968L180.777 26.2095L181.01 25.9225C181.054 25.8691 181.124 25.8625 181.177 25.9092L181.904 26.5232L181.738 26.71C181.701 26.7534 181.684 26.8068 181.684 26.8769V28.9324H181.204V27.4475C181.204 27.344 181.227 27.2673 181.28 27.2005V27.1972Z" fill="white"/>
<path d="M182.842 25.9058L182.949 25.9959L185.101 25.9893L185.198 26.4164L185.085 26.6032C185.048 26.6633 185.038 26.7234 185.038 26.7968V28.929H184.557V27.1205C184.557 27.047 184.587 26.977 184.634 26.9236L184.868 26.6666C184.958 26.5699 184.911 26.4798 184.778 26.4798H182.782L182.465 26.2162L182.675 25.9225C182.719 25.8691 182.789 25.8625 182.842 25.9092V25.9058ZM182.632 27.7812C182.632 27.7077 182.662 27.6377 182.709 27.5843L183.082 27.1572L183.186 27.2339C183.132 27.3107 183.112 27.4208 183.112 27.4975V28.929H182.632V27.7812Z" fill="white"/>
<path d="M187.503 26.8236L187.69 26.62C187.743 26.5666 187.72 26.4765 187.643 26.4765H185.798V25.9794C185.798 25.8893 185.828 25.7925 185.875 25.7324L186.062 25.5055C186.115 25.4388 186.115 25.372 186.062 25.332L185.595 24.9483L185.828 24.6713C185.871 24.6179 185.942 24.6112 185.995 24.6579L186.499 25.0851L186.332 25.2719C186.295 25.3153 186.279 25.3687 186.279 25.4388V25.996H187.877C188.014 25.996 188.124 26.1028 188.124 26.243V26.5199L186.816 28.9291H186.262L187.253 27.1372C187.32 27.0171 187.396 26.9437 187.507 26.8236H187.503Z" fill="white"/>
</g>
<defs>
<clipPath id="clip0_1039_26544">
<rect width="221.842" height="33.3687" fill="white" transform="translate(0.0788574 0.815674)"/>
</clipPath>
</defs>
</svg>
