<svg width="43" height="47" viewBox="0 0 43 47" fill="none" xmlns="http://www.w3.org/2000/svg">
<path d="M39.8692 30.7114C40.3403 31.6217 40.5882 32.6302 40.5882 33.6585C40.5882 37.2191 37.6462 40.1169 34.0243 40.1339C33.7888 43.5987 30.319 46.3568 26.0911 46.3568C24.5794 46.3568 23.1098 46.001 21.8484 45.3386V9.18398C23.4288 8.02337 25.4163 7.37305 27.4896 7.37305C31.033 7.37305 34.2059 9.22318 35.6339 12.1039C37.5236 12.8795 38.7358 14.6044 38.7358 16.5503C38.7358 17.1296 38.6229 17.7036 38.4118 18.241C40.9856 19.166 42.7965 21.8457 42.7965 24.8565C42.7965 27.2393 41.6852 29.4379 39.8692 30.7114Z" fill="#FDE6E3"/>
<path d="M29.9737 25.0979C27.5661 25.0979 25.6067 23.1181 25.6067 20.6843C25.6067 18.2509 27.5661 16.2711 29.9737 16.2711C30.3392 16.2711 30.7028 16.317 31.0542 16.4075C31.3266 16.4765 31.6084 16.317 31.6798 16.0486C31.7515 15.7799 31.588 15.5048 31.3142 15.4345C30.8777 15.3226 30.4264 15.2656 29.9737 15.2656C27.0008 15.2656 24.5821 17.6964 24.5821 20.6843C24.5821 21.7243 24.88 22.6929 25.3872 23.5192C25.2616 23.6575 25.1417 23.8026 25.0334 23.9588C24.0447 25.3824 24.2146 26.8908 24.3335 27.4731C24.3824 27.7119 24.5959 27.8771 24.8351 27.8771C24.8686 27.8771 24.9024 27.8741 24.9363 27.8674C25.2137 27.8128 25.3933 27.5478 25.3377 27.2757C25.265 26.9186 25.0884 25.6645 25.8794 24.525C25.9216 24.464 25.9696 24.4087 26.0155 24.3514C27.0015 25.4256 28.4084 26.1034 29.9737 26.1034C30.2565 26.1034 30.486 25.8782 30.486 25.6005C30.486 25.3227 30.2565 25.0979 29.9737 25.0979Z" fill="#278335"/>
<path d="M42.8088 24.8552C42.8088 21.8468 40.9976 19.1651 38.4237 18.2417C38.6365 17.7036 38.7477 17.1287 38.7477 16.5514C38.7477 14.6051 37.5372 12.8803 35.6465 12.1026C34.2192 9.22257 31.047 7.37277 27.5022 7.37277C25.0326 7.37277 22.6822 8.29649 21.0006 9.90237L13.9499 5.90593C13.6637 5.74377 13.2979 5.83993 13.1327 6.12104C12.9675 6.40214 13.0657 6.76097 13.3518 6.92314L20.6776 11.0757V13.8512C19.1498 13.8174 17.6739 13.1168 16.704 11.8892C16.5321 11.6704 16.2104 11.6299 15.9856 11.8001C15.7618 11.9703 15.7213 12.2862 15.8948 12.5057C17.0598 13.9806 18.8375 14.8276 20.6776 14.8621V44.3332C20.6776 44.4933 20.755 44.6434 20.8867 44.7382C22.3321 45.7819 24.1856 46.3565 26.104 46.3565C30.333 46.3565 33.8007 43.5981 34.0376 40.1333C37.6598 40.1159 40.6015 37.2178 40.6015 33.6572C40.6015 32.63 40.3536 31.6215 39.8808 30.7125C41.6981 29.438 42.8088 27.2391 42.8088 24.8552ZM34.0048 39.1279C33.9854 39.1279 33.9666 39.1259 33.9472 39.1259C33.4925 37.2456 32.4988 35.6377 31.0423 34.4644C30.2918 33.8596 29.5115 33.4378 28.7425 33.1429C28.5425 32.3984 28.5418 31.6399 28.7633 30.933C28.9888 30.2113 29.422 29.5787 30.0506 29.0527C30.2657 28.8724 30.2918 28.5551 30.1079 28.3437C29.9253 28.133 29.6023 28.1075 29.3862 28.2874C28.6182 28.9304 28.0641 29.7432 27.7843 30.6371C27.5665 31.3317 27.5136 32.0644 27.6191 32.7941C26.1168 32.4383 24.7461 32.5167 23.8535 32.6504C23.5734 32.6919 23.3814 32.9483 23.4243 33.223C23.4662 33.4974 23.7275 33.6874 24.0073 33.6441C24.9568 33.5024 26.5104 33.4267 28.1411 33.9933C28.1488 33.996 28.1562 33.9983 28.1639 34.0006C28.9077 34.2616 29.6673 34.657 30.3923 35.2417C31.769 36.351 32.6532 37.8369 33.0238 39.6569C33.0254 39.6898 33.0254 39.7222 33.0254 39.7557C33.0254 42.8409 29.9206 45.351 26.104 45.351C24.4935 45.351 22.9412 44.8987 21.7022 44.0728V39.3014C22.3552 39.6402 23.0467 39.8636 23.7721 39.9538C24.0345 39.9866 24.2898 40.0013 24.5374 40.0013C25.7536 40.0013 26.7778 39.6465 27.4667 39.3165C27.7213 39.1945 27.8265 38.8937 27.7029 38.6441C27.5786 38.3948 27.271 38.2913 27.0181 38.4125C26.3141 38.7496 25.2004 39.1171 23.9011 38.9563C23.1201 38.8592 22.384 38.5757 21.7022 38.1304V14.7927C21.8453 14.7713 21.9883 14.7535 22.1304 14.7217C24.1805 14.265 25.8337 12.821 26.5533 10.8589C26.6488 10.5976 26.5108 10.3098 26.2448 10.2156C25.9784 10.1218 25.6856 10.2575 25.5891 10.5185C24.989 12.1559 23.611 13.3604 21.9036 13.741C21.8369 13.7558 21.7692 13.7588 21.7022 13.7708V11.3726C21.8151 11.324 21.9176 11.2506 21.984 11.138C22.0664 10.9976 22.0831 10.8372 22.0439 10.6924C22.0191 10.602 21.9655 10.5229 21.8995 10.4522C23.3764 9.13345 25.3881 8.37825 27.5022 8.37825C30.722 8.37825 33.5877 10.0763 34.8029 12.7044C34.8588 12.826 34.962 12.9208 35.0893 12.9677C36.6895 13.5554 37.7231 14.9619 37.7231 16.5514C37.7231 17.1722 37.5687 17.7646 37.2631 18.3121C37.2373 18.3576 37.2313 18.4089 37.2212 18.4591C36.8658 18.8689 36.4768 19.2452 36.0459 19.5625C34.4668 20.7231 32.7192 21.0058 31.5311 21.0387C31.2484 21.0464 31.0255 21.2776 31.0336 21.5553C31.0413 21.828 31.2688 22.0438 31.5449 22.0438C31.5502 22.0438 31.5546 22.0438 31.5599 22.0435C32.3443 22.022 33.3484 21.8957 34.4052 21.5342C34.4802 21.9138 34.6002 22.2814 34.7754 22.6301C35.1771 23.4252 35.8281 24.0799 36.6574 24.5242C36.7354 24.566 36.8195 24.5855 36.9023 24.5855C37.0835 24.5855 37.2594 24.4907 37.3526 24.3235C37.4879 24.0799 37.3961 23.7743 37.1482 23.6417C36.4945 23.2919 36.0054 22.801 35.6931 22.1839C35.5276 21.8545 35.4217 21.5041 35.3728 21.1385C35.8043 20.9291 36.2372 20.6778 36.66 20.3669C37.1368 20.0158 37.5667 19.6007 37.9617 19.1514C40.1978 19.8915 41.7839 22.2227 41.7839 24.8552C41.7839 26.9295 40.815 28.8232 39.2446 29.9064C38.7507 29.5321 38.2193 29.2168 37.6555 28.9743C36.1481 28.3239 34.7379 28.2874 33.8198 28.3729C33.5381 28.399 33.331 28.6439 33.3578 28.9203C33.3839 29.1967 33.6346 29.3981 33.9153 29.374C34.7114 29.3013 35.9367 29.3311 37.244 29.895C37.7888 30.1295 38.2998 30.4421 38.7685 30.8187C39.2972 31.6734 39.577 32.6548 39.577 33.6572C39.577 36.6737 37.0772 39.1279 34.0048 39.1279Z" fill="#278335"/>
<path d="M21.8625 10.4123V45.2622C21.2041 45.5732 20.4674 45.7477 19.6897 45.7477C17.3896 45.7477 15.4463 44.227 14.8071 42.1359C14.2509 42.3306 13.6538 42.4375 13.0333 42.4375C10.0561 42.4375 7.64477 40.0245 7.64477 37.0489C7.64477 36.0796 7.90075 35.17 8.35004 34.3843C7.91951 34.4945 7.46887 34.5541 7.00383 34.5541C4.02827 34.5541 1.61526 32.1411 1.61526 29.1656C1.61526 28.2968 1.82098 27.4783 2.18685 26.7509C0.859392 25.7689 0 24.1948 0 22.4181C0 19.6248 2.12252 17.3294 4.84209 17.056C4.73521 16.6305 4.67692 16.1859 4.67692 15.7268C4.67692 12.7516 7.09027 10.3383 10.0658 10.3383C11.272 10.3383 12.3877 10.736 13.2863 11.4067C14.2194 9.8012 15.9553 8.72168 17.9458 8.72168C19.49 8.72168 20.8822 9.37066 21.8625 10.4123Z" fill="#E83857"/>
<path d="M4.68756 2.03566C4.61989 2.15125 4.61151 2.29465 4.66512 2.41761C4.81354 2.75668 8.34125 10.7489 12.5488 13.2567C17.6103 16.2735 21.5445 12.2774 21.5837 12.2368C21.6326 12.1856 21.6681 12.1219 21.6862 12.0522C21.6939 12.0217 22.1355 10.2198 21.5904 8.11944C21.2087 6.64992 20.3443 5.03466 18.5103 3.7779C18.3913 3.69682 18.2399 3.6871 18.1122 3.7521L15.0606 5.31476L15.0402 2.69369C15.0382 2.49635 14.9025 2.32915 14.7159 2.2923C10.6407 1.49455 5.23303 1.8229 5.00452 1.83731C4.87352 1.84568 4.75525 1.91973 4.68756 2.03566Z" fill="#278335"/>
<path d="M5.31129 0.776867C5.24394 0.892459 5.23556 1.03586 5.28917 1.15883C5.4376 1.49755 8.9653 9.49011 13.1728 11.9979C18.234 15.0147 22.1685 11.0186 22.2074 10.978C22.2566 10.9268 22.2921 10.8631 22.3099 10.7934C22.3179 10.7629 22.7595 8.96073 22.2144 6.86066C21.8328 5.39114 20.9684 3.77554 19.1343 2.51912C19.0154 2.43803 18.8639 2.42798 18.7363 2.49332L15.6847 4.05598L15.6642 1.43491C15.6622 1.23756 15.5265 1.07003 15.3399 1.03351C11.2647 0.235769 5.85708 0.564109 5.62857 0.578526C5.49757 0.5869 5.3793 0.660611 5.31129 0.776867Z" fill="#5CAF43"/>
</svg>
