<svg width="28" height="28" viewBox="0 0 28 28" fill="none" xmlns="http://www.w3.org/2000/svg">
<path d="M2.625 3.0625C2.625 2.33516 2.03984 1.75 1.3125 1.75C0.585156 1.75 0 2.33516 0 3.0625V22.3125C0 24.4891 1.76094 26.25 3.9375 26.25H26.6875C27.4148 26.25 28 25.6648 28 24.9375C28 24.2102 27.4148 23.625 26.6875 23.625H3.9375C3.21016 23.625 2.625 23.0398 2.625 22.3125V3.0625ZM25.8672 9.24219C26.3813 8.72813 26.3813 7.89688 25.8672 7.38828C25.3531 6.87969 24.5219 6.87422 24.0133 7.38828L17.5055 13.8961L13.1852 9.57578C12.9391 9.32969 12.6055 9.19297 12.2555 9.19297C11.9055 9.19297 11.5719 9.32969 11.3258 9.57578L6.07578 14.8258C5.56172 15.3398 5.56172 16.1711 6.07578 16.6797C6.58984 17.1883 7.42109 17.1938 7.92969 16.6797L12.25 12.3594L16.5703 16.6797C17.0844 17.1938 17.9156 17.1938 18.4242 16.6797L25.8672 9.24219Z" fill="#2B2B2B"/>
</svg>
