<svg xmlns="http://www.w3.org/2000/svg" width="178" height="97" viewBox="0 0 178 97" fill="none">
  <g clip-path="url(#clip0_2331_3126)">
    <path d="M27.1762 76.6641H23.3379C17.2759 76.6641 12.3622 68.5937 12.3622 58.6404C12.3622 52.5189 13.5964 46.5728 15.873 41.7252L25.2571 21.7393L34.6412 41.7252C36.9177 46.5728 38.152 52.5189 38.152 58.6404C38.152 68.5937 33.2382 76.6641 27.1762 76.6641Z" fill="#CED4DA"/>
    <path d="M25.2573 96.1237C24.9793 96.1237 24.7543 95.8987 24.7543 95.6208V57.4556C24.7543 57.1776 24.9793 56.9526 25.2573 56.9526C25.5352 56.9526 25.7602 57.1776 25.7602 57.4556V95.6208C25.7602 95.8987 25.5352 96.1237 25.2573 96.1237Z" fill="#CED4DA"/>
    <path d="M45.5207 81.2337H42.5824C37.9433 81.2337 34.1843 75.0593 34.1843 67.4421C34.1843 62.76 35.1274 58.2069 36.8712 54.4976L44.0515 39.2037L51.2319 54.4976C52.9724 58.2069 53.9188 62.7567 53.9188 67.4421C53.9188 75.0593 50.1598 81.2337 45.5207 81.2337Z" fill="#CED4DA"/>
    <path d="M44.0519 96.1237C43.8401 96.1237 43.668 95.9517 43.668 95.7399V66.5386C43.668 66.3269 43.8401 66.1548 44.0519 66.1548C44.2636 66.1548 44.4357 66.3269 44.4357 66.5386V95.7399C44.4357 95.9517 44.2636 96.1237 44.0519 96.1237Z" fill="#CED4DA"/>
    <path d="M168.788 81.8458H165.853C161.214 81.8458 157.455 75.6713 157.455 68.0542C157.455 63.372 158.398 58.819 160.142 55.1097L167.322 39.8158L174.502 55.1097C176.243 58.819 177.189 63.3687 177.189 68.0542C177.189 75.6713 173.43 81.8458 168.791 81.8458H168.788Z" fill="#CED4DA"/>
    <path d="M167.319 96.7359C167.107 96.7359 166.935 96.5638 166.935 96.3521V67.1508C166.935 66.939 167.107 66.767 167.319 66.767C167.531 66.767 167.703 66.939 167.703 67.1508V96.3521C167.703 96.5638 167.531 96.7359 167.319 96.7359Z" fill="#CED4DA"/>
    <path d="M154.004 81.4025H151.066C146.427 81.4025 142.668 75.2281 142.668 67.6109C142.668 62.9288 143.611 58.3757 145.355 54.6664L152.535 39.3726L159.715 54.6664C161.456 58.3757 162.402 62.9255 162.402 67.6109C162.402 75.2281 158.643 81.4025 154.004 81.4025Z" fill="#CED4DA"/>
    <path d="M152.535 96.2927C152.324 96.2927 152.151 96.1206 152.151 95.9088V66.7076C152.151 66.4958 152.324 66.3237 152.535 66.3237C152.747 66.3237 152.919 66.4958 152.919 66.7076V95.9088C152.919 96.1206 152.747 96.2927 152.535 96.2927Z" fill="#CED4DA"/>
    <path d="M12.1502 81.7299H9.21184C4.57272 81.7299 0.813782 75.5555 0.813782 67.9383C0.813782 63.2562 1.75683 58.7031 3.50063 54.9938L10.681 39.7L17.8614 54.9938C19.6019 58.7031 20.5482 63.2529 20.5482 67.9383C20.5482 75.5555 16.7893 81.7299 12.1502 81.7299Z" fill="#CED4DA"/>
    <path d="M10.6843 96.6201C10.4725 96.6201 10.3005 96.448 10.3005 96.2362V67.035C10.3005 66.8232 10.4725 66.6511 10.6843 66.6511C10.8961 66.6511 11.0681 66.8232 11.0681 67.035V96.2362C11.0681 96.448 10.8961 96.6201 10.6843 96.6201Z" fill="#CED4DA"/>
    <path d="M80.4927 55.0401H98.7679C98.7679 55.0401 98.5528 51.1521 95.545 50.0569C92.5371 48.9583 90.7338 52.5485 90.7338 52.5485C90.7338 52.5485 89.1753 44.7229 83.5733 44.7229C77.9713 44.7229 75.5921 49.8815 75.5921 49.8815C75.5921 49.8815 73.9112 48.6109 71.5321 49.8815C69.153 51.1521 69.5699 55.0401 69.5699 55.0401H80.4927Z" fill="#CED4DA"/>
    <path d="M102.289 41.6689H117.47C117.47 41.6689 117.291 38.4394 114.793 37.5294C112.295 36.6161 110.796 39.6008 110.796 39.6008C110.796 39.6008 109.502 33.1021 104.85 33.1021C100.197 33.1021 98.2186 37.3871 98.2186 37.3871C98.2186 37.3871 96.8223 36.3316 94.8436 37.3871C92.8648 38.4427 93.2156 41.6722 93.2156 41.6722H102.289V41.6689Z" fill="#CED4DA"/>
    <path d="M66.4993 15.5317H81.6807C81.6807 15.5317 81.502 12.3021 79.0038 11.3922C76.5055 10.4789 75.0066 13.4636 75.0066 13.4636C75.0066 13.4636 73.7128 6.96484 69.0604 6.96484C64.4081 6.96484 62.4293 11.2499 62.4293 11.2499C62.4293 11.2499 61.033 10.1944 59.0542 11.2499C57.0755 12.3055 57.4262 15.535 57.4262 15.535H66.4993V15.5317Z" fill="#CED4DA"/>
    <path d="M174.188 96.5341H2.51785C2.2399 96.5341 2.01489 96.3091 2.01489 96.0312C2.01489 95.7532 2.2399 95.5282 2.51785 95.5282H174.188C174.466 95.5282 174.691 95.7532 174.691 96.0312C174.691 96.3091 174.466 96.5341 174.188 96.5341Z" fill="#343A40"/>
    <path d="M133.677 76.7071H129.839C123.777 76.7071 118.863 68.6366 118.863 58.6834C118.863 52.5619 120.097 46.6157 122.374 41.7681L131.758 21.7822L141.142 41.7681C143.419 46.6157 144.653 52.5619 144.653 58.6834C144.653 68.6366 139.739 76.7071 133.677 76.7071Z" fill="white"/>
    <path d="M133.677 77.2099H129.839C126.725 77.2099 123.817 75.2511 121.649 71.6906C119.528 68.2097 118.36 63.5904 118.36 58.6866C118.36 52.5287 119.624 46.4435 121.917 41.5596L131.755 20.6041L141.592 41.5596C143.885 46.4468 145.149 52.5287 145.149 58.6866C145.149 63.5904 143.981 68.2097 141.86 71.6906C139.693 75.2511 136.784 77.2099 133.671 77.2099H133.677ZM131.758 22.9601L122.827 41.9798C120.594 46.7347 119.366 52.6676 119.366 58.6833C119.366 63.4051 120.481 67.8391 122.506 71.1678C124.485 74.4172 127.089 76.2073 129.839 76.2073H133.677C136.427 76.2073 139.031 74.4172 141.01 71.1678C143.035 67.8424 144.15 63.4084 144.15 58.6833C144.15 52.6676 142.919 46.7347 140.689 41.9798L131.758 22.9601Z" fill="#343A40"/>
    <path d="M131.758 96.1701C131.48 96.1701 131.255 95.9451 131.255 95.6671V57.502C131.255 57.224 131.48 56.999 131.758 56.999C132.036 56.999 132.261 57.224 132.261 57.502V95.6671C132.261 95.9451 132.036 96.1701 131.758 96.1701Z" fill="#343A40"/>
    <path d="M131.758 57.9289C131.675 57.9289 131.593 57.9091 131.517 57.866C131.275 57.7304 131.186 57.4259 131.321 57.1844L135.712 49.2761C135.848 49.0345 136.152 48.9452 136.394 49.0808C136.636 49.2165 136.725 49.5209 136.589 49.7625L132.198 57.6708C132.106 57.8363 131.937 57.9289 131.758 57.9289Z" fill="#343A40"/>
    <path d="M131.758 68.7788C131.675 68.7788 131.593 68.7589 131.517 68.7159C131.275 68.5802 131.186 68.2758 131.321 68.0343L135.712 60.1259C135.848 59.8844 136.152 59.795 136.394 59.9307C136.636 60.0664 136.725 60.3708 136.589 60.6123L132.198 68.5207C132.106 68.6861 131.937 68.7788 131.758 68.7788Z" fill="#343A40"/>
    <path d="M131.758 57.9289C131.583 57.9289 131.411 57.8363 131.318 57.6708L126.927 49.7625C126.791 49.5209 126.881 49.2165 127.122 49.0808C127.364 48.9452 127.668 49.0345 127.804 49.2761L132.195 57.1844C132.331 57.4259 132.241 57.7304 132 57.866C131.924 57.9091 131.838 57.9289 131.758 57.9289Z" fill="#343A40"/>
    <path d="M131.758 68.7788C131.583 68.7788 131.411 68.6861 131.318 68.5207L126.927 60.6123C126.791 60.3708 126.881 60.0664 127.122 59.9307C127.364 59.795 127.668 59.8844 127.804 60.1259L132.195 68.0343C132.331 68.2758 132.241 68.5802 132 68.7159C131.924 68.7589 131.838 68.7788 131.758 68.7788Z" fill="#343A40"/>
    <path d="M64.6329 72.7728V86.9152H112.07V72.7728H64.6329ZM107.381 80.1385H69.1032V77.3425H107.381V80.1385Z" fill="#B2B2B2"/>
    <path d="M112.07 87.4149H64.6333C64.3554 87.4149 64.1304 87.1899 64.1304 86.9119V72.7696C64.1304 72.4916 64.3554 72.2666 64.6333 72.2666H112.07C112.348 72.2666 112.573 72.4916 112.573 72.7696V86.9119C112.573 87.1899 112.348 87.4149 112.07 87.4149ZM65.1363 86.4123H111.567V73.2725H65.1363V86.4123ZM107.381 80.6415H69.1037C68.8257 80.6415 68.6007 80.4165 68.6007 80.1385V77.3425C68.6007 77.0645 68.8257 76.8395 69.1037 76.8395H107.381C107.659 76.8395 107.884 77.0645 107.884 77.3425V80.1385C107.884 80.4165 107.659 80.6415 107.381 80.6415ZM69.6033 79.6389H106.878V77.8455H69.6033V79.6389Z" fill="#343A40"/>
    <path d="M69.3018 86.4487H64.6329V95.6674H69.3018V86.4487Z" fill="#B2B2B2"/>
    <path d="M69.3022 96.1703H64.6333C64.3554 96.1703 64.1304 95.9453 64.1304 95.6673V86.4486C64.1304 86.1707 64.3554 85.9457 64.6333 85.9457H69.3022C69.5802 85.9457 69.8052 86.1707 69.8052 86.4486V95.6673C69.8052 95.9453 69.5802 96.1703 69.3022 96.1703ZM65.1363 95.1677H68.8026V86.9516H65.1363V95.1677Z" fill="#343A40"/>
    <path d="M112.186 86.4487H107.517V95.6674H112.186V86.4487Z" fill="#B2B2B2"/>
    <path d="M112.186 96.1703H107.517C107.239 96.1703 107.014 95.9453 107.014 95.6673V86.4486C107.014 86.1707 107.239 85.9457 107.517 85.9457H112.186C112.464 85.9457 112.689 86.1707 112.689 86.4486V95.6673C112.689 95.9453 112.464 96.1703 112.186 96.1703ZM108.017 95.1677H111.683V86.9516H108.017V95.1677Z" fill="#343A40"/>
    <path d="M115.22 84.8834H61.483V88.9435H115.22V84.8834Z" fill="#B2B2B2"/>
    <path d="M115.22 89.4465H61.4832C61.2052 89.4465 60.9802 89.2215 60.9802 88.9435V84.8834C60.9802 84.6055 61.2052 84.3805 61.4832 84.3805H115.22C115.498 84.3805 115.723 84.6055 115.723 84.8834V88.9435C115.723 89.2215 115.498 89.4465 115.22 89.4465ZM61.9861 88.4439H114.721V85.3864H61.9861V88.4439Z" fill="#343A40"/>
    <path d="M51.5658 96.5341C51.2879 96.5341 51.0629 96.3091 51.0629 96.0311V33.7505C51.0629 33.4726 51.2879 33.2476 51.5658 33.2476C51.8438 33.2476 52.0688 33.4726 52.0688 33.7505V96.0344C52.0688 96.3124 51.8438 96.5374 51.5658 96.5374V96.5341Z" fill="#343A40"/>
    <path d="M145.003 60.7284C144.762 60.7284 144.55 60.5531 144.51 60.3082C144.464 60.0336 144.649 59.7755 144.924 59.7325C145.162 59.6927 145.394 59.653 145.626 59.6133C145.897 59.567 146.158 59.749 146.205 60.0203C146.251 60.2917 146.069 60.5531 145.798 60.5994C145.563 60.6391 145.328 60.6821 145.086 60.7218C145.06 60.7251 145.03 60.7284 145.003 60.7284ZM148.521 60.0634C148.289 60.0634 148.081 59.9012 148.031 59.6663C147.972 59.3949 148.144 59.1302 148.415 59.0707C148.65 59.021 148.882 58.9681 149.107 58.9151C149.378 58.8523 149.646 59.021 149.709 59.2924C149.772 59.5637 149.603 59.8317 149.332 59.8946C149.1 59.9475 148.865 60.0005 148.627 60.0501C148.59 60.0567 148.554 60.06 148.521 60.06V60.0634ZM151.992 59.1799C151.777 59.1799 151.578 59.0409 151.512 58.8225C151.433 58.5578 151.582 58.2765 151.846 58.1971C152.075 58.1276 152.303 58.0548 152.518 57.9853C152.779 57.8993 153.064 58.0416 153.15 58.3063C153.236 58.571 153.094 58.8523 152.829 58.9383C152.604 59.0111 152.372 59.0839 152.134 59.1567C152.085 59.1699 152.038 59.1799 151.989 59.1799H151.992ZM155.334 57.9059C155.149 57.9059 154.97 57.8033 154.884 57.6247C154.762 57.3765 154.864 57.0754 155.116 56.953C155.327 56.8504 155.533 56.7412 155.728 56.6353C155.969 56.4996 156.274 56.589 156.409 56.8305C156.545 57.0721 156.456 57.3765 156.214 57.5122C156.006 57.628 155.784 57.7438 155.556 57.8563C155.486 57.8894 155.41 57.9059 155.337 57.9059H155.334ZM158.226 55.8345C158.11 55.8345 157.991 55.7948 157.898 55.7121C157.69 55.5301 157.667 55.2125 157.849 55.004C157.912 54.9312 157.974 54.8551 158.034 54.779C158.11 54.6797 158.18 54.5838 158.243 54.4878C158.395 54.2562 158.706 54.1933 158.937 54.3455C159.169 54.4977 159.232 54.8088 159.08 55.0404C159.004 55.1562 158.918 55.2753 158.828 55.3911C158.759 55.4805 158.683 55.5731 158.606 55.6625C158.507 55.775 158.368 55.8345 158.229 55.8345H158.226ZM159.116 52.5885C158.911 52.5885 158.719 52.4627 158.646 52.2576C158.583 52.0822 158.494 51.9068 158.381 51.7315C158.233 51.4998 158.299 51.1888 158.534 51.0399C158.765 50.891 159.076 50.9572 159.225 51.1921C159.377 51.4304 159.5 51.6719 159.589 51.9168C159.685 52.1782 159.55 52.466 159.288 52.5587C159.232 52.5786 159.172 52.5885 159.116 52.5885ZM156.72 50.0737C156.628 50.0737 156.535 50.0472 156.452 49.9976C156.267 49.8818 156.065 49.7627 155.86 49.6468C155.619 49.5112 155.533 49.2068 155.668 48.9652C155.804 48.7237 156.108 48.6376 156.35 48.7733C156.572 48.899 156.787 49.0248 156.988 49.1505C157.223 49.2994 157.293 49.6071 157.144 49.8421C157.048 49.9943 156.886 50.077 156.72 50.077V50.0737ZM153.507 48.4953C153.445 48.4953 153.382 48.4854 153.322 48.4589C153.11 48.3729 152.889 48.2869 152.664 48.2042C152.406 48.1082 152.273 47.817 152.369 47.5589C152.465 47.3008 152.756 47.1685 153.014 47.2644C153.246 47.3505 153.474 47.4398 153.693 47.5258C153.951 47.6284 154.077 47.9196 153.971 48.1777C153.891 48.3729 153.703 48.492 153.504 48.492L153.507 48.4953ZM150.116 47.314C150.066 47.314 150.017 47.3074 149.967 47.2909C149.742 47.2214 149.517 47.1552 149.285 47.0857C149.021 47.0063 148.868 46.7284 148.948 46.4637C149.027 46.1989 149.305 46.0467 149.57 46.1261C149.805 46.1956 150.033 46.2651 150.261 46.3346C150.526 46.4173 150.675 46.6953 150.592 46.96C150.526 47.1751 150.328 47.314 150.112 47.314H150.116ZM146.661 46.3445C146.622 46.3445 146.579 46.3379 146.536 46.328C146.307 46.2684 146.076 46.2122 145.844 46.1526C145.576 46.0864 145.41 45.8151 145.48 45.5438C145.546 45.2758 145.817 45.1103 146.089 45.1798C146.324 45.2394 146.555 45.2956 146.787 45.3552C147.055 45.4247 147.217 45.696 147.148 45.964C147.088 46.189 146.886 46.3412 146.661 46.3412V46.3445ZM143.17 45.5107C143.134 45.5107 143.098 45.5074 143.061 45.4975C142.83 45.4445 142.598 45.3949 142.363 45.3419C142.092 45.2824 141.923 45.0144 141.979 44.743C142.039 44.4717 142.307 44.3029 142.575 44.3592C142.81 44.4121 143.045 44.4618 143.276 44.5147C143.548 44.5743 143.716 44.8423 143.657 45.1136C143.604 45.3452 143.399 45.5041 143.167 45.5041L143.17 45.5107ZM139.66 44.7629C139.626 44.7629 139.593 44.7629 139.56 44.7529C139.329 44.7066 139.094 44.6603 138.859 44.614C138.587 44.561 138.412 44.2963 138.465 44.025C138.518 43.7537 138.783 43.5783 139.054 43.6312C139.289 43.6775 139.524 43.7239 139.759 43.7735C140.03 43.8298 140.206 44.0945 140.153 44.3658C140.103 44.604 139.895 44.7695 139.663 44.7695L139.66 44.7629ZM136.136 44.0812C136.106 44.0812 136.073 44.0812 136.043 44.0713C135.808 44.0283 135.576 43.9853 135.338 43.9423C135.067 43.8926 134.885 43.6312 134.934 43.3599C134.984 43.0886 135.245 42.9066 135.517 42.9562C135.752 42.9992 135.99 43.0422 136.222 43.0852C136.493 43.1349 136.675 43.3963 136.622 43.6709C136.576 43.9125 136.367 44.0812 136.129 44.0812H136.136ZM132.605 43.4459C132.575 43.4459 132.549 43.4459 132.519 43.4393C132.284 43.3996 132.049 43.3566 131.814 43.3169C131.543 43.2705 131.357 43.0091 131.404 42.7378C131.45 42.4665 131.712 42.2812 131.983 42.3275C132.221 42.3672 132.456 42.4102 132.691 42.4499C132.962 42.4963 133.148 42.7577 133.098 43.029C133.055 43.2739 132.843 43.4459 132.605 43.4459ZM129.068 42.847C129.041 42.847 129.011 42.847 128.985 42.8404C128.75 42.8007 128.515 42.761 128.28 42.7246C128.006 42.6782 127.82 42.4235 127.867 42.1488C127.913 41.8742 128.168 41.6889 128.442 41.7352C128.681 41.7749 128.915 41.8146 129.15 41.851C129.425 41.8973 129.607 42.1554 129.564 42.4268C129.524 42.6716 129.309 42.847 129.071 42.847H129.068ZM125.527 42.2712C125.501 42.2712 125.474 42.2712 125.448 42.2646L124.74 42.1521C124.465 42.1091 124.28 41.851 124.323 41.5797C124.366 41.305 124.624 41.1197 124.895 41.1628L125.603 41.2753C125.878 41.3183 126.063 41.5764 126.02 41.851C125.98 42.0992 125.769 42.2746 125.527 42.2746V42.2712ZM121.983 41.712C121.957 41.712 121.93 41.712 121.904 41.7054L121.196 41.5962C120.921 41.5532 120.736 41.2984 120.776 41.0238C120.819 40.7491 121.073 40.5638 121.348 40.6035L122.056 40.7127C122.331 40.7558 122.516 41.0105 122.473 41.2852C122.433 41.5334 122.222 41.7087 121.977 41.7087L121.983 41.712ZM118.439 41.1628C118.413 41.1628 118.39 41.1628 118.363 41.1561L117.655 41.0469C117.381 41.0039 117.192 40.7491 117.235 40.4745C117.278 40.1999 117.533 40.0146 117.807 40.0543L118.516 40.1635C118.79 40.2065 118.975 40.4613 118.936 40.7359C118.899 40.9841 118.684 41.1628 118.439 41.1628ZM114.892 40.6201C114.866 40.6201 114.843 40.6201 114.816 40.6135L114.108 40.5043C113.833 40.4613 113.645 40.2065 113.688 39.9318C113.731 39.6572 113.986 39.4686 114.26 39.5116L114.968 39.6208C115.243 39.6638 115.432 39.9186 115.389 40.1932C115.352 40.4414 115.137 40.6201 114.892 40.6201ZM111.345 40.0774C111.319 40.0774 111.295 40.0774 111.269 40.0708L110.561 39.9616C110.286 39.9186 110.101 39.6638 110.141 39.3892C110.184 39.1145 110.438 38.9292 110.713 38.9689L111.421 39.0781C111.696 39.1212 111.881 39.3759 111.841 39.6506C111.802 39.8987 111.59 40.0774 111.345 40.0774ZM107.801 39.5315C107.775 39.5315 107.748 39.5315 107.722 39.5248L107.014 39.4156C106.739 39.3726 106.554 39.1178 106.597 38.8432C106.64 38.5686 106.898 38.3833 107.169 38.4263L107.877 38.5355C108.152 38.5785 108.337 38.8333 108.294 39.1079C108.255 39.3561 108.043 39.5315 107.798 39.5315H107.801ZM104.257 38.9689C104.231 38.9689 104.204 38.9689 104.178 38.9623L103.47 38.8498C103.195 38.8068 103.01 38.5487 103.053 38.2741C103.096 37.9994 103.354 37.8141 103.629 37.8571L104.337 37.9696C104.611 38.0127 104.797 38.2708 104.754 38.5454C104.714 38.7936 104.502 38.9689 104.261 38.9689H104.257ZM100.717 38.3932C100.69 38.3932 100.661 38.3932 100.634 38.3866C100.399 38.3469 100.161 38.3072 99.926 38.2674C99.6513 38.2211 99.4694 37.963 99.5157 37.6884C99.562 37.4137 99.8201 37.2318 100.095 37.2781C100.33 37.3178 100.565 37.3575 100.8 37.3972C101.074 37.4435 101.256 37.7016 101.213 37.973C101.173 38.2178 100.958 38.3932 100.72 38.3932H100.717ZM97.1796 37.791C97.1498 37.791 97.1233 37.791 97.0935 37.7843C96.8586 37.7446 96.6204 37.7016 96.3854 37.6586C96.1141 37.609 95.9321 37.3509 95.9784 37.0762C96.0281 36.8049 96.2862 36.6229 96.5608 36.6692C96.7957 36.7089 97.0307 36.752 97.2656 36.7917C97.5369 36.838 97.7222 37.0994 97.6726 37.3707C97.6296 37.6156 97.4178 37.7877 97.1796 37.7877V37.791ZM93.649 37.1556C93.6192 37.1556 93.5861 37.1556 93.5563 37.1457C93.3214 37.1027 93.0831 37.0564 92.8515 37.0134C92.5802 36.9604 92.4015 36.699 92.4511 36.4277C92.5041 36.1564 92.7655 35.9777 93.0368 36.0273C93.2717 36.0703 93.5034 36.1166 93.7383 36.1597C94.0096 36.2093 94.1916 36.4707 94.1387 36.7453C94.0924 36.9869 93.8839 37.1556 93.6456 37.1556H93.649ZM90.1249 36.474C90.0919 36.474 90.0588 36.474 90.0257 36.4641C89.7907 36.4178 89.5558 36.3681 89.3209 36.3218C89.0495 36.2655 88.8742 36.0008 88.9304 35.7295C88.9867 35.4582 89.2514 35.2828 89.5227 35.339C89.7543 35.3854 89.9893 35.435 90.2242 35.4813C90.4956 35.5376 90.6709 35.799 90.618 36.0703C90.5683 36.3086 90.3599 36.474 90.1283 36.474H90.1249ZM86.6142 35.7328C86.5778 35.7328 86.5414 35.7295 86.505 35.7196C86.27 35.6666 86.0351 35.6137 85.8035 35.5607C85.5322 35.4979 85.3634 35.2299 85.4263 34.9618C85.4891 34.6905 85.7572 34.5217 86.0252 34.5846C86.2568 34.6376 86.4884 34.6905 86.7234 34.7401C86.9947 34.7997 87.1635 35.0677 87.1039 35.339C87.0509 35.574 86.8458 35.7328 86.6142 35.7328ZM83.1233 34.9056C83.0836 34.9056 83.0405 34.899 83.0008 34.889C82.7659 34.8295 82.5343 34.7699 82.3026 34.7104C82.0346 34.6409 81.8725 34.3662 81.9453 34.0982C82.0148 33.8302 82.2894 33.6713 82.5574 33.7408C82.7857 33.8004 83.0174 33.86 83.249 33.9195C83.517 33.989 83.6792 34.2603 83.613 34.5284C83.5567 34.7567 83.3516 34.9056 83.1266 34.9056H83.1233ZM79.6621 33.9559C79.6158 33.9559 79.5662 33.9493 79.5198 33.9361C79.2849 33.8666 79.0566 33.7971 78.8283 33.7243C78.5636 33.6416 78.4147 33.3603 78.4974 33.0956C78.5801 32.8309 78.8614 32.682 79.1261 32.7647C79.3511 32.8342 79.5761 32.9037 79.8077 32.9732C80.0724 33.0526 80.2246 33.3305 80.1452 33.5986C80.079 33.8169 79.8805 33.9559 79.6654 33.9559H79.6621ZM76.2572 32.821C76.1977 32.821 76.1381 32.811 76.0819 32.7879C75.8535 32.7018 75.6252 32.6125 75.4035 32.5265C75.1454 32.4239 75.0197 32.1327 75.1223 31.8746C75.2248 31.6165 75.516 31.4908 75.7741 31.5933C75.9892 31.6794 76.2109 31.7654 76.4326 31.8481C76.6907 31.9474 76.8231 32.2353 76.7238 32.4934C76.6477 32.6952 76.4558 32.8176 76.2539 32.8176L76.2572 32.821ZM72.988 31.3584C72.9086 31.3584 72.8259 31.3386 72.7498 31.2988C72.5281 31.1764 72.313 31.054 72.1112 30.9316C71.8729 30.7893 71.8001 30.4782 71.9424 30.2433C72.0847 30.0051 72.3957 29.9323 72.6307 30.0745C72.8193 30.1904 73.0211 30.3062 73.2296 30.4187C73.4711 30.551 73.5638 30.8555 73.4314 31.1003C73.3421 31.2658 73.1667 31.3617 72.9913 31.3617L72.988 31.3584ZM70.1887 29.201C70.0398 29.201 69.8942 29.1348 69.7949 29.0124L69.7684 28.976C69.6129 28.7774 69.4739 28.5789 69.3515 28.387C69.2026 28.1554 69.2721 27.8443 69.5037 27.6954C69.7387 27.5465 70.0464 27.616 70.1953 27.8476C70.3012 28.0164 70.4236 28.1885 70.5593 28.3605L70.5824 28.387C70.7545 28.6054 70.7181 28.9197 70.4997 29.0918C70.4071 29.1646 70.2979 29.201 70.1887 29.201ZM69.2191 25.9285C69.1662 25.9285 69.1133 25.9218 69.0636 25.902C68.7989 25.816 68.6566 25.5314 68.7427 25.27C68.8254 25.0119 68.9511 24.7604 69.11 24.5222C69.2622 24.2905 69.5732 24.2277 69.8048 24.3832C70.0365 24.5354 70.0993 24.8464 69.9471 25.0781C69.8379 25.2435 69.7552 25.4123 69.6989 25.5843C69.6295 25.7961 69.4342 25.9285 69.2225 25.9285H69.2191ZM71.7405 23.5692C71.5552 23.5692 71.3766 23.4666 71.2905 23.2912C71.1681 23.0431 71.2707 22.742 71.5189 22.6195C71.7306 22.5136 71.9589 22.4111 72.1972 22.3085C72.452 22.1993 72.7465 22.3184 72.8557 22.5732C72.9649 22.828 72.8457 23.1225 72.5909 23.2317C72.3726 23.3243 72.1608 23.4203 71.9656 23.5196C71.8928 23.556 71.8167 23.5725 71.7439 23.5725L71.7405 23.5692ZM75.109 22.3515C74.8873 22.3515 74.6855 22.2059 74.6259 21.9842C74.5531 21.7162 74.7087 21.4416 74.9767 21.3688C75.205 21.3059 75.4399 21.243 75.6815 21.1835C75.9495 21.114 76.2241 21.2794 76.2903 21.5474C76.3565 21.8155 76.1944 22.0901 75.9263 22.1563C75.6947 22.2158 75.4631 22.2754 75.2414 22.335C75.1984 22.3482 75.1521 22.3515 75.109 22.3515ZM78.6066 21.5541C78.3716 21.5541 78.1599 21.3886 78.1135 21.1471C78.0606 20.8757 78.2393 20.611 78.5106 20.5614C78.7455 20.5151 78.9805 20.472 79.222 20.429C79.4967 20.3794 79.7548 20.5614 79.8044 20.8327C79.854 21.104 79.672 21.3654 79.4007 21.4151C79.1658 21.4581 78.9308 21.5011 78.6992 21.5441C78.6661 21.5508 78.6364 21.5541 78.6033 21.5541H78.6066ZM82.1471 20.9585C81.9023 20.9585 81.6905 20.7798 81.6508 20.5316C81.6111 20.257 81.7997 20.0022 82.071 19.9625C82.306 19.9261 82.5442 19.893 82.7824 19.8566C83.0571 19.8169 83.3119 20.0088 83.3516 20.2801C83.3913 20.5548 83.1994 20.8096 82.928 20.8493C82.6898 20.8823 82.4549 20.9187 82.2199 20.9518C82.1934 20.9551 82.1703 20.9585 82.1438 20.9585H82.1471ZM85.7042 20.4687C85.4561 20.4687 85.241 20.2834 85.2079 20.0286C85.1748 19.754 85.3667 19.5025 85.6414 19.4694C85.8763 19.4397 86.1145 19.4099 86.3561 19.3801C86.6307 19.347 86.8822 19.5422 86.9153 19.8169C86.9484 20.0915 86.7532 20.343 86.4785 20.3761C86.2403 20.4059 86.0053 20.4356 85.7671 20.4654C85.7472 20.4654 85.7241 20.4687 85.7042 20.4687ZM89.2679 20.0452C89.0165 20.0452 88.7981 19.8566 88.7716 19.6018C88.7418 19.3272 88.937 19.079 89.2117 19.0459C89.4499 19.0194 89.6849 18.993 89.9231 18.9665C90.1977 18.9367 90.4459 19.1319 90.479 19.4099C90.5088 19.6845 90.3136 19.9327 90.0356 19.9658C89.7974 19.9922 89.5591 20.0187 89.3242 20.0452C89.3043 20.0452 89.2845 20.0452 89.2679 20.0452ZM92.835 19.6481C92.5835 19.6481 92.3651 19.4595 92.3386 19.2014C92.3088 18.9268 92.5074 18.6786 92.782 18.6488L93.4967 18.5694C93.7714 18.5396 94.0196 18.7382 94.0493 19.0128C94.0791 19.2874 93.8806 19.5356 93.6059 19.5654L92.8945 19.6448C92.8747 19.6448 92.8581 19.6448 92.8383 19.6448L92.835 19.6481ZM96.4053 19.251C96.1538 19.251 95.9354 19.0624 95.909 18.8043C95.8792 18.5297 96.0744 18.2815 96.3523 18.2484C96.5906 18.222 96.8288 18.1955 97.0638 18.169C97.3384 18.1392 97.5866 18.3345 97.6197 18.6091C97.6494 18.8838 97.4542 19.1319 97.1796 19.165C96.9413 19.1915 96.7031 19.218 96.4682 19.2444C96.4483 19.2444 96.4318 19.2444 96.4119 19.2444L96.4053 19.251ZM99.969 18.8374C99.7175 18.8374 99.5024 18.6521 99.4727 18.3973C99.4396 18.1227 99.6348 17.8712 99.9094 17.8381C100.148 17.8084 100.383 17.7786 100.621 17.7521C100.896 17.719 101.147 17.9142 101.18 18.1889C101.213 18.4635 101.018 18.715 100.743 18.7481C100.505 18.7779 100.27 18.8077 100.032 18.8341C100.012 18.8341 99.9922 18.8374 99.9723 18.8374H99.969ZM103.526 18.3742C103.281 18.3742 103.066 18.1922 103.03 17.9407C102.99 17.6661 103.182 17.4146 103.457 17.3749C103.695 17.3418 103.93 17.3087 104.165 17.2756C104.439 17.2359 104.694 17.4278 104.734 17.6992C104.774 17.9738 104.582 18.2286 104.31 18.2683C104.075 18.3014 103.837 18.3345 103.599 18.3709C103.576 18.3742 103.553 18.3742 103.529 18.3742H103.526ZM107.077 17.8315C106.835 17.8315 106.623 17.6595 106.584 17.4146C106.537 17.14 106.723 16.8819 106.994 16.8355C107.229 16.7958 107.464 16.7561 107.695 16.7131C107.97 16.6635 108.228 16.8455 108.278 17.1201C108.327 17.3914 108.145 17.6528 107.871 17.7025C107.636 17.7455 107.401 17.7852 107.159 17.8249C107.13 17.8282 107.103 17.8315 107.077 17.8315ZM110.601 17.1565C110.369 17.1565 110.164 16.9977 110.111 16.7627C110.051 16.4914 110.223 16.2234 110.495 16.1671C110.73 16.1175 110.961 16.0646 111.186 16.0116C111.458 15.9487 111.726 16.1175 111.788 16.3855C111.851 16.6568 111.683 16.9249 111.415 16.9877C111.183 17.0407 110.948 17.0936 110.71 17.1466C110.673 17.1532 110.637 17.1598 110.604 17.1598L110.601 17.1565ZM114.075 16.2598C113.86 16.2598 113.661 16.1208 113.595 15.9057C113.512 15.641 113.661 15.3597 113.926 15.277C114.154 15.2075 114.379 15.1347 114.598 15.0619C114.859 14.9726 115.144 15.1149 115.233 15.3763C115.322 15.6377 115.18 15.9223 114.919 16.0116C114.694 16.0877 114.459 16.1638 114.224 16.2366C114.174 16.2532 114.125 16.2598 114.075 16.2598ZM117.404 14.9428C117.222 14.9428 117.05 14.8436 116.96 14.6748C116.831 14.4299 116.927 14.1255 117.172 13.9998C117.381 13.8906 117.582 13.7781 117.768 13.6656C118.006 13.5233 118.314 13.5961 118.456 13.8343C118.598 14.0726 118.522 14.3803 118.287 14.5226C118.082 14.645 117.864 14.7708 117.635 14.8866C117.563 14.9263 117.483 14.9428 117.404 14.9428ZM120.114 12.6828C120.014 12.6828 119.919 12.653 119.829 12.5935C119.601 12.438 119.545 12.1236 119.7 11.8953C119.829 11.7034 119.938 11.5214 120.024 11.346C120.144 11.0979 120.445 10.992 120.693 11.1111C120.941 11.2302 121.047 11.5313 120.928 11.7795C120.822 12.0012 120.686 12.2295 120.527 12.4644C120.431 12.6067 120.273 12.6828 120.114 12.6828ZM119.971 9.52611C119.859 9.52611 119.743 9.4864 119.647 9.40699C119.502 9.28456 119.33 9.16544 119.131 9.04963C118.893 8.91065 118.81 8.60292 118.949 8.36468C119.088 8.12644 119.396 8.04371 119.634 8.18269C119.882 8.32497 120.101 8.48049 120.289 8.63932C120.501 8.818 120.527 9.13566 120.349 9.34743C120.249 9.46655 120.107 9.52611 119.965 9.52611H119.971ZM116.709 8.11982C116.669 8.11982 116.626 8.1132 116.583 8.10327C116.365 8.04702 116.136 7.99077 115.901 7.93783C115.63 7.87827 115.461 7.60693 115.521 7.33891C115.581 7.06758 115.849 6.89882 116.12 6.95838C116.365 7.01464 116.606 7.07089 116.831 7.13045C117.099 7.19994 117.261 7.47127 117.192 7.7426C117.132 7.96761 116.931 8.11982 116.706 8.11982H116.709ZM113.191 7.43487C113.165 7.43487 113.142 7.43487 113.115 7.42825C112.884 7.39185 112.649 7.35877 112.411 7.32568C112.136 7.28597 111.944 7.03449 111.984 6.75985C112.023 6.48521 112.275 6.29329 112.55 6.333C112.791 6.36609 113.029 6.40249 113.264 6.43888C113.539 6.4819 113.728 6.73669 113.685 7.01133C113.648 7.2595 113.433 7.43818 113.188 7.43818L113.191 7.43487ZM109.634 6.97162C109.615 6.97162 109.595 6.97162 109.578 6.97162C109.343 6.94515 109.105 6.91868 108.867 6.89221C108.592 6.86243 108.394 6.61426 108.423 6.33962C108.453 6.06497 108.701 5.86644 108.976 5.89622C109.214 5.92269 109.452 5.94916 109.691 5.97563C109.965 6.00872 110.164 6.25689 110.131 6.53153C110.101 6.78632 109.886 6.97493 109.634 6.97493V6.97162ZM106.067 6.58778C106.051 6.58778 106.031 6.58778 106.014 6.58778L105.3 6.51168C105.025 6.4819 104.823 6.23704 104.853 5.95909C104.883 5.68445 105.128 5.4826 105.406 5.51238L106.117 5.58849C106.392 5.61827 106.593 5.86313 106.564 6.13777C106.537 6.39587 106.319 6.58778 106.064 6.58778H106.067ZM102.5 6.20726C102.48 6.20726 102.464 6.20726 102.444 6.20726C102.206 6.18079 101.968 6.15432 101.726 6.12454C101.451 6.09145 101.253 5.84328 101.286 5.56863C101.319 5.29399 101.567 5.09546 101.842 5.12855C102.08 5.15502 102.318 5.1848 102.557 5.21127C102.831 5.24105 103.03 5.48922 103 5.76717C102.97 6.02196 102.755 6.21388 102.504 6.21388L102.5 6.20726ZM98.9399 5.76386C98.9168 5.76386 98.8936 5.76386 98.8704 5.76055C98.6322 5.72746 98.394 5.69437 98.1557 5.65798C97.8811 5.61827 97.6925 5.36348 97.7322 5.08884C97.7719 4.8142 98.0267 4.62559 98.3013 4.6653C98.5362 4.69839 98.7712 4.73479 99.0061 4.76457C99.2807 4.80427 99.4727 5.05575 99.433 5.33039C99.3966 5.58187 99.1848 5.76386 98.9366 5.76386H98.9399ZM95.3994 5.19142C95.3696 5.19142 95.3365 5.19142 95.3067 5.18149C95.0652 5.13517 94.8269 5.08884 94.5953 5.04252C94.324 4.98626 94.1486 4.72155 94.2049 4.45022C94.2611 4.17889 94.5258 4.00351 94.7971 4.05976C95.0222 4.10609 95.2571 4.15241 95.4953 4.19543C95.7667 4.24837 95.9453 4.50978 95.8957 4.78111C95.8494 5.02266 95.6409 5.18811 95.4027 5.18811L95.3994 5.19142ZM91.9085 4.38404C91.8621 4.38404 91.8158 4.37742 91.7695 4.36419C91.5312 4.2947 91.2963 4.22521 91.0713 4.15572C90.8066 4.073 90.661 3.79174 90.7437 3.52703C90.8264 3.26231 91.1077 3.11672 91.3724 3.19944C91.5908 3.26893 91.8158 3.33511 92.0474 3.40129C92.3121 3.47739 92.4677 3.75534 92.3916 4.02006C92.3287 4.24176 92.1269 4.38404 91.9085 4.38404Z" fill="#343A40"/>
    <path d="M89.705 3.1366C90.0557 4.57598 89.4072 6.60767 88.699 7.85844C88.474 5.46278 87.7494 3.05388 86.31 1.07514C88.709 1.47552 91.1609 0.873296 93.4308 0.065918C92.5275 1.31669 91.237 2.71968 89.7083 3.1366H89.705Z" fill="#343A40"/>
    <path d="M62.2706 91.2201C62.211 91.2201 62.1515 91.2102 62.0919 91.1871L61.4235 90.929C61.1654 90.8297 61.0364 90.5385 61.1356 90.2804C61.2349 90.0223 61.5261 89.8933 61.7842 89.9925L62.4526 90.2506C62.7107 90.3499 62.8397 90.6411 62.7405 90.8992C62.6643 91.0977 62.4724 91.2201 62.2739 91.2201H62.2706ZM58.9253 89.933C58.8657 89.933 58.8061 89.923 58.7466 89.8999L58.0782 89.6418C57.8201 89.5425 57.691 89.2513 57.7903 88.9932C57.8896 88.7351 58.1808 88.6061 58.4388 88.7054L59.1073 88.9635C59.3653 89.0627 59.4944 89.3539 59.3951 89.612C59.319 89.8105 59.1271 89.933 58.9286 89.933H58.9253ZM55.5832 88.6491C55.5237 88.6491 55.4641 88.6392 55.4046 88.616L54.7362 88.3579C54.4781 88.2587 54.349 87.9675 54.4483 87.7094C54.5476 87.4513 54.8387 87.3222 55.0968 87.4215L55.7652 87.6796C56.0233 87.7789 56.1524 88.07 56.0531 88.3281C55.977 88.5267 55.7851 88.6491 55.5866 88.6491H55.5832ZM52.2412 87.3619C52.1817 87.3619 52.1221 87.352 52.0625 87.3288L51.3941 87.0708C51.136 86.9715 51.007 86.6803 51.1063 86.4222C51.2055 86.1641 51.4967 86.0351 51.7548 86.1343L52.4232 86.3924C52.6813 86.4917 52.8104 86.7829 52.7111 87.041C52.635 87.2395 52.4431 87.3619 52.2445 87.3619H52.2412ZM48.8959 86.0781C48.8363 86.0781 48.7768 86.0681 48.7172 86.045L48.0488 85.7869C47.7907 85.6876 47.6617 85.3964 47.7609 85.1383C47.8602 84.8802 48.1514 84.7512 48.4095 84.8505L49.0779 85.1086C49.336 85.2078 49.465 85.499 49.3658 85.7571C49.2897 85.9556 49.0977 86.0781 48.8992 86.0781H48.8959ZM45.5539 84.7909C45.4943 84.7909 45.4348 84.781 45.3752 84.7578L44.7068 84.4997C44.4487 84.4004 44.3197 84.1093 44.4189 83.8512C44.5182 83.5931 44.8094 83.464 45.0675 83.5633L45.7359 83.8214C45.994 83.9207 46.123 84.2118 46.0238 84.4699C45.9476 84.6685 45.7557 84.7909 45.5572 84.7909H45.5539ZM42.2119 83.507C42.1523 83.507 42.0927 83.4971 42.0332 83.474L41.3648 83.2159C41.1067 83.1166 40.9776 82.8254 41.0769 82.5673C41.1762 82.3092 41.4674 82.1802 41.7255 82.2794L42.3939 82.5375C42.652 82.6368 42.781 82.928 42.6817 83.1861C42.6056 83.3846 42.4137 83.507 42.2152 83.507H42.2119ZM38.8699 82.2199C38.8103 82.2199 38.7507 82.2099 38.6912 82.1868L38.0228 81.9287C37.7647 81.8294 37.6356 81.5382 37.7349 81.2801C37.8342 81.022 38.1253 80.893 38.3834 80.9923L39.0518 81.2504C39.3099 81.3496 39.439 81.6408 39.3397 81.8989C39.2636 82.0974 39.0717 82.2199 38.8732 82.2199H38.8699ZM35.6536 80.6911C35.5378 80.6911 35.422 80.6514 35.3293 80.572C35.1242 80.3966 34.9355 80.208 34.7668 80.0062C34.5881 79.7944 34.6146 79.4768 34.8263 79.2981C35.0381 79.1194 35.3558 79.1459 35.5345 79.3576C35.6668 79.5165 35.819 79.6687 35.9812 79.8043C36.1929 79.983 36.2194 80.3007 36.0374 80.5125C35.9381 80.6283 35.7959 80.6878 35.6536 80.6878V80.6911ZM34.1844 77.5477C33.9098 77.5477 33.6848 77.326 33.6815 77.048V77.0116C33.6815 76.7601 33.7013 76.5087 33.7377 76.2572C33.7807 75.9825 34.0355 75.7939 34.3102 75.8369C34.5848 75.88 34.7734 76.1348 34.7304 76.4094C34.7006 76.6112 34.6841 76.8131 34.6841 77.0116V77.0414C34.6841 77.3193 34.4624 77.5444 34.1844 77.5444V77.5477ZM35.455 74.2851C35.3359 74.2851 35.2168 74.242 35.1208 74.156C34.9157 73.9707 34.8958 73.6531 35.0811 73.4479C35.2532 73.2527 35.4451 73.0707 35.6437 72.9019C35.8554 72.7232 36.1698 72.7497 36.3518 72.9615C36.5304 73.1733 36.504 73.4876 36.2922 73.6696C36.1268 73.8086 35.9712 73.9608 35.829 74.1196C35.7297 74.2288 35.594 74.2851 35.455 74.2851ZM38.529 72.5677C38.2974 72.5677 38.0889 72.4056 38.0393 72.1673C37.9831 71.896 38.1584 71.6313 38.4298 71.5751L38.4595 71.5684C38.6846 71.5221 38.9096 71.4791 39.1346 71.4328C39.4059 71.3798 39.6706 71.5552 39.7236 71.8265C39.7765 72.0979 39.6011 72.3626 39.3298 72.4155C39.1048 72.4585 38.8798 72.5049 38.6548 72.5512H38.6316C38.5985 72.5611 38.5621 72.5644 38.529 72.5644V72.5677ZM42.0431 71.8828C41.8082 71.8828 41.5964 71.714 41.5501 71.4758C41.4971 71.2044 41.6758 70.9397 41.9505 70.8901C42.1854 70.8438 42.4203 70.8008 42.6553 70.7577C42.9266 70.7081 43.188 70.8868 43.2409 71.1581C43.2939 71.4295 43.1119 71.6909 42.8406 71.7438C42.6056 71.7868 42.3707 71.8331 42.1391 71.8762C42.106 71.8828 42.0762 71.8861 42.0431 71.8861V71.8828ZM45.5671 71.2276C45.3289 71.2276 45.1171 71.0589 45.0741 70.814C45.0245 70.5427 45.2065 70.2813 45.4778 70.2316C45.7127 70.1886 45.9477 70.1456 46.1826 70.1059C46.4539 70.0563 46.7153 70.2382 46.765 70.5096C46.8146 70.7809 46.6326 71.0423 46.3613 71.0919C46.1263 71.135 45.8914 71.178 45.6565 71.2177C45.6267 71.2243 45.5969 71.2243 45.5671 71.2243V71.2276ZM49.0911 70.6055C48.8529 70.6055 48.6411 70.4335 48.5981 70.1886C48.5518 69.9173 48.7338 69.6559 49.0084 69.6095C49.2433 69.5698 49.4783 69.5301 49.7165 69.4871C49.9912 69.4408 50.2493 69.6228 50.2956 69.8974C50.3419 70.1688 50.1599 70.4302 49.8853 70.4765C49.6503 70.5162 49.4154 70.5559 49.1805 70.5989C49.1507 70.6055 49.1242 70.6055 49.0944 70.6055H49.0911ZM52.6251 70.0132C52.3835 70.0132 52.1717 69.8379 52.132 69.593C52.0857 69.3184 52.271 69.0603 52.5457 69.0173C52.7806 68.9775 53.0188 68.9411 53.2538 68.9014C53.5284 68.8584 53.7832 69.0437 53.8295 69.3151C53.8758 69.5864 53.6872 69.8445 53.4159 69.8908C53.181 69.9272 52.946 69.9669 52.7111 70.0066C52.6846 70.0099 52.6548 70.0132 52.6284 70.0132H52.6251ZM56.1623 69.4474C55.9208 69.4474 55.7057 69.272 55.666 69.0239C55.6229 68.7492 55.8116 68.4944 56.0829 68.4514C56.3178 68.415 56.5561 68.3786 56.791 68.3422C57.0656 68.3025 57.3204 68.4878 57.3634 68.7625C57.4065 69.0371 57.2179 69.2919 56.9432 69.3349C56.7083 69.3713 56.4733 69.4077 56.2351 69.4441C56.2086 69.4474 56.1822 69.4507 56.159 69.4507L56.1623 69.4474ZM59.7029 68.9114C59.458 68.9114 59.2429 68.7327 59.2065 68.4845C59.1668 68.2099 59.3554 67.9551 59.6301 67.9154C59.8683 67.879 60.1032 67.8459 60.3382 67.8095C60.6128 67.7698 60.8676 67.9584 60.9073 68.233C60.947 68.5077 60.7584 68.7625 60.4838 68.8022C60.2488 68.8353 60.0106 68.8717 59.7757 68.9047C59.7492 68.9081 59.726 68.9114 59.7029 68.9114ZM63.2467 68.4018C63.0019 68.4018 62.7868 68.2198 62.7504 67.9683C62.7107 67.6937 62.9026 67.4422 63.1772 67.4025C63.4155 67.3694 63.6504 67.3363 63.8887 67.3032C64.1633 67.2668 64.4148 67.4554 64.4545 67.7301C64.4909 68.0047 64.3023 68.2562 64.0276 68.2959C63.7927 68.329 63.5544 68.3621 63.3195 68.3952C63.2964 68.3985 63.2732 68.3985 63.25 68.3985L63.2467 68.4018ZM66.7972 67.9187C66.549 67.9187 66.3339 67.7367 66.3009 67.4819C66.2645 67.2073 66.4564 66.9558 66.731 66.9194C66.9693 66.8896 67.2042 66.8565 67.4424 66.8267C67.7171 66.7903 67.9686 66.9856 68.005 67.2602C68.0414 67.5349 67.8461 67.7863 67.5715 67.8227C67.3366 67.8525 67.0983 67.8856 66.8634 67.9154C66.8402 67.9154 66.8204 67.9187 66.7972 67.9187ZM70.351 67.4587C70.1028 67.4587 69.8844 67.2734 69.8546 67.0187C69.8216 66.744 70.0135 66.4925 70.2881 66.4594C70.5264 66.4297 70.7613 66.3999 70.9995 66.3701C71.2742 66.337 71.5257 66.5322 71.5587 66.8069C71.5918 67.0815 71.3966 67.333 71.122 67.3661C70.887 67.3959 70.6488 67.4257 70.4105 67.4554C70.3907 67.4554 70.3675 67.4587 70.3477 67.4587H70.351ZM73.9048 67.0253C73.6533 67.0253 73.4382 66.8367 73.4084 66.5819C73.3753 66.3072 73.5706 66.0591 73.8485 66.026C74.0868 65.9962 74.325 65.9697 74.5599 65.9433C74.8346 65.9102 75.0827 66.1087 75.1158 66.3833C75.1489 66.658 74.9504 66.9062 74.6758 66.9392C74.4375 66.9657 74.2026 66.9955 73.9643 67.022C73.9445 67.022 73.9246 67.0253 73.9048 67.0253ZM77.4619 66.6117C77.2104 66.6117 76.992 66.423 76.9655 66.165C76.9357 65.8903 77.131 65.6421 77.4089 65.6091C77.6472 65.5826 77.8854 65.5561 78.1203 65.5296C78.395 65.4999 78.6432 65.6984 78.6729 65.973C78.7027 66.2477 78.5042 66.4958 78.2295 66.5256C77.9913 66.5521 77.7564 66.5786 77.5181 66.605C77.4983 66.605 77.4817 66.605 77.4619 66.605V66.6117ZM81.0223 66.2212C80.7708 66.2212 80.5524 66.0293 80.5259 65.7745C80.4962 65.4999 80.6947 65.2517 80.9726 65.2219C81.2109 65.1954 81.4491 65.1723 81.6841 65.1458C81.9587 65.116 82.2069 65.3179 82.2366 65.5925C82.2664 65.8672 82.0646 66.1153 81.7899 66.1451C81.5517 66.1716 81.3168 66.1947 81.0785 66.2212C81.062 66.2212 81.0421 66.2212 81.0256 66.2212H81.0223ZM84.586 65.8506C84.3312 65.8506 84.1128 65.6587 84.0863 65.4006C84.0599 65.126 84.2584 64.8778 84.5364 64.8513C84.7746 64.8281 85.0128 64.805 85.2511 64.7785C85.5257 64.752 85.7739 64.9506 85.8004 65.2285C85.8268 65.5032 85.6283 65.7513 85.3503 65.7778C85.1121 65.801 84.8772 65.8241 84.6389 65.8506C84.6224 65.8506 84.6058 65.8506 84.5893 65.8506H84.586ZM88.1497 65.4999C87.8949 65.4999 87.6765 65.3046 87.6501 65.0465C87.6236 64.7719 87.8254 64.527 88.1001 64.5006L88.8148 64.4311C89.0927 64.4046 89.3343 64.6065 89.3608 64.8844C89.3872 65.159 89.1854 65.4039 88.9074 65.4304L88.196 65.4999C88.196 65.4999 88.1629 65.4999 88.1464 65.4999H88.1497ZM91.7167 65.169C91.4586 65.169 91.2402 64.9737 91.2171 64.7123C91.1906 64.4377 91.3958 64.1928 91.6704 64.1664L92.3851 64.1002C92.6598 64.0737 92.9046 64.2789 92.9311 64.5535C92.9576 64.8281 92.7524 65.073 92.4778 65.0995L91.7631 65.1657C91.7631 65.1657 91.7333 65.1657 91.7167 65.1657V65.169ZM95.2837 64.8513C95.0256 64.8513 94.8073 64.6528 94.7841 64.3947C94.7609 64.12 94.9628 63.8752 95.2407 63.852C95.479 63.8322 95.7172 63.8123 95.9555 63.7891C96.2334 63.766 96.475 63.9711 96.4981 64.2458C96.5213 64.5204 96.3161 64.7653 96.0415 64.7884C95.8032 64.8083 95.565 64.8281 95.3268 64.8513C95.3135 64.8513 95.297 64.8513 95.2837 64.8513ZM98.8541 64.5469C98.596 64.5469 98.3776 64.3484 98.3544 64.0869C98.3313 63.8123 98.5364 63.5674 98.8111 63.5443L99.5258 63.4847C99.8004 63.4616 100.045 63.6667 100.065 63.9447C100.088 64.2193 99.8831 64.4642 99.6052 64.484L98.8905 64.5436C98.8905 64.5436 98.864 64.5436 98.8475 64.5436L98.8541 64.5469ZM102.424 64.259C102.166 64.259 101.945 64.0605 101.925 63.7991C101.902 63.5244 102.11 63.2829 102.385 63.2597L103.099 63.2035C103.374 63.1803 103.616 63.3888 103.639 63.6634C103.662 63.938 103.453 64.1796 103.179 64.2028L102.464 64.259C102.464 64.259 102.438 64.259 102.424 64.259ZM105.995 63.9778C105.737 63.9778 105.515 63.7792 105.495 63.5145C105.475 63.2399 105.68 62.9983 105.955 62.9751L106.67 62.9189C106.944 62.899 107.186 63.1042 107.209 63.3788C107.229 63.6535 107.024 63.895 106.749 63.9182L106.034 63.9744C106.034 63.9744 106.008 63.9744 105.995 63.9744V63.9778ZM109.565 63.7064C109.304 63.7064 109.085 63.5046 109.065 63.2432C109.046 62.9685 109.251 62.727 109.529 62.7071L110.243 62.6542C110.518 62.6343 110.76 62.8395 110.779 63.1174C110.799 63.3921 110.594 63.6336 110.316 63.6535L109.601 63.7064C109.601 63.7064 109.575 63.7064 109.562 63.7064H109.565ZM113.139 63.4384C112.877 63.4384 112.659 63.2366 112.639 62.9751C112.619 62.7005 112.824 62.459 113.102 62.4391L113.817 62.3862C114.092 62.3663 114.333 62.5715 114.353 62.8494C114.373 63.1241 114.168 63.3656 113.89 63.3855L113.175 63.4384C113.175 63.4384 113.149 63.4384 113.139 63.4384ZM116.709 63.1737C116.448 63.1737 116.229 62.9718 116.209 62.7104C116.19 62.4358 116.395 62.1942 116.673 62.1744L117.387 62.1214C117.665 62.1016 117.904 62.3067 117.923 62.5847C117.943 62.8593 117.738 63.1009 117.46 63.1207L116.745 63.1737C116.745 63.1737 116.719 63.1737 116.709 63.1737Z" fill="#343A40"/>
    <path d="M53.2011 33.9191H49.9848L48.5818 31.3414H54.7298L53.2011 33.9191Z" fill="white"/>
    <path d="M53.2006 34.4189H49.981C49.7957 34.4189 49.627 34.3196 49.5409 34.1575L48.1413 31.5831C48.0552 31.4276 48.0619 31.239 48.1512 31.0868C48.2405 30.9346 48.406 30.8419 48.5814 30.8419H54.7293C54.908 30.8419 55.0768 30.9379 55.1661 31.0967C55.2555 31.2522 55.2522 31.4441 55.1628 31.5997L53.6341 34.174C53.5447 34.3262 53.3793 34.4189 53.2039 34.4189H53.2006ZM50.2821 33.4163H52.916L53.8492 31.8445H49.4251L50.2788 33.4163H50.2821Z" fill="#343A40"/>
    <path d="M51.5923 22.3844L47.7837 25.015L48.4356 31.3417H54.8747L55.3479 24.9587L51.5923 22.3844Z" fill="white"/>
    <path d="M54.8748 31.8448H48.4357C48.1776 31.8448 47.9625 31.6495 47.936 31.3947L47.2842 25.0648C47.2643 24.8828 47.347 24.7041 47.4992 24.6015L51.3078 21.9742C51.4799 21.8551 51.7049 21.8551 51.877 21.9742L55.6326 24.5486C55.7782 24.6511 55.8609 24.8199 55.8477 24.9986L55.3778 31.3815C55.3579 31.6429 55.1396 31.8448 54.8782 31.8448H54.8748ZM48.889 30.8422H54.4116L54.8252 25.2104L51.5924 22.9934L48.3132 25.2567L48.889 30.8422Z" fill="#343A40"/>
    <path d="M51.5658 31.8448C51.2879 31.8448 51.0629 31.6198 51.0629 31.3419V25.227C51.0629 24.949 51.2879 24.724 51.5658 24.724C51.8438 24.724 52.0688 24.949 52.0688 25.227V31.3419C52.0688 31.6198 51.8438 31.8448 51.5658 31.8448Z" fill="#343A40"/>
    <path d="M51.5662 39.776C51.4835 39.776 51.4008 39.7562 51.3246 39.7132C51.0831 39.5775 50.9938 39.2731 51.1294 39.0315C51.2353 38.8429 53.7402 34.3693 56.6752 33.413C57.6612 33.092 58.5216 33.2608 59.0311 33.8762C59.5341 34.4884 59.6003 35.4314 59.19 36.1726C58.8194 36.841 58.141 37.1785 57.3734 37.0793C57.0987 37.0429 56.9068 36.7914 56.9432 36.5168C56.9796 36.2421 57.2311 36.0502 57.5057 36.0866C57.959 36.1462 58.194 35.9046 58.3131 35.6895C58.5183 35.3189 58.4951 34.8027 58.2602 34.5149C57.959 34.1476 57.4031 34.2336 56.9895 34.366C54.4251 35.2031 52.0328 39.4749 52.0096 39.518C51.9169 39.6834 51.7482 39.776 51.5695 39.776H51.5662Z" fill="#343A40"/>
    <path d="M51.4765 39.776C51.3011 39.776 51.1291 39.6834 51.0364 39.518C51.0066 39.465 48.6143 35.1998 46.0565 34.366C45.6429 34.2303 45.087 34.1476 44.7859 34.5149C44.5509 34.8027 44.5245 35.3156 44.7329 35.6895C44.852 35.9046 45.087 36.1462 45.5403 36.0866C45.8149 36.0502 46.0664 36.2421 46.1028 36.5168C46.1392 36.7914 45.9473 37.0429 45.6727 37.0793C44.905 37.1818 44.2267 36.841 43.8561 36.1726C43.4457 35.4314 43.5086 34.4851 44.0149 33.8762C44.5245 33.2608 45.3815 33.092 46.3708 33.413C49.3092 34.3693 51.814 38.8429 51.9166 39.0315C52.0523 39.2731 51.9629 39.5775 51.7214 39.7132C51.6453 39.7562 51.5625 39.776 51.4798 39.776H51.4765Z" fill="#343A40"/>
  </g>
  <defs>
    <clipPath id="clip0_2331_3126">
      <rect width="176.366" height="96.6703" fill="white" transform="translate(0.817139 0.0656738)"/>
    </clipPath>
  </defs>
</svg>