<svg xmlns="http://www.w3.org/2000/svg" width="28" height="24" viewBox="0 0 28 24" fill="none">
    <g clip-path="url(#clip0_4851_13172)">
        <path d="M15.5 3C15.9125 3 16.25 3.3375 16.25 3.75V6.75C16.25 7.1625 15.9125 7.5 15.5 7.5H14.75H13.25H12.5C12.0875 7.5 11.75 7.1625 11.75 6.75V3.75C11.75 3.3375 12.0875 3 12.5 3H15.5ZM12.5 9H13.25V11.25H5.75C4.50781 11.25 3.5 12.2578 3.5 13.5V15H2.75C1.50781 15 0.5 16.0078 0.5 17.25V20.25C0.5 21.4922 1.50781 22.5 2.75 22.5H5.75C6.99219 22.5 8 21.4922 8 20.25V17.25C8 16.0078 6.99219 15 5.75 15H5V13.5C5 13.0875 5.3375 12.75 5.75 12.75H13.25V15H12.5C11.2578 15 10.25 16.0078 10.25 17.25V20.25C10.25 21.4922 11.2578 22.5 12.5 22.5H15.5C16.7422 22.5 17.75 21.4922 17.75 20.25V17.25C17.75 16.0078 16.7422 15 15.5 15H14.75V12.75H22.25C22.6625 12.75 23 13.0875 23 13.5V15H22.25C21.0078 15 20 16.0078 20 17.25V20.25C20 21.4922 21.0078 22.5 22.25 22.5H25.25C26.4922 22.5 27.5 21.4922 27.5 20.25V17.25C27.5 16.0078 26.4922 15 25.25 15H24.5V13.5C24.5 12.2578 23.4922 11.25 22.25 11.25H14.75V9H15.5C16.7422 9 17.75 7.99219 17.75 6.75V3.75C17.75 2.50781 16.7422 1.5 15.5 1.5H12.5C11.2578 1.5 10.25 2.50781 10.25 3.75V6.75C10.25 7.99219 11.2578 9 12.5 9ZM2.75 16.5H5.75C6.1625 16.5 6.5 16.8375 6.5 17.25V20.25C6.5 20.6625 6.1625 21 5.75 21H2.75C2.3375 21 2 20.6625 2 20.25V17.25C2 16.8375 2.3375 16.5 2.75 16.5ZM12.5 16.5H15.5C15.9125 16.5 16.25 16.8375 16.25 17.25V20.25C16.25 20.6625 15.9125 21 15.5 21H12.5C12.0875 21 11.75 20.6625 11.75 20.25V17.25C11.75 16.8375 12.0875 16.5 12.5 16.5ZM22.25 16.5H25.25C25.6625 16.5 26 16.8375 26 17.25V20.25C26 20.6625 25.6625 21 25.25 21H22.25C21.8375 21 21.5 20.6625 21.5 20.25V17.25C21.5 16.8375 21.8375 16.5 22.25 16.5Z" fill="#9166EB"/>
    </g>
    <defs>
        <clipPath id="clip0_4851_13172">
            <rect width="27" height="24" fill="white" transform="translate(0.5)"/>
        </clipPath>
    </defs>
</svg>