<svg width="24" height="24" viewBox="0 0 24 24" fill="none" xmlns="http://www.w3.org/2000/svg">
<rect x="0.5" y="0.5" width="23" height="23" rx="1.5" fill="#F8F9FA"/>
<rect x="0.5" y="0.5" width="23" height="23" rx="1.5" stroke="#E2E1E1"/>
<g clip-path="url(#clip0_4426_14894)">
<path d="M10 17C10 16.4469 9.55312 16 9 16H6C5.44687 16 5 15.5531 5 15V6C5 5.44687 5.44687 5 6 5H18C18.5531 5 19 5.44687 19 6V15C19 15.5531 18.5531 16 18 16H13.6656C13.45 16 13.2375 16.0687 13.0656 16.2L10 18.5V17ZM6 4C4.89688 4 4 4.89688 4 6V15C4 16.1031 4.89688 17 6 17H8H9V18V19.5C9 19.6906 9.10625 19.8625 9.275 19.9469C9.44375 20.0312 9.64688 20.0125 9.8 19.9L13.6656 17H18C19.1031 17 20 16.1031 20 15V6C20 4.89688 19.1031 4 18 4H6ZM10 8C9.725 8 9.5 8.225 9.5 8.5C9.5 8.775 9.725 9 10 9H11.5V12.5C11.5 12.775 11.725 13 12 13C12.275 13 12.5 12.775 12.5 12.5V9H14C14.275 9 14.5 8.775 14.5 8.5C14.5 8.225 14.275 8 14 8H12H10Z" fill="#2B2B2B"/>
</g>
<defs>
<clipPath id="clip0_4426_14894">
<rect width="16" height="16" fill="white" transform="translate(4 4)"/>
</clipPath>
</defs>
</svg>
