<svg width="25" height="24" viewBox="0 0 25 24" fill="none" xmlns="http://www.w3.org/2000/svg">
<rect x="1" y="0.5" width="23" height="23" rx="1.5" fill="#F8F9FA"/>
<rect x="1" y="0.5" width="23" height="23" rx="1.5" stroke="#E2E1E1"/>
<g clip-path="url(#clip0_4426_14900)">
<path d="M14.3381 16H14.1663C13.9506 16 13.7381 16.0687 13.5663 16.2L10.5006 18.5V17C10.5006 16.4469 10.0538 16 9.50064 16H6.50064C5.94751 16 5.50064 15.5531 5.50064 15V9.02187L4.50064 8.23125V15C4.50064 16.1031 5.39751 17 6.50064 17H8.50064H9.50064V18V19.5C9.50064 19.6906 9.60689 19.8625 9.77564 19.9469C9.94439 20.0312 10.1475 20.0125 10.3006 19.9L14.1663 17H15.6038L14.3381 16ZM6.50064 4C6.24126 4 5.99751 4.05 5.76939 4.1375L6.86314 5H18.5006C19.0538 5 19.5006 5.44687 19.5006 6V14.9781L20.385 15.675C20.46 15.4625 20.5006 15.2375 20.5006 15V6C20.5006 4.89688 19.6038 4 18.5006 4H6.50064ZM3.31001 4.10625C3.09439 3.9375 2.77876 3.975 2.60689 4.19062C2.43501 4.40625 2.47564 4.72188 2.69126 4.89375L21.6913 19.8938C21.9069 20.0656 22.2225 20.0281 22.3944 19.8125C22.5663 19.5969 22.5288 19.2812 22.3131 19.1094L3.31001 4.10625Z" fill="#2B2B2B"/>
<path d="M10.5 8.00757C10.225 8.00757 10 8.23257 10 8.50757C10 8.78257 10.225 9.00757 10.5 9.00757H12V12.5076C12 12.7826 12.225 13.0076 12.5 13.0076C12.775 13.0076 13 12.7826 13 12.5076V9.00757H14.5C14.775 9.00757 15 8.78257 15 8.50757C15 8.23257 14.775 8.00757 14.5 8.00757H12.5H10.5Z" fill="#2B2B2B"/>
</g>
<defs>
<clipPath id="clip0_4426_14900">
<rect width="20" height="16" fill="white" transform="translate(2.5 4)"/>
</clipPath>
</defs>
</svg>
