<svg xmlns="http://www.w3.org/2000/svg" xmlns:xlink="http://www.w3.org/1999/xlink" width="16" height="16" viewBox="0 0 16 16">
    <defs>
        <clipPath id="clip-Artboard_2">
            <rect width="16" height="16"/>
        </clipPath>
    </defs>
    <g id="Artboard_2" data-name="Artboard – 2" clip-path="url(#clip-Artboard_2)">
        <rect width="16" height="16" fill="#fff"/>
        <rect id="Rectangle_5661" data-name="Rectangle 5661" width="16" height="16" fill="#fff"/>
        <g id="Group_6963" data-name="Group 6963" transform="translate(2218 -9827)">
            <rect id="Rectangle_5653" data-name="Rectangle 5653" width="4" height="1" rx="0.5" transform="translate(-2218 9827)" fill="#fff"/>
            <path id="Rectangle_5653_-_Outline" data-name="Rectangle 5653 - Outline" d="M.5,0h3a.5.5,0,0,1,0,1H.5a.5.5,0,0,1,0-1Z" transform="translate(-2218 9827)" fill="#333"/>
            <rect id="Rectangle_5654" data-name="Rectangle 5654" width="4" height="1" rx="0.5" transform="translate(-2218 9842)" fill="#fff"/>
            <path id="Rectangle_5654_-_Outline" data-name="Rectangle 5654 - Outline" d="M.5,0h3a.5.5,0,0,1,0,1H.5a.5.5,0,0,1,0-1Z" transform="translate(-2218 9842)" fill="#333"/>
            <rect id="Rectangle_5655" data-name="Rectangle 5655" width="16" height="1" rx="0.5" transform="translate(-2218 9843) rotate(-90)" fill="#fff"/>
            <path id="Rectangle_5655_-_Outline" data-name="Rectangle 5655 - Outline" d="M.5,0h15a.5.5,0,0,1,0,1H.5a.5.5,0,0,1,0-1Z" transform="translate(-2218 9843) rotate(-90)" fill="#333"/>
        </g>
        <g id="Group_6964" data-name="Group 6964" transform="translate(2212 -9827)">
            <rect id="Rectangle_5656" data-name="Rectangle 5656" width="4" height="1" rx="0.5" transform="translate(-2196 9843) rotate(180)" fill="#fff"/>
            <path id="Rectangle_5656_-_Outline" data-name="Rectangle 5656 - Outline" d="M.5,0h3a.5.5,0,0,1,0,1H.5a.5.5,0,0,1,0-1Z" transform="translate(-2196 9843) rotate(180)" fill="#333"/>
            <rect id="Rectangle_5657" data-name="Rectangle 5657" width="4" height="1" rx="0.5" transform="translate(-2196 9828) rotate(180)" fill="#fff"/>
            <path id="Rectangle_5657_-_Outline" data-name="Rectangle 5657 - Outline" d="M.5,0h3a.5.5,0,0,1,0,1H.5a.5.5,0,0,1,0-1Z" transform="translate(-2196 9828) rotate(180)" fill="#333"/>
            <rect id="Rectangle_5658" data-name="Rectangle 5658" width="16" height="1" rx="0.5" transform="translate(-2196 9827) rotate(90)" fill="#fff"/>
            <path id="Rectangle_5658_-_Outline" data-name="Rectangle 5658 - Outline" d="M.5,0h15a.5.5,0,0,1,0,1H.5a.5.5,0,0,1,0-1Z" transform="translate(-2196 9827) rotate(90)" fill="#333"/>
        </g>
    </g>
</svg>
