<svg width="28" height="28" viewBox="0 0 28 28" fill="none" xmlns="http://www.w3.org/2000/svg">
<g clip-path="url(#clip0_2989_91694)">
<path d="M10.0625 1.3125C10.0625 0.585156 9.47734 0 8.75 0C8.02266 0 7.4375 0.585156 7.4375 1.3125V3.5H7C5.06953 3.5 3.5 5.06953 3.5 7V7.4375H1.3125C0.585156 7.4375 0 8.02266 0 8.75C0 9.47734 0.585156 10.0625 1.3125 10.0625H3.5V12.6875H1.3125C0.585156 12.6875 0 13.2727 0 14C0 14.7273 0.585156 15.3125 1.3125 15.3125H3.5V17.9375H1.3125C0.585156 17.9375 0 18.5227 0 19.25C0 19.9773 0.585156 20.5625 1.3125 20.5625H3.5V21C3.5 22.9305 5.06953 24.5 7 24.5H7.4375V26.6875C7.4375 27.4148 8.02266 28 8.75 28C9.47734 28 10.0625 27.4148 10.0625 26.6875V24.5H12.6875V26.6875C12.6875 27.4148 13.2727 28 14 28C14.7273 28 15.3125 27.4148 15.3125 26.6875V24.5H17.9375V26.6875C17.9375 27.4148 18.5227 28 19.25 28C19.9773 28 20.5625 27.4148 20.5625 26.6875V24.5H21C22.9305 24.5 24.5 22.9305 24.5 21V20.5625H26.6875C27.4148 20.5625 28 19.9773 28 19.25C28 18.5227 27.4148 17.9375 26.6875 17.9375H24.5V15.3125H26.6875C27.4148 15.3125 28 14.7273 28 14C28 13.2727 27.4148 12.6875 26.6875 12.6875H24.5V10.0625H26.6875C27.4148 10.0625 28 9.47734 28 8.75C28 8.02266 27.4148 7.4375 26.6875 7.4375H24.5V7C24.5 5.06953 22.9305 3.5 21 3.5H20.5625V1.3125C20.5625 0.585156 19.9773 0 19.25 0C18.5227 0 17.9375 0.585156 17.9375 1.3125V3.5H15.3125V1.3125C15.3125 0.585156 14.7273 0 14 0C13.2727 0 12.6875 0.585156 12.6875 1.3125V3.5H10.0625V1.3125ZM6.125 7C6.125 6.51875 6.51875 6.125 7 6.125H21C21.4813 6.125 21.875 6.51875 21.875 7V21C21.875 21.4813 21.4813 21.875 21 21.875H7C6.51875 21.875 6.125 21.4813 6.125 21V7ZM18.375 9.40625C17.7734 9.40625 17.2812 9.89844 17.2812 10.5V17.5C17.2812 18.1016 17.7734 18.5938 18.375 18.5938C18.9766 18.5938 19.4688 18.1016 19.4688 17.5V10.5C19.4688 9.89844 18.9766 9.40625 18.375 9.40625ZM12.8133 10.0625C12.6383 9.66328 12.2445 9.40625 11.8125 9.40625C11.3805 9.40625 10.9867 9.66328 10.8117 10.0625L7.74922 17.0625C7.50859 17.6148 7.76016 18.2602 8.3125 18.5008C8.86484 18.7414 9.51016 18.4898 9.75078 17.9375L10.0406 17.2812H13.5844L13.8742 17.9375C14.1148 18.4898 14.7602 18.7414 15.3125 18.5008C15.8648 18.2602 16.1164 17.6148 15.8758 17.0625L12.8133 10.0625ZM11.8125 13.2289L12.6273 15.0938H10.9977L11.8125 13.2289Z" fill="#2B2B2B"/>
</g>
<defs>
<clipPath id="clip0_2989_91694">
<rect width="28" height="28" fill="white"/>
</clipPath>
</defs>
</svg>
