<svg width="92" height="91" viewBox="0 0 92 91" fill="none" xmlns="http://www.w3.org/2000/svg">
<g id="icon/colleagues" clip-path="url(#clip0_384_3649)">
<g id="QA question and answer">
<path id="Vector" d="M31.7812 55.3038C30.8464 55.4034 29.8973 55.4531 28.9375 55.4531C23.5166 55.4531 18.4618 53.8429 14.2424 51.088L1.92188 55.4531L6.28348 43.1326C3.5357 38.9096 1.92188 33.8584 1.92188 28.4375C1.92188 13.5185 14.0256 1.42188 28.9375 1.42188C43.8494 1.42188 55.9531 13.5185 55.9531 28.4375C55.9531 29.3084 55.9105 30.1722 55.8323 31.0218" stroke="#554283" stroke-width="2.84375" stroke-linecap="round" stroke-linejoin="round"/>
<path id="Vector_2" d="M85.713 77.2576C88.4679 73.0382 90.0781 67.9834 90.0781 62.5625C90.0781 47.6435 77.9744 35.5469 63.0625 35.5469C48.1506 35.5469 36.0469 47.6435 36.0469 62.5625C36.0469 77.4815 48.1506 89.5781 63.0625 89.5781C68.4834 89.5781 73.5382 87.9679 77.7576 85.213L90.0781 89.5781L85.713 77.2576Z" stroke="#554283" stroke-width="2.84375" stroke-linecap="round" stroke-linejoin="round"/>
<g id="Group">
<path id="Vector_3" d="M63.0625 51.1875L55.9531 73.9375" stroke="#554283" stroke-width="2.84375" stroke-linecap="round" stroke-linejoin="round"/>
<path id="Vector_4" d="M63.0625 51.1875L70.1719 73.9375" stroke="#554283" stroke-width="2.84375" stroke-linecap="round" stroke-linejoin="round"/>
<path id="Vector_5" d="M58.324 66.8281H67.8008" stroke="#554283" stroke-width="2.84375" stroke-linecap="round" stroke-linejoin="round"/>
</g>
<g id="Group_2">
<path id="Vector_6" d="M28.9375 36.9688C33.6492 36.9688 37.4688 32.1943 37.4688 26.3047C37.4688 20.4151 33.6492 15.6406 28.9375 15.6406C24.2258 15.6406 20.4062 20.4151 20.4062 26.3047C20.4062 32.1943 24.2258 36.9688 28.9375 36.9688Z" stroke="#554283" stroke-width="2.84375" stroke-linecap="round" stroke-linejoin="round"/>
<path id="Vector_7" d="M28.9375 36.9688C28.9375 39.322 30.8499 41.2344 33.2031 41.2344H37.4688" stroke="#554283" stroke-width="2.84375" stroke-linecap="round" stroke-linejoin="round"/>
</g>
</g>
</g>
<defs>
<clipPath id="clip0_384_3649">
<rect width="91" height="91" fill="white" transform="translate(0.5)"/>
</clipPath>
</defs>
</svg>
