<svg width="120" height="75" viewBox="0 0 120 75" fill="none" xmlns="http://www.w3.org/2000/svg">
<g id="Icon Comminities">
<path id="Vector" d="M42.4885 74.9206H0.671631V66.3722C0.671631 60.3437 5.96653 55.4422 12.4788 55.4422H15.3814V52.9649C12.5586 51.4232 10.5491 48.914 9.76758 45.9901C7.9654 45.6126 6.60978 44.0816 6.60978 42.2582V38.9196C6.60978 37.2184 7.78465 35.7778 9.40608 35.2833C9.48582 29.1272 14.9189 24.146 21.5907 24.146C28.2625 24.146 33.7009 29.1326 33.7754 35.294C35.3808 35.799 36.5451 37.2344 36.5451 38.9249V42.2635C36.5451 44.0763 35.2054 45.5967 33.4192 45.9901C32.6377 48.9299 30.6176 51.4445 27.7734 52.9862V55.4475H30.676C37.1883 55.4475 42.4832 60.349 42.4832 66.3776V74.9259L42.4885 74.9206ZM3.86133 71.7309H39.2989V66.3722C39.2989 62.1034 35.434 58.6319 30.6814 58.6319H24.589V50.9501L25.5406 50.5301C28.2944 49.318 30.1604 46.963 30.5219 44.2358L30.7398 42.5984L32.3666 42.8748C32.4144 42.8801 32.4623 42.8908 32.5154 42.8908C32.9726 42.8908 33.3554 42.6037 33.3554 42.2582V38.9196C33.3554 38.5422 32.8557 38.2391 32.3772 38.2976L30.5857 38.5209V35.4163C30.5857 30.9613 26.5507 27.3357 21.5907 27.3357C16.6307 27.3357 12.5958 30.9613 12.5958 35.4163V38.5368L10.7936 38.3029C10.3045 38.2391 9.79948 38.5368 9.79948 38.9196V42.2582C9.79948 42.6037 10.1876 42.8908 10.6394 42.8908C10.6873 42.8908 10.7458 42.8908 10.8095 42.8748L12.4469 42.5877L12.6649 44.2358C13.0264 46.9523 14.8817 49.3021 17.6249 50.5195L18.5711 50.9394V58.6319H12.4788C7.72617 58.6319 3.86133 62.1034 3.86133 66.3722V71.7309Z" fill="#554283"/>
<path id="Vector_2" d="M80.9085 74.9206H39.0916V66.3722C39.0916 60.3437 44.3865 55.4422 50.8987 55.4422H53.8014V52.9649C50.9785 51.4179 48.969 48.914 48.1875 45.9901C46.3853 45.6126 45.0297 44.0816 45.0297 42.2582V38.9196C45.0297 37.2184 46.2046 35.7778 47.826 35.2833C47.9057 29.1272 53.3389 24.146 60.0106 24.146C66.6824 24.146 72.1208 29.1326 72.1953 35.294C73.8008 35.799 74.965 37.2344 74.965 38.9249V42.2635C74.965 44.0763 73.6253 45.602 71.8391 45.9901C71.0576 48.9299 69.0375 51.4445 66.1987 52.9862V55.4475H69.1013C75.6136 55.4475 80.9085 60.349 80.9085 66.3776V74.9259V74.9206ZM42.2812 71.7309H77.7188V66.3722C77.7188 62.1034 73.8539 58.6319 69.1013 58.6319H63.009V50.9501L63.9606 50.5301C66.7143 49.318 68.5803 46.963 68.9418 44.2358L69.1598 42.5984L70.7865 42.8748C71.2703 42.9599 71.7753 42.6356 71.7753 42.2582V38.9196C71.7753 38.5422 71.2809 38.2391 70.7971 38.2976L69.0056 38.5156V35.4109C69.0056 30.956 64.9706 27.3304 60.0106 27.3304C55.0507 27.3304 51.0157 30.956 51.0157 35.4109V38.5368L49.2135 38.2976C48.7191 38.2338 48.2194 38.5368 48.2194 38.9143V42.2528C48.2194 42.5984 48.6075 42.8855 49.0594 42.8855C49.1072 42.8855 49.1657 42.8855 49.2295 42.8695L50.8615 42.5877L51.0795 44.2304C51.441 46.947 53.291 49.2967 56.0395 50.5141L56.9857 50.9341V58.6266H50.8934C46.1408 58.6266 42.2759 62.0981 42.2759 66.3669V71.7256L42.2812 71.7309Z" fill="#554283"/>
<path id="Vector_3" d="M119.328 74.9206H77.5061V66.3722C77.5061 60.3437 82.801 55.4422 89.3133 55.4422H92.2159V52.9649C89.393 51.4179 87.3835 48.914 86.6021 45.9901C84.7999 45.6126 83.4443 44.0816 83.4443 42.2582V38.9196C83.4443 37.2184 84.6191 35.7778 86.2406 35.2833C86.3203 29.1272 91.7534 24.146 98.4252 24.146C105.097 24.146 110.535 29.1326 110.61 35.294C112.215 35.799 113.38 37.2344 113.38 38.9249V42.2635C113.38 44.0763 112.04 45.5967 110.254 45.9901C109.472 48.9299 107.452 51.4445 104.613 52.9862V55.4475H107.516C114.028 55.4475 119.323 60.349 119.323 66.3776V74.9259L119.328 74.9206ZM80.6958 71.7309H116.139V66.3722C116.139 62.1034 112.274 58.6319 107.521 58.6319H101.429V50.9501L102.38 50.5301C105.134 49.318 107 46.963 107.362 44.2358L107.58 42.5984L109.206 42.8748C109.69 42.9546 110.195 42.6356 110.195 42.2582V38.9196C110.195 38.5422 109.701 38.2391 109.217 38.2976L107.425 38.5209V35.4163C107.425 30.9613 103.39 27.3357 98.4305 27.3357C93.4705 27.3357 89.4356 30.9613 89.4356 35.4163V38.5368L87.6334 38.3029C87.139 38.2391 86.6393 38.5422 86.6393 38.9196V42.2582C86.6393 42.6037 87.022 42.8908 87.4792 42.8908C87.5271 42.8908 87.5855 42.8855 87.6493 42.8748L89.2867 42.5877L89.5047 44.2304C89.8662 46.947 91.7215 49.2967 94.4646 50.5141L95.4109 50.9341V58.6266H89.3186C84.566 58.6266 80.7011 62.0981 80.7011 66.3669V71.7256L80.6958 71.7309Z" fill="#554283"/>
<path id="Vector_4" d="M103.97 27.66C103.529 27.66 103.093 27.4792 102.779 27.123C102.194 26.4638 102.253 25.4591 102.912 24.869C104.353 23.5878 105.278 21.8919 105.517 20.1004L105.735 18.463L107.362 18.7395C107.845 18.8192 108.35 18.5002 108.35 18.1228V14.7842C108.35 14.444 107.968 14.1516 107.51 14.1516C107.463 14.1516 107.415 14.1516 107.367 14.1623L105.581 14.3749V11.2756C105.581 6.82063 101.546 3.1897 96.5857 3.1897C91.6257 3.1897 87.5907 6.81532 87.5907 11.2756V14.4121L85.7779 14.1569C85.2835 14.0878 84.7944 14.3962 84.7944 14.7736C84.7944 15.6561 84.0821 16.3685 83.1996 16.3685C82.3171 16.3685 81.6047 15.6561 81.6047 14.7736C81.6047 13.0724 82.7796 11.6318 84.401 11.1374C84.4808 4.98124 89.9139 0 96.5857 0C103.257 0 108.696 4.98656 108.77 11.148C110.376 11.653 111.54 13.0884 111.54 14.7789V18.1175C111.54 19.9303 110.2 21.456 108.409 21.8441C107.856 23.8908 106.686 25.7781 105.028 27.2506C104.725 27.5218 104.347 27.6547 103.97 27.6547V27.66Z" fill="#554283"/>
<path id="Vector_5" d="M16.5192 27.66C16.1417 27.66 15.7643 27.5271 15.4613 27.2559C13.8026 25.778 12.6331 23.8961 12.0802 21.8494C10.2886 21.4613 8.94897 19.9356 8.94897 18.1228V14.7842C8.94897 13.0937 10.1132 11.6583 11.7187 11.1533C11.7931 4.99718 17.2316 0.0106201 23.9033 0.0106201C30.5751 0.0106201 36.0082 4.99718 36.088 11.148C37.7094 11.6424 38.8843 13.0884 38.8843 14.7842C38.8843 15.6667 38.1719 16.3791 37.2894 16.3791C36.4069 16.3791 35.6946 15.6667 35.6946 14.7842C35.6946 14.4068 35.2108 14.0931 34.7111 14.1676L32.8983 14.4227V11.2862C32.8983 6.83125 28.8633 3.20032 23.9033 3.20032C18.9434 3.20032 14.9084 6.82594 14.9084 11.2862V14.3802L13.1275 14.1676C12.6384 14.1144 12.144 14.4068 12.144 14.7895V18.1281C12.144 18.5109 12.6543 18.8298 13.1328 18.7448L14.7595 18.4736L14.9775 20.111C15.2167 21.9079 16.1417 23.5984 17.5824 24.8796C18.2416 25.4644 18.3001 26.4745 17.7153 27.1337C17.4017 27.4898 16.9604 27.6706 16.5245 27.6706L16.5192 27.66Z" fill="#554283"/>
<path id="Vector_6" d="M74.3856 19.7229C73.5031 19.7229 72.7908 19.0106 72.7908 18.1281V14.7895C72.7908 14.4493 72.408 14.1569 71.9508 14.1569C71.8977 14.1569 71.8498 14.1622 71.802 14.1675L70.021 14.3749V11.2809C70.021 6.82593 65.9861 3.19499 61.0261 3.19499C56.0661 3.19499 52.0312 6.82061 52.0312 11.2809V14.4227L50.213 14.1675C49.7293 14.0984 49.2349 14.4121 49.2349 14.7895V18.1281C49.2349 19.0106 48.5225 19.7229 47.64 19.7229C46.7575 19.7229 46.0452 19.0106 46.0452 18.1281V14.7895C46.0452 13.0884 47.22 11.6477 48.8415 11.1533C48.9212 4.99717 54.3543 0.0159302 61.0261 0.0159302C67.6979 0.0159302 73.1363 5.00249 73.2107 11.1639C74.8162 11.669 75.9805 13.1043 75.9805 14.7949V18.1334C75.9805 19.0159 75.2681 19.7283 74.3856 19.7283V19.7229Z" fill="#554283"/>
<path id="Vector_7" d="M28.4861 29.7545C28.0502 29.7545 27.6142 29.5791 27.3006 29.2282C26.7105 28.5743 26.7636 27.5643 27.4175 26.9742C27.8641 26.5755 28.3904 26.2777 28.9645 26.1076C29.0443 19.9515 34.4774 14.9703 41.1492 14.9703C47.8209 14.9703 53.3338 20.0259 53.3338 26.2405V26.5436C53.5411 26.8147 53.6687 27.1496 53.6687 27.5217C53.6687 28.4042 52.9564 29.1166 52.0739 29.1166C52.026 29.1166 51.9729 29.1219 51.925 29.1272L50.1441 29.3399V26.2458C50.1441 21.7909 46.1091 18.1653 41.1492 18.1653C36.1892 18.1653 32.1542 21.7909 32.1542 26.2458V29.3983L30.3308 29.1325C30.049 29.09 29.7513 29.1751 29.5546 29.3558C29.2516 29.6322 28.8688 29.7651 28.4861 29.7651V29.7545Z" fill="#554283"/>
<path id="Vector_8" d="M67.3526 29.4409C66.7944 29.4409 66.2521 29.1485 65.9597 28.6222C65.5291 27.8513 65.8056 26.8838 66.5764 26.4532C66.8316 26.3096 67.108 26.1927 67.3898 26.1076C67.4695 19.9515 72.9026 14.9703 79.5744 14.9703C86.2462 14.9703 91.6846 19.9568 91.7591 26.1183C91.9026 26.1608 92.0461 26.214 92.1844 26.2777C92.9924 26.6286 93.3592 27.5696 93.0084 28.3776C92.6575 29.1857 91.7165 29.5525 90.9085 29.2016C90.7384 29.1272 90.5363 29.1059 90.3503 29.1272L88.5641 29.3399V26.2405C88.5641 21.7856 84.5291 18.16 79.5691 18.16C74.6091 18.16 70.5742 21.7856 70.5742 26.2405V29.3877L68.7507 29.1219C68.5328 29.09 68.3095 29.1325 68.1287 29.2335C67.8842 29.3718 67.6184 29.4355 67.3526 29.4355V29.4409Z" fill="#554283"/>
</g>
</svg>
