<svg width="89" height="79" viewBox="0 0 89 79" fill="none" xmlns="http://www.w3.org/2000/svg">
<g id="empty state" clip-path="url(#clip0_524_2472)">
<path id="Vector" d="M66.9656 76.465C78.8612 76.4484 88.4911 66.7916 88.4745 54.896C88.4579 43.0003 78.8011 33.3705 66.9054 33.3871C55.0098 33.4037 45.3799 43.0605 45.3965 54.9561C45.4131 66.8518 55.0699 76.4816 66.9656 76.465Z" fill="#F697A6"/>
<path id="Vector_2" d="M60.6892 30.3252C60.7271 13.6172 47.2133 0.0418861 30.5053 0.0039767C13.7973 -0.0339327 0.222029 13.4799 0.184119 30.1879C0.14621 46.8959 13.66 60.4712 30.368 60.5091C47.076 60.547 60.6513 47.0332 60.6892 30.3252Z" fill="#FEEBE9"/>
<g id="Group">
<g id="Group_2">
<path id="Vector_3" d="M34.3451 66.7416L19.7558 60.8649C12.593 57.9796 9.12007 49.8218 12.0053 42.659L21.7047 18.5795C24.59 11.4167 32.7478 7.9438 39.9106 10.829L54.4999 16.7057C61.6627 19.591 65.1356 27.7488 62.2504 34.9116L52.551 58.9911C49.6657 66.1539 41.5079 69.6268 34.3451 66.7416Z" fill="#F0526B"/>
<path id="Vector_4" d="M45.517 71.3252C45.0604 71.3252 44.606 71.2379 44.1695 71.0611L9.68208 57.1658C7.83773 56.4227 6.94242 54.3187 7.68553 52.4744L25.4015 8.49886C25.7619 7.60578 26.4468 6.9052 27.3332 6.52917C28.2195 6.1509 29.1999 6.14194 30.093 6.50231L64.5804 20.3976C65.4735 20.7579 66.1741 21.4428 66.5501 22.3292C66.9284 23.2156 66.9373 24.1959 66.577 25.089L48.861 69.0668C48.5006 69.9599 47.8157 70.6604 46.9293 71.0365C46.475 71.229 45.996 71.3274 45.517 71.3274V71.3252ZM28.7455 6.91863C28.3561 6.91863 27.9688 6.99697 27.5995 7.15365C26.881 7.46029 26.3237 8.02882 26.0305 8.75402L8.31449 52.7296C7.71239 54.227 8.43759 55.9348 9.935 56.5391L44.4225 70.4344C45.1477 70.7276 45.9423 70.7186 46.663 70.412C47.3815 70.1053 47.9388 69.5368 48.232 68.8116L65.948 24.8338C66.2412 24.1086 66.2323 23.314 65.9256 22.5933C65.619 21.8748 65.0505 21.3175 64.3253 21.0243L29.84 7.13126C29.4864 6.98801 29.1171 6.91863 28.7455 6.91863Z" fill="#026832"/>
</g>
<g id="Group_3">
<path id="Vector_5" d="M15.9067 55.935L40.539 65.8595C43.2943 66.9697 46.4301 65.6357 47.5403 62.8804L62.5055 25.7294C63.6157 22.974 62.2816 19.8382 59.5263 18.728L34.894 8.80348C32.1387 7.69329 29.0028 9.0273 27.8927 11.7826L12.9275 48.9336C11.8173 51.689 13.1513 54.8248 15.9067 55.935Z" fill="white"/>
<path id="Vector_6" d="M44.8835 67.8581C44.6932 67.8581 44.503 67.8223 44.3217 67.7484L11.8688 54.6746C11.0988 54.3657 10.725 53.4861 11.0362 52.7184L29.1528 7.74679C29.4617 6.97682 30.3413 6.60303 31.1091 6.91415L63.5619 19.988C63.9335 20.1379 64.2267 20.4244 64.3834 20.7937C64.5401 21.1631 64.5445 21.5727 64.3946 21.9442L46.2779 66.9158C46.128 67.2873 45.8414 67.5806 45.4721 67.7372C45.2819 67.8178 45.0827 67.8581 44.8835 67.8581ZM30.5495 7.48268C30.2227 7.48268 29.9116 7.67741 29.7818 7.99972L11.6674 52.969C11.4972 53.3921 11.7032 53.8733 12.124 54.0434L44.5768 67.1172C44.7805 67.2001 45.0066 67.1978 45.208 67.1105C45.4117 67.0232 45.5684 66.8643 45.6512 66.6584L63.7679 21.6868C63.8507 21.4831 63.8484 21.2571 63.7611 21.0556C63.6738 20.8542 63.5149 20.6953 63.309 20.6124L30.8561 7.53863C30.7554 7.49834 30.6502 7.4782 30.5495 7.4782V7.48268Z" fill="#026832"/>
</g>
<g id="Group_4">
<path id="Vector_7" d="M41.4523 9.70977L41.5844 9.76349C42.1238 8.42276 43.6481 7.77366 44.9888 8.31308L51.3276 10.867C52.6683 11.4064 53.3174 12.9307 52.7758 14.2714L54.1702 14.8332C56.4443 15.7487 57.5433 18.3339 56.6279 20.608L35.6753 12.1674C36.5908 9.89331 39.176 8.79431 41.4501 9.70977H41.4523Z" fill="#F0526B"/>
<path id="Vector_8" d="M56.63 20.9482C56.5875 20.9482 56.5449 20.9392 56.5024 20.9235L35.5498 12.483C35.467 12.4494 35.3999 12.3845 35.3641 12.3017C35.3282 12.2189 35.3282 12.1249 35.3618 12.042C36.3243 9.65379 39.008 8.46526 41.4119 9.33147C42.117 8.02879 43.7084 7.43117 45.114 7.9997L51.4528 10.5536C52.1848 10.849 52.7578 11.4108 53.0689 12.1383C53.333 12.7605 53.3778 13.4365 53.2009 14.0789L54.2999 14.5221C56.7441 15.5069 57.9304 18.2958 56.9456 20.7378C56.912 20.8206 56.8471 20.8877 56.7643 20.9235C56.7218 20.9414 56.677 20.9504 56.6322 20.9504L56.63 20.9482ZM36.1318 11.9838L56.4285 20.1603C57.053 18.1458 56.0346 15.9478 54.0448 15.1465L52.6503 14.5847C52.5675 14.5511 52.5004 14.4862 52.4645 14.4034C52.4287 14.3206 52.4287 14.2266 52.4623 14.1438C52.6906 13.5797 52.6839 12.9597 52.4444 12.4002C52.2049 11.8406 51.764 11.4064 51.1999 11.1803L44.8611 8.62642C43.6972 8.15638 42.3676 8.72266 41.8976 9.88881C41.864 9.97162 41.7991 10.0388 41.7163 10.0746C41.6335 10.1104 41.5395 10.1104 41.4567 10.0768L41.3246 10.0231C40.3084 9.6135 39.196 9.62469 38.1888 10.0544C37.2867 10.4394 36.566 11.1176 36.1318 11.9838Z" fill="#026832"/>
</g>
<g id="Group_5">
<path id="Vector_9" d="M44.0049 37.8701L49.1123 39.9274C51.1235 40.7375 53.4106 39.7638 54.2208 37.7526L57.4422 29.7552C58.2523 27.744 57.2787 25.4568 55.2675 24.6467L50.1601 22.5894C48.1489 21.7793 45.8617 22.7529 45.0516 24.7641L41.8302 32.7616C41.02 34.7728 41.9937 37.0599 44.0049 37.8701Z" fill="white"/>
<path id="Vector_10" d="M52.4153 41.4641C52.2496 41.4641 52.1064 41.3433 52.0795 41.1776C52.0504 40.9919 52.178 40.8195 52.3638 40.7904C52.46 40.7747 52.5518 40.7322 52.6257 40.6695C52.7667 40.5464 52.9815 40.5599 53.1046 40.7009C53.2278 40.8419 53.2143 41.0568 53.0733 41.1799C52.9032 41.3298 52.6928 41.4283 52.469 41.4619C52.4511 41.4641 52.4332 41.4664 52.4175 41.4664L52.4153 41.4641ZM50.5933 40.8576C50.5508 40.8576 50.5082 40.8486 50.4657 40.8329L50.0158 40.6516C49.8412 40.5823 49.7584 40.383 49.8278 40.2107C49.8972 40.0361 50.0964 39.9533 50.2687 40.0227L50.7186 40.204C50.8932 40.2734 50.976 40.4726 50.9067 40.6449C50.8529 40.777 50.7254 40.8576 50.5911 40.8576H50.5933ZM48.3461 39.9533C48.3035 39.9533 48.261 39.9443 48.2185 39.9287L47.7686 39.7474C47.594 39.678 47.5112 39.4788 47.5806 39.3064C47.65 39.1318 47.8492 39.049 48.0215 39.1184L48.4714 39.2997C48.646 39.3691 48.7288 39.5683 48.6594 39.7407C48.6057 39.8727 48.4781 39.9533 48.3438 39.9533H48.3461ZM53.6508 39.5101C53.6083 39.5101 53.5657 39.5012 53.5232 39.4855C53.3486 39.4161 53.2658 39.2169 53.3352 39.0446L53.5165 38.5947C53.5859 38.4201 53.7851 38.3373 53.9574 38.4066C54.132 38.476 54.2148 38.6752 54.1454 38.8476L53.9641 39.2975C53.9104 39.4295 53.7828 39.5101 53.6485 39.5101H53.6508ZM46.0988 39.0468C46.0563 39.0468 46.0138 39.0378 45.9712 39.0222L45.5213 38.8409C45.3468 38.7715 45.2639 38.5723 45.3333 38.3999C45.4027 38.2253 45.6019 38.1425 45.7743 38.2119L46.2242 38.3932C46.3988 38.4626 46.4816 38.6618 46.4122 38.8342C46.3585 38.9662 46.2309 39.0468 46.0966 39.0468H46.0988ZM43.8516 38.1425C43.8091 38.1425 43.7665 38.1336 43.724 38.1179L43.2741 37.9366C43.0995 37.8672 43.0167 37.668 43.0861 37.4957C43.1555 37.3211 43.3547 37.2383 43.527 37.3076L43.9769 37.489C44.1515 37.5583 44.2343 37.7575 44.1649 37.9299C44.1112 38.062 43.9836 38.1425 43.8493 38.1425H43.8516ZM54.5573 37.2629C54.5148 37.2629 54.4722 37.2539 54.4297 37.2383C54.2551 37.1689 54.1723 36.9697 54.2417 36.7973L54.423 36.3474C54.4924 36.1728 54.6916 36.09 54.8639 36.1594C55.0385 36.2288 55.1213 36.428 55.052 36.6004L54.8707 37.0502C54.8169 37.1823 54.6894 37.2629 54.5551 37.2629H54.5573ZM41.6043 37.236C41.5618 37.236 41.5193 37.2271 41.4768 37.2114L41.0269 37.0301C41 37.0189 40.9732 37.0077 40.9485 36.9943C40.7807 36.9115 40.7113 36.7078 40.7941 36.5399C40.8769 36.372 41.0806 36.3027 41.2485 36.3855C41.2597 36.39 41.2708 36.3967 41.2843 36.4011L41.7342 36.5824C41.9088 36.6518 41.9916 36.851 41.9222 37.0234C41.8685 37.1554 41.7409 37.236 41.6066 37.236H41.6043ZM40.9329 35.3335C40.8903 35.3335 40.8478 35.3245 40.8053 35.3089C40.6307 35.2395 40.5479 35.0403 40.6173 34.8679L40.7986 34.418C40.868 34.2434 41.0672 34.1606 41.2395 34.23C41.4141 34.2994 41.4969 34.4986 41.4275 34.6709L41.2462 35.1208C41.1925 35.2529 41.0649 35.3335 40.9306 35.3335H40.9329ZM55.4616 35.0156C55.419 35.0156 55.3765 35.0067 55.334 34.991C55.1594 34.9216 55.0766 34.7224 55.146 34.5501L55.3273 34.1002C55.3966 33.9256 55.5959 33.8428 55.7682 33.9122C55.9428 33.9816 56.0256 34.1808 55.9562 34.3531L55.7749 34.803C55.7212 34.9351 55.5936 35.0156 55.4593 35.0156H55.4616ZM41.8371 33.0862C41.7946 33.0862 41.7521 33.0773 41.7095 33.0616C41.535 32.9922 41.4521 32.793 41.5215 32.6207L41.7028 32.1708C41.7722 31.9962 41.9714 31.9134 42.1438 31.9828C42.3184 32.0522 42.4012 32.2514 42.3318 32.4237L42.1505 32.8736C42.0968 33.0057 41.9692 33.0862 41.8349 33.0862H41.8371ZM56.3658 32.7684C56.3233 32.7684 56.2808 32.7595 56.2382 32.7438C56.0637 32.6744 55.9808 32.4752 56.0502 32.3028L56.2315 31.853C56.3009 31.6784 56.5001 31.5956 56.6725 31.6649C56.8471 31.7343 56.9299 31.9335 56.8605 32.1059L56.6792 32.5558C56.6255 32.6878 56.4979 32.7684 56.3636 32.7684H56.3658ZM42.7436 30.8368C42.7011 30.8368 42.6586 30.8278 42.6161 30.8122C42.4415 30.7428 42.3587 30.5436 42.428 30.3712L42.6093 29.9213C42.6787 29.7467 42.8779 29.6639 43.0503 29.7333C43.2249 29.8027 43.3077 30.0019 43.2383 30.1742L43.057 30.6241C43.0033 30.7562 42.8757 30.8368 42.7414 30.8368H42.7436ZM57.2723 30.5212C57.2298 30.5212 57.1873 30.5122 57.1447 30.4966C56.9702 30.4272 56.8873 30.228 56.9567 30.0556L57.138 29.6057C57.2074 29.4311 57.4066 29.3483 57.579 29.4177C57.7536 29.4871 57.8364 29.6863 57.767 29.8586L57.5857 30.3085C57.532 30.4406 57.4044 30.5212 57.2701 30.5212H57.2723ZM43.6479 28.5895C43.6054 28.5895 43.5628 28.5806 43.5203 28.5649C43.3457 28.4955 43.2629 28.2963 43.3323 28.124L43.5136 27.6741C43.583 27.4995 43.7822 27.4167 43.9545 27.4861C44.1291 27.5555 44.2119 27.7547 44.1426 27.927L43.9613 28.3769C43.9075 28.509 43.78 28.5895 43.6457 28.5895H43.6479ZM58.1766 28.2739C58.1341 28.2739 58.0915 28.265 58.049 28.2493C57.8744 28.1799 57.7916 27.9807 57.861 27.8084L58.0423 27.3585C58.1117 27.1839 58.3109 27.1011 58.4832 27.1705C58.6578 27.2399 58.7406 27.4391 58.6713 27.6114L58.49 28.0613C58.4362 28.1934 58.3087 28.2739 58.1744 28.2739H58.1766ZM44.5544 26.3423C44.5119 26.3423 44.4694 26.3333 44.4268 26.3177C44.2522 26.2483 44.1694 26.0491 44.2388 25.8767L44.4201 25.4268C44.4895 25.2523 44.6887 25.1694 44.8611 25.2388C45.0356 25.3082 45.1185 25.5074 45.0491 25.6798L44.8678 26.1297C44.814 26.2617 44.6865 26.3423 44.5522 26.3423H44.5544ZM58.1542 26.1431C58.1072 26.1431 58.0602 26.1341 58.0154 26.114C58.0087 26.1118 58.0042 26.1095 57.9975 26.1073L57.5767 25.9372C57.4022 25.8678 57.3193 25.6686 57.3887 25.4962C57.4581 25.3216 57.6573 25.2388 57.8297 25.3082L58.2505 25.4783C58.2639 25.4828 58.2773 25.4895 58.2907 25.4962C58.4609 25.5723 58.5392 25.7738 58.4631 25.9439C58.4071 26.0692 58.2818 26.1453 58.152 26.1453L58.1542 26.1431ZM55.907 25.2366C55.8645 25.2366 55.8219 25.2276 55.7794 25.212L55.3295 25.0307C55.1549 24.9613 55.0721 24.7621 55.1415 24.5897C55.2109 24.4151 55.4101 24.3323 55.5824 24.4017L56.0323 24.583C56.2069 24.6524 56.2897 24.8516 56.2203 25.024C56.1666 25.156 56.039 25.2366 55.9047 25.2366H55.907ZM53.6597 24.3323C53.6172 24.3323 53.5747 24.3234 53.5322 24.3077L53.0823 24.1264C52.9077 24.057 52.8249 23.8578 52.8942 23.6855C52.9636 23.5109 53.1628 23.4281 53.3352 23.4974L53.7851 23.6787C53.9597 23.7481 54.0425 23.9473 53.9731 24.1197C53.9194 24.2517 53.7918 24.3323 53.6575 24.3323H53.6597ZM45.4587 24.0951C45.4161 24.0951 45.3736 24.0861 45.3311 24.0704C45.1565 24.0011 45.0737 23.8019 45.1431 23.6295L45.3244 23.1796C45.3938 23.005 45.593 22.9222 45.7653 22.9916C45.9399 23.061 46.0227 23.2602 45.9533 23.4325L45.772 23.8824C45.7183 24.0145 45.5907 24.0951 45.4564 24.0951H45.4587ZM51.4125 23.4258C51.37 23.4258 51.3274 23.4169 51.2849 23.4012L50.835 23.2199C50.6604 23.1505 50.5776 22.9513 50.647 22.779C50.7164 22.6044 50.9156 22.5216 51.088 22.5909L51.5378 22.7722C51.7124 22.8416 51.7953 23.0408 51.7259 23.2132C51.6721 23.3452 51.5446 23.4258 51.4103 23.4258H51.4125ZM49.1653 22.5216C49.1227 22.5216 49.0802 22.5126 49.0377 22.4969L48.5878 22.3156C48.4132 22.2462 48.3304 22.047 48.3998 21.8747C48.4692 21.7001 48.6684 21.6173 48.8407 21.6867L49.2906 21.868C49.4652 21.9374 49.548 22.1366 49.4786 22.3089C49.4249 22.441 49.2973 22.5216 49.163 22.5216H49.1653ZM46.4547 21.9038C46.3562 21.9038 46.2577 21.8613 46.1906 21.7784C46.072 21.633 46.0943 21.4203 46.2398 21.3017C46.4167 21.1584 46.6293 21.0689 46.8554 21.042C47.0411 21.0197 47.209 21.154 47.2314 21.3397C47.2538 21.5255 47.1195 21.6934 46.9337 21.7158C46.8352 21.727 46.7434 21.765 46.6696 21.8277C46.6069 21.8792 46.5308 21.9038 46.4547 21.9038Z" fill="#026832"/>
</g>
<g id="Group_6">
<path id="Vector_11" d="M28.4611 31.6053L33.583 33.6685C35.5942 34.4786 37.8814 33.505 38.6915 31.4938L41.9129 23.4963C42.723 21.4851 41.7494 19.198 39.7382 18.3878L34.6163 16.3247C32.605 15.5146 30.3179 16.4882 29.5078 18.4994L26.2863 26.4969C25.4762 28.5081 26.4499 30.7952 28.4611 31.6053Z" fill="white"/>
<path id="Vector_12" d="M36.8684 35.2082C36.7005 35.2082 36.555 35.0851 36.5326 34.915C36.508 34.7292 36.6378 34.5591 36.8236 34.5345C36.9199 34.5211 37.0116 34.4808 37.0877 34.4181C37.231 34.2972 37.4436 34.3151 37.5667 34.4584C37.6876 34.6016 37.6697 34.8165 37.5264 34.9374C37.3518 35.0851 37.1414 35.1791 36.9154 35.2082C36.8997 35.2082 36.884 35.2104 36.8706 35.2104L36.8684 35.2082ZM35.0464 34.5949C35.0039 34.5949 34.9614 34.586 34.9188 34.5703L34.4689 34.389C34.2943 34.3196 34.2115 34.1204 34.2809 33.9481C34.3503 33.7735 34.5495 33.6907 34.7219 33.76L35.1718 33.9413C35.3463 34.0107 35.4292 34.2099 35.3598 34.3823C35.3061 34.5143 35.1785 34.5949 35.0442 34.5949H35.0464ZM32.7992 33.6884C32.7567 33.6884 32.7141 33.6795 32.6716 33.6638L32.2217 33.4825C32.0471 33.4131 31.9643 33.2139 32.0337 33.0416C32.1031 32.867 32.3023 32.7842 32.4746 32.8535L32.9245 33.0348C33.0991 33.1042 33.1819 33.3034 33.1125 33.4758C33.0588 33.6078 32.9312 33.6884 32.7969 33.6884H32.7992ZM38.1129 33.2676C38.0703 33.2676 38.0278 33.2587 37.9853 33.243C37.8107 33.1736 37.7279 32.9744 37.7973 32.8021L37.9786 32.3522C38.048 32.1776 38.2472 32.0948 38.4195 32.1641C38.5941 32.2335 38.6769 32.4327 38.6075 32.6051L38.4262 33.055C38.3725 33.187 38.2449 33.2676 38.1106 33.2676H38.1129ZM30.5519 32.7842C30.5094 32.7842 30.4669 32.7752 30.4244 32.7595L29.9745 32.5782C29.7999 32.5088 29.7171 32.3096 29.7864 32.1373C29.8558 31.9627 30.055 31.8799 30.2274 31.9493L30.6773 32.1306C30.8519 32.2 30.9347 32.3992 30.8653 32.5715C30.8116 32.7036 30.684 32.7842 30.5497 32.7842H30.5519ZM28.3047 31.8776C28.2622 31.8776 28.2197 31.8687 28.1771 31.853L27.7272 31.6717C27.5526 31.6023 27.4698 31.4031 27.5392 31.2308C27.6086 31.0562 27.8078 30.9734 27.9802 31.0428L28.4301 31.2241C28.6046 31.2935 28.6875 31.4927 28.6181 31.665C28.5643 31.7971 28.4368 31.8776 28.3025 31.8776H28.3047ZM39.0194 31.0204C38.9768 31.0204 38.9343 31.0114 38.8918 30.9958C38.7172 30.9264 38.6344 30.7272 38.7038 30.5548L38.8851 30.1049C38.9545 29.9303 39.1537 29.8475 39.326 29.9169C39.5006 29.9863 39.5834 30.1855 39.514 30.3579L39.3327 30.8077C39.279 30.9398 39.1514 31.0204 39.0171 31.0204H39.0194ZM26.0575 30.9734C26.0149 30.9734 25.9724 30.9644 25.9299 30.9488L25.48 30.7675C25.4397 30.7518 25.3994 30.7316 25.3614 30.7115C25.1957 30.622 25.1353 30.4183 25.2226 30.2527C25.3121 30.087 25.5158 30.0266 25.6814 30.1139C25.6971 30.1228 25.715 30.1318 25.7329 30.1385L26.1828 30.3198C26.3574 30.3892 26.4402 30.5884 26.3708 30.7607C26.3171 30.8928 26.1895 30.9734 26.0552 30.9734H26.0575ZM25.3994 29.0395C25.3569 29.0395 25.3144 29.0306 25.2718 29.0149C25.0972 28.9455 25.0144 28.7463 25.0838 28.5739L25.2651 28.124C25.3345 27.9495 25.5337 27.8666 25.7061 27.936C25.8806 28.0054 25.9635 28.2046 25.8941 28.377L25.7128 28.8269C25.6591 28.9589 25.5315 29.0395 25.3972 29.0395H25.3994ZM39.9236 28.7731C39.8811 28.7731 39.8386 28.7642 39.796 28.7485C39.6215 28.6791 39.5386 28.4799 39.608 28.3076L39.7893 27.8577C39.8587 27.6831 40.0579 27.6003 40.2303 27.6697C40.4049 27.7391 40.4877 27.9383 40.4183 28.1106L40.237 28.5605C40.1833 28.6926 40.0557 28.7731 39.9214 28.7731H39.9236ZM26.3037 26.7923C26.2612 26.7923 26.2186 26.7833 26.1761 26.7676C26.0015 26.6983 25.9187 26.4991 25.9881 26.3267L26.1694 25.8768C26.2388 25.7022 26.438 25.6194 26.6103 25.6888C26.7849 25.7582 26.8677 25.9574 26.7983 26.1297L26.617 26.5796C26.5633 26.7117 26.4357 26.7923 26.3014 26.7923H26.3037ZM40.8301 26.5259C40.7876 26.5259 40.7451 26.517 40.7026 26.5013C40.528 26.4319 40.4452 26.2327 40.5145 26.0604L40.6958 25.6105C40.7652 25.4359 40.9644 25.3531 41.1368 25.4224C41.3114 25.4918 41.3942 25.691 41.3248 25.8634L41.1435 26.3133C41.0898 26.4453 40.9622 26.5259 40.8279 26.5259H40.8301ZM27.2102 24.545C27.1677 24.545 27.1251 24.5361 27.0826 24.5204C26.908 24.451 26.8252 24.2518 26.8946 24.0795L27.0759 23.6296C27.1453 23.455 27.3445 23.3722 27.5168 23.4416C27.6914 23.5109 27.7742 23.7102 27.7048 23.8825L27.5235 24.3324C27.4698 24.4645 27.3422 24.545 27.2079 24.545H27.2102ZM41.7344 24.2787C41.6919 24.2787 41.6493 24.2697 41.6068 24.2541C41.4322 24.1847 41.3494 23.9855 41.4188 23.8131L41.6001 23.3632C41.6695 23.1886 41.8687 23.1058 42.041 23.1752C42.2156 23.2446 42.2985 23.4438 42.2291 23.6161L42.0478 24.066C41.994 24.1981 41.8665 24.2787 41.7322 24.2787H41.7344ZM28.1145 22.2978C28.0719 22.2978 28.0294 22.2888 27.9869 22.2732C27.8123 22.2038 27.7295 22.0046 27.7989 21.8322L27.9802 21.3823C28.0495 21.2078 28.2488 21.1249 28.4211 21.1943C28.5957 21.2637 28.6785 21.4629 28.6091 21.6353L28.4278 22.0852C28.3741 22.2172 28.2465 22.2978 28.1122 22.2978H28.1145ZM42.6409 22.0314C42.5984 22.0314 42.5559 22.0225 42.5133 22.0068C42.3387 21.9374 42.2559 21.7382 42.3253 21.5659L42.5066 21.116C42.576 20.9414 42.7752 20.8586 42.9475 20.928C43.1221 20.9974 43.205 21.1966 43.1356 21.3689L42.9543 21.8188C42.9005 21.9509 42.773 22.0314 42.6387 22.0314H42.6409ZM29.0187 20.0506C28.9762 20.0506 28.9337 20.0416 28.8911 20.0259C28.7166 19.9566 28.6337 19.7573 28.7031 19.585L28.8844 19.1351C28.9538 18.9605 29.153 18.8777 29.3254 18.9471C29.5 19.0165 29.5828 19.2157 29.5134 19.388L29.3321 19.8379C29.2784 19.97 29.1508 20.0506 29.0165 20.0506H29.0187ZM42.6364 19.8916C42.5872 19.8916 42.5402 19.8805 42.4932 19.8603C42.4842 19.8558 42.4775 19.8536 42.4686 19.8491L42.0612 19.6857C41.8866 19.6163 41.8038 19.4171 41.8732 19.2448C41.9426 19.0702 42.1418 18.9874 42.3141 19.0568L42.7192 19.2202C42.7394 19.2291 42.7595 19.2381 42.7797 19.247C42.9498 19.3254 43.0214 19.529 42.9431 19.6992C42.8849 19.8223 42.764 19.8939 42.6364 19.8939V19.8916ZM40.3892 18.9851C40.3467 18.9851 40.3041 18.9762 40.2616 18.9605L39.8117 18.7792C39.6371 18.7098 39.5543 18.5106 39.6237 18.3383C39.6931 18.1637 39.8923 18.0809 40.0646 18.1503L40.5145 18.3316C40.6891 18.4009 40.7719 18.6002 40.7026 18.7725C40.6488 18.9046 40.5213 18.9851 40.387 18.9851H40.3892ZM38.142 18.0809C38.0994 18.0809 38.0569 18.0719 38.0144 18.0563L37.5645 17.875C37.3899 17.8056 37.3071 17.6064 37.3765 17.434C37.4459 17.2594 37.6451 17.1766 37.8174 17.246L38.2673 17.4273C38.4419 17.4967 38.5247 17.6959 38.4553 17.8682C38.4016 18.0003 38.274 18.0809 38.1397 18.0809H38.142ZM29.9252 17.8033C29.8827 17.8033 29.8402 17.7944 29.7976 17.7787C29.6231 17.7093 29.5402 17.5101 29.6096 17.3378L29.7909 16.8879C29.8603 16.7133 30.0595 16.6305 30.2319 16.6999C30.4065 16.7692 30.4893 16.9684 30.4199 17.1408L30.2386 17.5907C30.1849 17.7227 30.0573 17.8033 29.923 17.8033H29.9252ZM35.8947 17.1744C35.8522 17.1744 35.8097 17.1654 35.7671 17.1497L35.3172 16.9684C35.1427 16.8991 35.0598 16.6999 35.1292 16.5275C35.1986 16.3529 35.3978 16.2701 35.5702 16.3395L36.0201 16.5208C36.1947 16.5902 36.2775 16.7894 36.2081 16.9617C36.1544 17.0938 36.0268 17.1744 35.8925 17.1744H35.8947ZM33.6475 16.2701C33.605 16.2701 33.5624 16.2612 33.5199 16.2455L33.07 16.0642C32.8954 15.9948 32.8126 15.7956 32.882 15.6232C32.9514 15.4487 33.1506 15.3658 33.3229 15.4352L33.7728 15.6165C33.9474 15.6859 34.0302 15.8851 33.9608 16.0575C33.9071 16.1895 33.7795 16.2701 33.6452 16.2701H33.6475ZM30.9347 15.621C30.8317 15.621 30.731 15.574 30.6639 15.4867C30.5519 15.3367 30.581 15.1241 30.731 15.0122C30.9123 14.8757 31.1294 14.7928 31.3555 14.7749C31.5413 14.7593 31.7047 14.9003 31.7203 15.0861C31.736 15.2718 31.595 15.4352 31.4092 15.4509C31.3107 15.4576 31.219 15.4934 31.1406 15.5539C31.0802 15.6009 31.0086 15.6232 30.9369 15.6232L30.9347 15.621Z" fill="#026832"/>
</g>
<g id="Group_7">
<path id="Vector_13" d="M35.9312 56.809L41.0386 58.8663C43.0498 59.6764 45.3369 58.7028 46.147 56.6916L49.3685 48.6941C50.1786 46.6829 49.2049 44.3958 47.1937 43.5857L42.0863 41.5284C40.0751 40.7182 37.788 41.6919 36.9779 43.7031L33.7564 51.7005C32.9463 53.7117 33.92 55.9989 35.9312 56.809Z" fill="white"/>
<path id="Vector_14" d="M44.344 60.4047C44.1783 60.4047 44.0351 60.2838 44.0082 60.116C43.9791 59.9302 44.1067 59.7578 44.2925 59.7288C44.3887 59.7131 44.4805 59.6728 44.5544 59.6079C44.6954 59.4848 44.9103 59.4982 45.0334 59.6392C45.1565 59.7802 45.143 59.9951 45.002 60.1182C44.8319 60.2682 44.6215 60.3667 44.3977 60.4002C44.3798 60.4025 44.3619 60.4047 44.3462 60.4047H44.344ZM42.522 59.8004C42.4795 59.8004 42.4369 59.7914 42.3944 59.7758L41.9445 59.5945C41.7699 59.5251 41.6871 59.3259 41.7565 59.1535C41.8259 58.9789 42.0251 58.8961 42.1975 58.9655L42.6473 59.1468C42.8219 59.2162 42.9047 59.4154 42.8354 59.5877C42.7816 59.7198 42.6541 59.8004 42.5198 59.8004H42.522ZM40.2748 58.8939C40.2322 58.8939 40.1897 58.8849 40.1472 58.8692L39.6973 58.688C39.5227 58.6186 39.4399 58.4194 39.5093 58.247C39.5787 58.0724 39.7779 57.9896 39.9502 58.059L40.4001 58.2403C40.5747 58.3097 40.6575 58.5089 40.5881 58.6812C40.5344 58.8133 40.4068 58.8939 40.2725 58.8939H40.2748ZM45.5795 58.4529C45.537 58.4529 45.4944 58.444 45.4519 58.4283C45.2773 58.3589 45.1945 58.1597 45.2639 57.9874L45.4452 57.5375C45.5146 57.3629 45.7138 57.2801 45.8861 57.3495C46.0607 57.4188 46.1435 57.618 46.0742 57.7904L45.8929 58.2403C45.8391 58.3724 45.7116 58.4529 45.5773 58.4529H45.5795ZM38.0275 57.9896C37.985 57.9896 37.9425 57.9806 37.8999 57.965L37.4501 57.7837C37.2755 57.7143 37.1927 57.5151 37.262 57.3427C37.3314 57.1682 37.5306 57.0853 37.703 57.1547L38.1529 57.336C38.3275 57.4054 38.4103 57.6046 38.3409 57.777C38.2872 57.909 38.1596 57.9896 38.0253 57.9896H38.0275ZM35.7803 57.0831C35.7378 57.0831 35.6952 57.0741 35.6527 57.0585L35.2028 56.8772C35.0282 56.8078 34.9454 56.6086 35.0148 56.4362C35.0842 56.2616 35.2834 56.1788 35.4557 56.2482L35.9056 56.4295C36.0802 56.4989 36.163 56.6981 36.0937 56.8705C36.0399 57.0025 35.9124 57.0831 35.7781 57.0831H35.7803ZM46.4838 56.2057C46.4412 56.2057 46.3987 56.1967 46.3562 56.1811C46.1816 56.1117 46.0988 55.9125 46.1682 55.7401L46.3495 55.2902C46.4189 55.1156 46.6181 55.0328 46.7904 55.1022C46.965 55.1716 47.0478 55.3708 46.9784 55.5432L46.7971 55.9931C46.7434 56.1251 46.6158 56.2057 46.4815 56.2057H46.4838ZM33.5331 56.1788C33.4905 56.1788 33.448 56.1699 33.4055 56.1542L32.9556 55.9729C32.9287 55.9617 32.9019 55.9505 32.8772 55.9371C32.7094 55.8543 32.64 55.6506 32.7228 55.4827C32.8056 55.3149 33.0093 55.2455 33.1772 55.3283C33.1884 55.3328 33.1996 55.3395 33.213 55.344L33.6629 55.5253C33.8375 55.5946 33.9203 55.7938 33.8509 55.9662C33.7972 56.0983 33.6696 56.1788 33.5353 56.1788H33.5331ZM32.8616 54.2741C32.819 54.2741 32.7765 54.2651 32.734 54.2494C32.5594 54.18 32.4766 53.9808 32.546 53.8085L32.7273 53.3586C32.7967 53.184 32.9959 53.1012 33.1682 53.1706C33.3428 53.24 33.4256 53.4392 33.3562 53.6115L33.1749 54.0614C33.1212 54.1935 32.9936 54.2741 32.8593 54.2741H32.8616ZM47.3903 53.9585C47.3477 53.9585 47.3052 53.9495 47.2627 53.9338C47.0881 53.8644 47.0053 53.6652 47.0747 53.4929L47.256 53.043C47.3254 52.8684 47.5246 52.7856 47.6969 52.855C47.8715 52.9244 47.9543 53.1236 47.8849 53.2959L47.7036 53.7458C47.6499 53.8779 47.5223 53.9585 47.388 53.9585H47.3903ZM33.7658 52.0268C33.7233 52.0268 33.6808 52.0179 33.6383 52.0022C33.4637 51.9328 33.3809 51.7336 33.4502 51.5613L33.6315 51.1114C33.7009 50.9368 33.9001 50.854 34.0725 50.9233C34.2471 50.9927 34.3299 51.1919 34.2605 51.3643L34.0792 51.8142C34.0255 51.9462 33.8979 52.0268 33.7636 52.0268H33.7658ZM48.2945 51.7112C48.252 51.7112 48.2095 51.7023 48.167 51.6866C47.9924 51.6172 47.9095 51.418 47.9789 51.2457L48.1602 50.7958C48.2296 50.6212 48.4288 50.5384 48.6012 50.6077C48.7758 50.6771 48.8586 50.8763 48.7892 51.0487L48.6079 51.4986C48.5542 51.6306 48.4266 51.7112 48.2923 51.7112H48.2945ZM34.6723 49.7796C34.6298 49.7796 34.5873 49.7706 34.5448 49.755C34.3702 49.6856 34.2874 49.4864 34.3567 49.314L34.5381 48.8641C34.6074 48.6895 34.8066 48.6067 34.979 48.6761C35.1536 48.7455 35.2364 48.9447 35.167 49.1171L34.9857 49.5669C34.932 49.699 34.8044 49.7796 34.6701 49.7796H34.6723ZM49.201 49.464C49.1585 49.464 49.116 49.455 49.0735 49.4394C48.8989 49.37 48.8161 49.1708 48.8854 48.9984L49.0667 48.5485C49.1361 48.3739 49.3353 48.2911 49.5077 48.3605C49.6823 48.4299 49.7651 48.6291 49.6957 48.8015L49.5144 49.2513C49.4607 49.3834 49.3331 49.464 49.1988 49.464H49.201ZM35.5766 47.5323C35.5341 47.5323 35.4916 47.5234 35.449 47.5077C35.2744 47.4383 35.1916 47.2391 35.261 47.0668L35.4423 46.6169C35.5117 46.4423 35.7109 46.3595 35.8833 46.4289C36.0578 46.4983 36.1407 46.6975 36.0713 46.8698L35.89 47.3197C35.8363 47.4518 35.7087 47.5323 35.5744 47.5323H35.5766ZM50.1053 47.2167C50.0628 47.2167 50.0203 47.2078 49.9777 47.1921C49.8031 47.1227 49.7203 46.9235 49.7897 46.7512L49.971 46.3013C50.0404 46.1267 50.2396 46.0439 50.412 46.1133C50.5865 46.1827 50.6694 46.3819 50.6 46.5542L50.4187 47.0041C50.3649 47.1362 50.2374 47.2167 50.1031 47.2167H50.1053ZM36.4831 45.2851C36.4406 45.2851 36.3981 45.2762 36.3555 45.2605C36.1809 45.1911 36.0981 44.9919 36.1675 44.8196L36.3488 44.3697C36.4182 44.1951 36.6174 44.1123 36.7898 44.1816C36.9643 44.251 37.0472 44.4502 36.9778 44.6226L36.7965 45.0725C36.7428 45.2045 36.6152 45.2851 36.4809 45.2851H36.4831ZM50.0807 45.0859C50.0337 45.0859 49.9889 45.077 49.9419 45.0568C49.9352 45.0546 49.9307 45.0523 49.924 45.0501L49.5032 44.88C49.3286 44.8106 49.2458 44.6114 49.3152 44.439C49.3846 44.2645 49.5838 44.1816 49.7561 44.251L50.1769 44.4211C50.1904 44.4256 50.2038 44.4323 50.2172 44.439C50.3873 44.5151 50.4657 44.7166 50.3896 44.8867C50.3336 45.012 50.2083 45.0881 50.0784 45.0881L50.0807 45.0859ZM47.8357 44.1794C47.7932 44.1794 47.7506 44.1704 47.7081 44.1548L47.2582 43.9735C47.0836 43.9041 47.0008 43.7049 47.0702 43.5325C47.1396 43.358 47.3388 43.2751 47.5111 43.3445L47.961 43.5258C48.1356 43.5952 48.2184 43.7944 48.149 43.9668C48.0953 44.0988 47.9677 44.1794 47.8334 44.1794H47.8357ZM45.5885 43.2729C45.5459 43.2729 45.5034 43.2639 45.4609 43.2483L45.011 43.067C44.8364 42.9976 44.7536 42.7984 44.823 42.626C44.8923 42.4514 45.0916 42.3686 45.2639 42.438L45.7138 42.6193C45.8884 42.6887 45.9712 42.8879 45.9018 43.0603C45.8481 43.1923 45.7205 43.2729 45.5862 43.2729H45.5885ZM37.3874 43.0379C37.3449 43.0379 37.3023 43.0289 37.2598 43.0133C37.0852 42.9439 37.0024 42.7447 37.0718 42.5723L37.2531 42.1224C37.3225 41.9478 37.5217 41.865 37.694 41.9344C37.8686 42.0038 37.9514 42.203 37.882 42.3753L37.7007 42.8252C37.647 42.9573 37.5194 43.0379 37.3851 43.0379H37.3874ZM43.3412 42.3686C43.2987 42.3686 43.2562 42.3597 43.2136 42.344L42.7637 42.1627C42.5892 42.0933 42.5063 41.8941 42.5757 41.7218C42.6451 41.5472 42.8443 41.4644 43.0167 41.5338L43.4666 41.7151C43.6411 41.7844 43.724 41.9836 43.6546 42.156C43.6009 42.2881 43.4733 42.3686 43.339 42.3686H43.3412ZM41.094 41.4621C41.0515 41.4621 41.0089 41.4532 40.9664 41.4375L40.5165 41.2562C40.3419 41.1868 40.2591 40.9876 40.3285 40.8153C40.3979 40.6407 40.5971 40.5579 40.7694 40.6272L41.2193 40.8085C41.3939 40.8779 41.4767 41.0771 41.4073 41.2495C41.3536 41.3815 41.226 41.4621 41.0917 41.4621H41.094ZM38.3834 40.8466C38.2849 40.8466 38.1865 40.8041 38.1193 40.7213C38.0007 40.5758 38.0231 40.3631 38.1685 40.2445C38.3454 40.1013 38.558 40.0095 38.7841 39.9849C38.9699 39.9625 39.1377 40.0968 39.1601 40.2826C39.1825 40.4683 39.0482 40.6362 38.8624 40.6586C38.7639 40.6698 38.6744 40.7078 38.5983 40.7705C38.5356 40.822 38.4595 40.8466 38.3834 40.8466Z" fill="#026832"/>
</g>
<g id="Group_8">
<path id="Vector_15" d="M20.3873 50.5443L25.5093 52.6075C27.5205 53.4176 29.8076 52.4439 30.6178 50.4327L33.8392 42.4353C34.6493 40.4241 33.6757 38.1369 31.6644 37.3268L26.5425 35.2637C24.5313 34.4535 22.2442 35.4272 21.434 37.4384L18.2126 45.4358C17.4025 47.447 18.3761 49.7342 20.3873 50.5443Z" fill="white"/>
<path id="Vector_16" d="M28.7969 54.151C28.629 54.151 28.4835 54.0279 28.4611 53.8578C28.4365 53.672 28.5663 53.5019 28.7521 53.4773C28.8484 53.4639 28.9401 53.4236 29.0162 53.3609C29.1595 53.24 29.3744 53.2579 29.4952 53.4012C29.6161 53.5444 29.5982 53.7571 29.4549 53.8802C29.2804 54.0279 29.07 54.1219 28.8439 54.151C28.8282 54.151 28.8126 54.1533 28.7991 54.1533L28.7969 54.151ZM26.9749 53.5355C26.9324 53.5355 26.8899 53.5265 26.8473 53.5109L26.3974 53.3296C26.2229 53.2602 26.14 53.061 26.2094 52.8886C26.2788 52.714 26.478 52.6312 26.6504 52.7006L27.1003 52.8819C27.2749 52.9513 27.3577 53.1505 27.2883 53.3229C27.2346 53.4549 27.107 53.5355 26.9727 53.5355H26.9749ZM24.7277 52.6312C24.6852 52.6312 24.6426 52.6223 24.6001 52.6066L24.1502 52.4253C23.9756 52.3559 23.8928 52.1567 23.9622 51.9844C24.0316 51.8098 24.2308 51.727 24.4031 51.7964L24.853 51.9776C25.0276 52.047 25.1104 52.2462 25.041 52.4186C24.9873 52.5507 24.8597 52.6312 24.7254 52.6312H24.7277ZM30.0414 52.2104C29.9988 52.2104 29.9563 52.2015 29.9138 52.1858C29.7392 52.1164 29.6564 51.9172 29.7258 51.7449L29.9071 51.295C29.9765 51.1204 30.1757 51.0376 30.348 51.107C30.5226 51.1763 30.6054 51.3756 30.536 51.5479L30.3547 51.9978C30.301 52.1299 30.1734 52.2104 30.0391 52.2104H30.0414ZM22.4805 51.7247C22.4379 51.7247 22.3954 51.7158 22.3529 51.7001L21.903 51.5188C21.7284 51.4494 21.6456 51.2502 21.715 51.0779C21.7843 50.9033 21.9836 50.8205 22.1559 50.8898L22.6058 51.0711C22.7804 51.1405 22.8632 51.3397 22.7938 51.5121C22.7401 51.6441 22.6125 51.7247 22.4782 51.7247H22.4805ZM20.2332 50.8205C20.1907 50.8205 20.1482 50.8115 20.1056 50.7958L19.6557 50.6145C19.4812 50.5452 19.3983 50.3459 19.4677 50.1736C19.5371 49.999 19.7363 49.9162 19.9087 49.9856L20.3586 50.1669C20.5331 50.2363 20.616 50.4355 20.5466 50.6078C20.4929 50.7399 20.3653 50.8205 20.231 50.8205H20.2332ZM30.9479 49.9632C30.9053 49.9632 30.8628 49.9542 30.8203 49.9386C30.6457 49.8692 30.5629 49.67 30.6323 49.4976L30.8136 49.0477C30.883 48.8732 31.0822 48.7903 31.2545 48.8597C31.4291 48.9291 31.5119 49.1283 31.4425 49.3007L31.2612 49.7506C31.2075 49.8826 31.0799 49.9632 30.9456 49.9632H30.9479ZM17.986 49.914C17.9435 49.914 17.9009 49.905 17.8584 49.8893L17.4085 49.708C17.3682 49.6924 17.3279 49.6722 17.2899 49.6521C17.1242 49.5625 17.0638 49.3589 17.1511 49.1932C17.2406 49.0276 17.4443 48.9672 17.6099 49.0545C17.6256 49.0634 17.6435 49.0724 17.6614 49.0791L18.1113 49.2604C18.2859 49.3298 18.3687 49.529 18.2993 49.7013C18.2456 49.8334 18.118 49.914 17.9837 49.914H17.986ZM17.3257 47.9823C17.2832 47.9823 17.2406 47.9734 17.1981 47.9577C17.0235 47.8883 16.9407 47.6891 17.0101 47.5168L17.1914 47.0669C17.2608 46.8923 17.46 46.8095 17.6323 46.8788C17.8069 46.9482 17.8897 47.1474 17.8203 47.3198L17.639 47.7697C17.5853 47.9017 17.4577 47.9823 17.3234 47.9823H17.3257ZM31.8521 47.716C31.8096 47.716 31.7671 47.707 31.7246 47.6913C31.55 47.622 31.4672 47.4227 31.5365 47.2504L31.7178 46.8005C31.7872 46.6259 31.9864 46.5431 32.1588 46.6125C32.3334 46.6819 32.4162 46.8811 32.3468 47.0534L32.1655 47.5033C32.1118 47.6354 31.9842 47.716 31.8499 47.716H31.8521ZM18.2322 45.7351C18.1897 45.7351 18.1471 45.7261 18.1046 45.7105C17.93 45.6411 17.8472 45.4419 17.9166 45.2695L18.0979 44.8196C18.1673 44.645 18.3665 44.5622 18.5388 44.6316C18.7134 44.701 18.7962 44.9002 18.7269 45.0725L18.5456 45.5224C18.4918 45.6545 18.3642 45.7351 18.23 45.7351H18.2322ZM32.7586 45.4687C32.7161 45.4687 32.6736 45.4598 32.6311 45.4441C32.4565 45.3747 32.3737 45.1755 32.443 45.0032L32.6243 44.5533C32.6937 44.3787 32.8929 44.2959 33.0653 44.3653C33.2399 44.4346 33.3227 44.6338 33.2533 44.8062L33.072 45.2561C33.0183 45.3881 32.8907 45.4687 32.7564 45.4687H32.7586ZM19.1365 43.4878C19.0939 43.4878 19.0514 43.4789 19.0089 43.4632C18.8343 43.3938 18.7515 43.1946 18.8209 43.0223L19.0022 42.5724C19.0715 42.3978 19.2708 42.315 19.4431 42.3844C19.6177 42.4538 19.7005 42.653 19.6311 42.8253L19.4498 43.2752C19.3961 43.4073 19.2685 43.4878 19.1342 43.4878H19.1365ZM33.6629 43.2215C33.6204 43.2215 33.5779 43.2125 33.5353 43.1969C33.3607 43.1275 33.2779 42.9283 33.3473 42.7559L33.5286 42.306C33.598 42.1314 33.7972 42.0486 33.9696 42.118C34.1441 42.1874 34.227 42.3866 34.1576 42.559L33.9763 43.0089C33.9225 43.1409 33.795 43.2215 33.6607 43.2215H33.6629ZM20.043 41.2406C20.0004 41.2406 19.9579 41.2317 19.9154 41.216C19.7408 41.1466 19.658 40.9474 19.7274 40.775L19.9087 40.3252C19.9781 40.1506 20.1773 40.0678 20.3496 40.1371C20.5242 40.2065 20.607 40.4057 20.5376 40.5781L20.3563 41.028C20.3026 41.16 20.175 41.2406 20.0407 41.2406H20.043ZM34.5694 40.9743C34.5269 40.9743 34.4844 40.9653 34.4418 40.9496C34.2672 40.8802 34.1844 40.681 34.2538 40.5087L34.4351 40.0588C34.5045 39.8842 34.7037 39.8014 34.8761 39.8708C35.0506 39.9402 35.1335 40.1394 35.0641 40.3117L34.8828 40.7616C34.8291 40.8937 34.7015 40.9743 34.5672 40.9743H34.5694ZM20.9472 38.9934C20.9047 38.9934 20.8622 38.9844 20.8196 38.9688C20.6451 38.8994 20.5622 38.7002 20.6316 38.5278L20.8129 38.0779C20.8823 37.9033 21.0815 37.8205 21.2539 37.8899C21.4285 37.9593 21.5113 38.1585 21.4419 38.3308L21.2606 38.7807C21.2069 38.9128 21.0793 38.9934 20.945 38.9934H20.9472ZM34.5649 38.8345C34.5179 38.8345 34.4687 38.8233 34.4217 38.8031C34.4127 38.7986 34.4038 38.7964 34.3971 38.7919L33.9897 38.6285C33.8151 38.5591 33.7323 38.3599 33.8017 38.1876C33.8711 38.013 34.0703 37.9302 34.2426 37.9996L34.6478 38.163C34.6679 38.1719 34.688 38.1809 34.7082 38.1898C34.8783 38.2682 34.9499 38.4719 34.8716 38.6397C34.8134 38.7628 34.6925 38.8345 34.5649 38.8345ZM32.3177 37.928C32.2752 37.928 32.2326 37.919 32.1901 37.9033L31.7402 37.722C31.5656 37.6526 31.4828 37.4534 31.5522 37.2811C31.6216 37.1065 31.8208 37.0237 31.9931 37.0931L32.443 37.2744C32.6176 37.3438 32.7004 37.543 32.6311 37.7153C32.5773 37.8474 32.4498 37.928 32.3155 37.928H32.3177ZM30.0705 37.0214C30.0279 37.0214 29.9854 37.0125 29.9429 36.9968L29.493 36.8155C29.3184 36.7461 29.2356 36.5469 29.305 36.3746C29.3744 36.2 29.5736 36.1172 29.7459 36.1866L30.1958 36.3679C30.3704 36.4373 30.4532 36.6365 30.3838 36.8088C30.3301 36.9409 30.2025 37.0214 30.0682 37.0214H30.0705ZM21.8537 36.7461C21.8112 36.7461 21.7687 36.7372 21.7262 36.7215C21.5516 36.6521 21.4687 36.4529 21.5381 36.2806L21.7194 35.8307C21.7888 35.6561 21.988 35.5733 22.1604 35.6427C22.335 35.7121 22.4178 35.9113 22.3484 36.0836L22.1671 36.5335C22.1134 36.6656 21.9858 36.7461 21.8515 36.7461H21.8537ZM27.8232 36.1172C27.7807 36.1172 27.7382 36.1082 27.6956 36.0926L27.2458 35.9113C27.0712 35.8419 26.9884 35.6427 27.0577 35.4703C27.1271 35.2957 27.3263 35.2129 27.4987 35.2823L27.9486 35.4636C28.1232 35.533 28.206 35.7322 28.1366 35.9045C28.0829 36.0366 27.9553 36.1172 27.821 36.1172H27.8232ZM25.576 35.2107C25.5335 35.2107 25.4909 35.2017 25.4484 35.1861L24.9985 35.0048C24.8239 34.9354 24.7411 34.7362 24.8105 34.5638C24.8799 34.3892 25.0791 34.3064 25.2514 34.3758L25.7013 34.5571C25.8759 34.6265 25.9587 34.8257 25.8894 34.998C25.8356 35.1301 25.7081 35.2107 25.5738 35.2107H25.576ZM22.8632 34.5638C22.7602 34.5638 22.6595 34.5168 22.5924 34.4295C22.4805 34.2796 22.5095 34.0669 22.6595 33.955C22.8408 33.8185 23.0579 33.7356 23.284 33.7177C23.4698 33.7021 23.6332 33.8431 23.6488 34.0289C23.6645 34.2146 23.5235 34.378 23.3377 34.3937C23.2392 34.4004 23.1475 34.4362 23.0691 34.4967C23.0087 34.5437 22.9371 34.566 22.8654 34.566L22.8632 34.5638Z" fill="#026832"/>
</g>
</g>
<g id="Group_9">
<g id="Group_10">
<path id="Vector_17" d="M56.8897 76.7373L53.6375 78.3265L54.732 74.8773L71.6623 55.2409L73.82 57.1009L56.8897 76.7373Z" fill="white"/>
<path id="Vector_18" d="M53.6374 78.6646C53.5568 78.6646 53.4785 78.6355 53.4158 78.5817C53.3128 78.4922 53.2725 78.3512 53.3151 78.2214L54.4096 74.7722C54.423 74.7274 54.4454 74.6871 54.4767 74.6536L71.4071 55.0193C71.5302 54.8783 71.7429 54.8627 71.8861 54.9835L74.0438 56.8435C74.111 56.9017 74.1535 56.9868 74.1602 57.0763C74.1669 57.1659 74.1378 57.2554 74.0796 57.3225L57.1493 76.9568C57.1202 76.9926 57.0821 77.0194 57.0418 77.0396L53.7918 78.6287C53.7448 78.6511 53.6933 78.6623 53.6419 78.6623L53.6374 78.6646ZM55.0341 75.0453L54.2014 77.673L56.677 76.4621L73.341 57.1368L71.6981 55.7199L55.0341 75.0453Z" fill="#026832"/>
</g>
<g id="Group_11">
<path id="Vector_19" d="M78.7561 48.4201L79.5325 49.0895C79.9139 49.4184 79.9549 49.9946 79.6275 50.3743L73.8291 57.0989L71.6729 55.2397L77.4713 48.5151C77.8001 48.1337 78.3764 48.0927 78.7561 48.4201Z" fill="white"/>
<path id="Vector_20" d="M73.8199 57.441C73.7415 57.441 73.6632 57.4141 73.5983 57.3582L71.4406 55.4982C71.3734 55.44 71.3309 55.3549 71.3242 55.2654C71.3175 55.1759 71.3466 55.0863 71.4048 55.0192L76.9826 48.5505C77.2601 48.2305 77.6451 48.0357 78.0681 48.0044C78.4912 47.9731 78.9008 48.1074 79.2209 48.3849L79.4872 48.6155C79.8073 48.893 80.002 49.278 80.0333 49.701C80.0647 50.1241 79.9304 50.5337 79.6528 50.8537L74.075 57.3224C74.0079 57.4007 73.9139 57.441 73.8176 57.441H73.8199ZM72.1412 55.205L73.7841 56.6218L79.1403 50.4083C79.2992 50.2248 79.3753 49.9898 79.3574 49.748C79.3395 49.5063 79.2276 49.2847 79.044 49.1258L78.7777 48.8952C78.3972 48.5685 77.8219 48.611 77.4951 48.9892L72.1389 55.2027L72.1412 55.205Z" fill="#026832"/>
</g>
<g id="Group_12">
<path id="Vector_21" d="M78.8182 51.3038L79.268 51.691C79.6642 52.0335 79.709 52.6311 79.3665 53.0295L73.5537 59.7712" fill="white"/>
<path id="Vector_22" d="M73.5537 60.1115C73.4754 60.1115 73.3971 60.0847 73.3321 60.0287C73.1911 59.9056 73.1755 59.693 73.2963 59.5497L79.1092 52.808C79.3285 52.5528 79.2994 52.1679 79.0465 51.9485L78.5966 51.5613C78.4556 51.4382 78.4399 51.2255 78.5608 51.0823C78.6839 50.9413 78.8965 50.9256 79.0398 51.0465L79.4897 51.4337C79.7493 51.6575 79.9082 51.9709 79.9328 52.3134C79.9575 52.6558 79.8478 52.9893 79.624 53.249L73.8111 59.9907C73.744 60.069 73.65 60.1093 73.5537 60.1093V60.1115Z" fill="#026832"/>
</g>
</g>
</g>
<defs>
<clipPath id="clip0_524_2472">
<rect width="88.2935" height="78.6644" fill="white" transform="translate(0.182617)"/>
</clipPath>
</defs>
</svg>
