<svg width="92" height="91" viewBox="0 0 92 91" fill="none" xmlns="http://www.w3.org/2000/svg">
<g id="icon/exposure" clip-path="url(#clip0_384_3662)">
<g id="Group">
<path id="Vector" d="M78.8579 50.7731C75.4169 50.7731 72.4603 48.4875 71.6073 45.316C70.5099 44.9883 69.7066 43.9891 69.7066 42.8119V40.7043C69.7066 39.6161 70.3898 38.6775 71.363 38.2851C71.4748 34.3409 74.7957 31.1653 78.8579 31.1653C82.9202 31.1653 86.2453 34.345 86.3529 38.2932C87.3136 38.6897 87.9927 39.6242 87.9927 40.7083V42.8159C87.9927 43.9891 87.2018 44.9842 86.1128 45.316C85.2598 48.4915 82.3032 50.7772 78.8621 50.7772L78.8579 50.7731ZM73.6818 42.7714L73.8806 44.0457C74.187 46.4972 76.3237 48.3459 78.8579 48.3459C81.3922 48.3459 83.5289 46.4972 83.8353 44.0457L83.9926 42.7795L85.2763 42.9939C85.4088 43.0101 85.5082 42.913 85.5082 42.8078V40.7002C85.5082 40.595 85.4212 40.506 85.3136 40.506L83.9015 40.6962L83.8726 38.4874C83.8726 35.7851 81.6241 33.5885 78.8579 33.5885C76.0918 33.5885 73.8433 35.7851 73.8433 38.4874V40.7204L72.4189 40.5141C72.2739 40.5141 72.1911 40.595 72.1911 40.7043V42.8119C72.1911 42.9171 72.2781 43.002 72.3899 43.002L73.686 42.7714H73.6818Z" fill="#554283"/>
<path id="Vector_2" d="M91.5 62.0394H66.191V58.2691C66.191 54.3492 69.454 51.1615 73.4665 51.1615H74.8827V49.0053C74.8827 48.3338 75.4376 47.7917 76.125 47.7917C76.8123 47.7917 77.3672 48.3338 77.3672 49.0053V53.5887H73.4665C70.8246 53.5887 68.6755 55.6882 68.6755 58.2691V59.6122H89.0155V58.2691C89.0155 55.6882 86.8664 53.5887 84.2245 53.5887H80.3238V49.0053C80.3238 48.3338 80.8787 47.7917 81.5661 47.7917C82.2535 47.7917 82.8083 48.3338 82.8083 49.0053V51.1615H84.2245C88.237 51.1615 91.5 54.3492 91.5 58.2691V62.0394Z" fill="#554283"/>
</g>
<g id="Group_2">
<path id="Vector_3" d="M13.1628 50.7731C9.72172 50.7731 6.76513 48.4875 5.91211 45.316C4.81478 44.9883 4.01144 43.9891 4.01144 42.8119V40.7043C4.01144 39.6161 4.69469 38.6775 5.6678 38.2851C5.7796 34.3409 9.10059 31.1653 13.1628 31.1653C17.225 31.1653 20.5501 34.345 20.6578 38.2892C21.6185 38.6856 22.2976 39.6201 22.2976 40.7043V42.8119C22.2976 43.985 21.5067 44.9802 20.4135 45.3119C19.5605 48.4875 16.6039 50.7731 13.1628 50.7731ZM7.98669 42.7714L8.18545 44.0457C8.49188 46.4972 10.6286 48.3459 13.1628 48.3459C15.697 48.3459 17.8337 46.4972 18.1401 44.0457L18.2975 42.7795L19.5812 42.9939C19.7302 43.0061 19.813 42.913 19.813 42.8078V40.7002C19.813 40.595 19.7261 40.506 19.6184 40.506L18.2064 40.6962L18.1774 38.4874C18.1774 35.7851 15.9289 33.5885 13.1628 33.5885C10.3967 33.5885 8.14818 35.7851 8.14818 38.4874V40.7204L6.71958 40.5101C6.58707 40.5222 6.49183 40.591 6.49183 40.7002V42.8078C6.49183 42.913 6.57879 42.998 6.69059 42.998L7.98669 42.7674V42.7714Z" fill="#554283"/>
<path id="Vector_4" d="M25.8091 62.0394H0.5V58.2691C0.5 54.3492 3.76301 51.1615 7.77553 51.1615H9.19171V49.0053C9.19171 48.3338 9.74659 47.7917 10.434 47.7917C11.1214 47.7917 11.6762 48.3338 11.6762 49.0053V53.5887H7.77553C5.13365 53.5887 2.98453 55.6882 2.98453 58.2691V59.6122H23.3245V58.2691C23.3245 55.6882 21.1754 53.5887 18.5335 53.5887H14.6328V49.0053C14.6328 48.3338 15.1877 47.7917 15.8751 47.7917C16.5625 47.7917 17.1174 48.3338 17.1174 49.0053V51.1615H18.5335C22.546 51.1615 25.8091 54.3492 25.8091 58.2691V62.0394Z" fill="#554283"/>
</g>
<g id="Group_3">
<path id="Vector_5" d="M46.0083 20.3966C42.4223 20.3966 39.3456 18.0099 38.4719 14.7008C37.329 14.3731 36.4926 13.3415 36.4926 12.1239V9.91918C36.4926 8.79053 37.2089 7.82369 38.2234 7.42725C38.3228 3.31718 41.7763 0 46.0083 0C50.2403 0 53.6979 3.31718 53.789 7.4313C54.7911 7.83178 55.5033 8.79458 55.5033 9.91918V12.1239C55.5033 13.3375 54.6752 14.365 53.5447 14.6967C52.671 18.0058 49.5943 20.3966 46.0083 20.3966ZM40.592 12.1441L40.7494 13.4224C41.0724 16.0155 43.3333 17.9694 46.0083 17.9694C48.6833 17.9694 50.9442 16.0155 51.2672 13.4224L51.4246 12.1563L52.7124 12.3747C52.8615 12.399 53.0147 12.2776 53.0147 12.1239V9.91918C53.0147 9.76141 52.8739 9.6441 52.7082 9.66837L51.3045 9.84636V7.60524C51.3045 4.74923 48.9276 2.42721 46.0042 2.42721C43.0807 2.42721 40.7038 4.74923 40.7038 7.60524V9.87468L39.2752 9.66432H39.2669C39.0889 9.66432 38.9771 9.77759 38.9771 9.91514V12.1198C38.9771 12.2776 39.1344 12.3949 39.2918 12.3707L40.5879 12.1401L40.592 12.1441Z" fill="#554283"/>
<path id="Vector_6" d="M59.1763 32.1767H32.8279V28.2891C32.8279 24.2195 36.2151 20.9104 40.3808 20.9104H41.9171V18.6005C41.9171 17.929 42.472 17.3869 43.1593 17.3869C43.8467 17.3869 44.4016 17.929 44.4016 18.6005V23.3376H40.3808C37.5857 23.3376 35.3124 25.5585 35.3124 28.2891V29.7495H56.6917V28.2891C56.6917 25.5585 54.4184 23.3376 51.6233 23.3376H47.6025V18.6005C47.6025 17.929 48.1574 17.3869 48.8448 17.3869C49.5322 17.3869 50.087 17.929 50.087 18.6005V20.9104H51.6233C55.789 20.9104 59.1763 24.2195 59.1763 28.2891V32.1767Z" fill="#554283"/>
</g>
<g id="Group_4">
<path id="Vector_7" d="M46.0083 79.2159C42.4223 79.2159 39.3456 76.8291 38.4719 73.5201C37.329 73.1924 36.4926 72.1608 36.4926 70.9432V68.7385C36.4926 67.6098 37.2089 66.643 38.2234 66.2465C38.3228 62.1365 41.7763 58.8193 46.0083 58.8193C50.2403 58.8193 53.6979 62.1365 53.789 66.2546C54.7911 66.6551 55.5033 67.6179 55.5033 68.7425V70.9472C55.5033 72.1608 54.6752 73.1883 53.5447 73.5201C52.671 76.8291 49.5943 79.2199 46.0083 79.2199V79.2159ZM40.5879 70.9594L40.7494 72.2417C41.0724 74.8348 43.3333 76.7887 46.0083 76.7887C48.6833 76.7887 50.9442 74.8348 51.2672 72.2458L51.4246 70.9715L52.7165 71.198C52.7165 71.198 52.7207 71.198 52.7248 71.198C52.8987 71.198 53.0147 71.0848 53.0147 70.9472V68.7425C53.0147 68.5888 52.8739 68.4715 52.7082 68.4917L51.3045 68.6697V66.4286C51.3045 63.5726 48.9276 61.2505 46.0042 61.2505C43.0807 61.2505 40.7038 63.5726 40.7038 66.4286V68.694L39.2835 68.4917C39.1303 68.4715 38.9729 68.5847 38.9729 68.7425V70.9472C38.9729 71.105 39.1303 71.2263 39.2835 71.198L40.5837 70.9594H40.5879Z" fill="#554283"/>
<path id="Vector_8" d="M59.1763 91H32.8279V87.1124C32.8279 83.0428 36.2151 79.7337 40.3808 79.7337H41.9171V77.4238C41.9171 76.7523 42.472 76.2102 43.1593 76.2102C43.8467 76.2102 44.4016 76.7523 44.4016 77.4238V82.1609H40.3808C37.5857 82.1609 35.3124 84.3818 35.3124 87.1124V88.5728H56.6917V87.1124C56.6917 84.3818 54.4184 82.1609 51.6233 82.1609H47.6025V77.4238C47.6025 76.7523 48.1574 76.2102 48.8448 76.2102C49.5322 76.2102 50.087 76.7523 50.087 77.4238V79.7337H51.6233C55.789 79.7337 59.1763 83.0428 59.1763 87.1124V91Z" fill="#554283"/>
</g>
<g id="Group_5">
<path id="Vector_9" d="M73.7853 28.3619C73.4747 28.3619 73.1641 28.2486 72.924 28.0221L59.5738 15.4572C59.081 14.992 59.0644 14.2234 59.5406 13.742C60.0168 13.2606 60.8036 13.2444 61.2964 13.7096L74.6466 26.2745C75.1393 26.7397 75.1559 27.5083 74.6797 27.9897C74.4354 28.2365 74.1124 28.3619 73.7853 28.3619Z" fill="#554283"/>
<path id="Vector_10" d="M18.1981 28.3619C17.871 28.3619 17.548 28.2365 17.3037 27.9897C16.8275 27.5083 16.8441 26.7397 17.3368 26.2745L30.687 13.7096C31.1798 13.2444 31.9666 13.2606 32.4428 13.742C32.919 14.2234 32.9024 14.992 32.4096 15.4572L19.0594 28.0221C18.8193 28.2486 18.5087 28.3619 18.1981 28.3619Z" fill="#554283"/>
</g>
<g id="Group_6">
<path id="Vector_11" d="M31.5483 79.8753C31.2378 79.8753 30.9272 79.762 30.687 79.5355L17.3368 66.9707C16.8441 66.5054 16.8275 65.7368 17.3037 65.2554C17.7799 64.774 18.5667 64.7578 19.0594 65.2231L32.4096 77.7879C32.9024 78.2531 32.919 79.0217 32.4428 79.5031C32.1985 79.7499 31.8755 79.8753 31.5483 79.8753Z" fill="#554283"/>
<path id="Vector_12" d="M60.4351 79.8753C60.1079 79.8753 59.785 79.7499 59.5406 79.5031C59.0644 79.0217 59.081 78.2531 59.5738 77.7879L72.924 65.2231C73.4167 64.7578 74.2035 64.774 74.6797 65.2554C75.1559 65.7368 75.1393 66.5054 74.6466 66.9707L61.2964 79.5355C61.0562 79.762 60.7456 79.8753 60.4351 79.8753Z" fill="#554283"/>
</g>
</g>
<defs>
<clipPath id="clip0_384_3662">
<rect width="91" height="91" fill="white" transform="translate(0.5)"/>
</clipPath>
</defs>
</svg>
