<svg width="19" height="16" viewBox="0 0 19 16" fill="none" xmlns="http://www.w3.org/2000/svg">
<path id="Vector" d="M9.71393 0.875925C9.56206 0.774675 9.36519 0.774675 9.21331 0.875925L5.27862 3.49999H2.26362C1.27081 3.49999 0.463623 4.30718 0.463623 5.29999V13.4C0.463623 14.3928 1.27081 15.2 2.26362 15.2H7.66362H8.56362H10.3636H11.2636H16.6636C17.6564 15.2 18.4636 14.3928 18.4636 13.4V5.29999C18.4636 4.30718 17.6564 3.49999 16.6636 3.49999H13.6486L9.71393 0.875925ZM11.2636 11.6C11.2636 10.6072 10.4564 9.79999 9.46362 9.79999C8.47081 9.79999 7.66362 10.6072 7.66362 11.6V14.3H2.26362C1.76581 14.3 1.36362 13.8978 1.36362 13.4V5.29999C1.36362 4.80218 1.76581 4.39999 2.26362 4.39999H5.41362C5.50362 4.39999 5.588 4.37468 5.66394 4.32405L9.46362 1.78999L13.2633 4.32405C13.3364 4.37468 13.4236 4.39999 13.5136 4.39999H16.6636C17.1614 4.39999 17.5636 4.80218 17.5636 5.29999V13.4C17.5636 13.8978 17.1614 14.3 16.6636 14.3H11.2636V11.6ZM10.3636 14.3H8.56362V11.6C8.56362 11.1022 8.96581 10.7 9.46362 10.7C9.96144 10.7 10.3636 11.1022 10.3636 11.6V14.3ZM3.16362 6.19999V7.99999C3.16362 8.4978 3.56581 8.89999 4.06362 8.89999H4.96362C5.46144 8.89999 5.86362 8.4978 5.86362 7.99999V6.19999C5.86362 5.70218 5.46144 5.29999 4.96362 5.29999H4.06362C3.56581 5.29999 3.16362 5.70218 3.16362 6.19999ZM4.96362 6.19999V7.99999H4.06362V6.19999H4.96362ZM13.9636 5.29999C13.4658 5.29999 13.0636 5.70218 13.0636 6.19999V7.99999C13.0636 8.4978 13.4658 8.89999 13.9636 8.89999H14.8636C15.3614 8.89999 15.7636 8.4978 15.7636 7.99999V6.19999C15.7636 5.70218 15.3614 5.29999 14.8636 5.29999H13.9636ZM13.9636 6.19999H14.8636V7.99999H13.9636V6.19999ZM3.16362 10.7V12.5C3.16362 12.9978 3.56581 13.4 4.06362 13.4H4.96362C5.46144 13.4 5.86362 12.9978 5.86362 12.5V10.7C5.86362 10.2022 5.46144 9.79999 4.96362 9.79999H4.06362C3.56581 9.79999 3.16362 10.2022 3.16362 10.7ZM4.96362 10.7V12.5H4.06362V10.7H4.96362ZM13.9636 9.79999C13.4658 9.79999 13.0636 10.2022 13.0636 10.7V12.5C13.0636 12.9978 13.4658 13.4 13.9636 13.4H14.8636C15.3614 13.4 15.7636 12.9978 15.7636 12.5V10.7C15.7636 10.2022 15.3614 9.79999 14.8636 9.79999H13.9636ZM13.9636 10.7H14.8636V12.5H13.9636V10.7ZM9.46362 4.39999C9.94101 4.39999 10.3988 4.58963 10.7364 4.9272C11.074 5.26476 11.2636 5.7226 11.2636 6.19999C11.2636 6.67738 11.074 7.13521 10.7364 7.47278C10.3988 7.81035 9.94101 7.99999 9.46362 7.99999C8.98623 7.99999 8.5284 7.81035 8.19083 7.47278C7.85327 7.13521 7.66362 6.67738 7.66362 6.19999C7.66362 5.7226 7.85327 5.26476 8.19083 4.9272C8.5284 4.58963 8.98623 4.39999 9.46362 4.39999ZM9.46362 8.89999C10.1797 8.89999 10.8665 8.61552 11.3728 8.10918C11.8792 7.60283 12.1636 6.91607 12.1636 6.19999C12.1636 5.4839 11.8792 4.79715 11.3728 4.2908C10.8665 3.78445 10.1797 3.49999 9.46362 3.49999C8.74754 3.49999 8.06078 3.78445 7.55443 4.2908C7.04809 4.79715 6.76362 5.4839 6.76362 6.19999C6.76362 6.91607 7.04809 7.60283 7.55443 8.10918C8.06078 8.61552 8.74754 8.89999 9.46362 8.89999ZM9.91362 5.29999C9.91362 5.05249 9.71112 4.84999 9.46362 4.84999C9.21612 4.84999 9.01362 5.05249 9.01362 5.29999V6.19999C9.01362 6.44749 9.21612 6.64999 9.46362 6.64999H10.1386C10.3861 6.64999 10.5886 6.44749 10.5886 6.19999C10.5886 5.95249 10.3861 5.74999 10.1386 5.74999H9.91362V5.29999Z" fill="#2B2B2B"/>
</svg>
