<svg width="16" height="16" viewBox="0 0 16 16" fill="none" xmlns="http://www.w3.org/2000/svg">
<path id="Info" d="M15.4641 8C15.4641 12.1431 12.106 15.5 7.96411 15.5C3.82227 15.5 0.464111 12.1431 0.464111 8C0.464111 3.85936 3.82227 0.5 7.96411 0.5C12.106 0.5 15.4641 3.85936 15.4641 8ZM8.16537 2.97984C6.51728 2.97984 5.46613 3.6741 4.6407 4.908C4.53377 5.06786 4.56954 5.28346 4.72281 5.39968L5.77218 6.19534C5.92958 6.31471 6.15386 6.28631 6.27616 6.13117C6.8164 5.44595 7.18683 5.0486 8.00911 5.0486C8.62692 5.0486 9.39111 5.44622 9.39111 6.04531C9.39111 6.49822 9.01723 6.73081 8.40722 7.07281C7.69581 7.47161 6.75443 7.96797 6.75443 9.20968V9.33064C6.75443 9.53106 6.91692 9.69355 7.11734 9.69355H8.81089C9.0113 9.69355 9.17379 9.53106 9.17379 9.33064V9.29033C9.17379 8.42959 11.6895 8.39375 11.6895 6.06452C11.6895 4.31042 9.86999 2.97984 8.16537 2.97984ZM7.96411 10.4798C7.19702 10.4798 6.57298 11.1039 6.57298 11.871C6.57298 12.638 7.19702 13.2621 7.96411 13.2621C8.7312 13.2621 9.35524 12.638 9.35524 11.871C9.35524 11.1039 8.7312 10.4798 7.96411 10.4798Z" fill="#008ECD"/>
</svg>
