<?xml version="1.0" encoding="utf-8"?>
<!-- Generator: Adobe Illustrator 22.1.0, SVG Export Plug-In . SVG Version: 6.00 Build 0)  -->
<svg fill = "#3f1c7a" version="1.1" id="Layer_1" xmlns="http://www.w3.org/2000/svg" xmlns:xlink="http://www.w3.org/1999/xlink" x="0px" y="0px"
	 viewBox="0 0 24 24" style="enable-background:new 0 0 24 24;" xml:space="preserve">
<style type="text/css">
	.st0{fill:none;}
</style>
<path class="st0" d="M0,0h24v24H0V0z"/>
<path d="M2,6H0v5h0l0,9c0,1.1,0.9,2,2,2h18v-2H2V6z M22,4h-8l-2-2H6C4.9,2,4,2.9,4,4l0,12c0,1.1,0.9,2,2,2h16c1.1,0,2-0.9,2-2V6
	C24,4.9,23.1,4,22,4z M7,15l4.5-6l3.5,4.5l2.5-3L21,15H7z"/>
</svg>
