<svg width="21" height="20" viewBox="0 0 21 20" fill="none" xmlns="http://www.w3.org/2000/svg">
<path id="Vector" d="M10.917 1.25C13.2376 1.25 15.4632 2.17187 17.1042 3.81282C18.7451 5.45376 19.667 7.67936 19.667 10C19.667 12.3206 18.7451 14.5462 17.1042 16.1872C15.4632 17.8281 13.2376 18.75 10.917 18.75C8.59635 18.75 6.37075 17.8281 4.72981 16.1872C3.08886 14.5462 2.16699 12.3206 2.16699 10C2.16699 7.67936 3.08886 5.45376 4.72981 3.81282C6.37075 2.17187 8.59635 1.25 10.917 1.25ZM10.917 20C13.5692 20 16.1127 18.9464 17.9881 17.0711C19.8634 15.1957 20.917 12.6522 20.917 10C20.917 7.34784 19.8634 4.8043 17.9881 2.92893C16.1127 1.05357 13.5692 0 10.917 0C8.26483 0 5.72129 1.05357 3.84592 2.92893C1.97056 4.8043 0.916992 7.34784 0.916992 10C0.916992 12.6522 1.97056 15.1957 3.84592 17.0711C5.72129 18.9464 8.26483 20 10.917 20ZM7.97559 7.05859C7.7334 7.30078 7.7334 7.69922 7.97559 7.94141L10.0342 10L7.97559 12.0586C7.7334 12.3008 7.7334 12.6992 7.97559 12.9414C8.21777 13.1836 8.61621 13.1836 8.8584 12.9414L10.917 10.8828L12.9756 12.9414C13.2178 13.1836 13.6162 13.1836 13.8584 12.9414C14.1006 12.6992 14.1006 12.3008 13.8584 12.0586L11.7998 10L13.8584 7.94141C14.1006 7.69922 14.1006 7.30078 13.8584 7.05859C13.6162 6.81641 13.2178 6.81641 12.9756 7.05859L10.917 9.11719L8.8584 7.05859C8.61621 6.81641 8.21777 6.81641 7.97559 7.05859Z" fill="white"/>
</svg>
