<svg width="92" height="91" viewBox="0 0 92 91" fill="none" xmlns="http://www.w3.org/2000/svg">
<g id="icon/teachers" clip-path="url(#clip0_384_3622)">
<path id="Vector" d="M46.2383 38.3275C40.076 38.3275 34.8189 33.9795 33.5824 28.0476C31.6832 27.7849 30.2123 26.1484 30.2123 24.1764V20.1356C30.2123 18.2606 31.5418 16.6887 33.3076 16.3129V15.8927C33.3076 8.76463 39.1062 2.966 46.2383 2.966C53.3705 2.966 59.165 8.76463 59.165 15.8927V16.321C60.9147 16.7089 62.228 18.2728 62.228 20.1356V24.1764C62.228 26.1363 60.7773 27.7647 58.8903 28.0435C57.6578 33.9755 52.3966 38.3275 46.2383 38.3275ZM35.6594 25.3968L35.817 26.6777C36.4554 31.9349 40.9367 35.903 46.2424 35.903C51.548 35.903 56.0253 31.9389 56.6638 26.6818L56.8173 25.4129L58.078 25.6352C58.1669 25.6514 58.2478 25.6594 58.3245 25.6594C59.1408 25.6594 59.8035 24.9927 59.8035 24.1764V20.1356C59.8035 19.3193 59.1408 18.6526 58.3245 18.6526C58.2518 18.6526 58.1831 18.6607 58.1144 18.6688L56.7405 18.8506V15.8887C56.7405 10.0981 52.0289 5.38647 46.2383 5.38647C40.4478 5.38647 35.7321 10.0981 35.7321 15.8887V18.8708L34.3461 18.6688C34.2532 18.6566 34.1804 18.6486 34.1198 18.6486C33.3036 18.6486 32.6368 19.3153 32.6368 20.1315V24.1724C32.6368 24.9887 33.3036 25.6554 34.1198 25.6554C34.2047 25.6554 34.2936 25.6473 34.3865 25.6311L35.6554 25.3927L35.6594 25.3968Z" fill="#554283"/>
<path id="Vector_2" d="M68.8065 63.4414H23.6418V53.808C23.6418 46.9062 29.2546 41.2935 36.1523 41.2935H39.9184V36.0484C39.9184 35.3777 40.4599 34.8362 41.1307 34.8362C41.8014 34.8362 42.3429 35.3777 42.3429 36.0484V43.718H36.1523C30.5921 43.718 26.0664 48.2437 26.0664 53.808V61.0169H66.3779V53.808C66.3779 48.2437 61.8521 43.718 56.2919 43.718H50.1013V36.0484C50.1013 35.3777 50.6428 34.8362 51.3136 34.8362C51.9844 34.8362 52.5259 35.3777 52.5259 36.0484V41.2935H56.2919C63.1897 41.2935 68.8024 46.9062 68.8024 53.808V63.4414H68.8065Z" fill="#554283"/>
<path id="Vector_3" d="M46.2262 56.8023L37.1141 43.423C36.7383 42.8694 36.8797 42.1138 37.4333 41.738C37.9869 41.3622 38.7425 41.5036 39.1183 42.0572L46.2262 52.4947L53.33 42.0572C53.7058 41.5036 54.4614 41.3622 55.015 41.738C55.5686 42.1138 55.7101 42.8694 55.3343 43.423L46.2262 56.8023Z" fill="#554283"/>
<path id="Vector_4" d="M36.1161 18.7617C35.7403 18.7617 35.3564 18.7536 34.9685 18.7374C34.2977 18.7051 33.7805 18.1394 33.8128 17.4726C33.8451 16.8018 34.4149 16.2887 35.0776 16.3169C45.3333 16.7857 49.7338 10.191 49.9196 9.90815L51.4794 7.50385L52.1219 10.2961C52.134 10.3486 53.4473 15.8159 57.1811 16.325C57.8438 16.4139 58.3085 17.0281 58.2196 17.6908C58.1307 18.3535 57.5165 18.8182 56.8538 18.7293C53.3382 18.2485 51.4228 15.1734 50.4934 13.0034C48.3356 15.238 43.725 18.7657 36.1201 18.7657L36.1161 18.7617Z" fill="#554283"/>
<path id="Vector_5" d="M70.0107 34.4038C65.0404 34.4038 60.5349 31.4621 58.5306 26.908C58.2599 26.2938 58.5387 25.5786 59.1529 25.3119C59.7671 25.0412 60.4823 25.32 60.749 25.9342C62.3654 29.6073 65.9981 31.9793 70.0066 31.9793C75.1102 31.9793 79.4218 28.1647 80.0401 23.1056L80.1936 21.8408L81.4503 22.059C81.5392 22.0752 81.616 22.0833 81.6847 22.0833C82.4525 22.0833 83.0748 21.4569 83.0748 20.6892V16.7817C83.0748 16.0139 82.4525 15.3876 81.6847 15.3876C81.616 15.3876 81.5513 15.3956 81.4867 15.4037L80.1168 15.5856V12.6802C80.1168 7.10382 75.579 2.56594 70.0066 2.56594C64.4343 2.56594 59.8924 7.10382 59.8924 12.6802V15.6058L58.5104 15.4078C58.4215 15.3957 58.3528 15.3876 58.2962 15.3876C57.6255 15.3876 57.084 14.8461 57.084 14.1753C57.084 13.8238 57.2335 13.5086 57.4719 13.2863V12.6762C57.4719 5.76226 63.0968 0.13739 70.0107 0.13739C76.9246 0.13739 82.5454 5.76226 82.5454 12.6762V13.056C84.2385 13.4439 85.5073 14.9673 85.5073 16.7776V20.6851C85.5073 22.5924 84.1052 24.1764 82.2747 24.4593C81.0705 30.1973 75.975 34.4038 70.0107 34.4038Z" fill="#554283"/>
<path id="Vector_6" d="M91.8595 58.6813H67.7235C67.0527 58.6813 66.5113 58.1398 66.5113 57.469C66.5113 56.7982 67.0527 56.2568 67.7235 56.2568H89.435V49.3307C89.435 43.9766 85.079 39.6206 79.7248 39.6206H73.6999V32.1692C73.6999 31.4984 74.2414 30.957 74.9122 30.957C75.583 30.957 76.1244 31.4984 76.1244 32.1692V37.196H79.7248C86.4165 37.196 91.8595 42.6391 91.8595 49.3307V58.6813Z" fill="#554283"/>
<path id="Vector_7" d="M51.8512 43.5725C51.5804 43.5725 51.3056 43.4796 51.0793 43.2937C50.5621 42.8654 50.4934 42.1016 50.9218 41.5885C53.2372 38.7962 56.6396 37.196 60.2642 37.196H63.8646V32.1692C63.8646 31.4984 64.4061 30.957 65.0769 30.957C65.7476 30.957 66.2891 31.4984 66.2891 32.1692V39.6206H60.2642C57.3669 39.6206 54.6434 40.9015 52.7886 43.1361C52.5502 43.427 52.2027 43.5766 51.8552 43.5766L51.8512 43.5725Z" fill="#554283"/>
<path id="Vector_8" d="M60.2359 16.62C59.8642 16.62 59.4803 16.6119 59.0924 16.5917C58.4256 16.5553 57.9084 15.9856 57.9448 15.3188C57.9811 14.6521 58.5509 14.143 59.2176 14.1712C69.2632 14.6925 73.599 7.25331 73.7768 6.93812L75.381 4.10144L76.0195 7.29371C76.3751 9.04744 77.9631 13.7065 81.0019 14.1834C81.6646 14.2884 82.1171 14.9067 82.0121 15.5694C81.907 16.2321 81.2888 16.6847 80.6261 16.5796C77.1671 16.0381 75.284 12.6317 74.3708 10.2153C72.213 12.7367 67.6792 16.624 60.2278 16.624L60.2359 16.62Z" fill="#554283"/>
<path id="Vector_9" d="M22.0217 34.2624C16.0574 34.2624 10.9618 30.0599 9.75767 24.3219C7.91504 24.0512 6.49266 22.4631 6.49266 20.5437V16.6362C6.49266 14.8138 7.77361 13.2863 9.48289 12.9105V12.5388C9.48693 5.62487 15.1118 0 22.0217 0C28.9315 0 34.5564 5.62487 34.5564 12.5388V13.1772C34.7786 13.3954 34.912 13.7025 34.912 14.0379C34.912 14.7087 34.3705 15.2502 33.6997 15.2502C33.6351 15.2502 33.5704 15.2583 33.5058 15.2663L32.1319 15.4522V12.5428C32.1319 6.96643 27.594 2.42855 22.0217 2.42855C16.4493 2.42855 11.9074 6.96643 11.9074 12.5428V15.4684L10.5214 15.2704C10.4325 15.2583 10.3638 15.2502 10.3072 15.2502C9.53946 15.2502 8.91313 15.8765 8.91313 16.6443V20.5518C8.91313 21.3195 9.53946 21.9459 10.3072 21.9459C10.384 21.9459 10.4689 21.9378 10.5618 21.9216L11.8266 21.6913L11.9801 22.9682C12.5943 28.0314 16.91 31.846 22.0176 31.846C26.0989 31.846 29.7599 29.4134 31.3399 25.6473C31.5985 25.029 32.3097 24.7381 32.9279 24.9967C33.5462 25.2553 33.8371 25.9665 33.5785 26.5848C31.6187 31.256 27.0808 34.2705 22.0176 34.2705L22.0217 34.2624Z" fill="#554283"/>
<path id="Vector_10" d="M39.8983 43.1361C39.5629 43.1361 39.2316 42.9987 38.9932 42.7279C37.1505 40.659 34.5078 39.471 31.7398 39.471H25.719V32.0197C25.719 31.3489 26.2604 30.8074 26.9312 30.8074C27.602 30.8074 28.1435 31.3489 28.1435 32.0197V37.0465H31.7398C35.1988 37.0465 38.5042 38.5295 40.8035 41.1156C41.248 41.6167 41.2035 42.3804 40.7024 42.829C40.4721 43.0351 40.1852 43.1361 39.8983 43.1361Z" fill="#554283"/>
<path id="Vector_11" d="M24.8785 58.5399H0.140366V49.1853C0.140366 42.4936 5.58339 37.0506 12.275 37.0506H15.8754V32.0238C15.8754 31.353 16.4169 30.8115 17.0877 30.8115C17.7585 30.8115 18.3 31.353 18.3 32.0238V39.4751H12.275C6.92092 39.4751 2.56488 43.8312 2.56488 49.1853V56.1153H24.8785C25.5492 56.1153 26.0907 56.6568 26.0907 57.3276C26.0907 57.9984 25.5492 58.5399 24.8785 58.5399Z" fill="#554283"/>
<path id="Vector_12" d="M12.271 16.1836C11.8952 16.1836 11.5114 16.1756 11.1234 16.1554C10.4567 16.123 9.93946 15.5533 9.97179 14.8865C10.0041 14.2157 10.5779 13.6945 11.2406 13.7349C21.4801 14.24 25.9372 6.84927 25.9816 6.7725L27.5697 4.06512L28.2122 7.14021C28.2243 7.20083 29.5416 13.1934 33.2552 13.747C33.9179 13.844 34.3745 14.4622 34.2735 15.1249C34.1765 15.7876 33.5582 16.2443 32.8955 16.1432C29.3962 15.622 27.4929 12.3165 26.5716 9.98093C24.4057 12.4054 19.8193 16.1877 12.271 16.1877V16.1836Z" fill="#554283"/>
<path id="Vector_13" d="M71.821 27.7606H68.2448C67.5741 27.7606 67.0326 27.2192 67.0326 26.5484C67.0326 25.8776 67.5741 25.3361 68.2448 25.3361H71.821C72.4918 25.3361 73.0333 25.8776 73.0333 26.5484C73.0333 27.2192 72.4918 27.7606 71.821 27.7606Z" fill="#554283"/>
<path id="Vector_14" d="M23.4641 27.6232H19.888C19.2172 27.6232 18.6757 27.0818 18.6757 26.411C18.6757 25.7402 19.2172 25.1987 19.888 25.1987H23.4641C24.1349 25.1987 24.6764 25.7402 24.6764 26.411C24.6764 27.0818 24.1349 27.6232 23.4641 27.6232Z" fill="#554283"/>
<path id="Vector_15" d="M48.0124 32.8077H44.4363C43.7655 32.8077 43.224 32.2662 43.224 31.5954C43.224 30.9247 43.7655 30.3832 44.4363 30.3832H48.0124C48.6832 30.3832 49.2247 30.9247 49.2247 31.5954C49.2247 32.2662 48.6832 32.8077 48.0124 32.8077Z" fill="#554283"/>
<g id="Group">
<path id="Vector_16" d="M45.9678 81.1282C45.297 81.1282 44.7555 80.5867 44.7555 79.9159V67.3004C44.7555 66.6296 45.297 66.0881 45.9678 66.0881C46.6385 66.0881 47.18 66.6296 47.18 67.3004V79.9159C47.18 80.5867 46.6385 81.1282 45.9678 81.1282Z" fill="#554283"/>
<path id="Vector_17" d="M45.9677 91L34.1199 79.1522H57.8154L45.9677 91ZM39.971 81.5767L45.9677 87.5734L51.9643 81.5767H39.9751H39.971Z" fill="#554283"/>
</g>
<g id="Group_2">
<path id="Vector_18" d="M9.31729 80.0978C9.00615 80.0978 8.695 79.9806 8.46063 79.7422C7.98785 79.2694 7.98785 78.5016 8.46063 78.0289L20.0579 66.4316C20.5307 65.9588 21.2984 65.9588 21.7712 66.4316C22.244 66.9044 22.244 67.6722 21.7712 68.1449L10.174 79.7422C9.93554 79.9806 9.62844 80.0978 9.31729 80.0978Z" fill="#554283"/>
<path id="Vector_19" d="M18.2394 86.7248H1.48201V69.9673L18.2394 86.7248ZM3.90652 84.3003H12.3842L3.90652 75.8225V84.3003Z" fill="#554283"/>
</g>
<g id="Group_3">
<path id="Vector_20" d="M83.0184 80.0978C82.7073 80.0978 82.3961 79.9806 82.1617 79.7422L70.5645 68.1449C70.0917 67.6722 70.0917 66.9044 70.5645 66.4316C71.0373 65.9588 71.805 65.9588 72.2778 66.4316L83.8751 78.0289C84.3478 78.5016 84.3478 79.2694 83.8751 79.7422C83.6366 79.9806 83.3295 80.0978 83.0184 80.0978Z" fill="#554283"/>
<path id="Vector_21" d="M90.8575 86.7248H74.1001L90.8575 69.9673V86.7248ZM79.9553 84.3003H88.433V75.8225L79.9553 84.3003Z" fill="#554283"/>
</g>
</g>
<defs>
<clipPath id="clip0_384_3622">
<rect width="91.7193" height="91" fill="white" transform="translate(0.140366)"/>
</clipPath>
</defs>
</svg>
