<?xml version="1.0" encoding="utf-8"?>
<!-- Generator: Adobe Illustrator 16.0.0, SVG Export Plug-In . SVG Version: 6.00 Build 0)  -->
<!DOCTYPE svg PUBLIC "-//W3C//DTD SVG 1.1//EN" "http://www.w3.org/Graphics/SVG/1.1/DTD/svg11.dtd">
<svg version="1.1" id="Layer_1" xmlns="http://www.w3.org/2000/svg" xmlns:xlink="http://www.w3.org/1999/xlink" x="0px" y="0px"
	 width="141.732px" height="141.732px" viewBox="0 0 141.732 141.732" enable-background="new 0 0 141.732 141.732"
	 xml:space="preserve">
<path fill="#1D1D1B" d="M109.765,68.953c-0.389-3.766-1.515-6.176-2.854-7.717c-0.078-1.271-0.14-2.461-0.098-2.377
	c0.088,0.177,0.69,0.021,0.69,0.021l-1.059-3.686l0.811-0.518l-1.522-2.641l0.688-0.21l-1.595-2.169l0.754-0.624l-2.419-1.58
	l0.714-0.613l-0.566-0.205c2.113-0.626,3.771-1.139,5.795-1.238c3.149-0.153,5.18,0.082,6.063,0.224
	c-0.001,0-0.004-0.003-0.004-0.003l-1.69-1.599l0.595,0.137l-2.192-2.101l0.685,0.137c0,0-2.877-2.192-2.694-2.146
	c0.183,0.045,0.686,0,0.686,0s-3.289-1.873-3.106-1.827c0.183,0.045,0.685-0.137,0.685-0.137l-3.06-1.142l0.502-0.365l-2.969-0.685
	l0.549-0.229l-2.787-0.502l0.366-0.411l-3.243-0.091l0.319-0.411l-3.015,0.228l0.184-0.411l-2.672,0.604l0.13-0.233l-0.469,0.001
	l0.087-0.052l-0.187,0.052h-0.072l0.407-1.656l-0.665,0.012l-0.274-1.6l-0.435,0.173l-0.537-1.786l-0.641,0.083l-0.448-0.735
	c1.817-3.693,3.553-7.204,4.875-9.844c0.496-0.813,2.761-4.53,3.365-5.538c0.028-0.042,0.054-0.088,0.08-0.132
	c0.043-0.073,0.069-0.118,0.069-0.122c0.674-1.335-0.035-3.051-1.584-3.833c-1.14-0.575-2.414-0.481-3.278,0.138
	c-0.255,0.152-0.503,0.389-0.733,0.742c-0.032,0.048-1.248,4.088-1.905,5.551c-1.331,2.802-3.341,6.499-5.051,9.446
	c-0.876-0.71-2.565-2.138-2.565-2.138l0.132,0.433l-3.17-2.312l0.157,0.396l-2.398-1.766c0.046,0.062,0.103,0.143,0.15,0.209
	c0.157,0.669,0.472,2.115,0.373,2.532c-0.062-0.068-0.451-0.431-0.451-0.431s0.06,2.011-0.268,2.204l-0.181-0.394L76.065,26.2
	l-0.233-0.856l-1.418,2.118l-0.158-0.713l-0.905,2.296l-0.514-0.626l-0.43,2.328l-2.311-2.436l0.936,1.778l-3.742-3.463
	c0,0,0.186,0.749-0.562,0.094s-5.147-1.778-5.147-1.778l0.843,0.842l-5.521-0.936c0,0,1.217,0.504,1.227,0.732
	c-0.02,0.08-0.983,0.088-2.177,0.12c-2.71,0.071-4.761,1.114-4.761,1.114s1.254,0,1.686,0c-0.605,0-2.752,1.114-3.393,1.53
	c-0.151,0.098-0.221,0.158-0.164,0.154c1.497-0.093,2.808,3.089,2.808,3.089l-0.843-0.187l1.966,3.182l-0.714-0.158l1.688,1.759
	l-1.464,0.002l0.274,0.642l-2.369,0.653l0.434,0.379l-2.554,0.952l0.374,0.603l-2.725,1.729c0,0,0.395,0.315,0.555,0.246
	c0.069-0.029-0.46,0.507-1.086,1.127c-1.805,0.326-3.673,1.112-5.133,2.823c-1.177,1.378-2.077,2.697-2.765,3.874
	c0.029,0.09,0.059,0.181,0.095,0.276c0.085,0.271,0.224,0.546,0.347,0.849c0.076,0.145,0.153,0.293,0.232,0.446
	c0.074,0.155,0.162,0.307,0.262,0.457c0.095,0.152,0.191,0.307,0.288,0.463c0.111,0.148,0.225,0.297,0.338,0.448
	c0.077,0.113,0.164,0.219,0.255,0.324l-0.562,0.854c-0.174-0.158-0.344-0.32-0.493-0.499c-0.141-0.155-0.279-0.309-0.417-0.461
	c-0.124-0.164-0.247-0.325-0.368-0.483c-0.125-0.157-0.238-0.316-0.338-0.481c-0.105-0.163-0.207-0.322-0.306-0.477
	c-0.172-0.325-0.354-0.624-0.481-0.92c-0.006-0.012-0.01-0.023-0.016-0.035c-1.838,1.328-3.409,3.191-4.597,5.619
	c-0.623,1.276-0.849,2.565-0.835,3.789c-0.029,0.042-0.061,0.084-0.091,0.125c0.206,0.123,0.407,0.243,0.601,0.358
	c0.292,0.173,0.594,0.286,0.86,0.418c0.27,0.125,0.515,0.248,0.747,0.318c0.229,0.08,0.428,0.15,0.593,0.207
	c0.33,0.116,0.519,0.182,0.519,0.182l0.016,0.005c0.09,0.032,0.137,0.13,0.105,0.22c-0.029,0.085-0.119,0.131-0.204,0.11
	c0,0-0.198-0.05-0.545-0.136c-0.175-0.043-0.386-0.097-0.627-0.157c-0.247-0.05-0.509-0.152-0.8-0.256
	c-0.289-0.111-0.613-0.201-0.936-0.354c-0.237-0.114-0.487-0.233-0.742-0.354c-0.879,1.188-1.822,2.542-2.381,5.333
	c-0.584,2.92,0.195,4.947,0.473,6.801c0.001,0.003,0.003,0.006,0.004,0.009c0.076,0.155,0.164,0.308,0.262,0.457
	c0.096,0.151,0.192,0.307,0.289,0.463c0.111,0.147,0.225,0.298,0.338,0.448c0.214,0.313,0.494,0.578,0.748,0.871
	c0.266,0.279,0.567,0.524,0.846,0.787c0.309,0.229,0.613,0.455,0.906,0.673c0.316,0.188,0.622,0.371,0.912,0.544
	c0.291,0.173,0.594,0.286,0.859,0.418c0.27,0.125,0.515,0.248,0.748,0.317c0.229,0.08,0.428,0.15,0.592,0.208
	c0.33,0.115,0.52,0.182,0.52,0.182l0.016,0.005c0.09,0.032,0.137,0.131,0.105,0.221c-0.029,0.084-0.119,0.131-0.205,0.109
	c0,0-0.198-0.049-0.545-0.136c-0.174-0.043-0.385-0.096-0.627-0.157c-0.246-0.05-0.509-0.152-0.8-0.256
	c-0.288-0.111-0.613-0.201-0.935-0.354c-0.322-0.153-0.661-0.315-1.012-0.483c-0.334-0.203-0.68-0.414-1.031-0.628
	c-0.324-0.252-0.674-0.489-0.992-0.767c-0.305-0.289-0.637-0.555-0.905-0.876c-0.122-0.135-0.243-0.269-0.363-0.401
	c-2.407,6.256-1.188,10.558,0.192,13.012c0.239,0.143,0.474,0.282,0.697,0.415c0.291,0.173,0.593,0.286,0.859,0.418
	c0.27,0.125,0.514,0.248,0.746,0.317c0.229,0.08,0.43,0.15,0.594,0.208c0.33,0.115,0.519,0.182,0.519,0.182l0.015,0.005
	c0.09,0.032,0.138,0.131,0.105,0.221c-0.029,0.084-0.119,0.131-0.204,0.109c0,0-0.198-0.049-0.544-0.136
	c-0.174-0.043-0.385-0.096-0.628-0.157c-0.246-0.05-0.509-0.153-0.8-0.256c-0.287-0.111-0.613-0.201-0.935-0.354
	c-0.15-0.072-0.306-0.146-0.464-0.221c-2.515,6.043-0.69,9.716,1.078,11.642c0.525-0.053,1.031-0.166,1.49-0.352
	c0.397-0.148,0.754-0.359,1.084-0.571c0.326-0.222,0.619-0.462,0.877-0.701c0.26-0.238,0.476-0.485,0.674-0.699
	c0.189-0.224,0.348-0.427,0.479-0.595c0.033-0.048,0.061-0.088,0.092-0.13c-0.07-0.096-0.144-0.189-0.209-0.286
	c-0.218-0.345-0.406-0.696-0.551-1.051s-0.26-0.705-0.334-1.043c-0.081-0.337-0.127-0.66-0.151-0.957
	c-0.03-0.297-0.022-0.57-0.019-0.811c0.007-0.24,0.033-0.449,0.057-0.619c0.051-0.339,0.113-0.529,0.113-0.529
	c0.014-0.041,0.059-0.064,0.1-0.051c0.027,0.009,0.047,0.032,0.053,0.059c0,0,0.038,0.186,0.12,0.504
	c0.083,0.317,0.206,0.764,0.396,1.272c0.184,0.509,0.434,1.079,0.759,1.64c0.328,0.559,0.731,1.107,1.213,1.58
	c0.236,0.239,0.496,0.454,0.759,0.66c0.131,0.103,0.273,0.189,0.405,0.288c0.14,0.089,0.278,0.176,0.415,0.262
	c0.281,0.161,0.559,0.312,0.834,0.442c0.135,0.073,0.275,0.123,0.406,0.184c0.132,0.06,0.261,0.12,0.389,0.165
	c0.253,0.101,0.486,0.199,0.7,0.272c0.213,0.074,0.4,0.15,0.557,0.198c0.314,0.105,0.496,0.182,0.496,0.182l0.004,0.002
	c0.043,0.018,0.063,0.066,0.045,0.109c-0.011,0.027-0.035,0.045-0.062,0.051c0,0-0.192,0.035-0.532,0.069
	c-0.172,0.022-0.379,0.028-0.618,0.025c-0.12-0.001-0.248,0.005-0.383-0.004c-0.134-0.012-0.276-0.024-0.424-0.038
	c-0.296-0.029-0.615-0.092-0.95-0.173c-0.165-0.049-0.339-0.093-0.512-0.151c-0.171-0.065-0.347-0.133-0.524-0.202
	c-0.172-0.085-0.348-0.172-0.524-0.259c-0.171-0.103-0.345-0.203-0.513-0.318c-0.244-0.173-0.48-0.364-0.705-0.571
	c-0.111,0.177-0.238,0.374-0.394,0.597c-0.102,0.133-0.21,0.275-0.324,0.425c-0.116,0.147-0.259,0.29-0.397,0.445
	c-0.284,0.306-0.631,0.606-1.023,0.895c-0.397,0.283-0.85,0.546-1.353,0.741c-0.496,0.212-1.046,0.343-1.603,0.41
	c-0.057,0.007-0.111,0.011-0.167,0.016c-0.288,1.688-0.343,4.037,0.778,6.673c0.232,0.291,0.484,0.577,0.742,0.863
	c0.215,0.213,0.43,0.428,0.646,0.644l0.082,0.081v0.001l0.012,0.01l0.047,0.039l0.186,0.156l0.373,0.312
	c0.123,0.097,0.25,0.226,0.369,0.296l0.361,0.231l0.355,0.234c0.123,0.074,0.262,0.13,0.389,0.2c0.26,0.131,0.512,0.28,0.786,0.361
	c0.269,0.093,0.529,0.213,0.804,0.259c0.271,0.057,0.533,0.15,0.803,0.17c0.268,0.032,0.528,0.083,0.787,0.076
	c0.26,0.005,0.513,0.026,0.758,0.003c0.246-0.012,0.485-0.018,0.712-0.059c0.457-0.058,0.879-0.137,1.246-0.236
	c0.367-0.096,0.689-0.193,0.948-0.289c0.26-0.094,0.462-0.175,0.598-0.234c0.134-0.061,0.204-0.092,0.204-0.092l0.01-0.005
	c0.088-0.039,0.191,0,0.23,0.088c0.031,0.07,0.012,0.152-0.044,0.201c0.001,0-0.067,0.06-0.19,0.155
	c-0.127,0.094-0.312,0.234-0.562,0.387c-0.252,0.151-0.561,0.337-0.939,0.501c-0.186,0.092-0.392,0.166-0.609,0.249
	c-0.215,0.091-0.452,0.155-0.701,0.222c-0.246,0.077-0.511,0.121-0.786,0.172c-0.273,0.062-0.562,0.078-0.861,0.097
	c-0.299,0.034-0.607,0.008-0.924-0.002c-0.317,0.002-0.637-0.062-0.963-0.115c-0.33-0.041-0.645-0.158-0.973-0.252
	c-0.333-0.083-0.641-0.235-0.959-0.375c-0.158-0.072-0.318-0.136-0.473-0.225l-0.458-0.286l-0.366-0.234
	c0.307,3.413,2.249,5.926,3.859,7.452h0.107l0.427,0.009c0.144-0.003,0.29-0.03,0.435-0.039c0.29-0.027,0.583-0.035,0.858-0.113
	c0.276-0.065,0.562-0.103,0.817-0.21c0.261-0.097,0.532-0.157,0.77-0.285c0.243-0.115,0.492-0.211,0.708-0.355
	c0.22-0.135,0.446-0.251,0.642-0.401c0.2-0.142,0.4-0.274,0.571-0.43c0.354-0.293,0.67-0.585,0.926-0.864
	c0.261-0.278,0.48-0.532,0.648-0.751c0.17-0.219,0.298-0.396,0.381-0.519c0.08-0.121,0.123-0.186,0.123-0.186l0.006-0.009
	c0.053-0.081,0.161-0.103,0.242-0.05c0.064,0.043,0.091,0.123,0.07,0.194c0,0-0.025,0.086-0.079,0.233
	c-0.057,0.146-0.138,0.364-0.269,0.628c-0.133,0.262-0.295,0.583-0.527,0.923c-0.108,0.177-0.242,0.351-0.383,0.537
	c-0.133,0.191-0.3,0.372-0.475,0.561c-0.166,0.197-0.367,0.375-0.572,0.564c-0.199,0.199-0.436,0.367-0.678,0.543
	c-0.234,0.188-0.509,0.33-0.781,0.491c-0.269,0.171-0.572,0.286-0.877,0.416c-0.3,0.142-0.63,0.211-0.956,0.306
	c-0.326,0.107-0.668,0.143-1.012,0.194c-0.057,0.008-0.112,0.017-0.169,0.024c1.463,3.481,4.063,5.357,5.782,6.267
	c0.147-0.162,0.282-0.326,0.419-0.472c0.197-0.224,0.385-0.423,0.518-0.626c0.143-0.196,0.268-0.367,0.369-0.509
	c0.205-0.282,0.322-0.444,0.322-0.444l0.01-0.014c0.057-0.077,0.164-0.094,0.241-0.038c0.072,0.052,0.091,0.151,0.047,0.228
	c0,0-0.104,0.176-0.286,0.482c-0.092,0.154-0.202,0.342-0.33,0.557c-0.118,0.222-0.292,0.444-0.475,0.693
	c-0.1,0.128-0.196,0.269-0.301,0.411c0.031,0.014,0.064,0.031,0.095,0.044c2.272,3.435,5.008,4.108,7.284,3.852
	c-0.386-0.521-0.747-1.064-1.074-1.635c-0.329-0.573-0.617-1.178-0.846-1.816c-0.222-0.641-0.379-1.323-0.403-2.038
	c-0.024-0.712,0.105-1.46,0.415-2.136c0.165-0.369,0.384-0.707,0.632-1.017c-0.038-0.023-0.078-0.045-0.116-0.069
	c-0.305-0.201-0.596-0.42-0.867-0.659c-0.545-0.479-1.018-1.026-1.42-1.618c-0.401-0.591-0.732-1.226-0.994-1.887
	c-0.26-0.66-0.451-1.349-0.567-2.051s-0.157-1.42-0.113-2.137c0.044-0.718,0.174-1.436,0.401-2.128
	c0.227-0.692,0.551-1.359,0.969-1.965c0.202-0.292,0.428-0.566,0.666-0.828c-0.385-0.286-0.725-0.621-1.011-0.981
	c-0.491-0.612-0.846-1.292-1.118-1.988c-0.047-0.088-0.096-0.178-0.137-0.259c-0.057-0.12-0.107-0.229-0.15-0.323
	c-0.034-0.083-0.062-0.153-0.086-0.211c-0.045-0.113-0.068-0.173-0.068-0.173c-0.017-0.041-0.026-0.083-0.036-0.124
	c-0.026,0.026-0.052,0.054-0.079,0.08c-0.205,0.222-0.457,0.419-0.713,0.628c-0.279,0.18-0.561,0.377-0.883,0.521
	c-0.309,0.166-0.661,0.261-1.001,0.366l-0.528,0.103c-0.174,0.036-0.355,0.023-0.531,0.036c-0.352,0.031-0.695-0.034-1.021-0.074
	c-0.318-0.084-0.632-0.148-0.902-0.269c-0.267-0.13-0.53-0.223-0.739-0.368c-0.212-0.14-0.402-0.268-0.566-0.386
	c-0.156-0.127-0.281-0.253-0.385-0.352c-0.209-0.198-0.318-0.317-0.318-0.317c-0.061-0.065-0.057-0.17,0.01-0.231
	c0.046-0.042,0.109-0.053,0.164-0.034l0.018,0.006c0,0,0.152,0.053,0.402,0.154c0.124,0.05,0.273,0.111,0.445,0.181
	c0.178,0.051,0.373,0.113,0.582,0.182c0.21,0.068,0.445,0.096,0.682,0.154c0.24,0.041,0.494,0.052,0.749,0.078
	c0.259-0.024,0.521,0.009,0.783-0.05c0.264-0.024,0.52-0.106,0.777-0.169c0.25-0.096,0.504-0.181,0.734-0.314
	c0.242-0.107,0.455-0.267,0.669-0.402c0.198-0.161,0.405-0.3,0.57-0.471c0.179-0.154,0.327-0.322,0.47-0.474
	c0.131-0.157,0.256-0.307,0.354-0.436c0.02-0.03,0.037-0.054,0.057-0.081c-0.047-0.586-0.052-1.174-0.019-1.759
	c0.094-1.558,0.47-3.11,1.19-4.533c0.36-0.71,0.812-1.383,1.357-1.983c0.32-0.354,0.678-0.679,1.058-0.973l-0.087-0.107
	l-0.326-0.473c-0.096-0.165-0.194-0.329-0.286-0.496c-0.082-0.171-0.17-0.342-0.246-0.516c-0.068-0.178-0.146-0.353-0.206-0.532
	c-0.12-0.359-0.219-0.726-0.288-1.096c-0.034-0.181-0.062-0.361-0.083-0.543c-0.036-0.111-0.045-0.225-0.03-0.334
	c-0.011-0.133-0.019-0.264-0.024-0.396c-0.229,0.208-0.469,0.414-0.733,0.609c-0.406,0.288-0.849,0.558-1.319,0.794
	c-0.474,0.229-0.981,0.41-1.499,0.551c-0.519,0.142-1.056,0.212-1.581,0.238c-0.527,0.023-1.047-0.013-1.537-0.093
	c-0.49-0.09-0.955-0.202-1.375-0.364c-0.423-0.153-0.808-0.327-1.144-0.517c-0.342-0.181-0.635-0.376-0.891-0.552
	c-0.252-0.182-0.463-0.349-0.633-0.488c-0.331-0.295-0.512-0.468-0.512-0.468c-0.064-0.062-0.066-0.164-0.004-0.229
	c0.051-0.053,0.129-0.063,0.19-0.032l0.005,0.002c0,0,0.218,0.111,0.598,0.304c0.191,0.089,0.424,0.196,0.691,0.319
	c0.271,0.106,0.57,0.238,0.906,0.347c0.335,0.111,0.698,0.222,1.087,0.302c0.388,0.084,0.798,0.144,1.221,0.175
	c0.425,0.016,0.859,0.02,1.297-0.031c0.437-0.058,0.875-0.139,1.301-0.268c0.852-0.263,1.654-0.681,2.338-1.176
	c0.343-0.248,0.658-0.511,0.943-0.776c0.277-0.273,0.539-0.534,0.755-0.798c0.034-0.041,0.062-0.078,0.095-0.118
	c0.061-0.291,0.13-0.58,0.217-0.863c0.104-0.352,0.229-0.698,0.371-1.036c0.14-0.339,0.299-0.669,0.475-0.99
	c0.349-0.645,0.764-1.254,1.238-1.815c0.474-0.561,1.008-1.074,1.598-1.522c0.295-0.225,0.604-0.431,0.922-0.622l0.082-0.046
	c-0.006-0.01-0.012-0.019-0.018-0.027c-0.186-0.297-0.328-0.559-0.445-0.792c-0.057-0.121-0.106-0.229-0.15-0.322
	c-0.033-0.084-0.062-0.154-0.086-0.212c-0.045-0.112-0.068-0.173-0.068-0.173c-0.042-0.104-0.061-0.211-0.062-0.316
	c-0.045-0.132-0.087-0.266-0.119-0.402c-0.04-0.163-0.085-0.325-0.109-0.493c-0.064-0.332-0.099-0.672-0.111-1.013
	c-0.011-0.342,0.005-0.685,0.046-1.026c0.044-0.341,0.112-0.678,0.207-1.008c0.096-0.329,0.214-0.651,0.355-0.962
	c0.284-0.62,0.656-1.194,1.088-1.708c0.216-0.258,0.447-0.503,0.693-0.729c0.244-0.231,0.505-0.442,0.775-0.639
	c0.27-0.199,0.555-0.378,0.848-0.544c0.295-0.164,0.602-0.311,0.92-0.438c0.159-0.062,0.32-0.121,0.485-0.174
	c-0.046-0.125-0.095-0.248-0.14-0.372c-0.065-0.208-0.119-0.419-0.178-0.629L55.681,66.7c-0.022-0.217-0.05-0.434-0.063-0.651
	c-0.018-0.436-0.008-0.872,0.043-1.301c0.053-0.429,0.134-0.853,0.254-1.262c0.059-0.206,0.117-0.41,0.195-0.607
	c0.071-0.2,0.148-0.397,0.238-0.587c0.083-0.194,0.176-0.383,0.275-0.566c0.095-0.188,0.201-0.367,0.311-0.544
	c0.216-0.356,0.455-0.696,0.712-1.019c0.254-0.325,0.527-0.633,0.816-0.924c0.286-0.293,0.588-0.57,0.904-0.828
	c0.155-0.133,0.317-0.257,0.481-0.377c0.161-0.125,0.328-0.241,0.498-0.353c0.168-0.116,0.34-0.225,0.516-0.327
	c0.174-0.106,0.35-0.208,0.531-0.301c0.357-0.194,0.727-0.367,1.102-0.522c0.376-0.158,0.762-0.292,1.152-0.41
	c0.34-0.103,0.687-0.185,1.035-0.257c-0.043-0.143-0.081-0.29-0.114-0.439l0.996-0.262l-0.811,0.812l2.084-1.096
	c0.013,0.095,0.025,0.191,0.042,0.293c0.038,0.248,0.092,0.515,0.168,0.79c0.071,0.279,0.178,0.561,0.289,0.852
	c0.237,0.575,0.565,1.161,1.002,1.674c0.213,0.261,0.455,0.5,0.709,0.724c0.127,0.112,0.264,0.209,0.394,0.316
	c0.139,0.096,0.275,0.191,0.41,0.285c0.282,0.171,0.562,0.332,0.841,0.468c0.277,0.133,0.549,0.255,0.809,0.346
	c0.515,0.188,0.963,0.327,1.28,0.403c0.32,0.082,0.502,0.128,0.502,0.128l0.005,0.001c0.044,0.011,0.07,0.055,0.059,0.099
	c-0.009,0.036-0.041,0.06-0.076,0.061c0,0-0.19,0.006-0.526,0.017c-0.169,0.008-0.372-0.001-0.608-0.012
	c-0.236-0.002-0.502-0.032-0.791-0.071c-0.291-0.036-0.605-0.1-0.937-0.177c-0.165-0.045-0.336-0.085-0.509-0.139
	c-0.17-0.062-0.346-0.125-0.522-0.188c-0.174-0.078-0.351-0.156-0.529-0.236c-0.173-0.094-0.352-0.185-0.524-0.291
	c-0.342-0.215-0.688-0.449-0.996-0.732c-0.316-0.273-0.601-0.585-0.863-0.906c-0.217-0.277-0.408-0.566-0.58-0.857l-0.166,0.019
	l-0.496,0.085c-0.33,0.068-0.657,0.148-0.979,0.249c-0.322,0.101-0.642,0.215-0.952,0.35c-0.311,0.131-0.618,0.278-0.914,0.443
	c-0.15,0.078-0.295,0.165-0.439,0.254c-0.146,0.086-0.287,0.178-0.426,0.276c-0.142,0.094-0.279,0.191-0.412,0.296
	c-0.135,0.102-0.27,0.205-0.396,0.316c-0.26,0.215-0.506,0.446-0.738,0.688c-0.234,0.24-0.455,0.493-0.656,0.757
	c-0.205,0.262-0.395,0.536-0.562,0.819c-0.086,0.14-0.169,0.283-0.239,0.429c-0.078,0.145-0.148,0.291-0.21,0.441
	c-0.069,0.147-0.126,0.298-0.177,0.451c-0.061,0.15-0.102,0.304-0.145,0.458c-0.087,0.307-0.143,0.618-0.178,0.93
	s-0.037,0.623-0.023,0.933c0.009,0.109,0.023,0.217,0.035,0.326c0.016,0.081,0.033,0.163,0.053,0.25
	c0.062,0.276,0.156,0.584,0.268,0.918c0.072,0.218,0.166,0.447,0.266,0.68l0.023,0.048l0.24,0.411c0.06,0.102,0.096,0.21,0.121,0.32
	c0.128,0.233,0.266,0.466,0.422,0.698c0.246,0.367,0.525,0.729,0.838,1.072c0.318,0.338,0.67,0.652,1.047,0.936
	c0.378,0.28,0.787,0.518,1.203,0.728c0.42,0.204,0.857,0.356,1.291,0.483c0.436,0.113,0.869,0.194,1.288,0.241
	c0.419,0.05,0.822,0.063,1.195,0.055c0.374-0.003,0.718-0.04,1.025-0.062c0.306-0.035,0.573-0.074,0.794-0.107
	c0.44-0.082,0.692-0.129,0.692-0.129l0.009-0.002c0.088-0.017,0.173,0.041,0.189,0.129c0.014,0.077-0.029,0.151-0.098,0.18
	c0,0-0.245,0.099-0.672,0.273c-0.219,0.074-0.486,0.164-0.797,0.259c-0.312,0.087-0.67,0.179-1.069,0.239
	c-0.397,0.068-0.837,0.117-1.306,0.13c-0.471,0.022-0.97-0.016-1.484-0.086c-1.027-0.157-2.113-0.533-3.068-1.14
	c-0.476-0.303-0.924-0.648-1.334-1.023c-0.404-0.381-0.771-0.787-1.097-1.203c-0.075-0.1-0.139-0.201-0.208-0.301
	c-0.855,0.053-1.791,0.405-2.582,0.947c-0.209,0.142-0.413,0.294-0.603,0.462c-0.194,0.163-0.374,0.342-0.542,0.529
	c-0.338,0.374-0.626,0.788-0.848,1.229c-0.111,0.222-0.203,0.45-0.281,0.683c-0.076,0.233-0.133,0.472-0.174,0.714
	c-0.037,0.242-0.059,0.487-0.059,0.733c0.002,0.247,0.016,0.495,0.055,0.742c0.012,0.125,0.043,0.248,0.069,0.371
	c0.022,0.124,0.055,0.247,0.095,0.369c0.064,0.244,0.164,0.481,0.258,0.722c0.084,0.169,0.196,0.381,0.338,0.611
	c0.146,0.243,0.333,0.506,0.545,0.788c0.424,0.563,0.999,1.17,1.702,1.71c0.351,0.271,0.73,0.526,1.137,0.752
	c0.408,0.221,0.843,0.407,1.29,0.556c0.448,0.146,0.912,0.24,1.374,0.308c0.464,0.061,0.927,0.064,1.378,0.049
	c0.451-0.03,0.889-0.091,1.301-0.18c0.413-0.085,0.801-0.199,1.152-0.326c0.355-0.121,0.669-0.266,0.955-0.383
	c0.279-0.13,0.521-0.252,0.721-0.353c0.049-0.027,0.096-0.053,0.141-0.077c-0.006-0.003-0.011-0.005-0.016-0.008
	c-0.299-0.129-0.569-0.314-0.839-0.481c-0.277-0.152-0.509-0.373-0.745-0.563c-0.465-0.393-0.842-0.84-1.139-1.281
	c-0.137-0.229-0.266-0.449-0.372-0.664c-0.091-0.226-0.192-0.429-0.247-0.638c-0.133-0.406-0.199-0.771-0.221-1.074
	c-0.031-0.301-0.016-0.539-0.006-0.701c0.006-0.081,0.017-0.147,0.021-0.189c0.008-0.039,0.012-0.06,0.012-0.06
	c0.017-0.095,0.107-0.157,0.203-0.141c0.076,0.014,0.131,0.075,0.141,0.148l0.001,0.005c0,0,0.003,0.021,0.008,0.06
	c0.007,0.035,0.017,0.088,0.03,0.157c0.031,0.142,0.08,0.35,0.168,0.604c0.041,0.128,0.094,0.267,0.164,0.412
	c0.057,0.149,0.141,0.302,0.227,0.463c0.076,0.166,0.205,0.318,0.309,0.491c0.117,0.166,0.254,0.331,0.393,0.5
	c0.311,0.318,0.652,0.652,1.075,0.934c0.215,0.138,0.423,0.289,0.667,0.406c0.238,0.125,0.471,0.267,0.74,0.36
	c0.514,0.225,1.08,0.392,1.656,0.553c0.295,0.066,0.592,0.132,0.891,0.199l0.111,0.024l0.001,0.001l0.015,0.002l0.061,0.008
	l0.24,0.033l0.482,0.065c0.156,0.017,0.332,0.058,0.471,0.054l0.428,0.003l0.427,0.008c0.144-0.003,0.29-0.029,0.435-0.038
	c0.291-0.027,0.584-0.036,0.858-0.113c0.276-0.066,0.562-0.103,0.817-0.21c0.26-0.097,0.532-0.157,0.77-0.285
	c0.243-0.115,0.492-0.212,0.707-0.355c0.221-0.135,0.447-0.252,0.643-0.402c0.201-0.141,0.4-0.273,0.57-0.43
	c0.355-0.292,0.671-0.584,0.928-0.864c0.237-0.254,0.437-0.484,0.598-0.69c-0.122-0.053-0.242-0.109-0.358-0.173
	c-0.208-0.091-0.396-0.228-0.581-0.348c-0.19-0.111-0.353-0.268-0.516-0.404c-0.321-0.281-0.577-0.607-0.776-0.923
	c-0.092-0.164-0.177-0.321-0.248-0.475c-0.06-0.16-0.123-0.306-0.156-0.453c-0.082-0.288-0.116-0.546-0.12-0.758
	c-0.014-0.21,0.009-0.376,0.021-0.487c0.007-0.057,0.018-0.104,0.023-0.133c0.007-0.027,0.01-0.041,0.01-0.041
	c0.024-0.095,0.121-0.151,0.216-0.127c0.066,0.017,0.115,0.071,0.129,0.135l0.001,0.005c0,0,0.003,0.015,0.008,0.04
	c0.007,0.022,0.017,0.057,0.029,0.101c0.027,0.093,0.071,0.228,0.14,0.392c0.032,0.082,0.073,0.171,0.126,0.263
	c0.042,0.097,0.103,0.192,0.165,0.295c0.128,0.201,0.293,0.41,0.487,0.617c0.209,0.196,0.438,0.397,0.716,0.57
	c0.141,0.085,0.274,0.179,0.436,0.25c0.156,0.076,0.309,0.16,0.483,0.22c0.333,0.143,0.704,0.247,1.081,0.349
	c0.193,0.043,0.389,0.086,0.585,0.129l0.069,0.016l0.041,0.005l0.162,0.022l0.324,0.044c0.104,0.011,0.228,0.038,0.314,0.034
	l0.269,0.005l0.27,0.009c0.091,0,0.187-0.016,0.279-0.021c0.187-0.017,0.376-0.019,0.553-0.067c0.178-0.039,0.362-0.057,0.529-0.122
	c0.345-0.096,0.672-0.226,0.966-0.388c0.296-0.159,0.575-0.328,0.812-0.516c0.239-0.186,0.459-0.366,0.637-0.545
	c0.18-0.177,0.337-0.338,0.456-0.478c0.12-0.14,0.215-0.253,0.275-0.332c0.059-0.076,0.09-0.117,0.09-0.117l0.013-0.017
	c0.059-0.076,0.168-0.09,0.244-0.032c0.058,0.045,0.079,0.118,0.062,0.185c0,0-0.017,0.058-0.046,0.165
	c-0.034,0.103-0.081,0.256-0.163,0.441c-0.083,0.184-0.184,0.411-0.336,0.65c-0.07,0.124-0.158,0.248-0.25,0.379
	c-0.088,0.137-0.199,0.265-0.316,0.399c-0.112,0.139-0.247,0.267-0.387,0.402c-0.134,0.142-0.295,0.263-0.462,0.389
	c-0.334,0.248-0.719,0.479-1.146,0.655c-0.21,0.103-0.438,0.156-0.668,0.227c-0.229,0.076-0.467,0.103-0.707,0.14
	c-0.121,0.018-0.239,0.04-0.364,0.046l-0.383,0.007h-0.386c-0.132,0-0.224-0.021-0.337-0.032l-0.326-0.039l-0.162-0.019
	l-0.041-0.006l-0.02-0.002l-0.011-0.001l-0.053-0.009l-0.087-0.021c-0.228-0.055-0.456-0.108-0.682-0.163
	c-0.134-0.041-0.266-0.085-0.396-0.131c-0.005,0.009-0.008,0.017-0.013,0.026c-0.132,0.262-0.294,0.583-0.526,0.923
	c-0.108,0.177-0.242,0.351-0.383,0.536c-0.134,0.192-0.3,0.373-0.474,0.562c-0.168,0.196-0.368,0.375-0.574,0.564
	c-0.197,0.199-0.435,0.367-0.677,0.543c-0.234,0.188-0.509,0.33-0.781,0.491c-0.269,0.171-0.572,0.286-0.876,0.416
	c-0.301,0.142-0.631,0.21-0.957,0.306c-0.326,0.107-0.668,0.143-1.012,0.194c-0.172,0.023-0.342,0.056-0.52,0.062l-0.54,0.003
	l-0.543-0.003c-0.186,0.002-0.329-0.031-0.495-0.046l-0.482-0.057l-0.242-0.028l-0.061-0.007l-0.029-0.004l-0.016-0.002
	l-0.051-0.007l-0.008-0.002l-0.123-0.029c-0.332-0.078-0.662-0.156-0.989-0.233c-0.487-0.149-0.968-0.309-1.423-0.51
	c-0.085,0.072-0.183,0.155-0.308,0.263c-0.184,0.14-0.409,0.311-0.674,0.498c-0.271,0.181-0.581,0.381-0.94,0.564
	c-0.356,0.191-0.758,0.377-1.199,0.538c-0.439,0.17-0.926,0.291-1.438,0.388c-1.025,0.176-2.176,0.163-3.273-0.112
	c-0.548-0.139-1.084-0.324-1.591-0.553c-0.505-0.233-0.979-0.505-1.421-0.798c-0.675-0.47-1.25-0.994-1.727-1.512L52.65,80.83
	c-0.261,0.157-0.515,0.326-0.759,0.51c-0.487,0.37-0.934,0.798-1.333,1.268c-0.399,0.471-0.75,0.984-1.046,1.528
	c-0.123,0.224-0.234,0.454-0.336,0.688c-0.004,0.014-0.002,0.028-0.006,0.044c0,0-0.02,0.058-0.056,0.168
	c-0.019,0.055-0.042,0.123-0.069,0.203c-0.035,0.088-0.075,0.188-0.121,0.301c-0.029,0.068-0.066,0.146-0.102,0.22
	c-0.008,0.028-0.019,0.056-0.027,0.083c-0.09,0.295-0.164,0.595-0.219,0.896c-0.059,0.301-0.098,0.605-0.119,0.909
	c-0.043,0.607-0.015,1.217,0.096,1.805c0.023,0.13,0.054,0.257,0.086,0.384c0.03,0.074,0.062,0.15,0.098,0.229
	c0.077,0.19,0.184,0.387,0.286,0.601c0.118,0.204,0.228,0.431,0.37,0.647c0.137,0.221,0.281,0.448,0.445,0.667
	c0.154,0.229,0.335,0.44,0.512,0.657c0.172,0.223,0.378,0.413,0.563,0.62c0.19,0.2,0.399,0.376,0.593,0.56
	c0.195,0.179,0.404,0.328,0.593,0.483c0.187,0.159,0.386,0.276,0.562,0.399c0.18,0.115,0.336,0.239,0.49,0.318
	c0.152,0.086,0.285,0.161,0.395,0.223c0.219,0.124,0.346,0.194,0.346,0.194l0.012,0.007c0.083,0.047,0.111,0.152,0.065,0.235
	c-0.044,0.076-0.137,0.107-0.216,0.075c0,0-0.137-0.056-0.377-0.153c-0.12-0.049-0.266-0.109-0.434-0.177
	c-0.172-0.062-0.347-0.168-0.549-0.265c-0.197-0.103-0.422-0.201-0.638-0.341c-0.218-0.136-0.458-0.267-0.688-0.429
	c-0.228-0.166-0.474-0.326-0.705-0.514c-0.06-0.051-0.123-0.101-0.184-0.151c-0.008,0.008-0.014,0.017-0.021,0.024
	c-0.043,0.04-0.093,0.078-0.141,0.107l-0.001,0.001c-1.116,0.645-2.011,1.649-2.616,2.832c-0.605,1.185-0.943,2.527-1.031,3.884
	c-0.061,0.99,0.008,1.996,0.226,2.953c0.019,0.03,0.038,0.062,0.052,0.095c0,0,0.025,0.061,0.072,0.172
	c0.023,0.055,0.052,0.122,0.086,0.201c0.031,0.065,0.067,0.14,0.107,0.224c0.086,0.172,0.203,0.396,0.352,0.636
	c0.146,0.242,0.333,0.505,0.545,0.788c0.424,0.564,0.999,1.17,1.701,1.71c0.351,0.271,0.731,0.526,1.137,0.752
	c0.409,0.221,0.844,0.407,1.291,0.556c0.448,0.146,0.912,0.24,1.374,0.308c0.464,0.062,0.927,0.065,1.378,0.049
	c0.451-0.031,0.888-0.091,1.301-0.18c0.413-0.085,0.801-0.199,1.152-0.326c0.355-0.121,0.669-0.266,0.955-0.383
	c0.202-0.095,0.377-0.181,0.539-0.262c-0.08-0.061-0.158-0.124-0.23-0.189c-0.268-0.242-0.485-0.512-0.65-0.784
	c-0.171-0.27-0.282-0.545-0.372-0.795c-0.092-0.251-0.136-0.491-0.173-0.699c-0.037-0.207-0.042-0.393-0.048-0.542
	c-0.005-0.15,0.006-0.27,0.011-0.35c0.01-0.084,0.015-0.129,0.015-0.129c0.011-0.097,0.098-0.165,0.194-0.154
	c0.064,0.007,0.116,0.048,0.141,0.103l0.01,0.021c0,0,0.015,0.035,0.043,0.099c0.031,0.066,0.076,0.164,0.133,0.287
	c0.055,0.122,0.137,0.266,0.223,0.426c0.087,0.162,0.203,0.331,0.322,0.51c0.121,0.179,0.274,0.352,0.434,0.521
	c0.164,0.166,0.346,0.321,0.546,0.451s0.417,0.239,0.65,0.318c0.224,0.082,0.501,0.138,0.722,0.163
	c0.051,0.01,0.151,0.012,0.225,0.019l0.092,0.006l0.105,0.004c0.139,0.007,0.275,0.002,0.41,0c0.269-0.007,0.525-0.037,0.766-0.084
	c0.482-0.092,0.895-0.274,1.229-0.502c0.338-0.224,0.586-0.492,0.752-0.693c0.079-0.103,0.145-0.187,0.184-0.245
	c0.04-0.062,0.06-0.084,0.06-0.087l0.018-0.023c0.06-0.078,0.171-0.094,0.249-0.034c0.043,0.033,0.068,0.082,0.07,0.132
	c0-0.003,0.004,0.053,0,0.134c-0.004,0.085-0.012,0.208-0.045,0.361c-0.061,0.306-0.208,0.749-0.557,1.197
	c-0.343,0.446-0.907,0.874-1.582,1.098c-0.336,0.114-0.693,0.186-1.051,0.215c-0.179,0.013-0.359,0.02-0.537,0.016l-0.135-0.002
	l-0.146-0.011c-0.085-0.01-0.145-0.01-0.252-0.026c-0.413-0.05-0.759-0.153-1.116-0.308c-0.088-0.04-0.174-0.083-0.258-0.129
	c-0.004,0.004-0.007,0.006-0.011,0.009c-0.185,0.141-0.409,0.311-0.675,0.499c-0.27,0.181-0.58,0.381-0.939,0.565
	c-0.357,0.19-0.758,0.376-1.199,0.537c-0.439,0.17-0.926,0.291-1.438,0.388c-1.025,0.175-2.176,0.164-3.274-0.112
	c-0.548-0.138-1.083-0.323-1.591-0.553c-0.32-0.148-0.623-0.314-0.918-0.489c-0.102,0.093-0.196,0.192-0.296,0.287
	c-0.198,0.211-0.386,0.434-0.554,0.67c-0.336,0.475-0.6,0.999-0.789,1.556c-0.191,0.557-0.306,1.144-0.35,1.739
	c-0.043,0.597-0.017,1.202,0.075,1.8c0.091,0.598,0.247,1.188,0.463,1.754s0.491,1.108,0.823,1.611
	c0.332,0.501,0.722,0.962,1.162,1.357c0.22,0.198,0.454,0.378,0.696,0.544c0.122,0.081,0.25,0.151,0.374,0.229l0.1,0.05
	c0.153,0.058,0.312,0.114,0.481,0.16c0.3,0.111,0.63,0.161,0.964,0.238c0.338,0.042,0.686,0.109,1.041,0.099
	c0.354,0.028,0.709-0.016,1.064-0.044c0.348-0.072,0.699-0.124,1.027-0.247c0.167-0.05,0.336-0.095,0.488-0.177
	c0.155-0.073,0.314-0.136,0.471-0.202c0.148-0.08,0.287-0.173,0.429-0.255c0.138-0.091,0.292-0.151,0.411-0.257
	c0.127-0.097,0.251-0.19,0.371-0.281c0.118-0.093,0.246-0.17,0.344-0.273c0.207-0.194,0.4-0.373,0.582-0.528
	c0.162-0.174,0.305-0.326,0.421-0.45c0.237-0.252,0.388-0.394,0.388-0.394l0.014-0.013c0.065-0.062,0.169-0.058,0.23,0.008
	c0.043,0.046,0.055,0.111,0.035,0.167c0,0-0.07,0.193-0.218,0.526c-0.075,0.167-0.16,0.374-0.284,0.599
	c-0.133,0.219-0.296,0.459-0.477,0.724c-0.174,0.271-0.439,0.504-0.688,0.782c-0.121,0.145-0.281,0.254-0.436,0.377
	c-0.158,0.118-0.315,0.247-0.486,0.363c-0.362,0.198-0.727,0.44-1.148,0.568c-0.209,0.066-0.412,0.164-0.631,0.202l-0.656,0.127
	c-0.221,0.029-0.443,0.033-0.664,0.05c-0.221,0.022-0.439,0.009-0.656-0.011c-0.437-0.016-0.852-0.116-1.252-0.194
	c-0.275-0.087-0.538-0.174-0.791-0.271c-0.408,0.33-0.76,0.712-0.998,1.159c-0.257,0.472-0.396,1.01-0.418,1.576
	c-0.04,1.14,0.348,2.335,0.883,3.444c0.524,1.082,1.197,2.106,1.935,3.084c2.39,1.444,5.417,2.434,8.68,1.396
	c-0.233-0.388-0.396-0.748-0.495-1.052c-0.1-0.28-0.135-0.51-0.156-0.678c-0.022-0.173-0.003-0.234-0.009-0.24
	c-0.022-0.093,0.034-0.186,0.127-0.209c0.093-0.022,0.187,0.034,0.209,0.127c0-0.008,0.038,0.085,0.11,0.184
	c0.069,0.104,0.197,0.265,0.362,0.451c0.298,0.323,0.755,0.733,1.329,1.14c3.159,0.048,7.132-0.896,11.72-4.091
	c0.033-0.021,0.062-0.046,0.094-0.067c-0.605-0.717-0.967-1.419-1.141-1.948c-0.012-0.032-0.02-0.061-0.029-0.092
	c-0.298,0.012-0.588-0.047-0.873-0.087c-0.29-0.065-0.571-0.143-0.831-0.245c-0.258-0.105-0.504-0.212-0.719-0.345
	c-0.221-0.119-0.412-0.262-0.586-0.39c-0.173-0.131-0.316-0.271-0.445-0.39c-0.125-0.122-0.226-0.237-0.306-0.336
	c-0.161-0.194-0.233-0.323-0.233-0.323c-0.021-0.038-0.008-0.088,0.031-0.109c0.02-0.013,0.045-0.014,0.066-0.007
	c0,0,0.131,0.046,0.359,0.126c0.109,0.044,0.253,0.08,0.402,0.138c0.154,0.052,0.33,0.102,0.516,0.16
	c0.189,0.051,0.387,0.115,0.6,0.162c0.209,0.06,0.432,0.098,0.656,0.146c0.227,0.039,0.459,0.072,0.691,0.097
	c0.234,0.01,0.469,0.044,0.702,0.025l0.348-0.006c0.114-0.016,0.228-0.034,0.342-0.043c0.23-0.008,0.444-0.083,0.663-0.121
	l0.164-0.029l0.153-0.054c0.104-0.033,0.206-0.065,0.306-0.097c0.208-0.046,0.385-0.146,0.563-0.214
	c0.09-0.035,0.177-0.069,0.259-0.101c0.087-0.026,0.164-0.063,0.233-0.103c0.141-0.076,0.271-0.136,0.382-0.186
	c0.219-0.102,0.359-0.151,0.359-0.151l0.009-0.004c0.045-0.016,0.094,0.007,0.109,0.052c0.009,0.022,0.006,0.046-0.003,0.065
	c0,0-0.061,0.13-0.194,0.344c-0.066,0.107-0.149,0.239-0.255,0.383c-0.093,0.157-0.246,0.285-0.402,0.443
	c-0.162,0.149-0.33,0.33-0.556,0.457c-0.224,0.128-0.444,0.305-0.718,0.396c-0.27,0.096-0.546,0.223-0.849,0.26
	c-0.024,0.005-0.05,0.007-0.075,0.012c0.341,0.338,0.806,0.736,1.392,1.123c0.239,0.157,0.506,0.307,0.781,0.45
	c2.732-0.422,5.947-1.502,8.171-4.115c0.756-0.889,1.321-1.793,1.74-2.683c-0.099-0.035-0.199-0.067-0.295-0.105
	c-0.608-0.243-1.161-0.548-1.638-0.895c-0.478-0.347-0.885-0.723-1.222-1.1c-0.573-0.647-0.939-1.289-1.149-1.812
	c-0.468,0.247-0.946,0.438-1.442,0.573c-0.303,0.077-0.608,0.13-0.912,0.162c-0.018,0.038-0.034,0.075-0.055,0.115
	c-0.132,0.262-0.294,0.583-0.527,0.923c-0.107,0.177-0.241,0.351-0.382,0.537c-0.134,0.191-0.3,0.372-0.475,0.561
	c-0.166,0.197-0.367,0.375-0.573,0.565c-0.198,0.198-0.435,0.366-0.677,0.542c-0.234,0.188-0.509,0.33-0.781,0.491
	c-0.269,0.171-0.572,0.286-0.876,0.416c-0.301,0.143-0.631,0.211-0.958,0.307c-0.325,0.106-0.667,0.142-1.011,0.194
	c-0.172,0.022-0.342,0.055-0.52,0.062l-0.54,0.002l-0.544-0.002c-0.185,0.002-0.328-0.032-0.494-0.047l-0.482-0.057l-0.242-0.028
	l-0.06-0.007l-0.03-0.004l-0.016-0.001l-0.051-0.008l-0.008-0.002l-0.124-0.029c-0.331-0.078-0.661-0.156-0.987-0.233
	c-0.648-0.198-1.283-0.413-1.863-0.724c-0.299-0.129-0.569-0.314-0.84-0.48c-0.276-0.153-0.508-0.374-0.744-0.564
	c-0.465-0.393-0.842-0.839-1.139-1.28c-0.137-0.229-0.266-0.449-0.373-0.665c-0.09-0.225-0.191-0.429-0.246-0.638
	c-0.133-0.406-0.199-0.771-0.22-1.073c-0.015-0.131-0.019-0.247-0.019-0.353h-0.059c-0.133,0-0.225-0.021-0.338-0.032l-0.326-0.039
	l-0.162-0.02l-0.041-0.005l-0.02-0.003l-0.01-0.001l-0.055-0.009l-0.086-0.021c-0.229-0.054-0.456-0.108-0.682-0.162
	c-0.447-0.141-0.887-0.292-1.291-0.511c-0.208-0.092-0.395-0.229-0.581-0.348c-0.19-0.111-0.353-0.268-0.517-0.404
	c-0.32-0.282-0.576-0.607-0.775-0.923c-0.092-0.164-0.178-0.321-0.248-0.475c-0.059-0.16-0.123-0.306-0.156-0.454
	c-0.082-0.287-0.117-0.544-0.12-0.757c-0.013-0.209,0.009-0.376,0.022-0.487c0.006-0.057,0.017-0.104,0.022-0.134
	c0.007-0.026,0.01-0.04,0.01-0.04c0.024-0.095,0.121-0.151,0.216-0.128c0.066,0.018,0.115,0.071,0.129,0.135l0.001,0.006
	c0,0,0.003,0.014,0.009,0.04c0.006,0.023,0.016,0.057,0.028,0.101c0.026,0.093,0.071,0.227,0.14,0.391
	c0.033,0.083,0.073,0.172,0.125,0.264c0.043,0.096,0.104,0.192,0.166,0.294c0.128,0.202,0.293,0.41,0.486,0.618
	c0.211,0.196,0.439,0.397,0.717,0.57c0.141,0.085,0.274,0.18,0.436,0.249c0.156,0.077,0.309,0.161,0.483,0.221
	c0.333,0.142,0.704,0.246,1.081,0.349c0.193,0.043,0.389,0.086,0.584,0.128l0.07,0.017l0.041,0.006l0.162,0.021l0.324,0.044
	c0.104,0.01,0.229,0.037,0.314,0.034l0.269,0.005l0.27,0.009c0.091,0,0.187-0.017,0.279-0.021c0.187-0.016,0.376-0.019,0.552-0.067
	c0.18-0.038,0.363-0.056,0.529-0.121c0.346-0.096,0.673-0.227,0.967-0.388c0.295-0.158,0.574-0.328,0.812-0.516
	c0.239-0.186,0.458-0.366,0.637-0.545c0.18-0.178,0.337-0.338,0.456-0.479c0.121-0.14,0.215-0.252,0.275-0.331
	c0.059-0.076,0.09-0.118,0.09-0.118l0.013-0.016c0.059-0.076,0.167-0.091,0.244-0.032c0.058,0.044,0.079,0.118,0.062,0.184
	c0,0-0.016,0.058-0.046,0.166c-0.034,0.103-0.081,0.256-0.163,0.44c-0.084,0.184-0.184,0.411-0.336,0.65
	c-0.07,0.125-0.158,0.248-0.25,0.38c-0.088,0.137-0.199,0.265-0.316,0.398c-0.111,0.14-0.247,0.267-0.387,0.402
	c-0.134,0.142-0.295,0.264-0.462,0.389c-0.334,0.249-0.719,0.479-1.146,0.656c-0.21,0.103-0.438,0.156-0.667,0.227
	c-0.229,0.076-0.468,0.103-0.708,0.14c-0.121,0.017-0.239,0.04-0.364,0.046l-0.188,0.003c0.021,0.074,0.045,0.152,0.074,0.238
	c0.041,0.128,0.094,0.267,0.164,0.412c0.056,0.149,0.14,0.302,0.227,0.463c0.076,0.166,0.206,0.318,0.308,0.491
	c0.118,0.166,0.255,0.331,0.395,0.501c0.31,0.318,0.65,0.651,1.074,0.934c0.214,0.138,0.423,0.288,0.667,0.406
	c0.238,0.124,0.471,0.266,0.74,0.359c0.514,0.226,1.08,0.392,1.656,0.553c0.294,0.066,0.592,0.133,0.89,0.199l0.112,0.025h0.001
	l0.015,0.002l0.061,0.009l0.24,0.032l0.482,0.066c0.156,0.017,0.331,0.057,0.471,0.053l0.428,0.003l0.427,0.009
	c0.143-0.003,0.29-0.03,0.435-0.039c0.29-0.027,0.583-0.035,0.858-0.113c0.276-0.065,0.561-0.103,0.817-0.21
	c0.26-0.097,0.532-0.157,0.77-0.285c0.243-0.115,0.492-0.211,0.707-0.355c0.221-0.135,0.447-0.251,0.643-0.401
	c0.201-0.142,0.4-0.274,0.57-0.43c0.355-0.293,0.67-0.585,0.927-0.864c0.183-0.194,0.336-0.372,0.475-0.539
	c-0.033,0-0.067,0.002-0.101,0.001c-0.562-0.011-1.093-0.12-1.574-0.263c-0.484-0.14-0.911-0.348-1.285-0.555
	c-0.376-0.206-0.69-0.44-0.958-0.653c-0.269-0.213-0.479-0.424-0.649-0.599s-0.289-0.327-0.371-0.429
	c-0.08-0.104-0.122-0.165-0.122-0.165c-0.053-0.081-0.031-0.189,0.05-0.242c0.062-0.042,0.14-0.038,0.196,0.002l0.008,0.005
	c0,0,0.053,0.037,0.15,0.106c0.099,0.07,0.252,0.166,0.444,0.286c0.387,0.236,0.956,0.549,1.663,0.803
	c0.352,0.129,0.742,0.227,1.151,0.303c0.409,0.075,0.845,0.093,1.284,0.071c0.441-0.021,0.891-0.105,1.33-0.252
	c0.442-0.136,0.88-0.341,1.276-0.565l0.342-0.21l0.289-0.194c0.201-0.14,0.396-0.286,0.579-0.438
	c0.37-0.304,0.705-0.628,0.986-0.973c0.285-0.342,0.518-0.702,0.703-1.065c0.182-0.364,0.309-0.732,0.401-1.084
	c0.169-0.708,0.18-1.344,0.152-1.79c-0.016-0.212-0.033-0.382-0.052-0.5l-0.044,0.03c-0.107,0.071-0.187,0.136-0.318,0.212
	c-0.494,0.316-0.984,0.529-1.521,0.687c-0.531,0.146-1.077,0.212-1.598,0.202c-0.522-0.011-1.017-0.112-1.461-0.246
	c-0.447-0.131-0.839-0.324-1.186-0.513c-0.347-0.189-0.637-0.403-0.886-0.597c-0.249-0.192-0.444-0.386-0.604-0.544
	c-0.039-0.039-0.066-0.071-0.101-0.107c-0.005,0.004-0.011,0.01-0.016,0.015l-0.168,0.133l-0.084,0.067l-0.021,0.017l-0.048,0.035
	l-0.042,0.027l-0.331,0.224l-0.431,0.241c-0.144,0.069-0.285,0.129-0.429,0.19c-0.581,0.225-1.205,0.343-1.81,0.341
	c-0.604,0.001-1.184-0.093-1.712-0.248c-0.529-0.16-1.01-0.37-1.443-0.598c-0.432-0.233-0.812-0.487-1.152-0.731
	c-0.674-0.501-1.169-0.984-1.496-1.34c-0.326-0.354-0.489-0.584-0.489-0.584c-0.056-0.078-0.038-0.188,0.04-0.243
	c0.062-0.045,0.145-0.043,0.203-0.001l0.004,0.003c0,0,0.053,0.038,0.153,0.108c0.101,0.072,0.253,0.174,0.444,0.301
	c0.386,0.255,0.945,0.606,1.637,0.956c0.343,0.179,0.723,0.351,1.129,0.502c0.402,0.158,0.835,0.291,1.282,0.375
	c0.445,0.086,0.904,0.137,1.355,0.102s0.894-0.132,1.307-0.308l0.304-0.141l0.27-0.15l0.328-0.228l0.268-0.204
	c0.377-0.303,0.721-0.622,1.016-0.957c0.297-0.335,0.542-0.686,0.737-1.038c0.198-0.353,0.323-0.715,0.421-1.059
	c0.099-0.345,0.13-0.678,0.153-0.978c0.018-0.3,0.004-0.567-0.014-0.79c-0.022-0.22-0.05-0.396-0.072-0.514
	c-0.025-0.12-0.037-0.177-0.037-0.177l-0.002-0.009c-0.021-0.095,0.039-0.189,0.135-0.21c0.067-0.015,0.134,0.012,0.175,0.062
	c0,0,0.051,0.063,0.12,0.176c0.071,0.114,0.171,0.286,0.268,0.519c0.103,0.232,0.197,0.525,0.267,0.877
	c0.074,0.35,0.103,0.76,0.073,1.209c-0.027,0.45-0.14,0.934-0.319,1.422c-0.187,0.485-0.462,0.965-0.801,1.408
	c-0.229,0.298-0.488,0.577-0.768,0.84c0.015,0.009,0.024,0.015,0.04,0.022c0.18,0.105,0.407,0.218,0.664,0.344
	c0.258,0.125,0.559,0.24,0.882,0.355c0.325,0.114,0.685,0.197,1.058,0.265c0.375,0.065,0.771,0.08,1.169,0.054
	c0.397-0.023,0.802-0.104,1.192-0.246c0.386-0.129,0.793-0.335,1.125-0.549c0.082-0.046,0.194-0.135,0.291-0.2l0.128-0.091
	l0.133-0.104c0.182-0.135,0.347-0.281,0.513-0.426c0.327-0.29,0.617-0.602,0.865-0.923c0.249-0.32,0.452-0.654,0.61-0.987
	c0.156-0.336,0.26-0.673,0.336-0.993c0.141-0.645,0.125-1.225,0.086-1.63c-0.024-0.202-0.048-0.363-0.07-0.471
	c-0.022-0.11-0.034-0.161-0.034-0.161l-0.003-0.017c-0.021-0.094,0.038-0.188,0.133-0.208c0.069-0.016,0.139,0.013,0.178,0.067
	c0,0,0.011,0.014,0.031,0.041c0.019,0.026,0.047,0.066,0.08,0.118c0.064,0.105,0.159,0.261,0.25,0.473
	c0.095,0.212,0.192,0.477,0.264,0.796c0.076,0.317,0.122,0.688,0.113,1.099c-0.004,0.699-0.2,1.516-0.607,2.278
	c0.02,0.013,0.182,0.117,0.452,0.309c0.144,0.095,0.319,0.174,0.507,0.29c0.199,0.104,0.44,0.212,0.692,0.328
	c0.263,0.103,0.54,0.219,0.849,0.303c0.298,0.11,0.63,0.16,0.963,0.238c0.339,0.042,0.686,0.109,1.041,0.099
	c0.354,0.027,0.71-0.015,1.063-0.044c0.271-0.057,0.545-0.102,0.808-0.177c0.009-0.021,0.021-0.043,0.04-0.061
	c0.058-0.055,0.143-0.059,0.208-0.019c0.158-0.047,0.317-0.091,0.461-0.168c0.156-0.073,0.315-0.137,0.471-0.202
	c0.148-0.079,0.288-0.173,0.43-0.255c0.137-0.091,0.291-0.151,0.41-0.257c0.128-0.097,0.251-0.19,0.371-0.281
	c0.119-0.093,0.247-0.17,0.344-0.274c0.207-0.193,0.401-0.373,0.582-0.527c0.163-0.174,0.305-0.325,0.421-0.45
	c0.238-0.253,0.389-0.394,0.389-0.394l0.013-0.013c0.066-0.062,0.169-0.059,0.231,0.007c0.043,0.047,0.054,0.111,0.034,0.168
	c0,0-0.07,0.193-0.218,0.527c-0.074,0.166-0.16,0.373-0.283,0.598c-0.134,0.218-0.296,0.459-0.477,0.724
	c-0.175,0.271-0.439,0.504-0.688,0.782c-0.121,0.144-0.281,0.255-0.437,0.377c-0.157,0.118-0.315,0.247-0.486,0.363
	c-0.146,0.081-0.295,0.168-0.446,0.252c0.132,0.127,0.264,0.271,0.408,0.424c0.206,0.229,0.455,0.458,0.671,0.739
	c0.114,0.148,0.231,0.302,0.351,0.458c1.594-0.654,3.771-2.033,5.604-4.939c0.965-1.531,1.424-3.359,1.598-5.187
	c-0.433-0.089-0.853-0.211-1.247-0.367c-0.608-0.243-1.161-0.548-1.638-0.895c-0.478-0.347-0.885-0.722-1.222-1.1
	c-0.672-0.759-1.062-1.512-1.246-2.072c-0.034-0.097-0.059-0.184-0.08-0.268c-0.173,0.016-0.346,0.024-0.519,0.037
	c-0.221,0.021-0.439,0.009-0.656-0.011c-0.437-0.017-0.851-0.117-1.253-0.194c-0.391-0.124-0.769-0.234-1.104-0.397
	c-0.347-0.136-0.642-0.332-0.92-0.49c-0.272-0.175-0.501-0.358-0.708-0.523c-0.199-0.18-0.374-0.344-0.497-0.477
	c-0.226-0.271-0.349-0.434-0.349-0.434c-0.097-0.127-0.072-0.309,0.055-0.404c0.1-0.076,0.232-0.076,0.332-0.013
	c0,0,0.171,0.109,0.46,0.313c0.144,0.095,0.319,0.174,0.506,0.29c0.2,0.104,0.44,0.212,0.693,0.328
	c0.262,0.102,0.54,0.219,0.848,0.303c0.299,0.11,0.631,0.16,0.964,0.238c0.339,0.042,0.686,0.109,1.041,0.099
	c0.354,0.027,0.709-0.016,1.063-0.044c0.348-0.072,0.699-0.124,1.027-0.248c0.168-0.049,0.337-0.095,0.488-0.176
	c0.156-0.074,0.315-0.137,0.471-0.203c0.149-0.079,0.288-0.172,0.43-0.254c0.137-0.092,0.291-0.151,0.411-0.258
	c0.127-0.096,0.251-0.189,0.37-0.28c0.119-0.093,0.247-0.17,0.345-0.274c0.207-0.193,0.4-0.373,0.581-0.527
	c0.163-0.175,0.305-0.326,0.422-0.45c0.237-0.253,0.388-0.394,0.388-0.394l0.013-0.013c0.066-0.062,0.17-0.059,0.231,0.007
	c0.044,0.047,0.055,0.111,0.035,0.168c0,0-0.07,0.193-0.219,0.526c-0.074,0.166-0.159,0.374-0.282,0.599
	c-0.135,0.218-0.297,0.459-0.478,0.724c-0.174,0.271-0.438,0.504-0.688,0.782c-0.121,0.144-0.281,0.254-0.436,0.377
	c-0.158,0.118-0.316,0.247-0.486,0.363c-0.362,0.198-0.726,0.44-1.148,0.568c-0.209,0.066-0.412,0.164-0.631,0.202l-0.099,0.019
	c0.008,0.008,0.014,0.016,0.021,0.023c0.343,0.372,0.885,0.859,1.589,1.323c0.352,0.23,0.745,0.454,1.171,0.649
	c0.424,0.2,0.884,0.364,1.364,0.49c0.479,0.131,0.982,0.208,1.496,0.238c0.087,0.005,0.174,0.007,0.259,0.009
	c2.213-1.459,4.727-4.103,4.35-8.47c-0.021-0.014-0.041-0.028-0.062-0.041c-0.235-0.179-0.504-0.307-0.767-0.446
	c-0.275-0.104-0.547-0.228-0.835-0.289c-0.279-0.1-0.572-0.098-0.854-0.157c-0.143-0.011-0.283-0.006-0.423-0.011
	c-0.138,0.004-0.277-0.021-0.41,0.002c-0.267,0.034-0.528,0.034-0.766,0.083c-0.236,0.049-0.456,0.094-0.656,0.127
	c-0.194,0.052-0.362,0.107-0.506,0.145c-0.285,0.08-0.456,0.12-0.456,0.12l-0.017,0.004c-0.088,0.021-0.176-0.034-0.196-0.122
	c-0.015-0.062,0.01-0.125,0.056-0.164c0,0,0.138-0.109,0.392-0.293c0.127-0.09,0.28-0.206,0.469-0.319
	c0.193-0.104,0.418-0.213,0.666-0.332c0.247-0.127,0.544-0.188,0.849-0.289c0.152-0.056,0.319-0.069,0.488-0.096
	c0.169-0.021,0.342-0.051,0.521-0.065c0.356,0.005,0.734-0.02,1.107,0.064c0.187,0.038,0.383,0.049,0.565,0.112l0.553,0.183
	c0.306,0.139,0.619,0.273,0.899,0.451c0.493-0.911,0.963-2.032,1.365-3.427c0.435-1.509,0.613-3.051,0.629-4.537
	c-0.044-0.029-0.088-0.057-0.135-0.093c-0.151-0.096-0.339-0.202-0.536-0.314c-0.207-0.1-0.425-0.217-0.672-0.306
	c-0.237-0.111-0.506-0.175-0.775-0.262c-0.275-0.056-0.56-0.137-0.853-0.15c-0.292-0.047-0.589-0.033-0.886-0.032
	c-0.293,0.038-0.591,0.057-0.873,0.138c-0.293,0.045-0.551,0.186-0.827,0.265c-0.13,0.059-0.253,0.129-0.378,0.19
	c-0.12,0.068-0.254,0.112-0.36,0.195c-0.219,0.155-0.45,0.279-0.636,0.434c-0.085,0.072-0.167,0.14-0.247,0.206
	c0.021,0.401,0.023,0.814-0.037,1.222c-0.046,0.413-0.151,0.817-0.273,1.206c-0.135,0.384-0.293,0.751-0.481,1.084
	c-0.188,0.334-0.391,0.642-0.61,0.91c-0.213,0.271-0.438,0.508-0.656,0.712c-0.213,0.208-0.434,0.372-0.624,0.518
	c-0.192,0.144-0.372,0.252-0.52,0.34c-0.298,0.171-0.486,0.24-0.486,0.24c-0.041,0.016-0.086-0.006-0.101-0.046
	c-0.011-0.027-0.004-0.057,0.013-0.078c0.001,0,0.121-0.145,0.32-0.407c0.197-0.262,0.471-0.636,0.752-1.1
	c0.285-0.461,0.577-1.011,0.814-1.613c0.234-0.605,0.414-1.262,0.485-1.932c0.04-0.334,0.049-0.672,0.046-1.005
	c0-0.167-0.021-0.332-0.025-0.497c-0.018-0.164-0.035-0.327-0.053-0.487c-0.048-0.32-0.103-0.632-0.172-0.929
	c-0.024-0.15-0.073-0.292-0.107-0.433c-0.035-0.141-0.066-0.278-0.112-0.407c-0.078-0.26-0.146-0.505-0.222-0.717
	c-0.073-0.214-0.13-0.407-0.188-0.562c-0.113-0.311-0.166-0.501-0.166-0.501l-0.002-0.004c-0.012-0.044,0.014-0.091,0.059-0.104
	c0.028-0.008,0.057,0,0.078,0.018c0,0,0.146,0.128,0.385,0.375c0.123,0.12,0.258,0.278,0.403,0.467
	c0.073,0.096,0.158,0.192,0.235,0.304c0.074,0.112,0.151,0.231,0.233,0.355c0.16,0.25,0.309,0.539,0.453,0.853
	c0.065,0.16,0.138,0.323,0.201,0.495c0.054,0.175,0.109,0.354,0.166,0.536c0.009,0.041,0.018,0.082,0.026,0.123
	c0.127-0.135,0.271-0.269,0.411-0.416c0.108-0.121,0.249-0.212,0.385-0.314c0.14-0.099,0.278-0.207,0.428-0.303
	c0.317-0.164,0.64-0.364,1.008-0.466c0.182-0.055,0.36-0.138,0.552-0.168l0.573-0.1c0.385-0.025,0.776-0.064,1.152-0.016
	c0.383,0.02,0.743,0.111,1.096,0.185c0.34,0.112,0.671,0.213,0.965,0.357c0.304,0.123,0.562,0.296,0.808,0.438
	c0.068,0.044,0.128,0.089,0.19,0.134c1.233-4.868-0.223-7.9-1.825-9.715C109.811,69.46,109.791,69.206,109.765,68.953z
	 M40.921,53.808c0.309,0.229,0.613,0.454,0.906,0.673c0.316,0.188,0.622,0.371,0.912,0.543c0.291,0.173,0.594,0.286,0.859,0.417
	c0.27,0.125,0.516,0.249,0.748,0.318c0.229,0.08,0.428,0.149,0.592,0.207c0.33,0.116,0.52,0.182,0.52,0.182l0.016,0.005
	c0.09,0.032,0.137,0.13,0.105,0.22c-0.029,0.085-0.119,0.131-0.205,0.11c0,0-0.198-0.05-0.545-0.136
	c-0.174-0.043-0.385-0.097-0.627-0.157c-0.246-0.05-0.509-0.152-0.8-0.256c-0.288-0.111-0.613-0.201-0.935-0.354
	c-0.322-0.153-0.661-0.315-1.012-0.483c-0.334-0.204-0.68-0.415-1.031-0.628c-0.324-0.252-0.674-0.489-0.992-0.766
	c-0.057-0.054-0.114-0.106-0.172-0.159c0.301-0.095,0.658-0.206,1.033-0.317C40.501,53.426,40.716,53.614,40.921,53.808z
	 M40.989,80.985c-0.088,0.148-0.211,0.315-0.361,0.501c-0.076,0.092-0.15,0.197-0.241,0.297c-0.093,0.099-0.19,0.202-0.292,0.31
	c-0.207,0.214-0.454,0.425-0.726,0.638c-0.142,0.101-0.283,0.208-0.437,0.309c-0.157,0.093-0.319,0.188-0.483,0.285
	c-0.174,0.083-0.35,0.166-0.529,0.251c-0.186,0.07-0.373,0.146-0.567,0.206c-0.39,0.114-0.796,0.214-1.211,0.247
	c-0.413,0.052-0.831,0.042-1.236,0.012c-0.405-0.042-0.799-0.112-1.167-0.219c-0.367-0.106-0.713-0.232-1.025-0.385
	c-0.313-0.145-0.595-0.31-0.844-0.475c-0.252-0.159-0.461-0.337-0.646-0.488c-0.185-0.154-0.332-0.305-0.451-0.428
	c-0.234-0.25-0.346-0.418-0.346-0.418c-0.023-0.036-0.014-0.085,0.021-0.108c0.024-0.017,0.055-0.018,0.079-0.005
	c0,0,0.169,0.084,0.47,0.217s0.728,0.312,1.244,0.479c0.514,0.172,1.115,0.329,1.758,0.422c0.642,0.089,1.322,0.112,1.99,0.027
	c0.335-0.037,0.665-0.106,0.988-0.186c0.163-0.039,0.319-0.097,0.479-0.139c0.156-0.056,0.311-0.109,0.462-0.163
	c0.302-0.12,0.592-0.245,0.864-0.382c0.141-0.059,0.268-0.138,0.396-0.204c0.129-0.065,0.256-0.129,0.37-0.202
	c0.235-0.136,0.458-0.259,0.648-0.381c0.189-0.121,0.365-0.22,0.501-0.313c0.276-0.181,0.45-0.276,0.45-0.276l0.004-0.002
	c0.04-0.022,0.092-0.008,0.113,0.032c0.015,0.025,0.014,0.056,0.001,0.08C41.265,80.524,41.175,80.697,40.989,80.985z
	 M54.796,66.377c0,0-0.163,0.229-0.49,0.584c-0.326,0.355-0.82,0.838-1.494,1.339c-0.34,0.246-0.722,0.499-1.152,0.733
	c-0.434,0.227-0.915,0.437-1.443,0.597c-0.529,0.156-1.108,0.25-1.713,0.248c-0.604,0.002-1.229-0.116-1.81-0.341
	c-0.144-0.062-0.285-0.121-0.429-0.19l-0.431-0.241l-0.331-0.223l-0.041-0.028l-0.049-0.035l-0.021-0.017l-0.084-0.067l-0.167-0.134
	c-0.006-0.004-0.012-0.009-0.018-0.014c-0.033,0.036-0.061,0.069-0.1,0.108c-0.158,0.158-0.354,0.351-0.604,0.544
	c-0.249,0.193-0.539,0.408-0.886,0.596c-0.347,0.189-0.738,0.383-1.186,0.514c-0.444,0.133-0.938,0.234-1.46,0.245
	c-0.521,0.01-1.066-0.055-1.599-0.201c-0.537-0.158-1.027-0.371-1.521-0.687c-0.131-0.077-0.211-0.141-0.318-0.212l-0.044-0.03
	c-0.019,0.118-0.036,0.288-0.052,0.501c-0.027,0.445-0.018,1.082,0.152,1.79c0.093,0.352,0.221,0.72,0.401,1.085
	c0.185,0.362,0.419,0.723,0.702,1.064c0.282,0.345,0.617,0.669,0.987,0.972c0.183,0.152,0.378,0.299,0.579,0.438l0.29,0.194
	l0.341,0.21c0.397,0.225,0.835,0.43,1.276,0.566c0.439,0.146,0.889,0.229,1.33,0.251c0.439,0.021,0.875,0.003,1.284-0.072
	s0.8-0.173,1.151-0.302c0.707-0.253,1.276-0.566,1.664-0.802c0.191-0.121,0.344-0.217,0.443-0.288
	c0.098-0.068,0.15-0.105,0.15-0.105l0.008-0.005c0.078-0.056,0.188-0.037,0.243,0.042c0.042,0.062,0.041,0.14,0.003,0.198
	c0,0-0.041,0.062-0.121,0.165c-0.083,0.103-0.201,0.253-0.372,0.429c-0.169,0.174-0.38,0.387-0.649,0.599
	c-0.268,0.213-0.582,0.447-0.957,0.653c-0.375,0.207-0.802,0.414-1.285,0.555c-0.482,0.143-1.014,0.252-1.576,0.263
	c-0.559,0.014-1.143-0.052-1.714-0.197c-0.569-0.154-1.116-0.38-1.647-0.683l-0.344-0.206c-0.155-0.097-0.246-0.168-0.372-0.253
	c-0.231-0.169-0.464-0.338-0.676-0.532c-0.432-0.377-0.82-0.802-1.141-1.258c-0.643-0.914-0.969-1.957-1.014-2.835
	c-0.057-0.884,0.123-1.596,0.291-2.06c0.082-0.235,0.171-0.41,0.232-0.528c0.021-0.042,0.041-0.075,0.058-0.104
	c-0.19-0.15-0.374-0.312-0.552-0.478c-0.382-0.365-0.723-0.772-1.002-1.206c-0.563-0.865-0.829-1.848-0.834-2.666
	c-0.008-0.411,0.037-0.782,0.113-1.101c0.071-0.318,0.17-0.583,0.264-0.794c0.092-0.212,0.186-0.368,0.25-0.473
	c0.033-0.053,0.061-0.092,0.08-0.118c0.021-0.027,0.031-0.042,0.031-0.042c0.057-0.078,0.166-0.095,0.244-0.037
	c0.058,0.042,0.081,0.113,0.066,0.178l-0.003,0.016c0,0-0.011,0.05-0.034,0.161c-0.022,0.107-0.047,0.269-0.07,0.471
	c-0.039,0.406-0.055,0.985,0.086,1.63c0.076,0.321,0.18,0.658,0.336,0.993c0.158,0.333,0.361,0.667,0.611,0.987
	c0.247,0.321,0.537,0.633,0.865,0.923c0.165,0.144,0.33,0.292,0.512,0.426l0.133,0.103l0.129,0.092
	c0.096,0.065,0.208,0.154,0.291,0.2c0.331,0.213,0.737,0.42,1.124,0.549c0.391,0.141,0.795,0.223,1.193,0.246
	c0.398,0.026,0.793,0.012,1.168-0.054c0.373-0.067,0.734-0.15,1.058-0.265c0.323-0.115,0.624-0.23,0.882-0.355
	s0.484-0.238,0.664-0.343c0.016-0.008,0.025-0.014,0.039-0.023c-0.278-0.262-0.537-0.542-0.766-0.84
	c-0.34-0.443-0.615-0.922-0.802-1.408c-0.18-0.488-0.292-0.972-0.319-1.421c-0.029-0.449,0-0.859,0.074-1.209
	c0.068-0.351,0.164-0.645,0.266-0.876c0.098-0.233,0.197-0.404,0.269-0.519c0.069-0.113,0.119-0.175,0.119-0.175
	c0.062-0.076,0.173-0.088,0.248-0.027c0.054,0.043,0.075,0.112,0.062,0.175l-0.002,0.01c0,0-0.012,0.056-0.037,0.176
	c-0.022,0.118-0.05,0.293-0.072,0.515c-0.018,0.221-0.031,0.488-0.014,0.789c0.023,0.3,0.055,0.632,0.154,0.978
	c0.097,0.344,0.223,0.706,0.42,1.059c0.196,0.353,0.441,0.703,0.737,1.038c0.295,0.335,0.64,0.655,1.017,0.958l0.267,0.205
	l0.329,0.227l0.27,0.15l0.303,0.141c0.414,0.176,0.855,0.272,1.307,0.308s0.91-0.015,1.355-0.102
	c0.447-0.083,0.88-0.216,1.283-0.375c0.405-0.152,0.785-0.324,1.129-0.502c0.691-0.35,1.25-0.702,1.636-0.956
	c0.192-0.127,0.345-0.229,0.444-0.301c0.1-0.071,0.153-0.108,0.153-0.108l0.003-0.002c0.08-0.056,0.189-0.037,0.244,0.042
	C54.841,66.237,54.837,66.318,54.796,66.377z M77.5,20.37c0.111,0.155,0.22,0.306,0.341,0.48C77.72,20.678,77.61,20.524,77.5,20.37z
	 M78.127,21.268c0.115,0.169,0.227,0.331,0.348,0.514C78.353,21.6,78.241,21.436,78.127,21.268z M78.857,22.378
	c0.102,0.159,0.199,0.308,0.303,0.475C79.056,22.687,78.958,22.537,78.857,22.378z M60.091,127.516
	c0.344-0.037,0.684-0.11,1.016-0.194c0.166-0.042,0.327-0.101,0.49-0.146c0.158-0.06,0.315-0.117,0.47-0.175
	c0.305-0.129,0.599-0.263,0.873-0.404c0.142-0.064,0.266-0.15,0.394-0.221c0.128-0.072,0.254-0.139,0.367-0.216
	c0.465-0.29,0.85-0.556,1.117-0.748c0.264-0.194,0.428-0.3,0.428-0.3l0.002-0.002c0.029-0.018,0.067-0.01,0.086,0.019
	c0.014,0.021,0.013,0.047,0,0.066c0,0-0.101,0.163-0.297,0.438c-0.095,0.142-0.225,0.3-0.38,0.478
	c-0.078,0.088-0.156,0.188-0.249,0.284c-0.096,0.093-0.195,0.19-0.301,0.292c-0.207,0.207-0.457,0.407-0.73,0.608
	c-0.14,0.097-0.28,0.201-0.432,0.298c-0.156,0.089-0.316,0.18-0.479,0.272c-0.172,0.079-0.345,0.158-0.521,0.239
	c-0.182,0.067-0.365,0.14-0.556,0.197c-0.382,0.11-0.778,0.206-1.184,0.24c-0.403,0.051-0.812,0.044-1.208,0.018
	c-0.396-0.038-0.781-0.104-1.144-0.202c-0.724-0.2-1.356-0.493-1.854-0.806c-0.254-0.148-0.467-0.315-0.654-0.458
	c-0.188-0.146-0.34-0.286-0.462-0.403c-0.243-0.234-0.361-0.393-0.361-0.393c-0.02-0.025-0.015-0.062,0.011-0.081
	c0.02-0.015,0.045-0.015,0.064-0.004c0,0,0.162,0.095,0.455,0.243c0.291,0.146,0.711,0.344,1.223,0.535
	c0.256,0.098,0.538,0.184,0.834,0.27c0.295,0.09,0.613,0.146,0.939,0.205C58.702,127.569,59.401,127.601,60.091,127.516z
	 M75.609,96.67c-0.051,0.16-0.123,0.396-0.242,0.686c-0.119,0.289-0.268,0.641-0.48,1.023c-0.212,0.383-0.465,0.813-0.799,1.246
	c-0.331,0.433-0.719,0.893-1.2,1.312c-0.479,0.421-1.031,0.827-1.667,1.146c-0.635,0.318-1.341,0.56-2.079,0.696
	c-0.748,0.129-1.486,0.151-2.273,0.071c-0.204-0.013-0.352-0.046-0.531-0.067l-0.129-0.019l-0.064-0.009l-0.031-0.005l-0.059-0.011
	l-0.27-0.059c-0.358-0.072-0.714-0.171-1.062-0.279c-0.697-0.221-1.368-0.521-1.969-0.9c-0.603-0.374-1.141-0.82-1.569-1.313
	c-0.435-0.488-0.774-1.007-1.016-1.516c-0.247-0.506-0.401-0.997-0.496-1.436c-0.101-0.438-0.14-0.825-0.151-1.144
	c-0.006-0.13-0.006-0.245-0.004-0.353c-0.326-0.038-0.641-0.109-0.947-0.169c-0.391-0.123-0.77-0.235-1.104-0.396
	c-0.347-0.136-0.642-0.333-0.92-0.492c-0.272-0.174-0.501-0.358-0.708-0.522c-0.199-0.18-0.373-0.345-0.496-0.477
	c-0.227-0.271-0.35-0.434-0.35-0.434c-0.097-0.127-0.072-0.309,0.055-0.405c0.1-0.074,0.232-0.075,0.332-0.012
	c0,0,0.172,0.109,0.46,0.313c0.144,0.095,0.319,0.174,0.507,0.29c0.199,0.104,0.439,0.212,0.691,0.328
	c0.264,0.102,0.541,0.219,0.85,0.303c0.299,0.11,0.63,0.161,0.963,0.238c0.339,0.041,0.686,0.109,1.041,0.099
	c0.354,0.027,0.709-0.016,1.064-0.045c0.348-0.072,0.699-0.123,1.027-0.247c0.167-0.05,0.336-0.094,0.488-0.177
	c0.155-0.072,0.314-0.136,0.471-0.201c0.148-0.08,0.287-0.173,0.43-0.256c0.137-0.09,0.291-0.151,0.41-0.256
	c0.127-0.097,0.251-0.19,0.371-0.281c0.119-0.093,0.246-0.171,0.344-0.274c0.207-0.193,0.4-0.373,0.582-0.527
	c0.121-0.13,0.227-0.243,0.323-0.347c-0.091-0.12-0.181-0.24-0.265-0.362c-0.217-0.344-0.406-0.695-0.551-1.051
	c-0.145-0.354-0.26-0.705-0.334-1.043c-0.08-0.337-0.125-0.659-0.15-0.956c-0.031-0.297-0.022-0.571-0.019-0.812
	c0.007-0.24,0.034-0.448,0.057-0.618c0.05-0.34,0.113-0.53,0.113-0.53c0.013-0.041,0.058-0.064,0.099-0.051
	c0.027,0.009,0.047,0.032,0.053,0.059c0,0,0.039,0.186,0.121,0.504c0.082,0.317,0.205,0.764,0.395,1.272
	c0.184,0.51,0.434,1.08,0.76,1.641c0.328,0.559,0.731,1.107,1.213,1.579c0.236,0.239,0.496,0.455,0.758,0.66
	c0.132,0.104,0.273,0.19,0.406,0.289c0.14,0.088,0.278,0.175,0.414,0.261c0.281,0.161,0.56,0.312,0.835,0.442
	c0.134,0.073,0.274,0.123,0.406,0.185c0.132,0.06,0.26,0.12,0.388,0.164c0.254,0.101,0.487,0.199,0.701,0.272
	c0.213,0.074,0.399,0.15,0.557,0.199c0.314,0.104,0.496,0.182,0.496,0.182l0.004,0.001c0.043,0.019,0.062,0.067,0.045,0.11
	c-0.012,0.026-0.035,0.044-0.062,0.05c0,0-0.192,0.036-0.533,0.069c-0.171,0.022-0.379,0.029-0.618,0.025
	c-0.119-0.001-0.248,0.005-0.383-0.004c-0.134-0.011-0.275-0.024-0.424-0.037c-0.295-0.029-0.614-0.092-0.949-0.174
	c-0.166-0.049-0.339-0.093-0.512-0.15c-0.172-0.066-0.347-0.134-0.525-0.203c-0.172-0.085-0.347-0.171-0.523-0.259
	c-0.171-0.103-0.346-0.203-0.514-0.318c-0.332-0.234-0.662-0.491-0.946-0.796c-0.035-0.035-0.064-0.075-0.099-0.111
	c-0.044,0.095-0.092,0.195-0.149,0.301c-0.134,0.218-0.296,0.459-0.478,0.724c-0.174,0.271-0.438,0.504-0.688,0.782
	c-0.121,0.144-0.281,0.254-0.436,0.377c-0.158,0.118-0.315,0.247-0.486,0.363c-0.362,0.198-0.727,0.44-1.148,0.568
	c-0.209,0.065-0.412,0.164-0.631,0.202l-0.656,0.126c-0.221,0.03-0.443,0.034-0.664,0.05c-0.146,0.016-0.29,0.012-0.434,0.005
	c0.017,0.07,0.035,0.146,0.057,0.227c0.154,0.562,0.435,1.354,0.967,2.157c0.273,0.396,0.6,0.797,0.998,1.163
	c0.402,0.362,0.862,0.7,1.383,0.983c0.523,0.278,1.1,0.508,1.707,0.686c0.307,0.087,0.615,0.172,0.936,0.232l0.238,0.049
	l0.229,0.039c0.165,0.022,0.356,0.065,0.499,0.072l0.455,0.038l0.473,0.011l0.469-0.022l0.461-0.051
	c0.611-0.079,1.199-0.244,1.742-0.48c0.544-0.231,1.051-0.522,1.497-0.853c0.444-0.333,0.852-0.68,1.196-1.038
	c0.344-0.358,0.649-0.704,0.898-1.029c0.249-0.326,0.461-0.619,0.622-0.868c0.161-0.25,0.285-0.449,0.364-0.588
	c0.077-0.137,0.119-0.21,0.119-0.21l0.003-0.006c0.048-0.084,0.154-0.113,0.238-0.066c0.067,0.04,0.1,0.118,0.083,0.19
	C75.678,96.418,75.658,96.51,75.609,96.67z M89.686,98.315c-0.034,0.103-0.081,0.256-0.163,0.44
	c-0.083,0.184-0.184,0.411-0.336,0.65c-0.07,0.125-0.157,0.248-0.25,0.38c-0.088,0.137-0.198,0.265-0.316,0.398
	c-0.111,0.14-0.247,0.267-0.387,0.402c-0.133,0.142-0.295,0.264-0.462,0.389c-0.334,0.249-0.719,0.479-1.146,0.656
	c-0.21,0.103-0.438,0.156-0.667,0.227c-0.229,0.076-0.468,0.103-0.708,0.141c-0.12,0.016-0.238,0.039-0.364,0.046l-0.383,0.005
	l-0.386,0.001c-0.132,0-0.223-0.021-0.337-0.032l-0.325-0.039l-0.163-0.02l-0.04-0.005l-0.021-0.002l-0.01-0.002l-0.054-0.009
	l-0.087-0.021c-0.228-0.054-0.456-0.108-0.682-0.162c-0.447-0.141-0.887-0.292-1.291-0.511c-0.208-0.092-0.395-0.229-0.581-0.348
	c-0.19-0.111-0.353-0.268-0.516-0.404c-0.321-0.282-0.576-0.607-0.775-0.923c-0.092-0.164-0.178-0.321-0.249-0.475
	c-0.059-0.16-0.123-0.306-0.155-0.454c-0.083-0.287-0.117-0.544-0.121-0.756c-0.013-0.21,0.009-0.377,0.022-0.488
	c0.007-0.057,0.018-0.104,0.022-0.134c0.007-0.026,0.011-0.04,0.011-0.04c0.023-0.095,0.12-0.151,0.215-0.127
	c0.067,0.017,0.115,0.07,0.129,0.134l0.002,0.006c0,0,0.002,0.014,0.008,0.04c0.007,0.023,0.016,0.057,0.029,0.101
	c0.026,0.093,0.071,0.227,0.14,0.391c0.032,0.083,0.072,0.172,0.125,0.264c0.043,0.096,0.103,0.192,0.165,0.294
	c0.128,0.202,0.294,0.41,0.487,0.618c0.21,0.196,0.438,0.397,0.716,0.57c0.141,0.085,0.275,0.18,0.437,0.249
	c0.155,0.077,0.308,0.161,0.483,0.221c0.332,0.142,0.704,0.246,1.08,0.349c0.194,0.043,0.389,0.086,0.585,0.128l0.07,0.017
	l0.04,0.006l0.162,0.021l0.325,0.044c0.103,0.01,0.227,0.037,0.313,0.034l0.27,0.005l0.27,0.009c0.09,0,0.186-0.017,0.278-0.021
	c0.187-0.016,0.376-0.019,0.553-0.067c0.179-0.038,0.362-0.056,0.529-0.121c0.345-0.096,0.672-0.227,0.967-0.388
	c0.295-0.158,0.574-0.328,0.812-0.516c0.238-0.186,0.458-0.366,0.636-0.545c0.18-0.178,0.337-0.338,0.456-0.479
	c0.121-0.14,0.215-0.252,0.275-0.331c0.059-0.076,0.091-0.118,0.091-0.118l0.013-0.016c0.058-0.076,0.167-0.091,0.243-0.032
	c0.058,0.044,0.08,0.118,0.062,0.184C89.732,98.149,89.717,98.207,89.686,98.315z M91.217,86.745
	c-0.088,0.148-0.211,0.315-0.362,0.501c-0.075,0.093-0.15,0.197-0.24,0.298c-0.094,0.098-0.19,0.201-0.292,0.31
	c-0.208,0.213-0.455,0.425-0.726,0.637c-0.142,0.101-0.283,0.209-0.437,0.31c-0.158,0.093-0.319,0.188-0.483,0.284
	c-0.174,0.083-0.351,0.167-0.529,0.252c-0.186,0.069-0.373,0.145-0.567,0.205c-0.391,0.114-0.797,0.214-1.212,0.248
	c-0.282,0.034-0.566,0.04-0.848,0.031c-0.013,0.025-0.022,0.048-0.036,0.074c-0.135,0.218-0.297,0.459-0.478,0.724
	c-0.174,0.271-0.438,0.504-0.688,0.782c-0.121,0.144-0.281,0.254-0.436,0.377c-0.158,0.118-0.316,0.247-0.486,0.363
	c-0.362,0.198-0.726,0.44-1.148,0.568c-0.209,0.065-0.412,0.163-0.631,0.202l-0.657,0.126c-0.22,0.03-0.442,0.034-0.663,0.05
	c-0.221,0.022-0.439,0.01-0.656-0.011c-0.437-0.016-0.851-0.116-1.253-0.193c-0.391-0.124-0.769-0.235-1.104-0.397
	c-0.347-0.135-0.642-0.332-0.92-0.491c-0.272-0.174-0.501-0.358-0.708-0.522c-0.199-0.18-0.374-0.345-0.497-0.477
	c-0.226-0.271-0.35-0.434-0.35-0.434c-0.096-0.127-0.071-0.309,0.056-0.405c0.1-0.075,0.232-0.075,0.332-0.012
	c0,0,0.171,0.109,0.46,0.312c0.143,0.096,0.319,0.175,0.506,0.291c0.2,0.104,0.44,0.212,0.693,0.328
	c0.262,0.102,0.539,0.219,0.848,0.303c0.299,0.11,0.631,0.16,0.964,0.238c0.339,0.041,0.686,0.109,1.041,0.099
	c0.354,0.027,0.709-0.016,1.063-0.045c0.348-0.072,0.699-0.123,1.027-0.247c0.168-0.05,0.337-0.095,0.488-0.177
	c0.156-0.073,0.315-0.136,0.471-0.202c0.149-0.079,0.288-0.173,0.43-0.255c0.137-0.09,0.291-0.151,0.411-0.256
	c0.127-0.097,0.251-0.19,0.37-0.281c0.119-0.093,0.247-0.171,0.345-0.274c0.095-0.089,0.186-0.174,0.275-0.256
	c-0.214-0.037-0.424-0.083-0.625-0.141c-0.367-0.106-0.714-0.233-1.025-0.386c-0.314-0.145-0.595-0.31-0.844-0.475
	c-0.252-0.159-0.462-0.337-0.647-0.487c-0.184-0.155-0.331-0.305-0.45-0.429c-0.235-0.25-0.346-0.418-0.346-0.418
	c-0.023-0.036-0.015-0.085,0.021-0.108c0.024-0.016,0.055-0.017,0.079-0.005c0,0,0.169,0.085,0.47,0.218
	c0.3,0.132,0.727,0.312,1.243,0.479c0.514,0.172,1.116,0.329,1.758,0.422c0.642,0.089,1.322,0.112,1.991,0.027
	c0.335-0.036,0.664-0.106,0.988-0.186c0.163-0.038,0.318-0.097,0.478-0.138c0.157-0.056,0.311-0.11,0.463-0.164
	c0.301-0.12,0.592-0.245,0.864-0.381c0.141-0.06,0.268-0.139,0.396-0.204c0.129-0.066,0.256-0.13,0.37-0.202
	c0.235-0.137,0.457-0.259,0.647-0.382c0.19-0.121,0.366-0.22,0.502-0.313c0.276-0.181,0.449-0.275,0.449-0.275l0.004-0.003
	c0.041-0.022,0.092-0.008,0.114,0.033c0.015,0.025,0.013,0.056,0.001,0.079C91.493,86.284,91.402,86.457,91.217,86.745z"/>
<path fill="#1D1D1B" d="M94.677,110.025c-0.16-0.203-0.304-0.396-0.454-0.554c-0.084,0.036-0.168,0.07-0.257,0.097
	c-0.209,0.066-0.411,0.164-0.631,0.203l-0.656,0.125c-0.221,0.03-0.443,0.034-0.663,0.051c-0.222,0.021-0.44,0.009-0.657-0.011
	c-0.436-0.017-0.851-0.117-1.253-0.194c-0.39-0.124-0.768-0.234-1.104-0.396c-0.346-0.136-0.641-0.333-0.92-0.491
	c-0.271-0.174-0.501-0.358-0.707-0.523c-0.2-0.18-0.374-0.344-0.498-0.477c-0.12-0.146-0.21-0.256-0.269-0.331
	c-0.262,0.386-0.57,0.751-0.914,1.079c-0.178,0.166-0.36,0.327-0.552,0.479c0.017,0.027,0.036,0.061,0.058,0.103
	c0.062,0.118,0.149,0.294,0.232,0.528c0.168,0.464,0.348,1.176,0.292,2.06c-0.046,0.879-0.371,1.921-1.015,2.835
	c-0.32,0.456-0.708,0.881-1.14,1.257c-0.213,0.195-0.444,0.365-0.677,0.533c-0.067,0.046-0.125,0.088-0.188,0.132
	c0.341,0.34,0.81,0.743,1.402,1.134c0.352,0.23,0.745,0.453,1.171,0.649c0.424,0.199,0.884,0.364,1.364,0.49
	c0.479,0.131,0.982,0.207,1.496,0.238c0.521,0.028,1.024,0.011,1.583-0.064c0.121-0.018,0.248-0.04,0.378-0.066
	c0.883-0.461,1.804-1.081,2.73-1.917c1.655-1.493,2.5-3.481,2.904-5.435c-0.167-0.265-0.329-0.523-0.483-0.769
	C95.071,110.502,94.853,110.263,94.677,110.025z"/>
<path fill="#FFFFFF" d="M78.193,36.295c0.022,0.305,0.086,1.648,0.086,1.648l-3.838-5.99l0.843,1.965l-5.147-5.429l0.937,1.778
	l-3.744-3.463c0,0,0.188,0.749-0.562,0.094c-0.748-0.655-5.146-1.778-5.146-1.778l0.842,0.842l-5.521-0.936
	c0,0,1.217,0.504,1.229,0.732c-0.021,0.08-0.984,0.088-2.178,0.12c-2.71,0.071-4.76,1.113-4.76,1.113s1.254,0,1.684,0
	c0.094,0,0.138,0,0.143,0c-0.005,0-0.049,0-0.143,0c-0.605,0-2.751,1.115-3.393,1.531c2.295-0.217,11.002-0.8,15.76,2.224
	c5.512,3.503,11.592,14.837,11.592,14.837l-4.057,0.668c2.633-0.059,5.366-0.286,7.196-0.595c0.138-1.446,0.512-5.426,0.512-5.655
	C80.525,39.73,78.336,36.743,78.193,36.295z"/>
<path fill="#1D1D1B" d="M72.817,46.943c-0.356,0-0.655-0.271-0.688-0.627c-0.033-0.361,0.218-0.687,0.576-0.746l3.086-0.508
	c-1.522-2.676-6.448-10.915-10.879-13.731c-3.001-1.908-7.734-2.308-11.176-2.308c-1.868,0-3.4,0.119-4.148,0.189
	c-0.312,0.037-0.613-0.16-0.718-0.461c-0.104-0.301,0.01-0.634,0.277-0.807c0.188-0.122,0.757-0.449,1.415-0.781
	c-0.001-0.003-0.001-0.006-0.002-0.009c-0.074-0.311,0.074-0.632,0.359-0.777c0.089-0.045,2.222-1.114,5.055-1.188l0.293-0.007
	c-0.025-0.11-0.024-0.229,0.01-0.345c0.098-0.337,0.436-0.548,0.779-0.49l3.883,0.658c0.013-0.078,0.04-0.154,0.081-0.226
	c0.154-0.27,0.47-0.404,0.771-0.328c1.003,0.256,4.193,1.105,5.251,1.794c0.256-0.121,0.549-0.139,0.756,0.053l1.846,1.707
	c0.027-0.028,0.058-0.054,0.09-0.077c0.281-0.201,0.667-0.164,0.904,0.086l3.292,3.473c0.053-0.057,0.115-0.106,0.187-0.145
	c0.318-0.167,0.712-0.065,0.906,0.238l2.697,4.21c0.093-0.087,0.209-0.149,0.342-0.174c0.346-0.067,0.684,0.135,0.789,0.469
	c0.078,0.18,0.68,1.07,1.077,1.659c1.155,1.71,1.288,1.942,1.288,2.257c0,0.298-0.429,4.818-0.515,5.721
	c-0.03,0.312-0.265,0.564-0.573,0.616c-1.86,0.314-4.656,0.546-7.296,0.604C72.827,46.943,72.822,46.943,72.817,46.943z
	 M53.735,27.639c3.625,0,8.636,0.438,11.917,2.523c5.6,3.56,11.579,14.625,11.831,15.094c0.004,0.009,0.009,0.017,0.013,0.026
	c0.679-0.067,1.313-0.143,1.88-0.226c0.183-1.926,0.406-4.338,0.45-4.942c-0.163-0.296-0.686-1.069-1.043-1.598
	c-0.014-0.021-0.027-0.042-0.041-0.062c-0.071,0.064-0.157,0.114-0.253,0.145c-0.296,0.095-0.622-0.021-0.792-0.286l-2.375-3.707
	c-0.199,0.006-0.396-0.063-0.54-0.215l-3.352-3.535c-0.26,0.158-0.598,0.127-0.827-0.084l-3.187-2.947
	c-0.387,0.112-0.678-0.036-1.105-0.409c-0.285-0.249-1.685-0.733-3.217-1.179c-0.006,0.013-0.012,0.027-0.019,0.04
	c-0.138,0.267-0.431,0.413-0.729,0.364l-3.542-0.6c-0.162,0.462-0.53,0.471-2.257,0.512l-0.538,0.013
	c-0.84,0.022-1.613,0.143-2.272,0.296c0.007,0.041,0.012,0.083,0.012,0.126c0,0.298-0.189,0.553-0.455,0.649
	C53.439,27.64,53.586,27.639,53.735,27.639z"/>
<path fill="#FFFFFF" d="M49.358,28.677c1.498-0.094,2.809,3.089,2.809,3.089l-0.842-0.188l1.965,3.183l-0.714-0.158l2.305,2.404
	l-0.655,0.655l11.887,3.089l3.33,5.472c1.047,0.048,2.201,0.056,3.375,0.029l4.057-0.668c0,0-6.08-11.334-11.592-14.837
	c-4.758-3.024-13.465-2.44-15.76-2.224C49.372,28.621,49.302,28.68,49.358,28.677z"/>
<path fill="#1D1D1B" d="M71.506,46.958c-0.726,0-1.432-0.014-2.095-0.045c-0.23-0.011-0.439-0.135-0.559-0.331l-3.185-5.232
	l-11.616-3.019c-0.24-0.062-0.428-0.249-0.493-0.487c-0.065-0.239,0.003-0.495,0.178-0.67l0.177-0.177l-1.836-1.915
	c-0.21-0.22-0.253-0.552-0.104-0.817c0.03-0.054,0.067-0.103,0.108-0.145l-1.345-2.178c-0.146-0.237-0.136-0.538,0.025-0.764
	c0.063-0.088,0.144-0.159,0.236-0.208c-0.491-0.84-1.115-1.603-1.575-1.603c-0.306,0-0.659-0.205-0.746-0.498
	c-0.154-0.519,0.297-0.813,0.467-0.924c0.094-0.062,0.201-0.099,0.313-0.109c0.771-0.073,2.354-0.195,4.278-0.195
	c3.625,0,8.636,0.438,11.917,2.523c5.6,3.56,11.579,14.625,11.831,15.094c0.105,0.196,0.109,0.432,0.011,0.632
	c-0.099,0.2-0.288,0.341-0.508,0.377l-4.057,0.668C72.386,46.953,71.942,46.958,71.506,46.958z M69.84,45.547
	c0.933,0.034,1.94,0.036,2.961,0.014l2.99-0.498c-1.521-2.674-6.448-10.916-10.88-13.733c-3.001-1.908-7.734-2.308-11.176-2.308
	c-0.886,0-1.696,0.027-2.384,0.062c0.795,0.896,1.311,2.07,1.455,2.419c0.098,0.238,0.056,0.511-0.11,0.708
	c-0.032,0.038-0.067,0.071-0.105,0.101l1.288,2.085c0.117,0.189,0.134,0.42,0.053,0.621l1.448,1.51
	c0.198,0.207,0.243,0.506,0.135,0.754l10.771,2.799c0.174,0.045,0.323,0.156,0.417,0.31L69.84,45.547z"/>
<path fill="#FFFFFF" d="M78.71,45.303c3.043,0.351,6.81-1.39,9.687-4.428c-0.238-0.108-0.398-0.182-0.398-0.182l2.227-1.705
	l-0.894,0.283l2.062-1.782l-0.874,0.293l1.756-1.678l-0.604-0.056l0.804-1.436l-0.641,0.002l0.407-1.656l-0.665,0.012l-0.274-1.601
	l-0.435,0.173l-0.537-1.785l-0.641,0.083l-1.266-2.077c0,0-0.365,0.165-0.323,0.279c0.042,0.115-2.405-2.493-2.405-2.493
	s-0.147,0.235-0.103,0.352c0.047,0.118-3.08-2.526-3.08-2.526l0.133,0.434l-3.17-2.312l0.157,0.396l-2.398-1.766
	C80.22,24.184,88.875,37.363,78.71,45.303z"/>
<path fill="#1D1D1B" d="M79.503,46.039C79.503,46.039,79.503,46.039,79.503,46.039c-0.296,0-0.587-0.016-0.872-0.049
	c-0.278-0.032-0.511-0.229-0.586-0.5c-0.076-0.27,0.019-0.559,0.239-0.732c9.295-7.26,1.974-19.357-1.605-24.221
	c-0.202-0.275-0.174-0.657,0.068-0.898s0.623-0.27,0.898-0.068l1.696,1.25c0.183-0.039,0.383,0.002,0.542,0.119l2.433,1.775
	c0.221-0.064,0.463-0.019,0.644,0.135c0.903,0.764,1.887,1.584,2.474,2.063c0.062-0.025,0.128-0.042,0.196-0.049
	c0.212-0.02,0.424,0.059,0.57,0.215c0.715,0.762,1.495,1.583,1.95,2.052c0.314-0.137,0.685-0.02,0.864,0.275l1.032,1.694
	l0.196-0.025c0.32-0.044,0.652,0.162,0.75,0.486l0.337,1.121c0.107,0.004,0.214,0.033,0.311,0.087
	c0.182,0.102,0.309,0.281,0.344,0.486l0.174,1.015l0.071-0.001c0.198-0.018,0.42,0.092,0.553,0.26
	c0.134,0.167,0.183,0.388,0.131,0.596l-0.206,0.837c0.151,0.054,0.281,0.159,0.364,0.301c0.125,0.212,0.127,0.474,0.008,0.688
	l-0.353,0.63c0.09,0.078,0.16,0.179,0.201,0.296c0.09,0.256,0.021,0.54-0.175,0.727l-0.702,0.671
	c0.085,0.26,0.009,0.552-0.205,0.737l-0.948,0.819c0.061,0.259-0.033,0.538-0.253,0.706l-1.57,1.202c0,0.001,0,0.002,0.001,0.003
	c0.043,0.219-0.023,0.445-0.177,0.607C86.118,44.286,82.605,46.039,79.503,46.039z M79.731,22.577
	c3.595,5.776,7.579,15.243,0.846,21.998c2.241-0.331,4.713-1.649,6.777-3.631c-0.022-0.055-0.037-0.114-0.043-0.174
	c-0.027-0.241,0.074-0.478,0.267-0.625l1.064-0.815c-0.019-0.215,0.064-0.433,0.236-0.581l0.963-0.831
	c-0.045-0.227,0.025-0.467,0.2-0.634l0.998-0.954c-0.088-0.198-0.078-0.427,0.028-0.618l0.319-0.57
	c-0.035-0.03-0.067-0.063-0.096-0.1c-0.132-0.167-0.179-0.386-0.128-0.592l0.201-0.82c-0.239-0.077-0.425-0.282-0.47-0.542
	l-0.147-0.863c-0.062-0.011-0.123-0.03-0.181-0.058c-0.174-0.084-0.306-0.238-0.361-0.423l-0.368-1.224l-0.06,0.008
	c-0.266,0.038-0.536-0.093-0.678-0.326l-0.896-1.471c-0.041,0.006-0.084,0.007-0.124,0.008c-0.314,0-0.385-0.05-2.36-2.153
	c-0.046,0.009-0.084,0.01-0.143,0.012c-0.287,0-0.366-0.039-2.814-2.105c-0.183,0.028-0.369-0.01-0.523-0.123l-2.466-1.799
	C79.76,22.573,79.745,22.575,79.731,22.577z"/>
<path fill="#FFFFFF" d="M77.759,22.868c0.012,0.013,0.014,0.016-0.001,0.005C77.758,22.871,77.759,22.87,77.759,22.868
	c-0.062-0.067-0.451-0.431-0.451-0.431s0.06,2.011-0.268,2.204l-0.181-0.395l-0.754,2.134l-0.233-0.857l-1.418,2.118l-0.158-0.713
	l-0.905,2.295l-0.514-0.626l-0.484,2.625l-0.619-0.653l0.088,2.792l-0.49-0.496l0.515,3.321l-0.666-0.689l1.331,2.727l-0.688-0.371
	l1.735,2.227l-0.97-0.572c0.027,0.051,0.056,0.102,0.084,0.151l2.064,1.962l-1.052-0.486l1.806,1.945l-0.789-0.196l2.255,1.707
	l-0.911-0.376l1.115,0.677c0,0-0.014,0.007-0.035,0.019c0.486,0.199,1.004,0.33,1.545,0.393c10-7.812,1.786-20.692-1.326-24.971
	C77.541,20.999,77.857,22.45,77.759,22.868z"/>
<path fill="#1D1D1B" d="M78.71,45.994c-0.026,0-0.054-0.002-0.08-0.005c-0.604-0.07-1.184-0.218-1.727-0.44
	c-0.104-0.042-0.192-0.107-0.263-0.189l-0.914-0.555c-0.204-0.124-0.322-0.337-0.332-0.561l-1.07-0.81
	c-0.262-0.198-0.349-0.553-0.207-0.849c0.002-0.003,0.003-0.005,0.004-0.008l-0.903-0.973c-0.168-0.182-0.223-0.434-0.157-0.662
	l-0.825-0.784c-0.047-0.045-0.088-0.097-0.121-0.154l-0.095-0.17c-0.112-0.209-0.108-0.456,0-0.656l-0.703-0.902
	c-0.201-0.258-0.193-0.621,0.018-0.871c0.01-0.012,0.021-0.023,0.031-0.035L70.598,35.8c-0.149-0.306-0.054-0.674,0.225-0.869
	c0.049-0.035,0.102-0.062,0.156-0.082l-0.291-1.878c-0.046-0.296,0.104-0.588,0.372-0.723c0.024-0.012,0.049-0.023,0.074-0.032
	l-0.051-1.624c-0.009-0.287,0.16-0.549,0.425-0.66c0.138-0.058,0.287-0.068,0.427-0.035l0.263-1.425
	c0.049-0.265,0.247-0.477,0.507-0.544c0.151-0.037,0.306-0.024,0.441,0.033l0.508-1.286c0.111-0.282,0.382-0.459,0.697-0.436
	c0.063,0.005,0.125,0.019,0.184,0.04l0.764-1.141c0.139-0.207,0.381-0.326,0.621-0.305l0.289-0.818
	c0.066-0.188,0.21-0.335,0.388-0.409c0.023-0.335,0.033-0.753,0.021-1.15c-0.009-0.266,0.137-0.512,0.371-0.634
	c-0.06-0.345-0.149-0.788-0.277-1.333c-0.075-0.321,0.086-0.65,0.385-0.787c0.297-0.136,0.654-0.045,0.847,0.222
	c3.745,5.149,11.358,17.982,1.193,25.923C79.013,45.943,78.863,45.994,78.71,45.994z M77.645,44.353
	c0.277,0.099,0.567,0.173,0.866,0.224c7.642-6.219,3.445-15.868-0.088-21.479c-0.007,0.02-0.014,0.04-0.022,0.059
	c-0.079,0.181-0.229,0.315-0.41,0.377c-0.075,1.392-0.405,1.587-0.6,1.702c-0.055,0.032-0.114,0.057-0.175,0.073l-0.46,1.302
	c-0.101,0.285-0.38,0.455-0.677,0.46c-0.124-0.005-0.241-0.042-0.342-0.105l-0.71,1.06c-0.124,0.185-0.327,0.296-0.543,0.306
	l-0.452,1.146c-0.09,0.228-0.293,0.392-0.535,0.429c-0.055,0.008-0.109,0.01-0.161,0.006l-0.265,1.435
	c-0.047,0.256-0.234,0.463-0.483,0.537c-0.027,0.008-0.055,0.015-0.082,0.019l0.045,1.435c0.008,0.245-0.113,0.472-0.314,0.602
	l0.331,2.139c0.024,0.156-0.006,0.311-0.079,0.442l0.683,1.397c0.083,0.169,0.091,0.359,0.032,0.529l0.938,1.205
	c0.123,0.157,0.168,0.354,0.137,0.54l0.974,0.925c0.221,0.209,0.275,0.535,0.146,0.802l0.639,0.688
	c0.135,0.146,0.197,0.337,0.182,0.526l1.194,0.904C77.522,44.122,77.601,44.232,77.645,44.353z"/>
<path fill="#FFFFFF" d="M115.205,45.798l-1.69-1.599l0.594,0.137l-2.192-2.101l0.686,0.137c0,0-2.878-2.192-2.694-2.147
	c0.182,0.046,0.685,0,0.685,0s-3.288-1.873-3.105-1.827c0.183,0.045,0.685-0.137,0.685-0.137l-3.06-1.142l0.502-0.365l-2.969-0.686
	l0.548-0.229l-2.786-0.502l0.366-0.411l-3.243-0.091l0.319-0.411l-3.015,0.229l0.184-0.411L91.18,35.11l0.913-0.548l-4.064,1.142
	l0.867-0.594l-3.882,1.371c0,0-0.067-0.128-0.167-0.321c-9.909,3.311-14.048,9.389-6.458,11.009
	c0.519,0.111,5.515,2.864,14.636,1.804c9.121-1.061,11.771-3.182,16.12-3.394c3.149-0.154,5.18,0.082,6.062,0.223
	C115.208,45.801,115.205,45.798,115.205,45.798z"/>
<path fill="#1D1D1B" d="M88.943,49.906c-5.679,0-9.234-1.461-10.403-1.941c-0.149-0.062-0.255-0.107-0.317-0.126
	c-3.537-0.754-4.366-2.374-4.435-3.598c-0.169-3.002,4.188-6.514,10.841-8.737c0.238-0.08,0.498-0.021,0.679,0.14l3.358-1.186
	c0.251-0.088,0.522-0.024,0.706,0.15l2.535-0.712c0.251-0.07,0.512,0.007,0.685,0.186l2.273-0.514
	c0.254-0.058,0.521,0.033,0.687,0.236c0.025,0.03,0.048,0.063,0.066,0.097l2.179-0.166c0.25-0.017,0.531,0.122,0.66,0.362
	c0.014,0.024,0.024,0.049,0.035,0.074l2.3,0.065c0.269,0.007,0.509,0.17,0.615,0.417c0.023,0.056,0.04,0.114,0.049,0.172
	l1.859,0.335c0.258,0.046,0.464,0.234,0.538,0.479l1.915,0.442c0.264,0.061,0.468,0.27,0.522,0.535
	c0.014,0.07,0.017,0.141,0.01,0.209l2.112,0.789c0.271,0.101,0.45,0.361,0.449,0.651c0,0.053-0.007,0.105-0.019,0.156
	c0.585,0.341,1.36,0.787,2.09,1.203c0.263,0.149,0.397,0.452,0.334,0.747c-0.006,0.027-0.014,0.054-0.022,0.079
	c0.478,0.375,1.096,0.853,1.685,1.303c0.228,0.113,0.383,0.348,0.383,0.619c0,0.074-0.012,0.146-0.033,0.212l1.218,1.167
	c0.194,0.123,0.322,0.338,0.322,0.584c0,0.046-0.004,0.09-0.013,0.134l0.873,0.826c0.139,0.131,0.22,0.316,0.22,0.506
	c0,0.203-0.089,0.395-0.243,0.526c-0.153,0.131-0.359,0.191-0.558,0.157c-0.8-0.129-2.81-0.37-5.919-0.215
	c-1.862,0.091-3.417,0.552-5.385,1.137c-2.49,0.74-5.589,1.66-10.689,2.253C91.694,49.823,90.294,49.906,88.943,49.906z
	 M84.55,36.992c-6.237,2.19-9.487,5.299-9.382,7.171c0.079,1.418,2.143,2.068,3.366,2.33c0.085,0.018,0.264,0.083,0.531,0.193
	c1.106,0.455,4.472,1.837,9.878,1.837c1.298,0,2.645-0.08,4.002-0.238c4.981-0.58,8.017-1.481,10.456-2.206
	c2.057-0.611,3.682-1.093,5.711-1.192c1.698-0.083,3.078-0.055,4.138,0.013l-0.21-0.199c-0.174-0.165-0.247-0.403-0.205-0.629
	l-1.397-1.339c-0.15-0.144-0.224-0.343-0.211-0.542c-1.801-1.378-2.089-1.646-2.042-1.974c-2.032-1.164-2.416-1.424-2.42-1.744
	l-1.896-0.708c-0.238-0.089-0.408-0.302-0.442-0.554c-0.001-0.008-0.002-0.016-0.003-0.024l-1.935-0.447
	c-0.224-0.051-0.402-0.209-0.485-0.414l-1.721-0.31c-0.236-0.042-0.434-0.205-0.521-0.428l-2.253-0.063
	c-0.239-0.007-0.456-0.136-0.576-0.339l-2.048,0.155c-0.201,0.011-0.428-0.071-0.571-0.233l-2.981,0.674
	c-0.208,0.047-0.419-0.006-0.576-0.128l-2.541,0.713c-0.198,0.057-0.402,0.019-0.564-0.087l-2.406,0.85
	C84.999,37.219,84.733,37.159,84.55,36.992z"/>
<path fill="#FFFFFF" d="M97.561,13.592c0.044-0.073,0.07-0.118,0.07-0.121c0.674-1.336-0.035-3.052-1.585-3.833
	c-1.139-0.575-2.413-0.481-3.277,0.138c-0.255,0.153-0.503,0.39-0.733,0.742c-0.032,0.048-1.248,4.088-1.905,5.551
	c-1.924,4.049-5.265,9.971-7.073,12.793c-3.672,5.73-10.292,16.02-10.292,16.02c-1.482,2.228,0.311,4.112,1.461,4.705
	c3.728,1.869,4.998-0.008,4.998-0.008s10.127-20.8,14.893-30.317c0.496-0.813,2.761-4.53,3.365-5.538
	C97.51,13.681,97.535,13.636,97.561,13.592z"/>
<path fill="#1D1D1B" d="M77.173,51.106L77.173,51.106c-0.967,0-2.062-0.303-3.256-0.902c-0.844-0.435-1.945-1.416-2.295-2.763
	c-0.255-0.983-0.059-2.001,0.568-2.943l0,0c-0.001,0.001,6.615-10.282,10.285-16.01c1.81-2.824,5.143-8.742,7.031-12.717
	c0.484-1.079,1.325-3.745,1.684-4.884c0.209-0.663,0.209-0.663,0.272-0.757c0.269-0.41,0.59-0.732,0.951-0.949
	c0.995-0.719,2.629-0.825,3.944-0.162c0.897,0.452,1.591,1.185,1.953,2.062c0.378,0.913,0.355,1.872-0.062,2.7l-0.001,0
	c-0.026,0.054-0.059,0.107-0.095,0.167l-0.096,0.158c-0.588,0.981-2.854,4.7-3.351,5.514c-4.682,9.354-14.76,30.052-14.861,30.26
	C79.718,50.082,78.972,51.106,77.173,51.106z M92.659,10.83c-0.029,0.091-0.081,0.256-0.15,0.474
	c-0.397,1.26-1.224,3.881-1.747,5.047c-1.917,4.035-5.29,10.024-7.122,12.883c-3.672,5.731-10.293,16.021-10.293,16.021
	c-0.414,0.623-0.542,1.238-0.386,1.839c0.218,0.842,0.974,1.564,1.582,1.878c0.993,0.498,1.88,0.751,2.63,0.751
	c0.932,0,1.359-0.401,1.464-0.517c0.646-1.326,10.286-21.116,14.862-30.255c0.523-0.863,2.787-4.577,3.391-5.583l0.056,0.022
	c0.006-0.049,0.017-0.098,0.032-0.145l-0.011-0.007c0,0,0.036-0.06,0.049-0.082c0.233-0.463,0.239-1.013,0.019-1.547
	c-0.235-0.571-0.697-1.052-1.299-1.355c-0.856-0.433-1.901-0.392-2.563,0.083C92.966,10.463,92.805,10.621,92.659,10.83z"/>
<ellipse transform="matrix(0.8928 0.4505 -0.4505 0.8928 15.324 -41.6345)" fill="#FFFFFF" cx="95.13" cy="11.376" rx="2.567" ry="1.781"/>
<path fill="#1D1D1B" d="M95.827,14.034c-0.601,0-1.227-0.156-1.811-0.45c-0.925-0.466-1.611-1.208-1.885-2.035
	c-0.19-0.58-0.16-1.147,0.089-1.641c0.376-0.745,1.203-1.19,2.213-1.19c0.601,0,1.227,0.156,1.811,0.45
	c0.737,0.372,1.334,0.93,1.682,1.572c0.387,0.713,0.428,1.48,0.113,2.104C97.663,13.589,96.836,14.034,95.827,14.034z M94.433,10.1
	c-0.477,0-0.843,0.161-0.979,0.431c-0.102,0.201-0.062,0.429-0.01,0.585c0.154,0.467,0.611,0.94,1.193,1.233
	c0.877,0.442,1.92,0.36,2.166-0.128c0.147-0.292,0.005-0.641-0.094-0.823c-0.212-0.39-0.608-0.753-1.09-0.996
	C95.229,10.204,94.819,10.1,94.433,10.1z"/>
<path fill="#FFFFFF" d="M75.926,47.516c2.966-3.339,9.22-4.885,16.024-4.031c-0.138,0.358-0.228,0.599-0.228,0.599l4.499-0.109
	l-1.329,0.522l4.407,0.141l-1.319,0.49l3.943,0.311l-0.604,0.645l2.598,0.938l-0.714,0.613l2.418,1.58l-0.753,0.624l1.595,2.169
	l-0.688,0.21l1.522,2.64l-0.811,0.518l1.059,3.686c0,0-0.603,0.156-0.69-0.021c-0.09-0.177,0.285,5.275,0.285,5.275
	s-0.442-0.137-0.53-0.32c-0.088-0.185-0.426,5.964-0.426,5.964l-0.368-0.644l-0.777,5.797l-0.295-0.622l-0.57,4.405
	C102.676,71.199,96.65,47.206,75.926,47.516z"/>
<path fill="#1D1D1B" d="M104.173,79.587c-0.33,0-0.615-0.233-0.679-0.56c-1.803-9.267-8.059-30.823-27.171-30.823l-0.387,0.003
	c-0.004,0-0.008,0-0.011,0c-0.27,0-0.516-0.158-0.628-0.403c-0.114-0.249-0.071-0.542,0.111-0.747
	c2.537-2.856,7.236-4.495,12.894-4.495c1.225,0,2.481,0.08,3.733,0.237c0.211,0.027,0.398,0.149,0.507,0.331
	c0.045,0.075,0.075,0.157,0.089,0.241l3.573-0.087c0.317-0.004,0.627,0.225,0.694,0.554c0.002,0.01,0.004,0.021,0.006,0.031
	l2.417,0.077c0.33,0.011,0.606,0.253,0.66,0.58c0.003,0.022,0.006,0.044,0.007,0.066l1.989,0.157
	c0.265,0.021,0.494,0.191,0.59,0.439c0.076,0.197,0.058,0.416-0.045,0.594l1.628,0.587c0.231,0.083,0.401,0.284,0.445,0.525
	c0.045,0.242-0.043,0.489-0.229,0.649l-0.016,0.013l1.647,1.077c0.184,0.12,0.3,0.32,0.312,0.54c0.012,0.219-0.08,0.431-0.249,0.571
	l-0.251,0.208l1.208,1.643c0.133,0.181,0.17,0.415,0.1,0.627c-0.055,0.166-0.17,0.303-0.32,0.387l1.097,1.901
	c0.185,0.32,0.085,0.729-0.227,0.928l-0.376,0.24l0.916,3.189c0.052,0.179,0.028,0.372-0.063,0.534
	c-0.093,0.162-0.247,0.28-0.428,0.327c-0.022,0.005-0.083,0.021-0.166,0.037c0.046,0.97,0.162,2.82,0.277,4.501
	c0.016,0.227-0.082,0.448-0.261,0.589c-0.11,0.088-0.244,0.138-0.382,0.147c-0.087,1.12-0.211,3.145-0.312,4.993
	c-0.017,0.306-0.233,0.564-0.531,0.635c-0.002,0-0.005,0.001-0.007,0.001l-0.612,4.571c-0.035,0.258-0.21,0.471-0.448,0.558
	l-0.417,3.223c-0.044,0.336-0.324,0.591-0.664,0.602C104.187,79.587,104.179,79.587,104.173,79.587z M77.665,46.856
	c16.804,0.853,23.676,17.655,26.325,28.069l0.067-0.523c0.034-0.261,0.212-0.477,0.454-0.562l0.618-4.615
	c0.034-0.251,0.202-0.461,0.433-0.551c0.262-4.718,0.33-5.293,0.815-5.363c-0.305-4.455-0.283-4.478-0.034-4.745
	c0.079-0.085,0.179-0.148,0.286-0.184l-0.808-2.814c-0.085-0.294,0.034-0.609,0.292-0.773l0.254-0.162l-1.192-2.068
	c-0.105-0.182-0.122-0.403-0.044-0.599c0.046-0.119,0.124-0.221,0.224-0.296l-1.044-1.42c-0.217-0.295-0.166-0.708,0.115-0.942
	l0.031-0.026l-1.633-1.067c-0.183-0.119-0.298-0.316-0.312-0.534c-0.01-0.14,0.024-0.277,0.094-0.396l-1.522-0.55
	c-0.219-0.079-0.384-0.262-0.438-0.488c-0.018-0.071-0.022-0.144-0.018-0.215l-2.704-0.213c-0.309-0.024-0.562-0.25-0.623-0.551
	l-2.433-0.078c-0.293-0.009-0.544-0.202-0.634-0.473l-2.497,0.061c-0.227,0.006-0.445-0.103-0.579-0.29
	c-0.086-0.121-0.13-0.263-0.129-0.407c-0.917-0.089-1.832-0.134-2.729-0.134C83.938,43.945,80.106,45.012,77.665,46.856z"/>
<path fill="#FFFFFF" d="M101.501,75.13c-0.001-0.025-0.003-0.032-0.006-0.005C101.497,75.127,101.499,75.128,101.501,75.13
	c0.011,0.142,0.012,0.946,0.012,0.946s-2.322-2.45-2.915-2.365l0.268,0.643l-3.37-1.816l0.757,1.244l-4.091-1.158l0.671,1
	L89.1,71.76l0.173,1.239l-3.653-2.66l0.087,1.373l-3.216-3.408l0.042,1.062l-3.37-4.447l0.078,1.459l-1.757-4.523l-0.325,1.103
	l-0.716-4.316l-0.646,2.595c-0.029-0.088,0.128-5.56,0.128-5.56l-0.823,2.293l-0.071-4.754l-0.645,0.99l0.479-4.196L74.3,51.331
	c0,0,1.099-3.221,1.626-3.815c20.39-0.305,26.551,22.911,28.17,30.991C103.477,77.562,102.108,75.533,101.501,75.13z"/>
<path fill="#1D1D1B" d="M104.095,79.199c-0.228,0-0.447-0.113-0.578-0.313c-0.641-0.979-1.174-1.732-1.582-2.263
	c-0.05,0.039-0.105,0.071-0.166,0.096c-0.265,0.105-0.563,0.038-0.759-0.167c-0.551-0.581-1.214-1.215-1.729-1.647
	c-0.214,0.163-0.505,0.188-0.745,0.058l-1.656-0.893c-0.021,0.045-0.048,0.089-0.079,0.13c-0.173,0.226-0.465,0.324-0.738,0.247
	l-2.548-0.722c-0.019,0.129-0.074,0.252-0.165,0.354c-0.206,0.237-0.548,0.306-0.827,0.162l-2.56-1.278
	c0.013,0.254-0.114,0.497-0.335,0.629c-0.238,0.142-0.538,0.129-0.763-0.034l-2.47-1.798c-0.018,0.255-0.175,0.482-0.414,0.586
	c-0.269,0.116-0.578,0.052-0.778-0.159l-2.191-2.323c-0.068,0.066-0.152,0.119-0.246,0.153c-0.284,0.101-0.603,0.006-0.784-0.233
	l-2.229-2.941c-0.094,0.104-0.221,0.18-0.366,0.211c-0.338,0.068-0.667-0.11-0.79-0.425l-1.177-3.03
	c-0.094,0.038-0.197,0.056-0.303,0.05c-0.322-0.02-0.587-0.259-0.64-0.577l-0.219-1.32c-0.117,0.104-0.27,0.169-0.434,0.175
	c-0.332,0.015-0.586-0.18-0.683-0.472c-0.04-0.118-0.059-0.176,0.009-2.796c-0.051,0.004-0.106,0.001-0.162-0.008
	c-0.33-0.055-0.573-0.337-0.578-0.671l-0.046-3.083c-0.071-0.002-0.143-0.016-0.213-0.041c-0.301-0.108-0.488-0.41-0.452-0.729
	l0.251-2.199c-0.279-0.163-0.413-0.504-0.306-0.82c0.269-0.787,1.188-3.403,1.764-4.051c0.128-0.145,0.312-0.229,0.506-0.232
	l0.408-0.003c19.862,0,26.477,21.822,28.418,31.392c0.042,0.09,0.065,0.188,0.065,0.294c0,0.382-0.31,0.691-0.691,0.691
	C104.109,79.198,104.104,79.199,104.095,79.199z M101.99,74.632c0.185,0.146,0.409,0.376,0.673,0.69
	c-2.578-10.151-9.422-27.118-26.34-27.118l-0.028,0c-0.19,0.348-0.464,0.989-0.744,1.712c0.007,0.055,0.008,0.112,0.001,0.17
	l-0.282,2.479c0.267,0.098,0.448,0.351,0.453,0.639l0.026,1.803c0.097-0.026,0.198-0.031,0.305-0.011
	c0.334,0.063,0.572,0.359,0.562,0.699c-0.019,0.665-0.041,1.473-0.062,2.263c0.289,0.047,0.521,0.273,0.57,0.569l0.438,2.64
	c0.252,0.028,0.472,0.194,0.565,0.436l1.019,2.624c0.213-0.022,0.43,0.093,0.566,0.273l2.429,3.205
	c0.026-0.015,0.053-0.028,0.081-0.04c0.265-0.111,0.572-0.046,0.771,0.163l2.033,2.155c0.062-0.103,0.15-0.19,0.26-0.251
	c0.235-0.129,0.522-0.11,0.74,0.047l2.418,1.76c0.045-0.136,0.132-0.256,0.252-0.343c0.209-0.149,0.483-0.171,0.712-0.057
	l2.183,1.09c0.003-0.005,0.007-0.01,0.01-0.015c0.171-0.233,0.469-0.337,0.748-0.259l2.465,0.698
	c-0.037-0.211,0.025-0.433,0.18-0.595c0.215-0.228,0.556-0.279,0.829-0.133l2.328,1.255c0.098-0.083,0.218-0.139,0.349-0.157
	c0.032-0.004,0.097-0.009,0.13-0.009c0.196,0,0.736,0,2.399,1.59C101.288,74.362,101.746,74.376,101.99,74.632z"/>
<path fill="#FFFFFF" d="M77.08,46.523c-0.626-3.038-4.764-6.275-10.565-8.334c-0.076,0.258-0.129,0.431-0.129,0.431l-3.49-1.75
	l0.78,0.799l-3.547-1.572l0.789,0.778l-3.269-1.3l0.146,0.599l-2.529-0.434l0.25,0.622L52.8,36.365l0.273,0.642l-2.369,0.653
	l0.436,0.379l-2.555,0.952l0.373,0.603l-2.724,1.728c0,0,0.395,0.316,0.555,0.247c0.161-0.069-2.931,2.935-2.931,2.935
	s0.42,0.087,0.584,0.014c0.163-0.073-2.724,3.599-2.724,3.599l0.62-0.233l-2.359,3.634l0.551-0.249l-1.809,2.754
	C43.848,50.146,60.9,38.571,77.08,46.523z"/>
<path fill="#1D1D1B" d="M38.721,54.713c-0.17,0-0.34-0.063-0.472-0.187c-0.246-0.23-0.29-0.603-0.105-0.884l1.207-1.838
	c-0.097-0.211-0.083-0.462,0.049-0.665l1.729-2.664c-0.15-0.245-0.134-0.56,0.046-0.788c0.78-0.992,1.613-2.067,2.138-2.761
	c-0.053-0.068-0.093-0.146-0.118-0.232c-0.072-0.246-0.001-0.51,0.182-0.688c0.841-0.817,1.742-1.702,2.306-2.269
	c-0.098-0.129-0.148-0.29-0.139-0.455c0.012-0.223,0.131-0.426,0.32-0.545l2.146-1.362l-0.013-0.021
	c-0.109-0.176-0.133-0.392-0.066-0.588c0.067-0.196,0.218-0.351,0.413-0.424l1.672-0.623c-0.006-0.07-0.001-0.142,0.015-0.213
	c0.056-0.248,0.245-0.445,0.49-0.513l1.613-0.444c-0.053-0.191-0.021-0.397,0.089-0.565c0.127-0.193,0.344-0.31,0.576-0.311
	l1.78-0.002c0.013-0.132,0.064-0.259,0.15-0.366c0.157-0.195,0.405-0.292,0.655-0.247l1.618,0.277
	c0.04-0.107,0.105-0.205,0.195-0.283c0.195-0.17,0.469-0.218,0.709-0.121l1.725,0.686c0.198-0.207,0.508-0.273,0.779-0.153
	l2.02,0.895c0.207-0.191,0.516-0.24,0.777-0.108l2.844,1.426c0.045-0.041,0.096-0.076,0.151-0.104
	c0.168-0.086,0.367-0.1,0.545-0.036c6.011,2.133,10.191,5.445,10.974,8.678c0.046,0.092,0.071,0.197,0.071,0.307
	c0,0.382-0.31,0.691-0.691,0.691c-0.005,0-0.012,0-0.02,0c-0.104,0-0.208-0.023-0.305-0.071c-3.589-1.764-7.488-2.658-11.59-2.658
	c-11.052,0-21.063,6.32-26.047,10.087C39.014,54.667,38.868,54.713,38.721,54.713z M41.156,50.974
	c0.063,0.135,0.082,0.287,0.052,0.432c5.612-3.753,14.392-8.302,23.978-8.302c3.719,0,7.28,0.699,10.613,2.082
	c-1.344-2.23-4.599-4.494-8.889-6.115c-0.068,0.079-0.154,0.143-0.252,0.185c-0.188,0.081-0.401,0.073-0.583-0.018l-2.001-1.004
	c-0.194,0.136-0.451,0.167-0.679,0.067l-2.03-0.9c-0.191,0.163-0.462,0.213-0.703,0.116l-2.319-0.922
	c-0.013,0.017-0.027,0.034-0.042,0.05c-0.159,0.17-0.393,0.25-0.622,0.21l-1.512-0.259c-0.019,0.053-0.045,0.104-0.078,0.153
	c-0.128,0.19-0.342,0.304-0.572,0.305l-1.755,0.002c-0.006,0.086-0.028,0.172-0.067,0.252c-0.087,0.18-0.247,0.313-0.439,0.366
	l-1.427,0.393c-0.001,0.032-0.004,0.064-0.01,0.096c-0.043,0.24-0.21,0.439-0.439,0.524l-1.776,0.662
	c0.114,0.301,0.005,0.649-0.276,0.828l-1.871,1.187c0.157,0.402,0.067,0.537-2.363,2.902c0.181,0.385,0.107,0.533-2.113,3.363
	c0.081,0.204,0.062,0.44-0.063,0.631L41.156,50.974z"/>
<path fill="#FFFFFF" d="M42.759,52.853c0.014-0.014,0.02-0.017,0.008,0C42.763,52.853,42.76,52.853,42.759,52.853
	c-0.082,0.078-0.494,0.542-0.494,0.542s3.086-0.542,3.51-0.271l-0.539,0.271l3.588,0.216l-1.235,0.434l3.819,0.866l-1.041,0.326
	l3.896,0.325l-0.771,0.65l4.242-0.163l-0.771,0.758l4.283-0.758l-0.579,0.595l4.938-1.299l-0.811,0.812l3.703-1.949l-0.309,0.758
	l2.777-2.221l-0.512,1.079c0.068-0.039,0.136-0.079,0.201-0.118l2.24-2.477l-0.347,1.137l2.313-2.221v0.812l1.774-2.599
	l-0.231,0.975l0.618-1.246c0,0,0.016,0.012,0.041,0.03c0.122-0.52,0.126-1.054,0.016-1.594c-15.917-7.823-32.679,3.252-38.099,7.304
	C39.952,53.514,42.074,52.858,42.759,52.853z"/>
<path fill="#1D1D1B" d="M56.962,57.497c-0.255,0-0.495-0.142-0.614-0.375c-0.054-0.104-0.079-0.215-0.077-0.327l-2.753,0.106
	c-0.297,0.004-0.564-0.166-0.671-0.441c-0.042-0.106-0.055-0.219-0.042-0.327l-2.496-0.208c-0.329-0.028-0.593-0.285-0.629-0.613
	c-0.003-0.028-0.004-0.057-0.004-0.085l-2.24-0.507c-0.266-0.061-0.468-0.27-0.523-0.531l-1.718-0.104
	c-0.225-0.014-0.423-0.135-0.54-0.316c-0.977,0.082-2.254,0.305-2.27,0.307c-0.282,0.053-0.563-0.078-0.71-0.321
	c-0.646,0.165-1.508,0.417-2.48,0.731c-0.319,0.105-0.67-0.04-0.826-0.34c-0.155-0.3-0.07-0.668,0.2-0.871
	c5.081-3.798,15.296-10.17,26.618-10.17c4.315,0,8.42,0.942,12.199,2.8c0.192,0.094,0.33,0.272,0.372,0.482
	c0.131,0.64,0.125,1.276-0.02,1.89c-0.033,0.14-0.108,0.265-0.213,0.358l-0.5,1.007c-0.131,0.263-0.416,0.413-0.686,0.381
	l-0.905,1.326c-0.172,0.251-0.488,0.36-0.775,0.271c-0.08-0.025-0.152-0.063-0.216-0.112l-1.415,1.358
	c-0.212,0.203-0.527,0.249-0.788,0.12l-1.071,1.185c-0.046,0.051-0.1,0.094-0.158,0.129l-0.213,0.125
	c-0.242,0.139-0.542,0.117-0.761-0.05l-1.416,1.132c-0.247,0.196-0.593,0.201-0.845,0.014c-0.039-0.029-0.073-0.061-0.104-0.096
	l-2.555,1.345c-0.302,0.159-0.675,0.073-0.878-0.202c-0.03-0.041-0.055-0.083-0.075-0.128l-3.321,0.874
	c-0.302,0.077-0.617-0.052-0.773-0.32c-0.006-0.01-0.011-0.02-0.017-0.03l-2.97,0.525C57.042,57.493,57.001,57.497,56.962,57.497z
	 M57.733,55.356c0.275,0,0.525,0.164,0.635,0.417c0.011,0.025,0.02,0.05,0.027,0.076l2.729-0.483
	c0.265-0.046,0.518,0.06,0.672,0.264l3.632-0.956c0.189-0.049,0.382-0.017,0.54,0.081l2.207-1.162
	c0.2-0.104,0.434-0.105,0.629-0.007l1.73-1.383c0.187-0.149,0.433-0.188,0.651-0.115l1.197-1.324
	c0.216-0.241,0.571-0.298,0.854-0.138c0.026,0.015,0.051,0.031,0.074,0.049l1.073-1.03c0.175-0.167,0.424-0.23,0.653-0.17
	l1.028-1.507c0.093-0.136,0.227-0.229,0.375-0.273c0.032-0.232,0.036-0.468,0.012-0.708c-3.499-1.66-7.288-2.502-11.267-2.502
	c-8.94,0-17.211,4.153-22.63,7.688c0.024-0.002,0.047-0.004,0.069-0.006c0.302-0.071,0.617,0.081,0.759,0.352
	c0,0.001,0.001,0.001,0.001,0.002c0.622-0.084,1.349-0.166,1.861-0.166c0.434,0,0.695,0.054,0.9,0.185
	c0.092,0.059,0.167,0.138,0.222,0.229l2.496,0.15c0.329,0.02,0.598,0.269,0.643,0.594c0.012,0.086,0.007,0.172-0.011,0.253
	l2.063,0.468c0.237,0.054,0.423,0.227,0.5,0.448l2.26,0.188c0.279,0.023,0.516,0.212,0.601,0.479
	c0.012,0.037,0.02,0.075,0.025,0.112l2.76-0.106C57.716,55.357,57.724,55.356,57.733,55.356z"/>
</svg>
