<svg xmlns="http://www.w3.org/2000/svg" width="24" height="21" viewBox="0 0 24 21" fill="none">
    <g clip-path="url(#clip0_4840_14930)">
        <path d="M18.375 6.5625V7.875H19.6875V6.5625C19.6875 5.11465 18.5104 3.9375 17.0625 3.9375H12.2432C11.5459 3.9375 10.8773 3.6627 10.3852 3.17051L9.29824 2.07949C8.80605 1.5873 8.1375 1.3125 7.44023 1.3125H2.625C1.17715 1.3125 0 2.48965 0 3.9375V17.0625C0 18.5104 1.17715 19.6875 2.625 19.6875H15.75H19.0312C19.8352 19.6875 20.5611 19.1994 20.8605 18.4488L23.4855 11.8863C23.7275 11.2793 23.6537 10.5943 23.2887 10.0529C22.9236 9.51152 22.3084 9.1875 21.6562 9.1875H5.25C4.44609 9.1875 3.72012 9.67559 3.4207 10.4262L1.3125 15.7008V3.9375C1.3125 3.21152 1.89902 2.625 2.625 2.625H7.44434C7.79297 2.625 8.1252 2.76445 8.37129 3.01055L9.4582 4.09746C10.1965 4.83574 11.1973 5.25 12.2432 5.25H17.0625C17.7885 5.25 18.375 5.83652 18.375 6.5625ZM15.75 18.375H2.625C2.40762 18.375 2.20254 18.2684 2.08359 18.0879C1.96465 17.9074 1.93594 17.6777 2.01797 17.4768L4.64297 10.9143C4.74141 10.6641 4.9834 10.5 5.2541 10.5H21.6604C21.8777 10.5 22.0828 10.6066 22.2018 10.7871C22.3207 10.9676 22.3494 11.1973 22.2674 11.3982L19.6424 17.9607C19.5398 18.2109 19.2979 18.375 19.0312 18.375H15.75Z" fill="#0098AA"/>
    </g>
    <defs>
        <clipPath id="clip0_4840_14930">
            <rect width="23.625" height="21" fill="white"/>
        </clipPath>
    </defs>
</svg>