<svg xmlns="http://www.w3.org/2000/svg" width="98" height="107" viewBox="0 0 98 107" fill="none">
  <g clip-path="url(#clip0_2331_3232)">
    <path d="M40.4739 106.051L87.3526 90.4048C87.7239 90.2811 87.7098 89.7551 87.333 89.6482L65.5586 83.5086C64.8583 83.3117 64.1158 83.3286 63.4239 83.5592L17.6505 98.8339C17.2398 98.9717 17.2539 99.5539 17.6701 99.672L40.3051 106.054C40.3614 106.068 40.4176 106.068 40.4739 106.051Z" fill="#E2E1E1"/>
    <path d="M22.7326 100.901L1.16352 94.4213C0.890703 94.3398 0.705078 94.0895 0.705078 93.8054V24.9835C0.705078 24.5504 1.12133 24.241 1.53477 24.3676L23.1123 30.8448C23.4104 30.9291 23.6157 31.202 23.6157 31.5141V100.235C23.6157 100.696 23.1741 101.031 22.7298 100.904L22.7326 100.901Z" fill="white"/>
    <path d="M22.9238 101.354C22.8198 101.354 22.7157 101.34 22.6145 101.309H22.6088L1.04258 94.8288C0.586958 94.691 0.280396 94.2804 0.280396 93.8023V24.9832C0.280396 24.6401 0.437896 24.3279 0.710708 24.1254C0.986333 23.9201 1.32946 23.861 1.65852 23.9595L23.236 30.4366C23.7085 30.5716 24.0432 31.016 24.0432 31.5138V100.234C24.0432 100.589 23.8801 100.915 23.5988 101.129C23.402 101.278 23.1657 101.357 22.9266 101.357L22.9238 101.354ZM22.8507 100.493C22.9604 100.524 23.0448 100.479 23.0841 100.448C23.1235 100.417 23.191 100.35 23.191 100.234V31.5138C23.191 31.3957 23.1123 31.2888 22.997 31.2551L1.41383 24.7751C1.32102 24.747 1.25352 24.7835 1.21977 24.8088C1.18602 24.8341 1.13258 24.8876 1.13258 24.9832V93.8023C1.13258 93.9007 1.19446 93.9823 1.28727 94.0104L22.8507 100.49V100.493Z" fill="#343A40"/>
    <path d="M23.7449 101.113L71.1017 85.3091C71.5208 85.1685 71.802 84.7775 71.802 84.336V15.3538C71.802 15.1344 71.5855 14.9797 71.3774 15.0472L23.683 30.966C23.6436 30.98 23.6155 31.0166 23.6155 31.0588V101.02C23.6155 101.087 23.6802 101.132 23.742 101.113H23.7449Z" fill="white"/>
    <path d="M23.714 101.543C23.6044 101.543 23.4975 101.509 23.4075 101.444C23.2725 101.346 23.1909 101.188 23.1909 101.02V31.0588C23.1909 30.8338 23.3344 30.6341 23.5481 30.5638L71.2425 14.6451C71.4703 14.5691 71.7206 14.6085 71.9175 14.7463C72.1115 14.8869 72.2269 15.1148 72.2269 15.3538V84.3332C72.2269 84.9604 71.8275 85.5144 71.234 85.7113L23.8772 101.515C23.8237 101.532 23.7675 101.543 23.7112 101.543H23.714ZM24.0431 31.2951V100.561L70.964 84.9013C71.2087 84.8198 71.3747 84.5891 71.3747 84.3304V15.5001L24.0431 31.2979V31.2951Z" fill="#343A40"/>
    <path d="M23.7 30.8813L70.5787 15.2354C70.95 15.1116 70.9359 14.5857 70.559 14.4788L48.7847 8.33912C48.0843 8.14225 47.3418 8.15912 46.65 8.38975L0.876535 23.6672C0.46591 23.8051 0.479973 24.3872 0.896223 24.5054L23.5312 30.8869C23.5875 30.901 23.6437 30.901 23.7 30.8841V30.8813Z" fill="white"/>
    <path d="M23.61 31.3226C23.5454 31.3226 23.4807 31.3142 23.4188 31.2973L0.780976 24.9157C0.412538 24.8117 0.159413 24.4854 0.150976 24.1029C0.142538 23.7204 0.378788 23.3829 0.741601 23.262L46.515 7.98731C47.2885 7.72856 48.1125 7.70887 48.9 7.93106L70.6744 14.0707C71.0232 14.1692 71.265 14.4786 71.2735 14.8414C71.2819 15.2042 71.0569 15.5248 70.711 15.6401L23.8322 31.2861C23.7591 31.3114 23.6832 31.3226 23.6072 31.3226H23.61ZM1.00598 24.0917C1.00598 24.0917 1.00879 24.0917 1.01441 24.0917L23.6072 30.4592L70.351 14.8611L48.6694 8.74669C48.0478 8.57231 47.3982 8.58637 46.7879 8.79169L1.0116 24.072L1.00316 24.0748C1.00316 24.0748 1.00316 24.0889 1.00316 24.0917H1.00598Z" fill="#343A40"/>
    <path d="M28.3745 51.9803L68.0055 38.5281C68.3739 38.4015 68.6242 38.0556 68.6242 37.6647V22.2353C68.6242 21.6109 68.0111 21.1722 67.4205 21.3719L27.7895 34.824C27.4211 34.9506 27.1708 35.2965 27.1708 35.6875V51.1169C27.1708 51.7412 27.7839 52.18 28.3745 51.9803Z" fill="white"/>
    <path d="M28.0792 52.4585C27.8064 52.4585 27.5364 52.3742 27.3058 52.2054C26.9514 51.9523 26.7489 51.5557 26.7489 51.1198V35.6904C26.7489 35.1167 27.1145 34.6076 27.6573 34.4248L67.2883 20.9726C67.7017 20.832 68.1433 20.8967 68.4977 21.1526C68.852 21.4057 69.0545 21.8023 69.0545 22.2382V37.6676C69.0545 38.2413 68.6889 38.7504 68.1461 38.9332L28.5152 52.3854C28.3717 52.4332 28.2255 52.4585 28.082 52.4585H28.0792ZM67.7158 21.7517C67.6623 21.7517 67.6089 21.7601 67.5583 21.777L27.9273 35.2292C27.7305 35.2967 27.5983 35.4795 27.5983 35.6876V51.117C27.5983 51.2745 27.6714 51.4179 27.8008 51.5107C27.9302 51.6035 28.0905 51.626 28.2395 51.5754L67.8705 38.1232C68.0673 38.0557 68.1995 37.8729 68.1995 37.6648V22.2354C68.1995 22.0779 68.1264 21.9345 67.997 21.8417C67.9127 21.7826 67.8142 21.7517 67.7158 21.7517Z" fill="#343A40"/>
    <path d="M27.9497 73.2712L68.2247 59.5996C68.4638 59.518 68.6241 59.293 68.6241 59.0427V42.9327C68.6241 42.5305 68.2275 42.2465 67.845 42.3758L27.57 56.0474C27.331 56.129 27.1707 56.354 27.1707 56.6043V72.7143C27.1707 73.1165 27.5672 73.4005 27.9497 73.2712Z" fill="white"/>
    <path d="M27.7614 73.7294C27.5505 73.7294 27.3452 73.6647 27.1708 73.541C26.9064 73.3497 26.7461 73.0431 26.7461 72.7169V56.6069C26.7461 56.171 27.0217 55.7856 27.4352 55.645L67.7102 41.9735C68.0195 41.8694 68.3627 41.92 68.627 42.1085C68.8914 42.2969 69.0517 42.6063 69.0517 42.9325V59.0425C69.0517 59.4785 68.7761 59.8638 68.3627 60.0044L28.0877 73.6759C27.9808 73.7125 27.8711 73.7294 27.7614 73.7294ZM27.812 72.8688L68.087 59.1972C68.1517 59.1747 68.1967 59.1128 68.1967 59.0425V42.9325C68.1967 42.8594 68.1545 42.82 68.1292 42.8003C68.1039 42.7834 68.0505 42.7553 67.983 42.7778L27.708 56.4494C27.6433 56.4719 27.5983 56.5338 27.5983 56.6041V72.7141C27.5983 72.7872 27.6405 72.8266 27.6658 72.8463C27.6911 72.8631 27.7445 72.8913 27.812 72.8688Z" fill="#343A40"/>
    <path d="M28.4251 94.6687L67.983 81.2418C68.3683 81.1124 68.627 80.7496 68.627 80.3446V64.994C68.627 64.3443 67.9886 63.8887 67.3755 64.0968L27.8176 77.5237C27.4323 77.6531 27.1736 78.0159 27.1736 78.4209V93.7715C27.1736 94.4212 27.812 94.8768 28.4251 94.6687Z" fill="white"/>
    <path d="M28.1158 95.1467C27.8345 95.1467 27.5589 95.0596 27.3198 94.888C26.9542 94.6264 26.7461 94.2186 26.7461 93.7714V78.4208C26.7461 77.833 27.1202 77.3099 27.677 77.1186L67.2348 63.6918C67.6595 63.5483 68.1123 63.6158 68.4752 63.8774C68.8408 64.1389 69.0489 64.5467 69.0489 64.9939V80.3446C69.0489 80.9324 68.6748 81.4555 68.118 81.6467L28.5602 95.0736C28.4139 95.1243 28.262 95.1467 28.113 95.1467H28.1158ZM67.6792 64.4708C67.623 64.4708 67.5667 64.4792 67.5105 64.4989L27.9527 77.9258C27.7417 77.9989 27.5983 78.1958 27.5983 78.4208V93.7714C27.5983 93.943 27.677 94.0949 27.8148 94.1961C27.9527 94.2974 28.1242 94.3199 28.2873 94.2664L67.8452 80.8396C68.0561 80.7664 68.1995 80.5696 68.1995 80.3446V64.9939C68.1995 64.8224 68.1208 64.6705 67.983 64.5692C67.893 64.5046 67.7889 64.4708 67.682 64.4708H67.6792Z" fill="#343A40"/>
    <path opacity="0.2" d="M71.8022 68.04L27.1707 93.7716V73.7325L71.8022 68.04Z" fill="#343A40"/>
    <path d="M82.1833 63.6889L68.8408 59.8864C68.7115 59.8499 68.6243 59.7317 68.6243 59.5967L68.6721 42.6908C68.6721 42.4911 68.8633 42.3477 69.0546 42.4039L83.4433 46.5045C83.5727 46.5411 83.6627 46.6592 83.6599 46.7942L83.6093 62.6117C83.6093 63.357 82.8977 63.8942 82.1833 63.6889Z" fill="white"/>
    <path d="M82.4953 64.1587C82.3519 64.1587 82.2084 64.139 82.0678 64.0996L68.7253 60.2971C68.4131 60.2071 68.1966 59.9203 68.1994 59.5968L68.2472 42.6909C68.2472 42.4603 68.3541 42.2521 68.5369 42.1115C68.7197 41.9737 68.9531 41.9315 69.1725 41.9934L83.5612 46.094C83.8734 46.184 84.09 46.4709 84.0872 46.7943L84.0366 62.6118C84.0366 63.1012 83.8116 63.5512 83.4206 63.8437C83.1478 64.049 82.8244 64.1559 82.4925 64.1559L82.4953 64.1587ZM82.3012 63.2784C82.5122 63.3375 82.7344 63.2981 82.9087 63.1659C83.0831 63.0337 83.1844 62.8312 83.1844 62.6118L83.235 46.89L69.0994 42.8596L69.0516 59.5012L82.3012 63.2784Z" fill="#343A40"/>
    <path d="M42.4426 78.0046L82.9004 64.2711C83.3251 64.1277 83.612 63.7283 83.612 63.2783V46.6761L42.1586 60.7471V77.7993C42.1586 77.9455 42.302 78.0496 42.4426 78.0018V78.0046Z" fill="white"/>
    <path d="M42.3723 78.4435C42.2401 78.4435 42.108 78.4013 41.9983 78.3226C41.8295 78.2016 41.7311 78.0076 41.7311 77.8023V60.4435L84.0367 46.0829V63.2785C84.0367 63.9113 83.6345 64.471 83.0355 64.6735L42.5776 78.4069C42.5101 78.4295 42.4426 78.4407 42.3723 78.4407V78.4435ZM42.5861 61.0566V77.5098L82.7655 63.872C83.0186 63.7876 83.1873 63.5485 83.1873 63.2841V47.2782L42.5861 61.0595V61.0566Z" fill="#343A40"/>
    <path d="M41.3597 78.0049L27.39 74.0223C27.2607 73.9858 27.1707 73.8677 27.1707 73.7327V56.6355C27.1707 56.5342 27.2663 56.4611 27.3647 56.4892L42.0488 60.6742C42.1135 60.6939 42.1585 60.753 42.1585 60.8205V77.403C42.1585 77.8192 41.7619 78.1202 41.3597 78.0049Z" fill="white"/>
    <path d="M41.537 78.4576C41.4414 78.4576 41.343 78.4435 41.2445 78.4154L27.2748 74.4329C26.9627 74.3429 26.7461 74.056 26.7461 73.7326V56.6354C26.7461 56.4526 26.8305 56.2838 26.9767 56.1742C27.123 56.0645 27.3086 56.0307 27.483 56.0785L42.167 60.2635C42.4145 60.3339 42.5861 60.5617 42.5861 60.8204V77.4029C42.5861 77.7348 42.4342 78.0414 42.167 78.2439C41.9814 78.3845 41.762 78.4576 41.537 78.4576ZM41.478 77.597C41.5623 77.6195 41.6242 77.5857 41.6523 77.5632C41.6805 77.5407 41.7311 77.4901 41.7311 77.4029V61.0257L27.5955 56.9954V73.637L41.4752 77.5942L41.478 77.597Z" fill="#343A40"/>
    <path opacity="0.2" d="M57.228 37.0435C57.228 37.71 56.8033 38.3007 56.1705 38.5144L45.1709 42.1988C44.8812 42.2944 44.569 42.3057 44.2765 42.2269L43.8152 42.1032C43.1374 41.9203 42.6677 41.3072 42.6677 40.6069V39.3132C42.6677 38.5735 43.1909 37.935 43.9165 37.7916L55.3774 35.5275C56.3365 35.3391 57.228 36.0703 57.228 37.0491V37.0435Z" fill="#343A40"/>
    <path opacity="0.2" d="M70.5817 62.8059C70.5817 63.4725 70.157 64.0631 69.5242 64.2769L58.5245 67.9612C58.2348 68.0569 57.9226 68.0681 57.6301 67.9894L57.1689 67.8656C56.4911 67.6828 56.0214 67.0697 56.0214 66.3694V65.0756C56.0214 64.3359 56.5445 63.6975 57.2701 63.554L68.7311 61.29C69.6901 61.1015 70.5817 61.8328 70.5817 62.8115V62.8059Z" fill="#343A40"/>
    <path opacity="0.2" d="M57.3743 80.1675C57.3743 80.8341 56.9496 81.4247 56.3168 81.6384L45.3171 85.3228C45.0274 85.4184 44.7152 85.4297 44.4227 85.3509L43.9615 85.2272C43.2837 85.0444 42.814 84.4312 42.814 83.7309V82.4372C42.814 81.6975 43.3371 81.0591 44.0627 80.9156L55.5237 78.6515C56.4827 78.4631 57.3743 79.1944 57.3743 80.1731V80.1675Z" fill="#343A40"/>
    <path d="M56.0524 33.8235C55.8612 33.7363 55.6446 33.6716 55.4112 33.6379L54.4521 33.5001C53.2905 33.3313 52.2077 33.9669 52.2077 34.8163V34.9119C52.2077 34.9372 52.2077 34.9626 52.2105 34.9851L46.383 36.861C46.158 36.9369 45.919 36.9538 45.6855 36.906L44.2737 36.6219C43.4412 36.4532 42.6649 37.0888 42.6649 37.9382V38.0338C42.6649 38.6722 43.1149 39.2235 43.7421 39.3501L45.6827 39.741C45.9162 39.7888 46.1552 39.7719 46.3802 39.696L56.314 36.4279C56.8596 36.2422 57.2252 35.7304 57.2252 35.1566C57.2252 34.4507 56.6909 33.9051 56.0496 33.8235H56.0524Z" fill="#707070"/>
    <path d="M45.9527 40.1934C45.8346 40.1934 45.7193 40.1821 45.604 40.1596L43.6634 39.7687C42.8421 39.6028 42.243 38.8743 42.243 38.0334V37.9378C42.243 37.4062 42.4793 36.9056 42.8927 36.5681C43.3062 36.2306 43.8405 36.0984 44.3637 36.2025L45.7727 36.4865C45.9302 36.5175 46.0962 36.509 46.248 36.4556H46.2537L51.7887 34.6753C51.828 34.29 52.0249 33.9271 52.3568 33.6403C52.8912 33.179 53.7152 32.9625 54.514 33.0778L55.473 33.2156C55.7205 33.2521 55.954 33.3168 56.1705 33.4096C57.0199 33.5503 57.6527 34.2871 57.6527 35.1562C57.6527 35.9156 57.169 36.5878 56.4518 36.8325L46.5124 40.1034C46.3324 40.1653 46.1412 40.1962 45.9471 40.1962L45.9527 40.1934ZM44.0093 37.0209C43.8012 37.0209 43.5959 37.094 43.4299 37.229C43.2162 37.4034 43.0952 37.6621 43.0952 37.9378V38.0334C43.0952 38.4693 43.4046 38.8462 43.8293 38.9306L45.7699 39.3215C45.9274 39.3525 46.0934 39.344 46.2452 39.2906L56.1846 36.0196C56.553 35.8959 56.8034 35.5471 56.8034 35.1534C56.8034 34.6921 56.4574 34.3012 56.0018 34.2421C55.9596 34.2365 55.9174 34.2253 55.878 34.2056C55.7177 34.1325 55.5434 34.0818 55.3549 34.0537L54.3959 33.9159C53.8362 33.8343 53.2709 33.975 52.9193 34.2787C52.7899 34.3884 52.638 34.5712 52.638 34.8103V34.9059C52.638 34.9059 52.638 34.934 52.638 34.9481C52.6521 35.145 52.5312 35.325 52.3427 35.3868L46.518 37.26C46.2227 37.3584 45.9077 37.3781 45.604 37.319L44.1949 37.0349C44.133 37.0237 44.074 37.0181 44.0121 37.0181L44.0093 37.0209Z" fill="#343A40"/>
    <path d="M69.4059 59.5521C69.2147 59.4649 68.9981 59.4003 68.7647 59.3665L67.8056 59.2287C66.6441 59.0599 65.5612 59.6956 65.5612 60.5449V60.6406C65.5612 60.6659 65.5612 60.6912 65.5641 60.7137L59.7366 62.5896C59.5116 62.6656 59.2725 62.6824 59.0391 62.6346L57.6272 62.3506C56.7947 62.1818 56.0184 62.8174 56.0184 63.6668V63.7624C56.0184 64.4009 56.4684 64.9521 57.0956 65.0787L59.0362 65.4696C59.2697 65.5174 59.5087 65.5006 59.7337 65.4246L69.6675 62.1565C70.2131 61.9709 70.5787 61.459 70.5787 60.8853C70.5787 60.1793 70.0444 59.6337 69.4031 59.5521H69.4059Z" fill="#707070"/>
    <path d="M59.3034 65.9225C59.1853 65.9225 59.07 65.9113 58.9547 65.8888L57.0141 65.4978C56.1928 65.3319 55.5938 64.6035 55.5938 63.7625V63.6669C55.5938 63.1353 55.83 62.6347 56.2434 62.2972C56.6569 61.9597 57.1912 61.8275 57.7144 61.9316L59.1234 62.2156C59.2809 62.2466 59.4469 62.2381 59.5987 62.1847H59.6044L65.1394 60.4044C65.1788 60.0191 65.3756 59.6563 65.7075 59.3694C66.2419 58.9081 67.0659 58.6916 67.8647 58.8069L68.8237 58.9447C69.0712 58.9813 69.3047 59.046 69.5212 59.1388C70.3706 59.2794 71.0034 60.0163 71.0034 60.8853C71.0034 61.6447 70.5197 62.3169 69.8025 62.5616L59.8631 65.8325C59.6831 65.8944 59.4919 65.9253 59.2978 65.9253L59.3034 65.9225ZM57.3628 62.75C57.1547 62.75 56.9494 62.8231 56.7834 62.9581C56.5697 63.1325 56.4487 63.3913 56.4487 63.6669V63.7625C56.4487 64.1985 56.7581 64.5753 57.1828 64.6597L59.1234 65.0506C59.2809 65.0816 59.4469 65.0731 59.5987 65.0197L69.5381 61.7488C69.9066 61.625 70.1569 61.2763 70.1569 60.8825C70.1569 60.4213 69.8109 60.0303 69.3553 59.9713C69.3131 59.9656 69.2709 59.9544 69.2316 59.9347C69.0712 59.8616 68.8969 59.811 68.7084 59.7828L67.7494 59.645C67.1897 59.5635 66.6244 59.7041 66.2728 60.0078C66.1434 60.1175 65.9916 60.3003 65.9916 60.5394V60.635C65.9916 60.635 65.9916 60.6631 65.9916 60.6772C66.0056 60.8741 65.8847 61.0541 65.6962 61.116L59.8716 62.9891C59.5762 63.0875 59.2612 63.1072 58.9575 63.0481L57.5484 62.7641C57.4866 62.7528 57.4275 62.7472 57.3656 62.7472L57.3628 62.75Z" fill="#343A40"/>
    <path d="M56.1987 76.9645C56.0074 76.8773 55.7908 76.8126 55.5574 76.7789L54.5983 76.641C53.4368 76.4723 52.354 77.1079 52.354 77.9573V78.0529C52.354 78.0782 52.354 78.1035 52.3568 78.126L46.5293 80.002C46.3043 80.0779 46.0652 80.0948 45.8318 80.047L44.4227 79.7629C43.5902 79.5942 42.814 80.2298 42.814 81.0792V81.1748C42.814 81.8132 43.264 82.3645 43.8912 82.491L45.8318 82.882C46.0652 82.9298 46.3043 82.9129 46.5293 82.837L56.463 79.5689C57.0087 79.3832 57.3743 78.8714 57.3743 78.2976C57.3743 77.5917 56.8399 77.046 56.1987 76.9645Z" fill="#707070"/>
    <path d="M46.0988 83.3346C45.9807 83.3346 45.8654 83.3234 45.7501 83.3009L43.8095 82.9099C42.9882 82.744 42.3892 82.0156 42.3892 81.1746V81.079C42.3892 80.5474 42.6254 80.0468 43.0389 79.7093C43.4523 79.3718 43.9867 79.2396 44.5098 79.3437L45.9217 79.6277C46.0792 79.6587 46.2451 79.6503 46.397 79.5968H46.4026L51.9376 77.8165C51.977 77.4312 52.1738 77.0684 52.5057 76.7815C53.0401 76.3202 53.8642 76.1037 54.6629 76.219L55.622 76.3568C55.8695 76.3934 56.1029 76.4581 56.3195 76.5509C57.1689 76.6915 57.8017 77.4284 57.8017 78.2974C57.8017 79.0568 57.3207 79.729 56.6007 79.9737L46.6613 83.2446C46.4813 83.3065 46.2901 83.3374 46.096 83.3374L46.0988 83.3346ZM44.1554 80.1621C43.9473 80.1621 43.742 80.2353 43.576 80.3703C43.3623 80.5446 43.2414 80.8034 43.2414 81.079V81.1746C43.2414 81.6106 43.5507 81.9874 43.9754 82.0718L45.916 82.4628C46.0735 82.4937 46.2395 82.4852 46.3914 82.4318L56.3307 79.1609C56.6992 79.0371 56.9495 78.6884 56.9495 78.2946C56.9495 77.8334 56.6035 77.4424 56.1479 77.3834C56.1057 77.3778 56.0635 77.3665 56.0242 77.3468C55.8639 77.2737 55.6895 77.2231 55.501 77.1949L54.542 77.0571C53.9823 76.9756 53.417 77.1162 53.0654 77.4199C52.936 77.5296 52.7842 77.7124 52.7842 77.9515V78.0471C52.7842 78.0471 52.7842 78.0752 52.7842 78.0893C52.7982 78.2862 52.6773 78.4662 52.4888 78.5281L46.6642 80.4012C46.3689 80.4996 46.0539 80.5193 45.7501 80.4602L44.3382 80.1762C44.2763 80.1649 44.2173 80.1593 44.1554 80.1593V80.1621Z" fill="#343A40"/>
    <path opacity="0.2" d="M83.6121 46.6791L35.7124 58.8685L42.049 60.6741L83.6121 46.6791Z" fill="#343A40"/>
    <path d="M50.0954 58.2497C50.056 58.2497 50.0138 58.2441 49.9745 58.2329C49.7495 58.1654 49.6201 57.9291 49.6876 57.7041C49.6876 57.6957 49.7523 57.4847 49.8788 57.1022C49.952 56.8801 50.1938 56.7591 50.4188 56.8322C50.6438 56.9054 50.762 57.1472 50.6888 57.3722C50.5679 57.7379 50.506 57.9432 50.506 57.946C50.4526 58.1316 50.281 58.2526 50.0982 58.2526L50.0954 58.2497ZM51.122 55.3641C51.0685 55.3641 51.0179 55.3557 50.9645 55.3332C50.7451 55.246 50.6382 54.9985 50.7254 54.7791C50.7985 54.5963 50.8745 54.4051 50.956 54.2082C51.046 53.9916 51.2935 53.8847 51.5129 53.9747C51.7295 54.0647 51.8363 54.3122 51.7463 54.5316C51.6676 54.7257 51.5916 54.9141 51.5213 55.0941C51.4538 55.2629 51.2935 55.3641 51.1248 55.3641H51.122ZM52.3257 52.5601C52.2666 52.5601 52.2048 52.5488 52.1485 52.5207C51.9348 52.4222 51.842 52.1691 51.9404 51.9554C52.0248 51.7726 52.112 51.5869 52.202 51.3985C52.3032 51.1847 52.5563 51.0947 52.7701 51.196C52.9838 51.2972 53.0738 51.5504 52.9726 51.7641C52.8854 51.9497 52.7982 52.1326 52.7166 52.3126C52.6435 52.4672 52.4916 52.5601 52.3285 52.5601H52.3257ZM53.6785 49.8291C53.611 49.8291 53.5435 49.8122 53.4788 49.7785C53.2707 49.6688 53.192 49.4101 53.3016 49.2019C53.3973 49.0219 53.4929 48.8419 53.5941 48.6619C53.7066 48.4566 53.9654 48.3807 54.1735 48.4932C54.3788 48.6057 54.4548 48.8644 54.3423 49.0726C54.2438 49.2497 54.1482 49.4297 54.0554 49.6041C53.9795 49.7476 53.8304 49.8291 53.6785 49.8291ZM55.1888 47.1797C55.1129 47.1797 55.037 47.1601 54.9666 47.1179C54.767 46.9941 54.7023 46.7326 54.826 46.5329C54.9329 46.3585 55.0398 46.1841 55.1495 46.0097C55.276 45.8101 55.5376 45.751 55.7373 45.8747C55.937 46.0013 55.996 46.2629 55.8695 46.4626C55.7626 46.6341 55.6557 46.8057 55.5516 46.9744C55.4701 47.1066 55.3323 47.1769 55.1888 47.1769V47.1797ZM56.8651 44.6344C56.7807 44.6344 56.6935 44.6091 56.6204 44.5557C56.4291 44.4207 56.3841 44.1535 56.5191 43.9622C56.6373 43.7963 56.7582 43.6276 56.8791 43.4616C57.017 43.2704 57.2841 43.231 57.4754 43.3688C57.6666 43.5066 57.706 43.7738 57.5682 43.9651C57.4501 44.1254 57.332 44.2913 57.2166 44.4544C57.1323 44.5726 57.0029 44.6344 56.8679 44.6344H56.8651ZM84.6357 42.5082C84.4332 42.5082 84.2532 42.3647 84.2166 42.1594C84.1745 41.9288 84.3291 41.7066 84.5598 41.6644C84.7398 41.6307 84.9226 41.5885 85.1082 41.5322C85.3332 41.4676 85.5695 41.5969 85.637 41.8219C85.7016 42.0469 85.5723 42.2832 85.3473 42.3507C85.1335 42.4126 84.9198 42.4632 84.7116 42.5026C84.6863 42.5082 84.661 42.5082 84.6357 42.5082ZM58.7185 42.2157C58.6229 42.2157 58.5273 42.1847 58.4457 42.1172C58.2657 41.9682 58.2404 41.6982 58.3895 41.5182C58.5216 41.3607 58.6538 41.2004 58.786 41.0485C58.9407 40.8713 59.2079 40.8488 59.3879 41.0035C59.5651 41.1582 59.5876 41.4254 59.4329 41.6054C59.3035 41.7572 59.1713 41.9119 59.0448 42.0666C58.9604 42.1679 58.8395 42.2213 58.7157 42.2213L58.7185 42.2157ZM82.2845 42.1679C82.2001 42.1679 82.1157 42.1426 82.0426 42.0919C81.8373 41.9513 81.6601 41.7797 81.5082 41.5829C81.3648 41.3972 81.4013 41.1272 81.587 40.9866C81.7726 40.8432 82.0426 40.8797 82.1832 41.0654C82.2788 41.1919 82.3941 41.3016 82.5263 41.3916C82.7204 41.5266 82.7682 41.791 82.6332 41.9851C82.5516 42.106 82.4166 42.1679 82.2816 42.1679H82.2845ZM87.406 41.3016C87.271 41.3016 87.1416 41.2397 87.0573 41.1216C86.9223 40.9304 86.9673 40.6632 87.1585 40.5282C87.316 40.4157 87.4679 40.3004 87.6113 40.1794C87.7913 40.0276 88.0613 40.0501 88.2132 40.2301C88.3651 40.4101 88.3426 40.6801 88.1626 40.8319C87.9995 40.9669 87.8279 41.0991 87.6507 41.2257C87.5748 41.2791 87.4904 41.3044 87.406 41.3044V41.3016ZM60.7632 39.9601C60.6535 39.9601 60.5466 39.9179 60.4623 39.8363C60.2963 39.6704 60.2935 39.4004 60.4623 39.2344C60.6085 39.0882 60.7548 38.9419 60.901 38.8013C61.0698 38.6382 61.3398 38.641 61.5029 38.8097C61.666 38.9785 61.6632 39.2485 61.4945 39.4116C61.351 39.5494 61.2076 39.6929 61.067 39.8335C60.9826 39.9179 60.8729 39.9601 60.7632 39.9601ZM81.3704 39.4229C81.3563 39.4229 81.3423 39.4229 81.3282 39.4229C81.0948 39.4004 80.9232 39.1894 80.9457 38.956C80.9485 38.9166 80.9541 38.8772 80.9598 38.8379C80.9795 38.6635 81.0076 38.4891 81.0413 38.3204C81.0863 38.0897 81.3085 37.9379 81.5391 37.9829C81.7698 38.0279 81.9216 38.2501 81.8766 38.4807C81.8485 38.6297 81.8232 38.7844 81.8063 38.9391C81.8035 38.9757 81.7979 39.0094 81.7951 39.0432C81.7726 39.2626 81.587 39.4257 81.3704 39.4257V39.4229ZM89.3663 39.0235C89.3129 39.0235 89.2566 39.0122 89.2032 38.9926C88.9866 38.9026 88.8826 38.6551 88.9726 38.4357C89.0429 38.2669 89.0935 38.0982 89.1273 37.9322C89.1751 37.7016 89.4001 37.5526 89.6307 37.5976C89.8613 37.6454 90.0104 37.8676 89.9654 38.101C89.9204 38.3204 89.8529 38.5426 89.7629 38.7591C89.6954 38.9251 89.5351 39.0235 89.3691 39.0235H89.3663ZM63.0132 37.9069C62.8895 37.9069 62.7685 37.8535 62.6841 37.7522C62.5351 37.5694 62.5604 37.3022 62.7432 37.1532C62.9035 37.0238 63.0638 36.8916 63.227 36.7651C63.4126 36.6188 63.6798 36.6526 63.826 36.8382C63.9723 37.0238 63.9385 37.291 63.7529 37.4372C63.5982 37.5582 63.4407 37.6847 63.286 37.8113C63.2073 37.876 63.1116 37.9069 63.016 37.9069H63.0132ZM82.3716 36.5991C82.2901 36.5991 82.2057 36.5766 82.1326 36.526C81.9385 36.3938 81.8879 36.1294 82.0201 35.9354C82.1382 35.7582 82.2704 35.5866 82.4082 35.4179C82.5573 35.2379 82.8273 35.2126 83.0073 35.3616C83.1873 35.5107 83.2126 35.7807 83.0635 35.9607C82.9426 36.1069 82.8273 36.2588 82.7232 36.4107C82.6416 36.5316 82.5066 36.5991 82.3688 36.5991H82.3716ZM88.9501 36.1688C88.8263 36.1688 88.7026 36.1154 88.6182 36.0085C88.5113 35.8735 88.3848 35.7385 88.2441 35.6119C88.0726 35.4516 88.0613 35.1816 88.2216 35.0101C88.382 34.8385 88.652 34.8272 88.8235 34.9876C88.9923 35.1451 89.147 35.3082 89.282 35.4769C89.4282 35.6597 89.4001 35.9297 89.2173 36.076C89.1385 36.1379 89.0457 36.1688 88.9501 36.1688ZM65.4713 36.1182C65.3307 36.1182 65.1929 36.0479 65.1113 35.9213C64.9848 35.7244 65.041 35.4601 65.2407 35.3335C65.4151 35.221 65.5923 35.1113 65.7666 35.0072C65.9691 34.8863 66.2307 34.951 66.3516 35.1507C66.4726 35.3532 66.4079 35.6147 66.2082 35.7357C66.0395 35.8369 65.8679 35.9438 65.702 36.0507C65.6316 36.0957 65.5501 36.1182 65.4713 36.1182ZM68.132 34.6501C67.9716 34.6501 67.817 34.5601 67.7466 34.4054C67.6482 34.1916 67.7382 33.9385 67.952 33.8401C68.1376 33.7529 68.3288 33.6685 68.5173 33.5841C68.7338 33.4913 68.9841 33.5897 69.077 33.8063C69.1698 34.0229 69.0713 34.2732 68.8548 34.366C68.6748 34.4447 68.4891 34.5263 68.312 34.6107C68.2529 34.6388 68.191 34.6501 68.132 34.6501ZM84.5626 34.5235C84.4248 34.5235 84.2898 34.456 84.2054 34.3322C84.076 34.1354 84.1295 33.871 84.3263 33.7416C84.4951 33.6291 84.6751 33.5166 84.8607 33.4069C85.0632 33.286 85.3248 33.3535 85.4457 33.556C85.4738 33.6038 85.4907 33.6544 85.4991 33.7051C85.5048 33.6826 85.5104 33.6572 85.5188 33.6347C85.6032 33.4154 85.8507 33.3057 86.0701 33.3901C86.2698 33.466 86.4666 33.5476 86.6523 33.6291C86.8688 33.7247 86.9645 33.9751 86.8688 34.1916C86.7732 34.4082 86.5229 34.5038 86.3063 34.4082C86.132 34.3322 85.9491 34.2563 85.7635 34.1832C85.6173 34.1269 85.5188 33.9976 85.4963 33.8541C85.4738 33.9694 85.4035 34.0735 85.2966 34.1382C85.1223 34.2422 84.9563 34.3463 84.7988 34.4504C84.7257 34.4982 84.6441 34.5207 84.5654 34.5207L84.5626 34.5235ZM70.967 33.5616C70.7841 33.5616 70.6154 33.4435 70.5591 33.2579C70.4916 33.0329 70.6182 32.7938 70.8432 32.7263C71.0401 32.6672 71.2398 32.6082 71.4395 32.5547C71.6673 32.4929 71.9007 32.6279 71.9626 32.8557C72.0245 33.0835 71.8895 33.3169 71.6616 33.3788C71.4704 33.4294 71.2791 33.4857 71.0879 33.5419C71.0457 33.5532 71.0063 33.5616 70.9641 33.5616H70.967ZM83.5895 33.5054C83.5557 33.5054 83.522 33.5026 83.4882 33.4941C83.2998 33.4491 83.1029 33.4041 82.9032 33.3619C82.6726 33.3113 82.5263 33.0863 82.577 32.8557C82.6276 32.6251 82.8526 32.4788 83.0832 32.5294C83.2885 32.5744 83.491 32.6194 83.6851 32.6672C83.9129 32.7235 84.0535 32.9513 84.0001 33.1819C83.9523 33.376 83.7779 33.5082 83.5866 33.5082L83.5895 33.5054ZM87.2485 33.0947C87.0854 33.0947 86.9307 33.0019 86.8604 32.8444C86.7648 32.6307 86.8604 32.3776 87.0741 32.2819C87.2598 32.1976 87.4482 32.116 87.6366 32.0344C87.8532 31.9416 88.1035 32.0401 88.1963 32.2566C88.2891 32.4732 88.1907 32.7235 87.9741 32.8163C87.7885 32.8979 87.6057 32.9766 87.4229 33.061C87.3666 33.0863 87.3076 33.0976 87.2485 33.0976V33.0947ZM80.5998 32.9485C80.5801 32.9485 80.5604 32.9485 80.5407 32.9429C80.3466 32.9147 80.1441 32.8894 79.9445 32.8641C79.711 32.8332 79.5451 32.6222 79.576 32.3888C79.607 32.1554 79.8179 31.9894 80.0513 32.0204C80.2566 32.0457 80.462 32.0738 80.6616 32.1019C80.8951 32.1357 81.0582 32.3494 81.0245 32.5829C80.9935 32.7966 80.8107 32.9485 80.6026 32.9485H80.5998ZM73.9285 32.9007C73.7204 32.9007 73.5376 32.7488 73.5066 32.5379C73.4729 32.3044 73.6332 32.0879 73.8666 32.0541C74.0691 32.0232 74.2773 31.9979 74.4826 31.9726C74.716 31.9444 74.927 32.1132 74.9551 32.3466C74.9832 32.5801 74.8145 32.791 74.581 32.8191C74.3841 32.8416 74.1845 32.8697 73.9904 32.8979C73.9707 32.9007 73.9482 32.9035 73.9285 32.9035V32.9007ZM77.5679 32.6813C77.5679 32.6813 77.5623 32.6813 77.5566 32.6813C77.3823 32.6785 77.2079 32.6757 77.0335 32.6757H76.9604C76.727 32.6757 76.5357 32.4872 76.5329 32.251C76.5329 32.0147 76.7213 31.8235 76.9576 31.8235H77.0335C77.2135 31.8235 77.3963 31.8235 77.5763 31.8291C77.8126 31.8347 77.9982 32.0288 77.9926 32.2651C77.987 32.4957 77.7985 32.6813 77.5679 32.6813ZM90.0526 31.8966C89.8866 31.8966 89.7291 31.801 89.6616 31.6379C89.5688 31.4213 89.6673 31.171 89.8838 31.0782C90.0695 30.9994 90.2551 30.9179 90.4379 30.8363C90.6545 30.7407 90.9048 30.8363 91.0004 31.0529C91.096 31.2694 91.0004 31.5197 90.7838 31.6154C90.5982 31.6969 90.4098 31.7785 90.2213 31.8601C90.1651 31.8826 90.1088 31.8938 90.0526 31.8938V31.8966ZM92.7976 30.5776C92.6485 30.5776 92.5051 30.4988 92.4263 30.361C92.311 30.1557 92.3841 29.8969 92.5895 29.7816C92.7666 29.6832 92.9382 29.5819 93.0985 29.4807C93.2982 29.3569 93.5626 29.4188 93.6863 29.6185C93.8101 29.8182 93.7482 30.0826 93.5485 30.2063C93.377 30.3132 93.1941 30.4201 93.0085 30.5241C92.941 30.5607 92.8707 30.5804 92.8004 30.5804L92.7976 30.5776ZM95.2416 28.7832C95.132 28.7832 95.0223 28.741 94.9407 28.6566C94.7748 28.4907 94.7748 28.2207 94.9407 28.0547C95.0785 27.9197 95.2079 27.7763 95.3316 27.6357C95.4863 27.4585 95.7535 27.436 95.9335 27.5907C96.1135 27.7454 96.1332 28.0126 95.9785 28.1926C95.8435 28.3501 95.6973 28.5076 95.5426 28.6594C95.4582 28.741 95.3513 28.7832 95.2416 28.7832ZM96.8982 26.2744C96.8476 26.2744 96.7941 26.266 96.7463 26.2463C96.527 26.1619 96.4173 25.9144 96.5016 25.6951C96.5691 25.5207 96.631 25.3379 96.6845 25.1551C96.7491 24.9301 96.9882 24.8007 97.2132 24.8654C97.4382 24.9301 97.5676 25.1691 97.5029 25.3941C97.4438 25.5994 97.3735 25.8047 97.2976 26.0016C97.2329 26.1704 97.0698 26.2744 96.901 26.2744H96.8982ZM97.4213 23.3044H97.4185C97.1823 23.3044 96.9938 23.1104 96.9966 22.8741V22.7982C96.9966 22.6322 96.9938 22.4607 96.9854 22.2863C96.9741 22.0501 97.157 21.8504 97.3904 21.8419C97.6266 21.8307 97.8263 22.0135 97.8348 22.2469C97.8432 22.4326 97.8488 22.6182 97.8488 22.7982V22.8797C97.8488 23.1132 97.6576 23.3016 97.4213 23.3016V23.3044ZM97.0838 20.2838C96.887 20.2838 96.7098 20.146 96.6676 19.9463C96.6479 19.8479 96.6254 19.7466 96.6001 19.6454C96.5776 19.5497 96.5551 19.4569 96.5326 19.3641C96.4763 19.1363 96.617 18.9057 96.8448 18.8494C97.0726 18.7932 97.3032 18.9338 97.3595 19.1616C97.382 19.2572 97.4073 19.3557 97.4298 19.4541C97.4551 19.561 97.4776 19.6651 97.5001 19.7691C97.5479 19.9997 97.4016 20.2247 97.171 20.2754C97.1401 20.281 97.112 20.2838 97.081 20.2838H97.0838ZM96.2204 17.3757C96.0516 17.3757 95.8913 17.2744 95.8238 17.1057C95.7507 16.9229 95.6748 16.7372 95.596 16.5601C95.5004 16.3435 95.596 16.0932 95.8126 15.9976C96.0291 15.9019 96.2795 15.9976 96.3751 16.2141C96.4595 16.4026 96.5382 16.5966 96.617 16.7907C96.7041 17.0101 96.5973 17.2576 96.3779 17.3447C96.3273 17.3644 96.2738 17.3757 96.2204 17.3757ZM94.817 14.6869C94.6791 14.6869 94.547 14.6222 94.4626 14.4985C94.3529 14.3354 94.2376 14.1751 94.1223 14.0204C93.9816 13.8319 94.0182 13.5647 94.2066 13.4241C94.3951 13.2835 94.6623 13.3201 94.8029 13.5085C94.9266 13.6744 95.0504 13.846 95.1685 14.0204C95.3007 14.2144 95.2501 14.4816 95.0532 14.611C94.9801 14.6616 94.8957 14.6841 94.8141 14.6841L94.817 14.6869ZM92.8229 12.406C92.7216 12.406 92.6204 12.3694 92.5388 12.2963C92.3954 12.1669 92.2435 12.0376 92.0916 11.9138C91.9088 11.7647 91.8807 11.4976 92.0298 11.3147C92.1788 11.1319 92.446 11.1038 92.6288 11.2529C92.792 11.3851 92.9523 11.5229 93.107 11.6607C93.2813 11.8182 93.2982 12.0882 93.1407 12.2626C93.0563 12.3554 92.941 12.4032 92.8229 12.4032V12.406ZM90.3535 10.6369C90.2804 10.6369 90.2073 10.6172 90.1398 10.5807C89.971 10.4851 89.7966 10.3866 89.6195 10.291C89.4113 10.1785 89.3354 9.91974 89.4451 9.71443C89.5548 9.50912 89.8163 9.43037 90.0216 9.54006C90.2073 9.63849 90.3901 9.74256 90.5645 9.84381C90.767 9.96193 90.8373 10.2235 90.7191 10.426C90.6404 10.5638 90.497 10.6397 90.3507 10.6397L90.3535 10.6369ZM87.6254 9.28974C87.5691 9.28974 87.5101 9.27849 87.4566 9.25318C87.271 9.17162 87.0854 9.09287 86.8998 9.01412C86.6832 8.92131 86.582 8.67381 86.672 8.45443C86.7648 8.23787 87.0123 8.13662 87.2316 8.22662C87.4201 8.30537 87.6085 8.38693 87.7941 8.46849C88.0107 8.56131 88.1091 8.81443 88.0163 9.02818C87.946 9.18849 87.7885 9.28412 87.6254 9.28412V9.28974ZM84.8213 8.10568C84.7651 8.10568 84.706 8.09443 84.6498 8.06912C84.4473 7.98193 84.2645 7.89756 84.0873 7.81881C83.8735 7.72037 83.7779 7.46724 83.8763 7.25349C83.9748 7.03974 84.2279 6.94412 84.4416 7.04256C84.6132 7.12131 84.7932 7.20287 84.9901 7.28724C85.2066 7.38006 85.3051 7.63318 85.2095 7.84974C85.1391 8.01006 84.9816 8.10568 84.8185 8.10568H84.8213ZM82.1213 6.70787C82.0426 6.70787 81.961 6.68537 81.8879 6.63756C81.7079 6.51943 81.5335 6.39849 81.3676 6.27474C81.1791 6.13412 81.1398 5.86693 81.2804 5.67849C81.421 5.49006 81.6882 5.45068 81.8766 5.59131C82.0285 5.70381 82.1888 5.81631 82.3548 5.92318C82.5516 6.05256 82.6079 6.31693 82.4785 6.51381C82.397 6.63756 82.2591 6.70787 82.1213 6.70787ZM79.9276 4.63787C79.7926 4.63787 79.6576 4.57318 79.576 4.45224C79.4551 4.27506 79.3398 4.09224 79.2357 3.90381C79.1204 3.69849 79.1935 3.43974 79.3988 3.32443C79.6041 3.20912 79.8629 3.28224 79.9782 3.48756C80.071 3.65068 80.1723 3.81381 80.2763 3.96849C80.4085 4.16256 80.3607 4.42693 80.1666 4.56193C80.0935 4.61256 80.0091 4.63787 79.9248 4.63787H79.9276Z" fill="#343A40"/>
    <path d="M79.4017 3.29062C78.7351 4.35938 77.1151 5.16937 75.931 5.47875C77.2557 3.92062 78.2907 2.05031 78.6395 0C79.8207 1.69875 81.6404 2.835 83.4798 3.735C82.1804 3.92625 80.5632 3.97406 79.4017 3.29344V3.29062Z" fill="#343A40"/>
  </g>
  <defs>
    <clipPath id="clip0_2331_3232">
      <rect width="97.6978" height="106.068" fill="white" transform="translate(0.151123)"/>
    </clipPath>
  </defs>
</svg>