<svg width="29" height="24" viewBox="0 0 29 24" fill="none" xmlns="http://www.w3.org/2000/svg">
    <g clip-path="url(#clip0_169_2652)">
        <path d="M9.40835 2.02573C4.93272 2.02573 1.70835 5.05323 1.70835 8.32573C1.70835 9.94886 2.49585 11.3095 3.68147 12.552C3.89147 12.7707 3.93522 13.0989 3.79085 13.3657C3.31397 14.2495 2.79772 15.1507 2.14585 15.9864C3.51522 15.8551 4.91085 15.4089 6.14897 14.8489C6.41147 14.7307 6.6696 14.6039 6.93647 14.4682C7.07647 14.3982 7.23397 14.3764 7.38272 14.407C8.06522 14.5426 8.7346 14.6257 9.40835 14.6257C13.884 14.6257 17.1083 11.5982 17.1083 8.32573C17.1083 5.05323 13.884 2.02573 9.40835 2.02573ZM0.30835 8.32573C0.30835 4.07761 4.38147 0.625732 9.40835 0.625732C14.4352 0.625732 18.5083 4.07761 18.5083 8.32573C18.5083 12.5739 14.4352 16.0257 9.40835 16.0257C8.70397 16.0257 8.02147 15.947 7.3521 15.8245C7.15085 15.9251 6.94085 16.0257 6.72647 16.122C5.14272 16.8439 3.2396 17.4257 1.35835 17.4257C0.93835 17.4257 0.5621 17.1764 0.39585 16.7914C0.2296 16.4107 0.30835 15.9645 0.58835 15.6626L0.592725 15.6582C1.27085 14.9145 1.80897 14.0614 2.32085 13.1382C1.1746 11.8301 0.30835 10.2595 0.30835 8.32573ZM19.6371 6.23448C24.4671 6.42261 28.3083 9.79573 28.3083 13.9257C28.3083 15.8595 27.4421 17.4301 26.2958 18.7382C26.8077 19.657 27.3458 20.5145 28.024 21.2539L28.0283 21.2582C28.3127 21.5645 28.3871 22.0064 28.2208 22.387C28.0546 22.772 27.674 23.0214 27.2583 23.0214C25.3771 23.0214 23.474 22.4395 21.8902 21.722C21.6758 21.6257 21.4702 21.5251 21.2646 21.4245C20.5952 21.547 19.9127 21.6257 19.2083 21.6257C15.6165 21.6257 12.5146 19.867 11.0358 17.3164C11.539 17.2464 12.0333 17.1457 12.5146 17.0189C13.8008 18.8826 16.2246 20.2257 19.2083 20.2257C19.8777 20.2257 20.5471 20.1426 21.234 20.007C21.3871 19.9764 21.5446 19.9982 21.6802 20.0682C21.9471 20.2039 22.2052 20.3307 22.4677 20.4489C23.7102 21.0132 25.1015 21.4595 26.4708 21.5864C25.819 20.7551 25.2983 19.8495 24.8258 18.9657C24.6815 18.6989 24.7252 18.3707 24.9352 18.152C26.1208 16.9095 26.9083 15.5489 26.9083 13.9257C26.9083 10.8195 24.0033 7.93198 19.8821 7.64761C19.8427 7.16198 19.7596 6.68948 19.6371 6.23448ZM6.77897 5.18011C7.0196 4.50636 7.65835 4.05573 8.37147 4.05573H10.1783C11.2371 4.05573 12.0902 4.91323 12.0902 5.96761C12.0902 6.65448 11.7227 7.28448 11.1277 7.62573L10.1083 8.21198V8.22511C10.1083 8.61011 9.79335 8.92511 9.40835 8.92511C9.02335 8.92511 8.70835 8.61011 8.70835 8.22511V7.80948C8.70835 7.56011 8.84397 7.32823 9.05835 7.20136L10.4321 6.41386C10.5896 6.32198 10.6902 6.15136 10.6902 5.96761C10.6902 5.68323 10.4584 5.45573 10.1783 5.45573H8.37147C8.24897 5.45573 8.1396 5.53448 8.09585 5.64823L8.08272 5.68761C7.95147 6.05073 7.55335 6.24323 7.19022 6.11198C6.8271 5.98073 6.6346 5.58261 6.76585 5.21948L6.77897 5.18011ZM8.41523 10.9507C8.40621 10.8151 8.42514 10.679 8.47086 10.5509C8.51657 10.4229 8.5881 10.3056 8.681 10.2063C8.7739 10.107 8.8862 10.0279 9.01093 9.97376C9.13567 9.91965 9.27019 9.89173 9.40616 9.89173C9.54213 9.89173 9.67665 9.91965 9.80139 9.97376C9.92613 10.0279 10.0384 10.107 10.1313 10.2063C10.2242 10.3056 10.2958 10.4229 10.3415 10.5509C10.3872 10.679 10.4061 10.8151 10.3971 10.9507C10.4061 11.0864 10.3872 11.2225 10.3415 11.3505C10.2958 11.4786 10.2242 11.5959 10.1313 11.6952C10.0384 11.7944 9.92613 11.8736 9.80139 11.9277C9.67665 11.9818 9.54213 12.0097 9.40616 12.0097C9.27019 12.0097 9.13567 11.9818 9.01093 11.9277C8.8862 11.8736 8.7739 11.7944 8.681 11.6952C8.5881 11.5959 8.51657 11.4786 8.47086 11.3505C8.42514 11.2225 8.40621 11.0864 8.41523 10.9507Z" fill="black"/>
    </g>
    <defs>
        <clipPath id="clip0_169_2652">
            <rect width="28" height="22.4" fill="white" transform="translate(0.30835 0.625732)"/>
        </clipPath>
    </defs>
</svg>
