<svg xmlns="http://www.w3.org/2000/svg" width="30" height="24" viewBox="0 0 30 24" fill="none">
    <g clip-path="url(#clip0_4851_13164)">
        <path d="M27 1.5H10.5C9.67031 1.5 9 2.17031 9 3V4.6875C8.52187 4.56563 8.01562 4.5 7.5 4.5V3C7.5 1.34531 8.84531 0 10.5 0H27C28.6547 0 30 1.34531 30 3V16.5C30 18.1547 28.6547 19.5 27 19.5H15.7875C15.5391 18.9656 15.2344 18.4594 14.8734 18H27C27.8297 18 28.5 17.3297 28.5 16.5V3C28.5 2.17031 27.8297 1.5 27 1.5ZM18.75 6C18.75 5.5875 19.0875 5.25 19.5 5.25H24C24.4125 5.25 24.75 5.5875 24.75 6V10.5C24.75 10.9125 24.4125 11.25 24 11.25C23.5875 11.25 23.25 10.9125 23.25 10.5V7.80938L18.5297 12.5297C18.2391 12.8203 17.7609 12.8203 17.4703 12.5297L13.7203 8.77969C13.4297 8.48906 13.4297 8.01094 13.7203 7.72031C14.0109 7.42969 14.4891 7.42969 14.7797 7.72031L18 10.9406L22.1906 6.75H19.5C19.0875 6.75 18.75 6.4125 18.75 6ZM7.5 13.5C8.29565 13.5 9.05871 13.1839 9.62132 12.6213C10.1839 12.0587 10.5 11.2956 10.5 10.5C10.5 9.70435 10.1839 8.94129 9.62132 8.37868C9.05871 7.81607 8.29565 7.5 7.5 7.5C6.70435 7.5 5.94129 7.81607 5.37868 8.37868C4.81607 8.94129 4.5 9.70435 4.5 10.5C4.5 11.2956 4.81607 12.0587 5.37868 12.6213C5.94129 13.1839 6.70435 13.5 7.5 13.5ZM7.5 6C8.09095 6 8.67611 6.1164 9.22207 6.34254C9.76804 6.56869 10.2641 6.90016 10.682 7.31802C11.0998 7.73588 11.4313 8.23196 11.6575 8.77792C11.8836 9.32389 12 9.90905 12 10.5C12 11.0909 11.8836 11.6761 11.6575 12.2221C11.4313 12.768 11.0998 13.2641 10.682 13.682C10.2641 14.0998 9.76804 14.4313 9.22207 14.6575C8.67611 14.8836 8.09095 15 7.5 15C6.90905 15 6.32389 14.8836 5.77792 14.6575C5.23196 14.4313 4.73588 14.0998 4.31802 13.682C3.90016 13.2641 3.56869 12.768 3.34254 12.2221C3.1164 11.6761 3 11.0909 3 10.5C3 9.90905 3.1164 9.32389 3.34254 8.77792C3.56869 8.23196 3.90016 7.73588 4.31802 7.31802C4.73588 6.90016 5.23196 6.56869 5.77792 6.34254C6.32389 6.1164 6.90905 6 7.5 6ZM6.24844 18C3.70781 18 1.63594 19.9922 1.50469 22.5H13.4953C13.3641 19.9922 11.2922 18 8.75156 18H6.24844ZM6.24844 16.5H8.74687C12.2016 16.5 15 19.2984 15 22.7484C15 23.4375 14.4422 24 13.7484 24H1.25156C0.557813 24 0 23.4422 0 22.7484C0 19.2984 2.79844 16.5 6.24844 16.5Z" fill="#9166EB"/>
    </g>
    <defs>
        <clipPath id="clip0_4851_13164">
            <rect width="30" height="24" fill="white"/>
        </clipPath>
    </defs>
</svg>