<svg width="18" height="14" viewBox="0 0 18 14" fill="none" xmlns="http://www.w3.org/2000/svg">
<path d="M17.692 1.01583C17.7885 1.09779 17.8661 1.19976 17.9193 1.31467C17.9724 1.42959 18 1.5547 18 1.68133C18 1.80796 17.9724 1.93307 17.9193 2.04799C17.8661 2.16291 17.7885 2.26488 17.692 2.34683L7.079 12.9588C6.99704 13.0554 6.89507 13.1329 6.78015 13.1861C6.66524 13.2393 6.54012 13.2668 6.4135 13.2668C6.28687 13.2668 6.16176 13.2393 6.04684 13.1861C5.93192 13.1329 5.82995 13.0554 5.748 12.9588L0.282996 7.49183C0.193502 7.40563 0.122312 7.30227 0.0736873 7.18792C0.0250621 7.07357 0 6.95059 0 6.82633C0 6.70208 0.0250621 6.57909 0.0736873 6.46474C0.122312 6.3504 0.193502 6.24703 0.282996 6.16083C0.464581 5.98129 0.709638 5.88059 0.964996 5.88059C1.22035 5.88059 1.46541 5.98129 1.647 6.16083L6.432 10.9488L16.362 1.01483C16.4484 0.925713 16.5518 0.854859 16.6662 0.806473C16.7805 0.758086 16.9034 0.733154 17.0275 0.733154C17.1516 0.733154 17.2745 0.758086 17.3888 0.806473C17.5031 0.854859 17.6066 0.925713 17.693 1.01483L17.692 1.01583Z" fill="#287D28"/>
</svg>
