<?xml version="1.0" encoding="utf-8"?>
<!-- Generator: Adobe Illustrator 22.1.0, SVG Export Plug-In . SVG Version: 6.00 Build 0)  -->
<svg version="1.1" id="Layer_1" xmlns="http://www.w3.org/2000/svg" xmlns:xlink="http://www.w3.org/1999/xlink" x="0px" y="0px"
	 viewBox="0 0 94.2 76.3" style="enable-background:new 0 0 94.2 76.3;" xml:space="preserve">
<style type="text/css">
	.st0{fill:#1D1D1B;stroke:#1D1D1B;stroke-width:2.2575;stroke-miterlimit:10;}
</style>
<path class="st0" d="M91,62.5c0,0-11.8-13.5-22.8-26L87,13.9c2.6-3.3,2.3-8-1-10.7c-3.3-2.6-8-2.3-10.7,1L58,24.9
	c-4.8-5.5-8.3-9.4-8.3-9.4l-9-10.3C37.9,2,33.2,1.8,30,4.5c-3.2,2.8-3.4,7.5-0.7,10.7l18.9,21.5L32.2,55.8L14.7,36.5
	c-2.8-3.2-7.5-3.4-10.7-0.6s-3.4,7.5-0.6,10.7l23.4,26c1.4,1.6,3.5,2.5,5.6,2.5c0,0,0,0,0.4-0.1c2.1,0,4.1-1,5.6-2.7l19.9-24
	l21.2,24.1c2.8,3.2,7.5,3.4,10.7,0.7C93.5,70.5,93.7,65.8,91,62.5z"/>
</svg>
