<svg width="20" height="16" viewBox="0 0 20 16" fill="none" xmlns="http://www.w3.org/2000/svg">
    <path d="M19.3556 14.01L13.4496 8.07102L19.3676 1.93701C19.4717 1.82913 19.5535 1.70181 19.6084 1.56232C19.6632 1.42282 19.69 1.27387 19.6873 1.12399C19.6847 0.97412 19.6525 0.826248 19.5926 0.688813C19.5328 0.551378 19.4465 0.427102 19.3386 0.32303C19.2307 0.218957 19.1033 0.137143 18.9638 0.0822764C18.8243 0.0274101 18.6755 0.000542991 18.5256 0.0032359C18.3757 0.0059288 18.2279 0.0381203 18.0904 0.0979625C17.953 0.157805 17.8286 0.24414 17.7246 0.352021L11.8386 6.45203L5.76059 0.340028C5.65487 0.233723 5.52931 0.149281 5.39096 0.0915233C5.25261 0.0337652 5.10423 0.00380637 4.95431 0.00338849C4.80439 0.0029706 4.65585 0.0320959 4.51718 0.0890818C4.37851 0.146068 4.25239 0.229797 4.14608 0.335511C4.03978 0.441225 3.95531 0.566853 3.89755 0.705201C3.83979 0.843549 3.80983 0.991927 3.80941 1.14185C3.809 1.29177 3.83812 1.44028 3.89511 1.57895C3.95209 1.71762 4.03585 1.84371 4.14157 1.95001L10.2536 8.09601L5.31857 13.21L2.27255 10.045C2.06263 9.82687 1.7747 9.70107 1.47201 9.69525C1.16933 9.68944 0.876676 9.80409 0.658536 10.014C0.440395 10.2239 0.314618 10.5119 0.308804 10.8146C0.302991 11.1173 0.417733 11.4099 0.627652 11.628L4.4946 15.647C4.60102 15.7576 4.72872 15.8457 4.86996 15.9058C5.0112 15.966 5.1631 15.997 5.31662 15.997C5.46988 15.9969 5.62149 15.966 5.76254 15.906C5.90359 15.846 6.03111 15.7583 6.13754 15.648L11.8615 9.71503L17.7346 15.621C17.8403 15.7273 17.9659 15.8117 18.1042 15.8695C18.2426 15.9273 18.3909 15.9572 18.5409 15.9576C18.6908 15.9581 18.8393 15.9289 18.978 15.8719C19.1167 15.815 19.2428 15.7312 19.3491 15.6255C19.4554 15.5198 19.5399 15.3942 19.5976 15.2558C19.6554 15.1175 19.6853 14.9691 19.6858 14.8192C19.6862 14.6693 19.657 14.5207 19.6001 14.3821C19.5431 14.2434 19.4593 14.1173 19.3536 14.011L19.3556 14.01Z" fill="#F59331"/>
    </svg>
    