<svg width="24" height="24" viewBox="0 0 24 24" fill="none" xmlns="http://www.w3.org/2000/svg">
    <path d="M19.5479 17.8983C19.6721 18.0064 19.7726 18.1388 19.8434 18.2874C19.9142 18.436 19.9537 18.5975 19.9593 18.762C19.965 18.9265 19.9368 19.0903 19.8765 19.2434C19.8162 19.3966 19.725 19.5356 19.6086 19.652C19.4922 19.7684 19.3532 19.8596 19.2 19.9199C19.0469 19.9802 18.8831 20.0084 18.7186 20.0027C18.5541 19.997 18.3926 19.9576 18.244 19.8868C18.0954 19.816 17.963 19.7155 17.8549 19.5913L11.9619 13.6553L6.02793 19.5883C5.7987 19.7879 5.5023 19.893 5.19858 19.8825C4.89485 19.872 4.60643 19.7466 4.39154 19.5317C4.17664 19.3168 4.05129 19.0284 4.04078 18.7247C4.03027 18.421 4.1354 18.1246 4.33493 17.8953L10.2709 11.9623L4.33393 5.98433C4.1344 5.7551 4.02927 5.4587 4.03978 5.15498C4.05029 4.85125 4.17564 4.56283 4.39054 4.34793C4.60543 4.13304 4.89385 4.00768 5.19758 3.99718C5.5013 3.98667 5.7977 4.0918 6.02693 4.29133L11.9629 10.2723L17.8969 4.33733C18.1262 4.1378 18.4226 4.03267 18.7263 4.04318C19.03 4.05368 19.3184 4.17904 19.5333 4.39393C19.7482 4.60882 19.8736 4.89725 19.8841 5.20097C19.8946 5.5047 19.7895 5.8011 19.5899 6.03033L13.6529 11.9633L19.5479 17.8983Z" fill="#CE0E0F"/>
    </svg>
    