<svg xmlns="http://www.w3.org/2000/svg" width="16" height="17" viewBox="0 0 16 17" fill="none">
  <g clip-path="url(#clip0_103_1497)">
    <path d="M14.2694 13.0645C11.4445 13.6004 10.8952 14.134 10.3434 16.8778C10.3285 16.9514 10.2199 16.9514 10.2049 16.8778C9.65317 14.134 9.10384 13.6004 6.27901 13.0645C6.20322 13.05 6.20322 12.9445 6.27901 12.9299C9.10384 12.394 9.65317 11.8605 10.2049 9.11667C10.2199 9.04306 10.3285 9.04306 10.3434 9.11667C10.8952 11.8605 11.4445 12.394 14.2694 12.9299C14.3451 12.9445 14.3451 13.05 14.2694 13.0645Z" fill="#2B2B2B"/>
    <path d="M15.9713 7.05746C14.5227 7.33175 14.2432 7.60322 13.9608 9.01027C13.9536 9.04684 13.9 9.04684 13.8927 9.01027C13.6104 7.60322 13.3309 7.33175 11.8822 7.05746C11.8446 7.05043 11.8446 6.99838 11.8822 6.99135C13.3309 6.71707 13.6104 6.44559 13.8927 5.03854C13.9 5.00197 13.9536 5.00197 13.9608 5.03854C14.2432 6.44559 14.5227 6.71707 15.9713 6.99135C16.009 6.99838 16.009 7.05043 15.9713 7.05746Z" fill="#2B2B2B"/>
    <path d="M10.809 5.69397C7.11096 6.41321 6.32849 7.17323 5.58801 10.7652C5.55953 10.9035 5.3563 10.9035 5.32782 10.7652C4.58734 7.17323 3.80486 6.41321 0.1068 5.69397C-0.0356001 5.66631 -0.0356001 5.46892 0.1068 5.44125C3.80486 4.72202 4.58734 3.96199 5.32782 0.370032C5.3563 0.231718 5.55953 0.231718 5.58801 0.370032C6.32849 3.96199 7.11096 4.72202 10.809 5.44125C10.9514 5.46892 10.9514 5.66631 10.809 5.69397Z" fill="#2B2B2B"/>
  </g>
  <defs>
    <clipPath id="clip0_103_1497">
      <rect width="16" height="16.6667" fill="white" transform="translate(0 0.266296)"/>
    </clipPath>
  </defs>
</svg>
