<svg width="26" height="23" viewBox="0 0 26 23" fill="none" xmlns="http://www.w3.org/2000/svg">
    <g clip-path="url(#clip0_151_2655)">
        <path d="M13.3082 2.18646C6.92823 2.18646 2.32823 6.32645 2.32823 10.8065C2.32823 12.6265 3.08823 14.2665 4.28823 15.7065C4.53823 16.0165 4.69823 16.4365 4.64823 16.8765C4.49823 18.1965 4.08823 19.4465 3.38823 20.6165C3.36823 20.6565 3.33823 20.7065 3.30823 20.7465C3.84823 20.6065 4.39823 20.4065 4.90823 20.1865C5.73823 19.8265 6.52823 19.3665 7.27823 18.8465C7.69823 18.5565 8.22823 18.4765 8.70823 18.6365C10.2082 19.1465 11.7282 19.4365 13.2982 19.4365C19.6782 19.4365 24.2782 15.2865 24.2782 10.8065C24.2782 6.32645 19.6882 2.18646 13.3082 2.18646ZM0.758228 10.8065C0.758228 5.18645 6.36823 0.616455 13.3082 0.616455C20.2482 0.616455 25.8582 5.18645 25.8582 10.8065C25.8582 16.4265 20.2482 20.9965 13.3082 20.9965C11.5482 20.9965 9.84823 20.6665 8.21823 20.1165C8.21823 20.1165 8.19823 20.1165 8.18823 20.1165C7.35823 20.6865 6.48823 21.1965 5.54823 21.6065C4.36823 22.1165 2.95823 22.5565 1.54823 22.5565C1.22823 22.5565 0.948228 22.3665 0.818228 22.0765C0.688228 21.7865 0.768228 21.4465 0.988228 21.2265C1.38823 20.8265 1.72823 20.3365 2.04823 19.8065C2.61823 18.8465 2.96823 17.8165 3.08823 16.7165C1.71823 15.0765 0.758228 13.0965 0.758228 10.8065Z" fill="#2B2B2B"/>
        <path d="M11.6984 6.10641C11.7584 6.07641 11.8084 5.99641 11.8084 5.92641C11.8084 5.85641 11.7584 5.77641 11.6984 5.74641L10.2384 5.13641L9.62838 3.67641C9.59838 3.61641 9.51838 3.56641 9.44838 3.56641C9.37838 3.56641 9.29838 3.61641 9.26838 3.67641L8.65838 5.13641L7.19838 5.74641C7.13838 5.77641 7.08838 5.85641 7.08838 5.92641C7.08838 5.99641 7.13838 6.07641 7.19838 6.10641L8.65838 6.71641L9.26838 8.17641C9.29838 8.23641 9.37838 8.28641 9.44838 8.28641C9.51838 8.28641 9.59838 8.23641 9.62838 8.17641L10.2384 6.71641L11.6984 6.10641Z" fill="#2B2B2B"/>
        <path d="M14.9384 6.71641L15.5484 8.17641C15.5784 8.23641 15.6584 8.28641 15.7284 8.28641C15.7984 8.28641 15.8784 8.23641 15.9084 8.17641L16.5184 6.71641L17.9784 6.10641C18.0384 6.07641 18.0884 5.99641 18.0884 5.92641C18.0884 5.85641 18.0384 5.77641 17.9784 5.74641L16.5184 5.13641L15.9084 3.67641C15.8784 3.61641 15.7984 3.56641 15.7284 3.56641C15.6584 3.56641 15.5784 3.61641 15.5484 3.67641L14.9384 5.13641L13.4784 5.74641C13.4184 5.77641 13.3684 5.85641 13.3684 5.92641C13.3684 5.99641 13.4184 6.07641 13.4784 6.10641L14.9384 6.71641Z" fill="#2B2B2B"/>
        <path d="M16.5084 14.5566L15.8984 13.0966C15.8684 13.0366 15.7884 12.9866 15.7184 12.9866C15.6484 12.9866 15.5684 13.0366 15.5384 13.0966L14.9284 14.5566L13.4684 15.1666C13.4084 15.1966 13.3584 15.2766 13.3584 15.3466C13.3584 15.4166 13.4084 15.4966 13.4684 15.5266L14.9284 16.1366L15.5384 17.5966C15.5684 17.6566 15.6484 17.7066 15.7184 17.7066C15.7884 17.7066 15.8684 17.6566 15.8984 17.5966L16.5084 16.1366L17.9684 15.5266C18.0284 15.4966 18.0784 15.4166 18.0784 15.3466C18.0784 15.2766 18.0284 15.1966 17.9684 15.1666L16.5084 14.5566Z" fill="#2B2B2B"/>
        <path d="M14.8283 10.8164C14.8883 10.7864 14.9383 10.7064 14.9383 10.6364C14.9383 10.5664 14.8883 10.4864 14.8283 10.4564L13.3683 9.84637L12.7583 8.38637C12.7283 8.32637 12.6483 8.27637 12.5783 8.27637C12.5083 8.27637 12.4283 8.32637 12.3983 8.38637L11.7883 9.84637L10.3283 10.4564C10.2683 10.4864 10.2183 10.5664 10.2183 10.6364C10.2183 10.7064 10.2683 10.7864 10.3283 10.8164L11.7883 11.4264L12.3983 12.8864C12.4283 12.9464 12.5083 12.9964 12.5783 12.9964C12.6483 12.9964 12.7283 12.9464 12.7583 12.8864L13.3683 11.4264L14.8283 10.8164Z" fill="#2B2B2B"/>
    </g>
    <defs>
        <clipPath id="clip0_151_2655">
            <rect width="25.1" height="21.96" fill="white" transform="translate(0.758301 0.616455)"/>
        </clipPath>
    </defs>
</svg>
