<svg width="259" height="291" viewBox="0 0 259 291" fill="none" xmlns="http://www.w3.org/2000/svg">
<path d="M139.813 63.5623V287.03C135.602 289.024 130.89 290.141 125.917 290.141C111.207 290.141 98.7791 280.391 94.69 266.982C91.1344 268.232 87.3139 268.915 83.3465 268.915C64.3083 268.915 48.8864 253.444 48.8864 234.362C48.8864 228.146 50.5228 222.313 53.398 217.275C50.6445 217.981 47.7621 218.364 44.7866 218.364C25.7591 218.364 10.3266 202.892 10.3266 183.811C10.3266 178.239 11.6442 172.99 13.9824 168.328C5.49628 162.037 0 151.943 0 140.55C0 122.639 13.5742 107.919 30.9654 106.168C30.2815 103.44 29.9091 100.586 29.9091 97.6464C29.9091 78.5652 45.3416 63.0932 64.3691 63.0932C72.0854 63.0932 79.218 65.6427 84.9649 69.943C90.9339 59.6487 102.034 52.7273 114.763 52.7273C124.638 52.7273 133.54 56.888 139.81 63.5659L139.813 63.5623Z" fill="#F0526B"/>
<path d="M118.363 63.5625V287.03C122.574 289.025 127.286 290.142 132.26 290.142C146.969 290.142 159.397 280.392 163.486 266.982C167.042 268.232 170.863 268.916 174.83 268.916C193.868 268.916 209.29 253.444 209.29 234.363C209.29 228.147 207.654 222.314 204.778 217.276C207.532 217.981 210.414 218.364 213.39 218.364C232.417 218.364 247.85 202.892 247.85 183.811C247.85 178.24 246.532 172.99 244.194 168.328C252.684 162.034 258.18 151.94 258.18 140.546C258.18 122.636 244.606 107.916 227.215 106.165C227.899 103.436 228.271 100.583 228.271 97.643C228.271 78.5618 212.838 63.0898 193.811 63.0898C186.095 63.0898 178.962 65.6392 173.215 69.9396C167.246 59.6453 156.146 52.7239 143.417 52.7239C133.542 52.7239 124.64 56.8846 118.37 63.5625H118.363Z" fill="#F0526B"/>
<path d="M29.977 9.84917C29.5438 10.5904 29.4901 11.5106 29.8338 12.2983C30.7827 14.4718 53.3443 65.7214 80.2492 81.8021C112.618 101.148 137.779 75.5216 138.03 75.2638C138.345 74.9344 138.571 74.5262 138.685 74.0787C138.735 73.8817 141.56 62.327 138.073 48.8602C135.631 39.436 130.106 29.0772 118.376 21.0208C117.617 20.5016 116.646 20.4371 115.83 20.856L96.3119 30.8747L96.183 14.0672C96.1687 12.8032 95.3022 11.729 94.1098 11.4927C68.0464 6.37595 33.4646 8.48136 32.0037 8.57446C31.1658 8.62817 30.4103 9.10081 29.977 9.84559V9.84917Z" fill="#039447"/>
<path d="M33.9653 1.77855C33.5321 2.51974 33.4784 3.43996 33.8221 4.2277C34.771 6.40115 57.3326 57.6508 84.2375 73.7315C116.606 93.0776 141.768 67.451 142.018 67.1932C142.333 66.8638 142.559 66.4556 142.673 66.008C142.724 65.8111 145.549 54.2564 142.061 40.7896C139.619 31.3654 134.094 21.0066 122.364 12.9501C121.605 12.4309 120.635 12.3665 119.818 12.7854L100.3 22.8041L100.171 5.99654C100.157 4.73257 99.2905 3.65838 98.0981 3.42206C72.0382 -1.69109 37.4529 0.414325 35.992 0.507422C35.1541 0.561131 34.3986 1.03378 33.9653 1.77855Z" fill="#5CBB58"/>
<path d="M126.595 163.487C126.899 181.429 115.663 196.171 101.494 196.414C87.3259 196.654 75.5957 182.3 75.2913 164.361C74.9834 146.411 86.223 131.673 100.392 131.433C114.56 131.19 126.29 145.541 126.595 163.483V163.487Z" fill="#1A1A1A"/>
<path d="M125.14 163.512C125.427 180.434 114.828 194.338 101.458 194.567C88.102 194.796 77.0307 181.258 76.7442 164.335C76.4506 147.413 87.0565 133.506 100.419 133.281C113.786 133.055 124.854 146.59 125.14 163.516V163.512Z" fill="white"/>
<path opacity="0.2" d="M101.955 187.524C89.7057 187.731 79.5546 175.321 79.2932 159.806C79.286 159.383 79.2932 158.972 79.2968 158.556C78.9172 160.712 78.7274 162.957 78.7668 165.27C79.0318 180.792 89.1793 193.195 101.432 192.988C113.352 192.787 122.873 180.717 123.138 165.768C120.972 178.089 112.378 187.348 101.955 187.527V187.524Z" fill="#0AA1C6"/>
<path d="M122.933 165.524C123.044 171.887 119.055 177.115 114.032 177.201C109.005 177.283 104.844 172.199 104.736 165.836C104.629 159.473 108.618 154.245 113.638 154.159C118.662 154.073 122.826 159.161 122.933 165.524Z" fill="#1A1A1A"/>
<path d="M120.786 164.321C120.818 166.047 119.729 167.469 118.369 167.494C117.005 167.511 115.87 166.129 115.844 164.403C115.812 162.678 116.901 161.253 118.261 161.235C119.629 161.213 120.764 162.592 120.789 164.321H120.786Z" fill="white"/>
<path d="M131.248 166.255C131.527 182.697 142.276 195.845 155.259 195.627C168.243 195.408 178.544 181.902 178.265 165.456C177.989 149.014 167.23 135.866 154.25 136.084C141.27 136.306 130.968 149.813 131.248 166.255Z" fill="#1A1A1A"/>
<path d="M132.583 166.233C132.848 181.741 142.992 194.145 155.234 193.937C167.48 193.733 177.198 180.989 176.936 165.482C176.672 149.97 166.528 137.567 154.285 137.775C142.036 137.982 132.325 150.729 132.583 166.233Z" fill="white"/>
<path opacity="0.2" d="M154.569 187.502C165.794 187.312 174.699 175.632 174.456 161.414C174.456 161.027 174.434 160.647 174.413 160.268C174.828 162.23 175.075 164.282 175.107 166.402C175.347 180.624 166.439 192.304 155.213 192.494C144.292 192.676 135.198 181.92 134.492 168.242C136.855 179.453 145.012 187.667 154.569 187.502Z" fill="#0AA1C6"/>
<path d="M134.228 166.316C134.325 172.145 138.135 176.807 142.743 176.732C147.348 176.646 151 171.862 150.9 166.029C150.803 160.2 146.993 155.534 142.382 155.617C137.777 155.692 134.132 160.483 134.228 166.316Z" fill="#1A1A1A"/>
<path d="M136.156 165.145C136.181 166.731 137.22 167.999 138.469 167.977C139.723 167.959 140.714 166.656 140.689 165.07C140.661 163.491 139.622 162.223 138.373 162.245C137.119 162.266 136.124 163.569 136.16 165.148L136.156 165.145Z" fill="white"/>
<path d="M80.6598 128.583C80.6598 128.583 93.722 110.408 106.29 109.831C115.256 109.419 121.744 116.04 121.744 116.04C121.744 116.04 119.298 107.088 108.22 104.783C97.1415 102.48 83.4957 120.666 80.6562 128.583H80.6598Z" fill="#1A1A1A"/>
<path d="M173.189 128.583C173.189 128.583 160.123 110.408 147.555 109.831C138.586 109.419 132.098 116.04 132.098 116.04C132.098 116.04 134.543 107.088 145.622 104.783C156.704 102.48 170.35 120.666 173.189 128.583Z" fill="#1A1A1A"/>
<path d="M194.084 189.422C191.872 194.592 189.222 199.533 185.964 204.02C181.592 210.157 176.106 215.399 169.854 219.402C163.581 223.38 156.613 226.188 149.344 227.835C142.09 229.528 134.589 230.234 127.073 230.194C119.568 230.226 112.07 229.492 104.823 227.749C97.5648 226.066 90.6076 223.219 84.3057 219.28C78.0324 215.295 72.4753 210.132 68.0532 204.034C65.1063 200.045 62.6679 195.67 60.6377 191.076C60.319 191.119 59.9967 191.158 59.6602 191.18C61.2106 196.114 63.3482 200.89 66.0802 205.355C70.198 212.008 75.705 217.891 82.2074 222.414C88.6741 227.004 96.0896 230.141 103.702 232.185C111.354 234.172 119.235 234.978 127.066 235.021C134.882 234.967 142.767 234.219 150.426 232.264C158.049 230.262 165.497 227.147 171.949 222.514C178.444 217.963 183.869 211.997 187.929 205.32C190.837 200.493 193.075 195.322 194.697 189.998C194.485 189.812 194.281 189.618 194.081 189.418L194.084 189.422Z" fill="#1A1A1A"/>
<path d="M130.732 242.752C124.609 242.752 119.048 241.706 114.855 240.005C117.297 243.733 123.478 246.382 130.732 246.382C137.986 246.382 144.163 243.733 146.605 240.005C142.408 241.706 136.848 242.752 130.732 242.752Z" fill="#1A1A1A"/>
<path d="M69.8013 187.27C69.8013 187.27 55.6005 186.278 53.291 193.543C50.9815 200.808 58.243 190.9 69.8013 187.27Z" fill="#1A1A1A"/>
<path d="M183.738 187.27C183.738 187.27 197.939 186.278 200.249 193.543C202.562 200.808 195.297 190.9 183.738 187.27Z" fill="#1A1A1A"/>
</svg>
