<svg width="28" height="28" viewBox="0 0 28 28" fill="none" xmlns="http://www.w3.org/2000/svg">
<g clip-path="url(#clip0_2989_91697)">
<path d="M8.41099 3.94305C8.89771 3.40165 8.85396 2.57587 8.31255 2.08915C7.77114 1.60243 6.94536 1.64618 6.45864 2.18758L3.45083 5.52899L2.24224 4.3204C1.72817 3.8118 0.896924 3.8118 0.382861 4.3204C-0.131201 4.82899 -0.131201 5.66571 0.382861 6.1743L2.57036 8.3618C2.82739 8.61883 3.17192 8.75555 3.53286 8.74462C3.8938 8.73368 4.23286 8.58055 4.47349 8.31258L8.41099 3.93758V3.94305ZM8.41099 12.6931C8.89771 12.1516 8.85396 11.3259 8.31255 10.8391C7.77114 10.3524 6.94536 10.3962 6.45864 10.9376L3.45083 14.279L2.24224 13.0704C1.72817 12.5563 0.896924 12.5563 0.38833 13.0704C-0.120264 13.5845 -0.125732 14.4157 0.38833 14.9243L2.57583 17.1118C2.83286 17.3688 3.17739 17.5056 3.53833 17.4946C3.89927 17.4837 4.23833 17.3306 4.47896 17.0626L8.41646 12.6876L8.41099 12.6931ZM11.8125 6.56258H26.6875C27.4149 6.56258 28 5.97743 28 5.25008C28 4.52274 27.4149 3.93758 26.6875 3.93758H11.8125C11.0852 3.93758 10.5 4.52274 10.5 5.25008C10.5 5.97743 11.0852 6.56258 11.8125 6.56258ZM10.5 14.0001C10.5 14.7274 11.0852 15.3126 11.8125 15.3126H26.6875C27.4149 15.3126 28 14.7274 28 14.0001C28 13.2727 27.4149 12.6876 26.6875 12.6876H11.8125C11.0852 12.6876 10.5 13.2727 10.5 14.0001ZM8.75005 22.7501C8.75005 23.4774 9.33521 24.0626 10.0625 24.0626H26.6875C27.4149 24.0626 28 23.4774 28 22.7501C28 22.0227 27.4149 21.4376 26.6875 21.4376H10.0625C9.33521 21.4376 8.75005 22.0227 8.75005 22.7501ZM5.25005 22.7501C5.25005 22.286 5.06567 21.8408 4.73749 21.5126C4.4093 21.1845 3.96418 21.0001 3.50005 21.0001C3.03592 21.0001 2.5908 21.1845 2.26261 21.5126C1.93442 21.8408 1.75005 22.286 1.75005 22.7501C1.75005 23.2142 1.93442 23.6593 2.26261 23.9875C2.5908 24.3157 3.03592 24.5001 3.50005 24.5001C3.96418 24.5001 4.4093 24.3157 4.73749 23.9875C5.06567 23.6593 5.25005 23.2142 5.25005 22.7501Z" fill="#2B2B2B"/>
</g>
<defs>
<clipPath id="clip0_2989_91697">
<rect width="28" height="28" fill="white"/>
</clipPath>
</defs>
</svg>
