<svg width="19" height="13" viewBox="0 0 19 13" fill="none" xmlns="http://www.w3.org/2000/svg">
<path id="check-regular (1)" d="M18.2545 0.516075C18.351 0.598029 18.4286 0.700001 18.4818 0.814919C18.5349 0.929836 18.5625 1.05494 18.5625 1.18157C18.5625 1.3082 18.5349 1.43332 18.4818 1.54823C18.4286 1.66315 18.351 1.76512 18.2545 1.84708L7.6415 12.4591C7.55954 12.5556 7.45757 12.6332 7.34265 12.6863C7.22774 12.7395 7.10262 12.7671 6.976 12.7671C6.84937 12.7671 6.72426 12.7395 6.60934 12.6863C6.49442 12.6332 6.39245 12.5556 6.3105 12.4591L0.845496 6.99207C0.756002 6.90587 0.684812 6.80251 0.636187 6.68816C0.587562 6.57382 0.5625 6.45083 0.5625 6.32658C0.5625 6.20232 0.587562 6.07934 0.636187 5.96499C0.684812 5.85064 0.756002 5.74727 0.845496 5.66107C1.02708 5.48153 1.27214 5.38084 1.5275 5.38084C1.78285 5.38084 2.02791 5.48153 2.2095 5.66107L6.9945 10.4491L16.9245 0.515076C17.0109 0.425957 17.1143 0.355103 17.2287 0.306717C17.343 0.25833 17.4659 0.233398 17.59 0.233398C17.7141 0.233398 17.837 0.25833 17.9513 0.306717C18.0656 0.355103 18.1691 0.425957 18.2555 0.515076L18.2545 0.516075Z" fill="#287D28"/>
</svg>
