<svg width="17" height="17" viewBox="0 0 17 17" fill="none" xmlns="http://www.w3.org/2000/svg">
<path id="xmark-regular (1)" d="M16.1109 14.3984C16.2351 14.5065 16.3356 14.6389 16.4064 14.7875C16.4772 14.9361 16.5166 15.0976 16.5223 15.2621C16.528 15.4266 16.4998 15.5905 16.4395 15.7436C16.3791 15.8967 16.288 16.0357 16.1716 16.1521C16.0552 16.2685 15.9161 16.3597 15.763 16.42C15.6099 16.4804 15.446 16.5086 15.2816 16.5029C15.1171 16.4972 14.9555 16.4577 14.807 16.3869C14.6584 16.3162 14.526 16.2156 14.4179 16.0914L8.52492 10.1554L2.59092 16.0884C2.36169 16.288 2.06529 16.3931 1.76157 16.3826C1.45784 16.3721 1.16942 16.2467 0.954523 16.0318C0.739629 15.817 0.614275 15.5285 0.603769 15.2248C0.593263 14.9211 0.698388 14.6247 0.897919 14.3954L6.83392 8.46245L0.896919 2.48445C0.697388 2.25522 0.592263 1.95882 0.602769 1.6551C0.613275 1.35137 0.738629 1.06295 0.953523 0.848054C1.16842 0.63316 1.45684 0.507806 1.76057 0.4973C2.06429 0.486794 2.36069 0.59192 2.58992 0.791451L8.52592 6.77245L14.4599 0.837449C14.6891 0.637917 14.9855 0.532792 15.2893 0.543298C15.593 0.553804 15.8814 0.679157 16.0963 0.894051C16.3112 1.10895 16.4366 1.39737 16.4471 1.7011C16.4576 2.00482 16.3525 2.30122 16.1529 2.53045L10.2159 8.46345L16.1109 14.3984Z" fill="#CE0E0F"/>
</svg>
