<svg xmlns="http://www.w3.org/2000/svg" width="24" height="20.571" viewBox="0 0 24 20.571"><defs><style>.a{fill:#554374;}</style></defs><path class="a" d="M23.732,50.781a11.736,11.736,0,0,1-1.579-2.52,6.628,6.628,0,0,0,1.833-4.508c0-3.673-3.187-6.707-7.34-7.249A8.8,8.8,0,0,0,8.658,32C3.872,32-.006,35.287-.006,39.345a6.646,6.646,0,0,0,1.833,4.508,12.084,12.084,0,0,1-1.57,2.52,1.141,1.141,0,0,0-.183,1.148.963.963,0,0,0,.883.643,8.98,8.98,0,0,0,5.215-1.781,9.6,9.6,0,0,0,1.166.22,8.812,8.812,0,0,0,7.989,4.5,10.053,10.053,0,0,0,2.491-.312,9,9,0,0,0,5.215,1.781.967.967,0,0,0,.883-.643,1.15,1.15,0,0,0-.183-1.148ZM6.467,44.946l-.55-.138-.475.34A8.116,8.116,0,0,1,1.789,46.64a13,13,0,0,0,1.229-2.13l.433-.955-.687-.748a5.118,5.118,0,0,1-1.437-3.461c0-3.241,3.291-5.876,7.331-5.876s7.331,2.635,7.331,5.876S12.7,45.222,8.658,45.222A8.831,8.831,0,0,1,6.467,44.946Zm12.071,4.609-.475-.34-.55.142a8.831,8.831,0,0,1-2.191.275,7.789,7.789,0,0,1-6.348-2.952c4.636-.147,8.348-3.37,8.348-7.336a6.409,6.409,0,0,0-.137-1.272c3.141.666,5.469,2.956,5.469,5.679a5.118,5.118,0,0,1-1.437,3.461l-.687.748.429.95a13.218,13.218,0,0,0,1.229,2.13A8.118,8.118,0,0,1,18.538,49.555Z" transform="translate(0.007 -32)"/></svg>