<svg xmlns="http://www.w3.org/2000/svg" width="19.056" height="19.056" viewBox="0 0 19.056 19.056"><defs><style>.a{fill:#554374;}</style></defs><path class="a" d="M16.823,16.079a.744.744,0,1,1-.744-.744A.747.747,0,0,1,16.823,16.079ZM13.7,15.334a.744.744,0,1,0,.744.744A.747.747,0,0,0,13.7,15.334Zm5.36-1.787v3.871a1.638,1.638,0,0,1-1.638,1.638H1.638A1.638,1.638,0,0,1,0,17.418V13.548A1.638,1.638,0,0,1,1.638,11.91h3.7l-2.1-2.1A1.49,1.49,0,0,1,4.291,7.269H6.253V1.489A1.488,1.488,0,0,1,7.742,0h3.573A1.488,1.488,0,0,1,12.8,1.489v5.78h1.961a1.49,1.49,0,0,1,1.053,2.542l-2.1,2.1h3.7A1.638,1.638,0,0,1,19.056,13.548Zm-9.74.659a.3.3,0,0,0,.421,0L14.973,8.97a.3.3,0,0,0-.212-.51H11.612V1.489a.3.3,0,0,0-.3-.3H7.742a.3.3,0,0,0-.3.3V8.46H4.291a.3.3,0,0,0-.212.51l5.237,5.237Zm8.549-.659a.448.448,0,0,0-.447-.447H12.528l-1.947,1.947a1.492,1.492,0,0,1-2.107,0L6.528,13.1H1.638a.448.448,0,0,0-.447.447v3.871a.448.448,0,0,0,.447.447H17.418a.448.448,0,0,0,.447-.447Z"/></svg>