<svg xmlns="http://www.w3.org/2000/svg" width="20" height="24" viewBox="0 0 20 24"><defs><style>.a{fill:#220f44;}</style></defs><path class="a" d="M18.28,10.762l-.182-.3a3.786,3.786,0,0,0-2.285-3.735c.373-.094.757-.169.865-.619.644-.155.776-.441.84-.74.167-.108.727-.408.668-.923a.746.746,0,0,0,.4-.848c.339-.351.428-.642.285-.909.408-.483.226-.731.054-.979.3-.525.034-1.087-.816-.993C17.769.236,17.032.344,16.919.344c-.128-.15-.295-.281-.811-.22a1.029,1.029,0,0,0-1.1-.1C14.555-.317,14.25-.04,13.9.063c-.555-.169-.683.061-.953.159-.6-.122-.791.141-1.081.417l-.339,0A3.625,3.625,0,0,0,10,2.7,3.625,3.625,0,0,0,8.471.635l-.339,0C7.842.363,7.655.1,7.051.222,6.776.129,6.653-.106,6.1.063a2.33,2.33,0,0,0-.683-.2.749.749,0,0,0-.428.164,1.02,1.02,0,0,0-1.1.1C3.375.063,3.2.19,3.08.344c-.113,0-.85-.108-1.189.366C1.041.616.775,1.178,1.08,1.7a.658.658,0,0,0,.054.979c-.143.267-.054.558.285.909a.758.758,0,0,0,.4.848c-.059.515.5.815.668.923.064.3.2.581.84.74.108.445.491.525.865.619a3.786,3.786,0,0,0-2.285,3.735l-.182.3a3.548,3.548,0,0,0-.7,5.516,9.864,9.864,0,0,0,.541,1.659A4.123,4.123,0,0,0,4.25,21.16a9.2,9.2,0,0,0,2.565,1.368,4.406,4.406,0,0,0,3.16,1.331h.049a4.38,4.38,0,0,0,3.155-1.331,9.129,9.129,0,0,0,2.565-1.368,4.114,4.114,0,0,0,2.683-3.224,9.864,9.864,0,0,0,.541-1.659,3.547,3.547,0,0,0-.688-5.516Zm-1.091-.375c-.074.876-4.86-3.051-4.035-3.182C15.4,6.853,17.263,8.1,17.189,10.387ZM15.076,14.75A2.983,2.983,0,0,1,11.2,13.681a2.576,2.576,0,0,1,.487-3.749A2.983,2.983,0,0,1,15.562,11a2.576,2.576,0,0,1-.487,3.749ZM11.739,1.239a.637.637,0,0,0,.143.356,7.228,7.228,0,0,1,.826-.811c0,.155-.084.319.123.441A2.376,2.376,0,0,1,13.592.6c-.157.262-.029.342.059.45A2.84,2.84,0,0,1,14.6.475c-.128.145-.3.291-.118.459A2.858,2.858,0,0,1,15.621.518c-.138.145-.428.3-.251.441A4.875,4.875,0,0,1,16.457.705c-.192.15-.349.3-.192.412A2.493,2.493,0,0,1,17.562,1l-.295.286a9.224,9.224,0,0,0,1.174.037,2.2,2.2,0,0,0-.457.853c.049.047.285.019.511,0-.231.464-.629.576-.722.778a.608.608,0,0,0,.55,0,3.563,3.563,0,0,1-.786.811.716.716,0,0,0,.477.042,4.385,4.385,0,0,1-.924.7c.064.07.285.07.491.075a4.78,4.78,0,0,1-1.15.665.74.74,0,0,0,.491.1,4.021,4.021,0,0,1-1.2.469.43.43,0,0,0,.349.192c-.467.248-1.14.136-1.327.262a.543.543,0,0,0,.329.272c-.757.042-2.816-.028-3.214-1.514a16.465,16.465,0,0,1,4.6-2.934A16.1,16.1,0,0,0,11.454,4.6c-1.686-.745-.531-2.62.285-3.365Zm-1.69,5.37c1.189-.014,2.659.834,2.654,1.626,0,.7-1.032,1.27-2.644,1.261-1.577-.019-2.639-.712-2.634-1.4,0-.558,1.288-1.523,2.624-1.49ZM4,6.01a.443.443,0,0,0,.349-.192,3.9,3.9,0,0,1-1.2-.469.713.713,0,0,0,.491-.1A4.78,4.78,0,0,1,2.5,4.585c.206,0,.428,0,.491-.075a4.385,4.385,0,0,1-.924-.7.716.716,0,0,0,.477-.042,3.463,3.463,0,0,1-.786-.811.624.624,0,0,0,.55,0c-.093-.2-.491-.314-.722-.778.226.019.462.047.511,0a2.233,2.233,0,0,0-.457-.853A8.349,8.349,0,0,0,2.81,1.281L2.515,1a2.493,2.493,0,0,1,1.3.122C3.97,1,3.808.855,3.621.705A5.222,5.222,0,0,1,4.707.958c.172-.145-.113-.3-.251-.441A2.858,2.858,0,0,1,5.591.935C5.778.766,5.6.621,5.473.475a2.766,2.766,0,0,1,.953.576C6.51.944,6.643.864,6.486.6a2.376,2.376,0,0,1,.762.623c.2-.122.123-.291.123-.441A7.228,7.228,0,0,1,8.2,1.6a.676.676,0,0,0,.143-.356c.816.745,1.971,2.62.295,3.365A16.1,16.1,0,0,0,3.621,2.1a16.357,16.357,0,0,1,4.6,2.934c-.393,1.49-2.457,1.556-3.214,1.514a.559.559,0,0,0,.329-.272c-.2-.131-.865-.019-1.337-.262ZM6.958,7.139C7.783,7.27,3,11.193,2.923,10.321,2.849,8.039,4.717,6.783,6.958,7.139ZM1.876,15.893A2.806,2.806,0,0,1,2.5,11.287c1.3-.328.442,5.052-.619,4.607Zm4.472,4.6c-.654.37-2.251.22-3.381-1.307C2.205,17.9,2.3,16.6,2.839,16.216c.8-.459,2.039.159,2.993,1.2C6.663,18.353,7.041,20.008,6.348,20.495Zm-1.3-5.609a2.576,2.576,0,0,1-.487-3.749,2.983,2.983,0,0,1,3.872-1.068,2.576,2.576,0,0,1,.487,3.749,2.985,2.985,0,0,1-3.872,1.068Zm5.022,8.224C8.628,23.166,7.213,22,7.233,21.6c-.02-.6,1.759-1.059,2.914-1.031,1.165-.047,2.732.351,2.737.886.025.515-1.415,1.682-2.811,1.659Zm2.894-5.853a2.728,2.728,0,0,1-2.89,2.531,2.738,2.738,0,0,1-2.919-2.5v-.028a2.728,2.728,0,0,1,2.89-2.531,2.738,2.738,0,0,1,2.919,2.5Zm4.039,2c-1.243,1.621-2.929,1.682-3.553,1.232-.654-.581-.157-2.385.742-3.374,1.027-1.092,2.128-1.8,2.894-1.247a2.944,2.944,0,0,1-.084,3.388Zm1.125-3.43c-1.057.441-1.917-4.935-.619-4.607A2.806,2.806,0,0,1,18.132,15.827Z" transform="translate(0.001 0.14)"/></svg>