<svg xmlns="http://www.w3.org/2000/svg" viewBox="0 0 32 32"><defs><style>.cls-1{fill:#fff;}.cls-2{fill:none;}</style></defs><g id="Layer_2" data-name="Layer 2"><g id="Layer_1-2" data-name="Layer 1"><path class="cls-1" d="M2.38,5V6.72a.49.49,0,0,1-.49.48H.5A.49.49,0,0,1,0,6.72V5A.48.48,0,0,1,.5,4.49H1.89A.48.48,0,0,1,2.38,5Z"/><path class="cls-1" d="M2.38,8.35v1.76a.48.48,0,0,1-.49.47H.5A.48.48,0,0,1,0,10.11V8.35A.48.48,0,0,1,.5,7.88H1.89A.48.48,0,0,1,2.38,8.35Z"/><path class="cls-1" d="M2.38,11.74v1.75a.48.48,0,0,1-.49.48H.5A.48.48,0,0,1,0,13.49V11.74a.48.48,0,0,1,.49-.48H1.89A.48.48,0,0,1,2.38,11.74Z"/><path class="cls-1" d="M2.38,15.12v1.76a.48.48,0,0,1-.49.47H.5A.48.48,0,0,1,0,16.88V15.12a.48.48,0,0,1,.49-.47H1.89A.48.48,0,0,1,2.38,15.12Z"/><path class="cls-1" d="M2.38,18.51v1.75a.48.48,0,0,1-.49.48H.5A.48.48,0,0,1,0,20.26V18.51A.49.49,0,0,1,.5,18H1.89A.49.49,0,0,1,2.38,18.51Z"/><path class="cls-1" d="M5.34,18.51v1.75a.48.48,0,0,1-.49.48H3.46A.48.48,0,0,1,3,20.26V18.51A.49.49,0,0,1,3.46,18H4.85A.49.49,0,0,1,5.34,18.51Z"/><path class="cls-1" d="M2.38,21.89v1.76a.49.49,0,0,1-.49.48H.5A.49.49,0,0,1,0,23.65V21.89a.48.48,0,0,1,.49-.47H1.89A.48.48,0,0,1,2.38,21.89Z"/><path class="cls-1" d="M2.38,25.28V27a.48.48,0,0,1-.49.48H.5A.48.48,0,0,1,0,27V25.28A.49.49,0,0,1,.5,24.8H1.89A.49.49,0,0,1,2.38,25.28Z"/><path class="cls-1" d="M5.34,25.28V27a.48.48,0,0,1-.49.48H3.46A.48.48,0,0,1,3,27V25.28a.49.49,0,0,1,.49-.48H4.85A.49.49,0,0,1,5.34,25.28Z"/><path class="cls-1" d="M32,15.12v1.76a.48.48,0,0,1-.49.47H30.11a.48.48,0,0,1-.49-.47V15.12a.48.48,0,0,1,.49-.47H31.5A.48.48,0,0,1,32,15.12Z"/><path class="cls-1" d="M32,18.51v1.75a.48.48,0,0,1-.49.48H30.11a.48.48,0,0,1-.49-.48V18.51a.49.49,0,0,1,.49-.48H31.5A.49.49,0,0,1,32,18.51Z"/><path class="cls-1" d="M32,21.89v1.76a.49.49,0,0,1-.49.48H30.11a.49.49,0,0,1-.49-.48V21.89a.48.48,0,0,1,.49-.47H31.5A.48.48,0,0,1,32,21.89Z"/><path class="cls-1" d="M32,25.28V27a.48.48,0,0,1-.49.48H30.11a.48.48,0,0,1-.49-.48V25.28a.49.49,0,0,1,.49-.48H31.5A.49.49,0,0,1,32,25.28Z"/><path class="cls-1" d="M29,25.28V27a.48.48,0,0,1-.49.48H27.15a.48.48,0,0,1-.49-.48V25.28a.49.49,0,0,1,.49-.48h1.39A.49.49,0,0,1,29,25.28Z"/><path class="cls-1" d="M29,21.89v1.76a.49.49,0,0,1-.49.48H27.15a.49.49,0,0,1-.49-.48V21.89a.48.48,0,0,1,.49-.47h1.39A.48.48,0,0,1,29,21.89Z"/><path class="cls-1" d="M29,18.51v1.75a.48.48,0,0,1-.49.48H27.15a.48.48,0,0,1-.49-.48V18.51a.49.49,0,0,1,.49-.48h1.39A.49.49,0,0,1,29,18.51Z"/><path class="cls-1" d="M26.07,18.51v1.75a.48.48,0,0,1-.49.48H24.19a.48.48,0,0,1-.49-.48V18.51a.49.49,0,0,1,.49-.48h1.39A.49.49,0,0,1,26.07,18.51Z"/><path class="cls-1" d="M26.07,25.28V27a.48.48,0,0,1-.49.48H24.19A.48.48,0,0,1,23.7,27V25.28a.49.49,0,0,1,.49-.48h1.39A.49.49,0,0,1,26.07,25.28Z"/><path class="cls-1" d="M23.11,25.28V27a.48.48,0,0,1-.49.48H21.23a.48.48,0,0,1-.49-.48V25.28a.49.49,0,0,1,.49-.48h1.39A.49.49,0,0,1,23.11,25.28Z"/><path class="cls-1" d="M23.11,18.51v1.75a.48.48,0,0,1-.49.48H21.23a.48.48,0,0,1-.49-.48V18.51a.49.49,0,0,1,.49-.48h1.39A.49.49,0,0,1,23.11,18.51Z"/><path class="cls-1" d="M20.15,18.51v1.75a.48.48,0,0,1-.49.48H18.27a.48.48,0,0,1-.49-.48V18.51a.49.49,0,0,1,.49-.48h1.39A.49.49,0,0,1,20.15,18.51Z"/><path class="cls-1" d="M20.15,25.28V27a.48.48,0,0,1-.49.48H18.27a.48.48,0,0,1-.49-.48V25.28a.49.49,0,0,1,.49-.48h1.39A.49.49,0,0,1,20.15,25.28Z"/><path class="cls-1" d="M17.19,25.28V27a.48.48,0,0,1-.49.48H15.3a.48.48,0,0,1-.49-.48V25.28a.49.49,0,0,1,.49-.48h1.4A.49.49,0,0,1,17.19,25.28Z"/><path class="cls-1" d="M17.19,18.51v1.75a.48.48,0,0,1-.49.48H15.3a.48.48,0,0,1-.49-.48V18.51A.49.49,0,0,1,15.3,18h1.4A.49.49,0,0,1,17.19,18.51Z"/><path class="cls-1" d="M14.22,18.51v1.75a.48.48,0,0,1-.49.48H12.34a.48.48,0,0,1-.49-.48V18.51a.49.49,0,0,1,.49-.48h1.39A.49.49,0,0,1,14.22,18.51Z"/><path class="cls-1" d="M14.22,25.28V27a.48.48,0,0,1-.49.48H12.34a.48.48,0,0,1-.49-.48V25.28a.49.49,0,0,1,.49-.48h1.39A.49.49,0,0,1,14.22,25.28Z"/><path class="cls-1" d="M11.26,25.28V27a.48.48,0,0,1-.49.48H9.38A.48.48,0,0,1,8.89,27V25.28a.49.49,0,0,1,.49-.48h1.39A.49.49,0,0,1,11.26,25.28Z"/><path class="cls-1" d="M11.26,18.51v1.75a.48.48,0,0,1-.49.48H9.38a.48.48,0,0,1-.49-.48V18.51A.49.49,0,0,1,9.38,18h1.39A.49.49,0,0,1,11.26,18.51Z"/><path class="cls-1" d="M8.3,18.51v1.75a.48.48,0,0,1-.49.48H6.42a.48.48,0,0,1-.49-.48V18.51A.49.49,0,0,1,6.42,18H7.81A.49.49,0,0,1,8.3,18.51Z"/><path class="cls-1" d="M8.3,25.28V27a.48.48,0,0,1-.49.48H6.42A.48.48,0,0,1,5.93,27V25.28a.49.49,0,0,1,.49-.48H7.81A.49.49,0,0,1,8.3,25.28Z"/><path class="cls-1" d="M32,11.74v1.75a.48.48,0,0,1-.49.48H30.11a.48.48,0,0,1-.49-.48V11.74a.48.48,0,0,1,.49-.48H31.5A.48.48,0,0,1,32,11.74Z"/><path class="cls-1" d="M32,8.35v1.76a.48.48,0,0,1-.49.47H30.11a.48.48,0,0,1-.49-.47V8.35a.48.48,0,0,1,.49-.47H31.5A.48.48,0,0,1,32,8.35Z"/><path class="cls-1" d="M32,5V6.72a.49.49,0,0,1-.49.48H30.11a.49.49,0,0,1-.49-.48V5a.48.48,0,0,1,.49-.48H31.5A.48.48,0,0,1,32,5Z"/><path class="cls-1" d="M5.34,21.89v1.76a.49.49,0,0,1-.49.48H3.46A.49.49,0,0,1,3,23.65V21.89a.48.48,0,0,1,.49-.47H4.85A.48.48,0,0,1,5.34,21.89Z"/><path class="cls-1" d="M26.07,21.89v1.76a.49.49,0,0,1-.49.48H24.19a.49.49,0,0,1-.49-.48V21.89a.48.48,0,0,1,.49-.47h1.39A.48.48,0,0,1,26.07,21.89Z"/><path class="cls-1" d="M20.15,21.89v1.76a.49.49,0,0,1-.49.48H18.27a.49.49,0,0,1-.49-.48V21.89a.48.48,0,0,1,.49-.47h1.39A.48.48,0,0,1,20.15,21.89Z"/><path class="cls-1" d="M14.22,21.89v1.76a.49.49,0,0,1-.49.48H12.34a.49.49,0,0,1-.49-.48V21.89a.48.48,0,0,1,.49-.47h1.39A.48.48,0,0,1,14.22,21.89Z"/><path class="cls-1" d="M8.3,21.89v1.76a.49.49,0,0,1-.49.48H6.42a.49.49,0,0,1-.49-.48V21.89a.48.48,0,0,1,.49-.47H7.81A.48.48,0,0,1,8.3,21.89Z"/><path class="cls-1" d="M8.3,15.12v1.76a.48.48,0,0,1-.49.47H6.42a.48.48,0,0,1-.49-.47V15.12a.48.48,0,0,1,.49-.47H7.81A.48.48,0,0,1,8.3,15.12Z"/><path class="cls-1" d="M11.26,15.12v1.76a.48.48,0,0,1-.49.47H9.38a.48.48,0,0,1-.49-.47V15.12a.48.48,0,0,1,.49-.47h1.39A.48.48,0,0,1,11.26,15.12Z"/><path class="cls-1" d="M14.22,15.12v1.76a.48.48,0,0,1-.49.47H12.34a.48.48,0,0,1-.49-.47V15.12a.48.48,0,0,1,.49-.47h1.39A.48.48,0,0,1,14.22,15.12Z"/><path class="cls-1" d="M17.19,15.12v1.76a.48.48,0,0,1-.49.47H15.3a.48.48,0,0,1-.49-.47V15.12a.48.48,0,0,1,.49-.47h1.4A.48.48,0,0,1,17.19,15.12Z"/><path class="cls-1" d="M20.15,15.12v1.76a.48.48,0,0,1-.49.47H18.27a.48.48,0,0,1-.49-.47V15.12a.48.48,0,0,1,.49-.47h1.39A.48.48,0,0,1,20.15,15.12Z"/><path class="cls-1" d="M23.11,15.12v1.76a.48.48,0,0,1-.49.47H21.23a.48.48,0,0,1-.49-.47V15.12a.48.48,0,0,1,.49-.47h1.39A.48.48,0,0,1,23.11,15.12Z"/><path class="cls-1" d="M26.07,15.12v1.76a.48.48,0,0,1-.49.47H24.19a.48.48,0,0,1-.49-.47V15.12a.48.48,0,0,1,.49-.47h1.39A.48.48,0,0,1,26.07,15.12Z"/><path class="cls-1" d="M29,15.12v1.76a.48.48,0,0,1-.49.47H27.15a.48.48,0,0,1-.49-.47V15.12a.48.48,0,0,1,.49-.47h1.39A.48.48,0,0,1,29,15.12Z"/><path class="cls-1" d="M29,11.74v1.75a.48.48,0,0,1-.49.48H27.15a.48.48,0,0,1-.49-.48V11.74a.48.48,0,0,1,.49-.48h1.39A.48.48,0,0,1,29,11.74Z"/><path class="cls-1" d="M29,8.35v1.76a.48.48,0,0,1-.49.47H27.15a.48.48,0,0,1-.49-.47V8.35a.48.48,0,0,1,.49-.47h1.39A.48.48,0,0,1,29,8.35Z"/><path class="cls-1" d="M23.11,21.89v1.76a.49.49,0,0,1-.49.48H21.23a.49.49,0,0,1-.49-.48V21.89a.48.48,0,0,1,.49-.47h1.39A.48.48,0,0,1,23.11,21.89Z"/><path class="cls-1" d="M17.19,21.89v1.76a.49.49,0,0,1-.49.48H15.3a.49.49,0,0,1-.49-.48V21.89a.48.48,0,0,1,.49-.47h1.4A.48.48,0,0,1,17.19,21.89Z"/><path class="cls-1" d="M11.26,21.89v1.76a.49.49,0,0,1-.49.48H9.38a.49.49,0,0,1-.49-.48V21.89a.48.48,0,0,1,.49-.47h1.39A.48.48,0,0,1,11.26,21.89Z"/><path class="cls-1" d="M5.34,8.35v1.76a.48.48,0,0,1-.49.47H3.46A.48.48,0,0,1,3,10.11V8.35a.48.48,0,0,1,.49-.47H4.85A.48.48,0,0,1,5.34,8.35Z"/><path class="cls-1" d="M5.34,11.74v1.75a.48.48,0,0,1-.49.48H3.46A.48.48,0,0,1,3,13.49V11.74a.48.48,0,0,1,.49-.48H4.85A.48.48,0,0,1,5.34,11.74Z"/><path class="cls-1" d="M5.34,15.12v1.76a.48.48,0,0,1-.49.47H3.46A.48.48,0,0,1,3,16.88V15.12a.48.48,0,0,1,.49-.47H4.85A.48.48,0,0,1,5.34,15.12Z"/><rect class="cls-2" width="32" height="32"/></g></g></svg>