<svg width="28" height="25" viewBox="0 0 28 25" fill="none" xmlns="http://www.w3.org/2000/svg">
<g clip-path="url(#clip0_2989_91695)">
<path d="M6.92707 0.758208C7.15554 1.36099 6.84929 2.03182 6.24651 2.26029L4.14165 3.04779C3.99096 3.10612 3.88888 3.25196 3.88888 3.41237V9.7221C3.88888 12.5124 6.15415 14.7777 8.94443 14.7777H9.33332H9.72221C12.5125 14.7777 14.7778 12.5124 14.7778 9.7221V3.41237C14.7778 3.25196 14.6757 3.10612 14.525 3.04779L12.425 2.26029C11.8222 2.03182 11.516 1.36099 11.7444 0.758208C11.9729 0.15543 12.6437 -0.15082 13.2465 0.0776524L15.3465 0.865152C16.4062 1.2589 17.1111 2.27487 17.1111 3.41237V9.7221C17.1111 13.5381 14.2187 16.6783 10.5097 17.0672C10.6896 20.1297 13.2271 22.5554 16.3333 22.5554C19.5562 22.5554 22.1667 19.945 22.1667 16.7221V13.0422C20.5868 12.5464 19.4444 11.0735 19.4444 9.33321C19.4444 7.1846 21.1847 5.44432 23.3333 5.44432C25.4819 5.44432 27.2222 7.1846 27.2222 9.33321C27.2222 11.0735 26.0798 12.5464 24.5 13.0422V16.7221C24.5 21.2332 20.8444 24.8888 16.3333 24.8888C11.9389 24.8888 8.35624 21.4179 8.17637 17.0721C4.45762 16.6881 1.55554 13.5429 1.55554 9.7221V3.41237C1.55554 2.27974 2.2604 1.26376 3.32013 0.865152L5.42499 0.0727913C6.02776 -0.155681 6.6986 0.150569 6.92707 0.753347V0.758208ZM23.3333 7.77765C22.9208 7.77765 22.5251 7.94154 22.2334 8.23326C21.9417 8.52499 21.7778 8.92065 21.7778 9.33321C21.7778 9.74577 21.9417 10.1414 22.2334 10.4332C22.5251 10.7249 22.9208 10.8888 23.3333 10.8888C23.7459 10.8888 24.1415 10.7249 24.4333 10.4332C24.725 10.1414 24.8889 9.74577 24.8889 9.33321C24.8889 8.92065 24.725 8.52499 24.4333 8.23326C24.1415 7.94154 23.7459 7.77765 23.3333 7.77765Z" fill="#2B2B2B"/>
</g>
<defs>
<clipPath id="clip0_2989_91695">
<rect width="28" height="24.8889" fill="white"/>
</clipPath>
</defs>
</svg>
