<?xml version="1.0" encoding="UTF-8"?>
<svg id="Layer_1" xmlns="http://www.w3.org/2000/svg" version="1.1" viewBox="0 0 16 16">
  <!-- Generator: Adobe Illustrator 29.3.1, SVG Export Plug-In . SVG Version: 2.1.0 Build 151)  -->
  <defs>
    <style>
      .st0 {
        fill: #2b2b2b;
      }
    </style>
  </defs>
  <path class="st0" d="M13.2,2.5h1.1c.6,0,1.1-.5,1.1-1.1,0-.6-.5-1.1-1.1-1.1H5.9C3.1.3.9,2.6.9,5.4c0,2.8,2.3,5.1,5.1,5.1h1.4v3.3c0,.6.5,1.1,1.1,1.1s1.1-.5,1.1-1.1V2.5h1.4v11.2c0,.6.5,1.1,1.1,1.1s1.1-.5,1.1-1.1V2.5ZM7.4,2.5v5.8h-1.4c-1.6,0-2.9-1.3-2.9-2.9s1.3-2.9,2.9-2.9h1.1s.4,0,.4,0Z"/>
  <path class="st0" d="M.9,13.9l3,1.7c.3.2.8,0,.8-.4v-3.4c0-.4-.4-.6-.8-.4l-3,1.7c-.3.2-.3.7,0,.9Z"/>
</svg>